0
SECTION
2
HEADER
9
$INSUNITS
70
4
9
$ACADVER
1
AC1014
9
$HANDSEED
5
FFFF
0
ENDSEC
0
SECTION
2
TABLES
0
TABLE
2
VPORT
5
8
100
AcDbSymbolTable
0
ENDTAB
0
TABLE
2
LTYPE
5
5
100
AcDbSymbolTable
0
LTYPE
5
14
100
AcDbSymbolTableRecord
100
AcDbLinetypeTableRecord
2
BYBLOCK
70
0
0
LTYPE
5
15
100
AcDbSymbolTableRecord
100
AcDbLinetypeTableRecord
2
BYLAYER
70
0
0
ENDTAB
0
TABLE
2
LAYER
5
2
100
AcDbSymbolTable
70
2
0
LAYER
5
50
100
AcDbSymbolTableRecord
100
AcDbLayerTableRecord
2
0
70
0
6
CONTINUOUS
0
ENDTAB
0
TABLE
2
STYLE
5
3
100
AcDbSymbolTable
70
1
0
STYLE
5
11
100
AcDbSymbolTableRecord
100
AcDbTextStyleTableRecord
2
STANDARD
70
0
0
ENDTAB
0
TABLE
2
VIEW
5
6
100
AcDbSymbolTable
70
0
0
ENDTAB
0
TABLE
2
UCS
5
7
100
AcDbSymbolTable
70
0
0
ENDTAB
0
TABLE
2
APPID
5
9
100
AcDbSymbolTable
70
2
0
APPID
5
12
100
AcDbSymbolTableRecord
100
AcDbRegAppTableRecord
2
ACAD
70
0
0
ENDTAB
0
TABLE
2
DIMSTYLE
5
A
100
AcDbSymbolTable
70
1
0
ENDTAB
0
TABLE
2
BLOCK_RECORD
5
1
100
AcDbSymbolTable
70
1
0
BLOCK_RECORD
5
1F
100
AcDbSymbolTableRecord
100
AcDbBlockTableRecord
2
*MODEL_SPACE
0
BLOCK_RECORD
5
1B
100
AcDbSymbolTableRecord
100
AcDbBlockTableRecord
2
*PAPER_SPACE
0
ENDTAB
0
ENDSEC
0
SECTION
2
BLOCKS
0
BLOCK
5
20
100
AcDbEntity
100
AcDbBlockBegin
2
*MODEL_SPACE
0
ENDBLK
5
21
100
AcDbEntity
100
AcDbBlockEnd
0
BLOCK
5
1C
100
AcDbEntity
100
AcDbBlockBegin
2
*PAPER_SPACE
0
ENDBLK
5
1D
100
AcDbEntity
100
AcDbBlockEnd
0
ENDSEC
0
SECTION
2
ENTITIES
0
LWPOLYLINE
5
100
100
AcDbEntity
8
0
100
AcDbPolyline
90
44
70
1
43
0.0
10
155.16
20
108.1131371
10
155.16
20
69.296862900000008
10
155.11313710000002
20
69.25
10
152.66
20
69.25
10
152.66
20
41.909999999999997
10
155.11313710000002
20
41.909999999999997
10
155.16
20
41.863137100000003
10
155.16
20
3.0468629000000003
10
155.11313710000002
20
3.0000000000000004
10
118.79686290000001
20
3.0000000000000004
10
118.75
20
3.0468629000000003
10
118.75
20
5.5
10
91.409999999999997
20
5.5
10
91.409999999999997
20
3.0468629000000003
10
91.363137099999989
20
3.0000000000000004
10
63.796862899999994
20
3.0000000000000004
10
63.75
20
3.0468629000000003
10
63.75
20
5.5
10
36.409999999999997
20
5.5
10
36.409999999999997
20
3.0468629000000003
10
36.363137100000003
20
3.0000000000000004
10
0.046862899999999999
20
3.0000000000000004
10
0
20
3.0468629000000025
10
0
20
41.863137100000003
10
0.046862900000000096
20
41.909999999999997
10
2.5
20
41.909999999999997
10
2.5
20
69.25
10
0.046862899999999999
20
69.25
10
0
20
69.296862900000008
10
0
20
108.1131371
10
0.046862899999999819
20
108.16000000000001
10
36.363137100000003
20
108.16000000000001
10
36.409999999999997
20
108.1131371
10
36.409999999999997
20
105.66000000000001
10
63.75
20
105.66000000000001
10
63.75
20
108.1131371
10
63.796862899999994
20
108.16000000000001
10
91.363137099999989
20
108.16000000000001
10
91.409999999999997
20
108.1131371
10
91.409999999999997
20
105.66000000000001
10
118.75
20
105.66000000000001
10
118.75
20
108.1131371
10
118.79686290000001
20
108.16000000000001
10
155.11313710000002
20
108.16000000000001
0
LWPOLYLINE
5
101
100
AcDbEntity
8
0
100
AcDbPolyline
90
44
70
1
43
0.0
10
158.16
20
69.363137099999989
10
158.2068629
20
69.409999999999997
10
160.66
20
69.409999999999997
10
160.66
20
108.1131371
10
160.7068629
20
108.16000000000001
10
194.52313710000001
20
108.16000000000001
10
194.56999999999999
20
108.1131371
10
194.56999999999999
20
105.66000000000001
10
221.91000000000003
20
105.66000000000001
10
221.91000000000003
20
108.1131371
10
221.95686290000003
20
108.16000000000001
10
249.52313709999999
20
108.16000000000001
10
249.56999999999999
20
108.1131371
10
249.56999999999999
20
105.66000000000001
10
276.91000000000003
20
105.66000000000001
10
276.91000000000003
20
108.1131371
10
276.95686289999998
20
108.16000000000001
10
310.77313710000004
20
108.16000000000001
10
310.81999999999999
20
108.1131371
10
310.81999999999999
20
69.409999999999997
10
313.27313710000004
20
69.409999999999997
10
313.31999999999999
20
69.363137099999989
10
313.31999999999999
20
41.796862899999994
10
313.27313710000004
20
41.75
10
310.81999999999999
20
41.75
10
310.81999999999999
20
3.0468629000000003
10
310.77313710000004
20
3.0000000000000004
10
276.95686289999998
20
3.0000000000000004
10
276.91000000000003
20
3.0468629000000003
10
276.91000000000003
20
5.5
10
249.56999999999999
20
5.5
10
249.56999999999999
20
3.0468629000000003
10
249.52313709999999
20
3.0000000000000004
10
221.95686290000003
20
3.0000000000000004
10
221.91000000000003
20
3.0468629000000003
10
221.91000000000003
20
5.5
10
194.56999999999999
20
5.5
10
194.56999999999999
20
3.0468629000000003
10
194.52313710000001
20
3.0000000000000004
10
160.7068629
20
3.0000000000000004
10
160.66
20
3.0468629000000025
10
160.66
20
41.75
10
158.2068629
20
41.75
10
158.16
20
41.796862899999994
0
LWPOLYLINE
5
102
100
AcDbEntity
8
0
100
AcDbPolyline
90
56
70
1
43
0.0
10
471.43313710000001
20
39.25
10
468.98000000000002
20
39.250000000000007
10
468.98000000000002
20
5.5468629000000007
10
468.93313710000001
20
5.5
10
435.23000000000002
20
5.5
10
435.23000000000002
20
3.0468629000000003
10
435.18313710000001
20
3.0000000000000004
10
407.6168629
20
3.0000000000000004
10
407.57000000000005
20
3.0468629000000003
10
407.57000000000005
20
5.5
10
380.23000000000002
20
5.5
10
380.23000000000002
20
3.0468629000000003
10
380.18313710000001
20
3.0000000000000004
10
352.61686289999994
20
3.0000000000000004
10
352.56999999999999
20
3.0468629000000003
10
352.56999999999999
20
5.5
10
318.86686289999994
20
5.5
10
318.81999999999999
20
5.546862899999998
10
318.81999999999999
20
39.25
10
316.36686289999994
20
39.25
10
316.31999999999999
20
39.296862899999994
10
316.31999999999999
20
66.863137100000003
10
316.36686289999994
20
66.909999999999997
10
318.81999999999999
20
66.909999999999997
10
318.81999999999999
20
94.25
10
316.36686289999994
20
94.25
10
316.31999999999999
20
94.296862900000008
10
316.31999999999999
20
121.8631371
10
316.36686289999994
20
121.91000000000001
10
318.81999999999999
20
121.91000000000001
10
318.81999999999999
20
155.61313710000002
10
318.86686289999994
20
155.66
10
352.56999999999999
20
155.66
10
352.56999999999999
20
158.11313710000002
10
352.61686289999994
20
158.16
10
380.18313710000001
20
158.16
10
380.23000000000002
20
158.11313710000002
10
380.23000000000002
20
155.66
10
407.57000000000005
20
155.66
10
407.57000000000005
20
158.11313710000002
10
407.6168629
20
158.16
10
435.18313710000001
20
158.16
10
435.23000000000002
20
158.11313710000002
10
435.23000000000002
20
155.66
10
468.93313710000001
20
155.66
10
468.98000000000002
20
155.61313710000002
10
468.98000000000002
20
121.91000000000001
10
471.43313710000001
20
121.91000000000001
10
471.48000000000002
20
121.8631371
10
471.48000000000002
20
94.296862900000008
10
471.43313710000001
20
94.25
10
468.98000000000002
20
94.25
10
468.98000000000002
20
66.909999999999997
10
471.43313710000001
20
66.909999999999997
10
471.48000000000002
20
66.863137100000003
10
471.48000000000002
20
39.296862899999994
0
LWPOLYLINE
5
103
100
AcDbEntity
8
0
100
AcDbPolyline
90
44
70
1
43
0.0
10
118.75
20
216.27313709999999
10
118.79686290000001
20
216.32000000000002
10
155.11313710000002
20
216.32000000000002
10
155.16
20
216.27313709999999
10
155.16
20
177.45686290000003
10
155.11313710000002
20
177.41
10
152.66
20
177.41
10
152.66
20
150.06999999999999
10
155.11313710000002
20
150.06999999999999
10
155.16
20
150.02313710000004
10
155.16
20
111.2068629
10
155.11313710000002
20
111.16
10
118.79686290000001
20
111.16
10
118.75
20
111.2068629
10
118.75
20
113.66
10
91.409999999999997
20
113.66
10
91.409999999999997
20
111.2068629
10
91.363137099999989
20
111.16
10
63.796862899999994
20
111.16
10
63.75
20
111.2068629
10
63.75
20
113.66
10
36.409999999999997
20
113.66
10
36.409999999999997
20
111.2068629
10
36.363137100000003
20
111.16
10
0.046862899999999999
20
111.16
10
0
20
111.2068629
10
0
20
150.02313710000004
10
0.046862900000000096
20
150.06999999999999
10
2.5
20
150.06999999999999
10
2.5
20
177.41
10
0.046862899999999999
20
177.41
10
0
20
177.45686290000003
10
0
20
216.27313709999999
10
0.046862899999999819
20
216.32000000000002
10
36.363137100000003
20
216.32000000000002
10
36.409999999999997
20
216.27313709999999
10
36.409999999999997
20
213.82000000000002
10
63.75
20
213.82000000000002
10
63.75
20
216.27313709999999
10
63.796862899999994
20
216.32000000000002
10
91.363137099999989
20
216.32000000000002
10
91.409999999999997
20
216.27313709999999
10
91.409999999999997
20
213.82000000000002
10
118.75
20
213.82000000000002
0
LWPOLYLINE
5
104
100
AcDbEntity
8
0
100
AcDbPolyline
90
56
70
1
43
0.0
10
380.23000000000002
20
163.66
10
380.23000000000002
20
161.20686290000003
10
380.18313710000001
20
161.16
10
352.61686289999994
20
161.16
10
352.56999999999999
20
161.20686290000003
10
352.56999999999999
20
163.66
10
318.86686289999994
20
163.66
10
318.81999999999999
20
163.70686290000003
10
318.81999999999999
20
197.41
10
316.36686289999994
20
197.41
10
316.31999999999999
20
197.45686290000003
10
316.31999999999999
20
225.02313709999999
10
316.36686289999994
20
225.07000000000002
10
318.81999999999999
20
225.07000000000002
10
318.81999999999999
20
252.41
10
316.36686289999994
20
252.41
10
316.31999999999999
20
252.45686290000006
10
316.31999999999999
20
280.02313710000004
10
316.36686289999994
20
280.06999999999999
10
318.81999999999999
20
280.06999999999999
10
318.81999999999999
20
313.77313710000004
10
318.86686289999994
20
313.81999999999999
10
352.56999999999999
20
313.81999999999999
10
352.56999999999999
20
316.27313710000004
10
352.61686289999994
20
316.31999999999999
10
380.18313710000001
20
316.31999999999999
10
380.23000000000002
20
316.27313710000004
10
380.23000000000002
20
313.81999999999999
10
407.57000000000005
20
313.81999999999999
10
407.57000000000005
20
316.27313710000004
10
407.6168629
20
316.31999999999999
10
435.18313710000001
20
316.31999999999999
10
435.23000000000002
20
316.27313710000004
10
435.23000000000002
20
313.81999999999999
10
468.93313710000001
20
313.81999999999999
10
468.98000000000002
20
313.77313710000004
10
468.98000000000002
20
280.06999999999999
10
471.43313710000001
20
280.06999999999999
10
471.48000000000002
20
280.02313710000004
10
471.48000000000002
20
252.45686290000006
10
471.43313710000001
20
252.41
10
468.98000000000002
20
252.41
10
468.98000000000002
20
225.07000000000002
10
471.43313710000001
20
225.07000000000002
10
471.48000000000002
20
225.02313709999999
10
471.48000000000002
20
197.45686290000003
10
471.43313710000001
20
197.41
10
468.98000000000002
20
197.41
10
468.98000000000002
20
163.70686290000003
10
468.93313710000001
20
163.66
10
435.23000000000002
20
163.66
10
435.23000000000002
20
161.20686290000003
10
435.18313710000001
20
161.16
10
407.6168629
20
161.16
10
407.57000000000005
20
161.20686290000003
10
407.57000000000005
20
163.66
0
CIRCLE
5
105
100
AcDbEntity
8
0
100
AcDbCircle
10
210
20
48
30
0
40
10
210
0
220
0
230
1
0
CIRCLE
5
106
100
AcDbEntity
8
0
100
AcDbCircle
10
431.32000000000005
20
111.2068629
30
0
40
15
210
0
220
0
230
1
0
CIRCLE
5
107
100
AcDbEntity
8
0
100
AcDbCircle
10
438.12769796156829
20
49.038101387373594
30
0
40
4.1256513060025073
210
0
220
0
230
1
0
LINE
5
108
100
AcDbEntity
8
0
100
AcDbLine
10
427.01426141811191
20
50.739722872921845
30
0
11
427.01426141811191
21
47.260278587391952
31
0
0
SPLINE
5
109
100
AcDbEntity
8
0
100
AcDbSpline
70
4
71
5
72
24
73
18
74
0
42
0.000000001
43
0.0000000001
44
0.0000000001
40
0
40
0
40
0
40
0
40
0
40
0
40
0.066666666666666666
40
0.13333333333333333
40
0.20000000000000001
40
0.26666666666666666
40
0.33333333333333331
40
0.39999999999999997
40
0.46666666666666662
40
0.53333333333333333
40
0.59999999999999998
40
0.66666666666666663
40
0.73333333333333328
40
0.79999999999999993
40
0.83794101966295365
40
0.83794101966295365
40
0.83794101966295365
40
0.83794101966295365
40
0.83794101966295365
40
0.83794101966295365
41
1
41
1
41
1
41
1
41
1
41
1
41
1
41
1
41
1
41
1
41
1
41
1
41
1
41
1
41
1
41
1
41
1
41
1
10
434.06444496465997
20
49.752925688747951
30
0
10
433.87901824797206
20
49.759880420246603
30
0
10
433.5149644717788
20
49.772399428518781
30
0
10
432.989282539079
20
49.787006703671956
30
0
10
432.32946941942623
20
49.798078800579184
30
0
10
431.57462695261711
20
49.79829284390766
30
0
10
430.89089040974494
20
49.78666146867927
30
0
10
430.27802715366397
20
49.767340769082054
30
0
10
429.73313827189156
20
49.747812236036957
30
0
10
429.24889200710913
20
49.740171396574752
30
0
10
428.81230082614081
20
49.761806510792738
30
0
10
428.4078145022786
20
49.832158521537472
30
0
10
428.01972134812252
20
49.969885986237863
30
0
10
427.66780165792966
20
50.170859429626375
30
0
10
427.38936020897876
20
50.384972187044042
30
0
10
427.18575488701867
20
50.569367759276403
30
0
10
427.06004229999559
20
50.6932907366797
30
0
10
427.01426141811191
20
50.739722872921845
30
0
0
SPLINE
5
110
100
AcDbEntity
8
0
100
AcDbSpline
70
4
71
5
72
24
73
18
74
0
42
0.000000001
43
0.0000000001
44
0.0000000001
40
0
40
0
40
0
40
0
40
0
40
0
40
0.066666666666666666
40
0.13333333333333333
40
0.20000000000000001
40
0.26666666666666666
40
0.33333333333333331
40
0.39999999999999997
40
0.46666666666666662
40
0.53333333333333333
40
0.59999999999999998
40
0.66666666666666663
40
0.73333333333333328
40
0.79999999999999993
40
0.83794101966295365
40
0.83794101966295365
40
0.83794101966295365
40
0.83794101966295365
40
0.83794101966295365
40
0.83794101966295365
41
1
41
1
41
1
41
1
41
1
41
1
41
1
41
1
41
1
41
1
41
1
41
1
41
1
41
1
41
1
41
1
41
1
41
1
10
434.06444496465997
20
48.247075771565846
30
0
10
433.87901824797206
20
48.240121040067194
30
0
10
433.5149644717788
20
48.227602031795016
30
0
10
432.989282539079
20
48.212994756641841
30
0
10
432.32946941942623
20
48.201922659734613
30
0
10
431.57462695261711
20
48.201708616406137
30
0
10
430.89089040974494
20
48.213339991634527
30
0
10
430.27802715366397
20
48.232660691231743
30
0
10
429.73313827189156
20
48.25218922427684
30
0
10
429.24889200710913
20
48.259830063739045
30
0
10
428.81230082614081
20
48.238194949521059
30
0
10
428.4078145022786
20
48.167842938776325
30
0
10
428.01972134812252
20
48.030115474075934
30
0
10
427.66780165792966
20
47.829142030687422
30
0
10
427.38936020897876
20
47.615029273269755
30
0
10
427.18575488701867
20
47.430633701037394
30
0
10
427.06004229999559
20
47.306710723634083
30
0
10
427.01426141811191
20
47.260278587391937
30
0
0
LINE
5
111
100
AcDbEntity
8
0
100
AcDbLine
10
419.00000624358654
20
59.00000087916851
30
0
11
410.00000610947609
21
59.00000087916851
31
0
0
LINE
5
112
100
AcDbEntity
8
0
100
AcDbLine
10
409.00000609457493
20
58.000000864267349
30
0
11
409.00000609457493
21
54.000000804662704
31
0
0
LWPOLYLINE
5
113
100
AcDbEntity
8
0
100
AcDbPolyline
90
14
70
1
43
0.0
10
408.00000607967377
20
54.000000804662704
10
423.00000630319118
20
54.000000804662704
10
423.00000630319118
20
53.000000789761543
10
421.00000627338886
20
53.000000789761543
10
421.00000627338886
20
51.000000759959221
10
423.00000630319118
20
51.000000759959221
10
423.00000630319118
20
50.00000074505806
10
421.00000627338886
20
50.00000074505806
10
421.00000627338886
20
48.000000715255737
10
423.00000630319118
20
48.000000715255737
10
423.00000630319118
20
47.000000700354576
10
408.00000607967377
20
47.000000700354576
10
407.41449162977824
20
48.000000715255737
10
407.41449162977824
20
53.051279704532128
0
LINE
5
114
100
AcDbEntity
8
0
100
AcDbLine
10
419.00000624358654
20
58.000000864267349
30
0
11
417.00000621378422
21
58.000000864267349
31
0
0
LINE
5
115
100
AcDbEntity
8
0
100
AcDbLine
10
417.00000621378422
20
58.000000864267349
30
0
11
417.00000621378422
21
56.904323154195367
31
0
0
LINE
5
116
100
AcDbEntity
8
0
100
AcDbLine
10
417.00000621378422
20
56.904323154195367
30
0
11
419.00000624358654
21
56.904323154195367
31
0
0
LINE
5
117
100
AcDbEntity
8
0
100
AcDbLine
10
419.00000624358654
20
56.000000834465027
30
0
11
417.00000621378422
21
56.000000834465027
31
0
0
LINE
5
118
100
AcDbEntity
8
0
100
AcDbLine
10
417.00000621378422
20
56.000000834465027
30
0
11
417.00000621378422
21
55.000000819563866
31
0
0
LINE
5
119
100
AcDbEntity
8
0
100
AcDbLine
10
417.00000621378422
20
55.000000819563866
30
0
11
419.00000624358654
21
55.000000819563866
31
0
0
LINE
5
120
100
AcDbEntity
8
0
100
AcDbLine
10
419.00000624358654
20
58.000000864267349
30
0
11
419.00000624358654
21
59.00000087916851
31
0
0
LINE
5
121
100
AcDbEntity
8
0
100
AcDbLine
10
419.00000624358654
20
54.000000804662704
30
0
11
419.00000624358654
21
55.000000819563866
31
0
0
LINE
5
122
100
AcDbEntity
8
0
100
AcDbLine
10
419.00000624358654
20
56.000000834465027
30
0
11
419.00000624358654
21
56.904323154195367
31
0
0
LINE
5
123
100
AcDbEntity
8
0
100
AcDbLine
10
410.00000610947609
20
59.00000087916851
30
0
11
409.00000609457493
21
58.000000864267349
31
0
0
LINE
5
124
100
AcDbEntity
8
0
100
AcDbLine
10
417.00000621378422
20
44.15398616564994
30
0
11
419.00000624358654
21
44.15398616564994
31
0
0
LINE
5
125
100
AcDbEntity
8
0
100
AcDbLine
10
419.00000624358654
20
45.058308485380287
30
0
11
417.00000621378422
21
45.058308485380287
31
0
0
LINE
5
126
100
AcDbEntity
8
0
100
AcDbLine
10
417.00000621378422
20
45.058308485380287
30
0
11
417.00000621378422
21
46.058308500281449
31
0
0
LINE
5
127
100
AcDbEntity
8
0
100
AcDbLine
10
419.00000624358654
20
42.058308440676804
30
0
11
410.00000610947609
21
42.058308440676804
31
0
0
LINE
5
128
100
AcDbEntity
8
0
100
AcDbLine
10
410.00000610947609
20
42.058308440676804
30
0
11
409.00000609457493
21
43.058308455577965
31
0
0
LINE
5
129
100
AcDbEntity
8
0
100
AcDbLine
10
419.00000624358654
20
45.058308485380287
30
0
11
419.00000624358654
21
44.15398616564994
31
0
0
LINE
5
130
100
AcDbEntity
8
0
100
AcDbLine
10
419.00000624358654
20
47.05830851518261
30
0
11
419.00000624358654
21
46.058308500281449
31
0
0
LINE
5
131
100
AcDbEntity
8
0
100
AcDbLine
10
419.00000624358654
20
43.058308455577965
30
0
11
417.00000621378422
21
43.058308455577965
31
0
0
LINE
5
132
100
AcDbEntity
8
0
100
AcDbLine
10
419.00000624358654
20
43.058308455577965
30
0
11
419.00000624358654
21
42.058308440676804
31
0
0
LINE
5
133
100
AcDbEntity
8
0
100
AcDbLine
10
409.00000609457493
20
43.058308455577965
30
0
11
409.00000609457493
21
47.05830851518261
31
0
0
LINE
5
134
100
AcDbEntity
8
0
100
AcDbLine
10
417.00000621378422
20
43.058308455577965
30
0
11
417.00000621378422
21
44.15398616564994
31
0
0
LINE
5
135
100
AcDbEntity
8
0
100
AcDbLine
10
417.00000621378422
20
46.058308500281449
30
0
11
419.00000624358654
21
46.058308500281449
31
0
0
LWPOLYLINE
5
136
100
AcDbEntity
8
0
100
AcDbPolyline
90
4
70
1
43
0.0
10
413.00000615417957
20
58.000000864267349
10
416.00000619888306
20
58.000000864267349
10
416.00000619888306
20
56.000000834465027
10
413.00000615417957
20
56.000000834465027
0
LWPOLYLINE
5
137
100
AcDbEntity
8
0
100
AcDbPolyline
90
4
70
1
43
0.0
10
413.00000615417957
20
43.000000640749931
10
416.00000619888306
20
43.000000640749931
10
416.00000619888306
20
45.000000670552254
10
413.00000615417957
20
45.000000670552254
0
LWPOLYLINE
5
138
100
AcDbEntity
8
0
100
AcDbPolyline
90
4
70
1
43
0.0
10
415.0000061839819
20
52.912258769719131
10
419.00000624358654
20
52.912258769719131
10
419.00000624358654
20
51.000000759959221
10
415.0000061839819
20
51.000000759959221
0
LWPOLYLINE
5
139
100
AcDbEntity
8
0
100
AcDbPolyline
90
4
70
1
43
0.0
10
415.0000061839819
20
49.912258725015647
10
419.00000624358654
20
49.912258725015647
10
419.00000624358654
20
48.000000715255737
10
415.0000061839819
20
48.000000715255737
0
LINE
5
140
100
AcDbEntity
8
0
100
AcDbLine
10
407.41449162977824
20
51.978035004698313
30
0
11
412.00000613927841
21
51.978035004698313
31
0
0
LINE
5
141
100
AcDbEntity
8
0
100
AcDbLine
10
412.00000613927841
20
51.978035004698313
30
0
11
412.00000613927841
21
49.000000730156898
31
0
0
LINE
5
142
100
AcDbEntity
8
0
100
AcDbLine
10
412.00000613927841
20
49.000000730156898
30
0
11
407.41449162977824
21
49.000000730156898
31
0
0
SPLINE
5
143
100
AcDbEntity
8
0
100
AcDbSpline
70
4
71
5
72
26
73
20
74
0
42
0.000000001
43
0.0000000001
44
0.0000000001
40
0
40
0
40
0
40
0
40
0
40
0
40
0.066666666666666666
40
0.13333333333333333
40
0.20000000000000001
40
0.26666666666666666
40
0.33333333333333331
40
0.39999999999999997
40
0.46666666666666662
40
0.53333333333333333
40
0.59999999999999998
40
0.66666666666666663
40
0.73333333333333328
40
0.79999999999999993
40
0.86666666666666659
40
0.93333333333333324
40
1
40
1
40
1
40
1
40
1
40
1
41
1
41
1
41
1
41
1
41
1
41
1
41
1
41
1
41
1
41
1
41
1
41
1
41
1
41
1
41
1
41
1
41
1
41
1
41
1
41
1
10
438.49324435794961
20
40.895326902168648
30
0
10
438.32354022678612
20
40.901691932448728
30
0
10
437.99069050511065
20
40.912711163139846
30
0
10
437.51109119579036
20
40.924107648287617
30
0
10
436.91013858578845
20
40.929644700915844
30
0
10
436.21850781614575
20
40.92424196062651
30
0
10
435.58074508080597
20
40.911849012480531
30
0
10
434.99134187180914
20
40.898741794962923
30
0
10
434.44620734412285
20
40.891528827426043
30
0
10
433.94354470855268
20
40.896615033971187
30
0
10
433.48533159615948
20
40.919487228466664
30
0
10
433.07589351002099
20
40.96463991435057
30
0
10
432.71865317012754
20
41.035855104725805
30
0
10
432.41329594125386
20
41.13628503564729
30
0
10
432.15245086017575
20
41.268508379635556
30
0
10
431.91833685622839
20
41.434482862783739
30
0
10
431.73539180547971
20
41.595424203348941
30
0
10
431.59243791459966
20
41.732401886465802
30
0
10
431.493464961119
20
41.831002914129272
30
0
10
431.44306081140155
20
41.882124086342543
30
0
0
CIRCLE
5
144
100
AcDbEntity
8
0
100
AcDbCircle
10
442.55649735485798
20
40.180502600794298
30
0
40
4.1256513060025073
210
0
220
0
230
1
0
LINE
5
145
100
AcDbEntity
8
0
100
AcDbLine
10
431.44306081140155
20
41.882124086342543
30
0
11
431.44306081140155
21
38.402679800812656
31
0
0
SPLINE
5
146
100
AcDbEntity
8
0
100
AcDbSpline
70
4
71
5
72
26
73
20
74
0
42
0.000000001
43
0.0000000001
44
0.0000000001
40
0
40
0
40
0
40
0
40
0
40
0
40
0.066666666666666666
40
0.13333333333333333
40
0.20000000000000001
40
0.26666666666666666
40
0.33333333333333331
40
0.39999999999999997
40
0.46666666666666662
40
0.53333333333333333
40
0.59999999999999998
40
0.66666666666666663
40
0.73333333333333328
40
0.79999999999999993
40
0.86666666666666659
40
0.93333333333333324
40
1
40
1
40
1
40
1
40
1
40
1
41
1
41
1
41
1
41
1
41
1
41
1
41
1
41
1
41
1
41
1
41
1
41
1
41
1
41
1
41
1
41
1
41
1
41
1
41
1
41
1
10
438.49324435794961
20
39.389476984986551
30
0
10
438.32354022678612
20
39.383111954706472
30
0
10
437.99069050511065
20
39.372092724014664
30
0
10
437.51109119579036
20
39.360696238863781
30
0
10
436.91013858578845
20
39.355159186231766
30
0
10
436.21850781614575
20
39.36056192651867
30
0
10
435.58074508080597
20
39.372954874665609
30
0
10
434.99134187180914
20
39.386062092186769
30
0
10
434.44620734412285
20
39.393275059728062
30
0
10
433.94354470855268
20
39.388188853186236
30
0
10
433.48533159615948
20
39.365316658692237
30
0
10
433.07589351002099
20
39.320163972807826
30
0
10
432.71865317012754
20
39.248948782430865
30
0
10
432.41329594125386
20
39.148518851507674
30
0
10
432.15245086017575
20
39.016295507518556
30
0
10
431.91833685622839
20
38.850321024370466
30
0
10
431.73539180547971
20
38.689379683805882
30
0
10
431.59243791459966
20
38.552402000689348
30
0
10
431.493464961119
20
38.453800973025942
30
0
10
431.44306081140155
20
38.402679800812656
30
0
0
SPLINE
5
147
100
AcDbEntity
8
0
100
AcDbSpline
70
4
71
5
72
74
73
68
74
0
42
0.000000001
43
0.0000000001
44
0.0000000001
40
0.96640708889357896
40
0.96640708889357896
40
0.96640708889357896
40
0.96640708889357896
40
0.96640708889357896
40
0.96640708889357896
40
0.96923076923076756
40
0.98461538461538289
40
1
40
1
40
1
40
1
40
1
40
1.0153846153846153
40
1.0307692307692307
40
1.0461538461538462
40
1.0615384615384615
40
1.0769230769230769
40
1.0923076923076924
40
1.1076923076923078
40
1.1230769230769231
40
1.1384615384615384
40
1.1538461538461537
40
1.1692307692307693
40
1.1846153846153846
40
1.2
40
1.2153846153846155
40
1.2307692307692308
40
1.2461538461538462
40
1.2615384615384615
40
1.2769230769230768
40
1.2923076923076924
40
1.3076923076923077
40
1.323076923076923
40
1.3384615384615386
40
1.3538461538461539
40
1.3692307692307693
40
1.3846153846153846
40
1.3999999999999999
40
1.4153846153846155
40
1.4307692307692308
40
1.4461538461538461
40
1.4615384615384617
40
1.476923076923077
40
1.4923076923076923
40
1.5076923076923077
40
1.523076923076923
40
1.5384615384615383
40
1.5538461538461537
40
1.569230769230769
40
1.5846153846153843
40
1.5999999999999996
40
1.615384615384615
40
1.6307692307692303
40
1.6461538461538456
40
1.661538461538461
40
1.6769230769230763
40
1.6923076923076916
40
1.707692307692307
40
1.7230769230769223
40
1.7384615384615376
40
1.7538461538461529
40
1.7692307692307683
40
1.7846153846153836
40
1.7999999999999989
40
1.8153846153846143
40
1.8307692307692296
40
1.8461538461538449
40
1.8508608243693918
40
1.8508608243693918
40
1.8508608243693918
40
1.8508608243693918
40
1.8508608243693918
40
1.8508608243693918
41
1
41
1
41
1
41
1
41
1
41
1
41
1
41
1
41
1
41
1
41
1
41
1
41
1
41
1
41
1
41
1
41
1
41
1
41
1
41
1
41
1
41
1
41
1
41
1
41
1
41
1
41
1
41
1
41
1
41
1
41
1
41
1
41
1
41
1
41
1
41
1
41
1
41
1
41
1
41
1
41
1
41
1
41
1
41
1
41
1
41
1
41
1
41
1
41
1
41
1
41
1
41
1
41
1
41
1
41
1
41
1
41
1
41
1
41
1
41
1
41
1
41
1
41
1
41
1
41
1
41
1
41
1
41
1
10
431.42073480169893
20
49.793705515257649
30
0
10
431.3955616261303
20
49.875221640470428
30
0
10
431.23414167636957
20
50.403421270109874
30
0
10
430.94654332270625
20
51.407593328659203
30
0
10
430.67075106165532
20
52.45839934097706
30
0
10
430.3937110693339
20
53.534412658078843
30
0
10
430.13265909760042
20
54.514944573110398
30
0
10
430
20
55
30
0
10
429.86734090239952
20
55.48505542688951
30
0
10
429.59775648373125
20
56.444745219416113
30
0
10
429.17873072678708
20
57.829307840005612
30
0
10
428.59468385390892
20
59.454328006730897
30
0
10
427.86182763986812
20
60.845334582046384
30
0
10
427.16535427208049
20
61.428006354864344
30
0
10
426.52044598262756
20
61.211667695009019
30
0
10
425.87972038398811
20
60.516066805882915
30
0
10
425.14718403078734
20
59.894308398662794
30
0
10
424.24486460306645
20
59.844690360000158
30
0
10
423.17307413769322
20
60.548681422069961
30
0
10
421.99005139813772
20
61.922248658980422
30
0
10
420.77625277667983
20
63.724998724943759
30
0
10
419.60650755891498
20
65.643407839952758
30
0
10
418.51374258105955
20
67.395071883840004
30
0
10
417.47317368623442
20
68.790051439846167
30
0
10
416.42715121450266
20
69.710698488812696
30
0
10
415.30195497412433
20
70.108341945595114
30
0
10
414.02701287394439
20
69.992990009898918
30
0
10
412.55500736425529
20
69.427127025725127
30
0
10
410.86744677940771
20
68.510514340894488
30
0
10
408.97593933818195
20
67.363561289417561
30
0
10
406.92517917791145
20
66.111081398016282
30
0
10
404.79485894305293
20
64.866116414084203
30
0
10
402.70307006011001
20
63.713226244465879
30
0
10
400.8063633598926
20
62.693404086005287
30
0
10
399.26679175196369
20
61.807563754663015
30
0
10
398.22075421307522
20
61.018333089217982
30
0
10
397.74846553136285
20
60.252920866598785
30
0
10
397.83995491088001
20
59.404321058827435
30
0
10
398.37153764056126
20
58.336523985603328
30
0
10
399.16421632104073
20
56.91998236086831
30
0
10
400.03376101781566
20
55.06395008396786
30
0
10
400.84446616856491
20
52.750494713576906
30
0
10
401.5599762792221
20
50.066738560116434
30
0
10
402.21756596076256
20
47.173429792283713
30
0
10
402.90400385136132
20
44.275014679731527
30
0
10
403.73067882539522
20
41.588914386292572
30
0
10
404.80965580436305
20
39.315910233422628
30
0
10
406.22803496273309
20
37.608336396375776
30
0
10
408.02607577596052
20
36.543133859243696
30
0
10
410.16590344149733
20
36.082649292057525
30
0
10
412.54127525488059
20
36.088781247393477
30
0
10
415.01172892473176
20
36.368752489212909
30
0
10
417.42880134218575
20
36.710658561780861
30
0
10
419.6664309778962
20
36.924226381052485
30
0
10
421.64744143992351
20
36.87697169129693
30
0
10
423.376924123572
20
36.538120597849336
30
0
10
424.95703510377604
20
36.001867304237898
30
0
10
426.53031729614111
20
35.431038095619613
30
0
10
428.2331544550064
20
35.012306850674733
30
0
10
430.14667403372789
20
34.908006545816676
30
0
10
432.24540449568912
20
35.20691803779912
30
0
10
434.35616209612976
20
35.882477122542127
30
0
10
436.23158389914181
20
36.836964431963331
30
0
10
437.42222596908744
20
37.785701558262176
30
0
10
437.95813516864285
20
38.525848612498812
30
0
10
438.13233124546565
20
39.031142696720494
30
0
10
438.16884945701503
20
39.312829837269149
30
0
10
438.17403119025425
20
39.378569692841808
30
0
0
SPLINE
5
148
100
AcDbEntity
8
0
100
AcDbSpline
70
4
71
5
72
18
73
12
74
0
42
0.000000001
43
0.0000000001
44
0.0000000001
40
1.8737030384086419
40
1.8737030384086419
40
1.8737030384086419
40
1.8737030384086419
40
1.8737030384086419
40
1.8737030384086419
40
1.8769230769230756
40
1.8923076923076909
40
1.9076923076923062
40
1.9230769230769216
40
1.9384615384615369
40
1.9538461538461522
40
1.9549012788795341
40
1.9549012788795341
40
1.9549012788795341
40
1.9549012788795341
40
1.9549012788795341
40
1.9549012788795341
41
1
41
1
41
1
41
1
41
1
41
1
41
1
41
1
41
1
41
1
41
1
41
1
10
437.57719320533249
20
40.920540819342492
30
0
10
437.54273221072299
20
40.963045799491823
30
0
10
437.33779211396609
20
41.208574640488195
30
0
10
436.90409138143877
20
41.657212548562228
30
0
10
436.15234863581293
20
42.319772267288648
30
0
10
435.06889588094936
20
43.255601971005717
30
0
10
433.85854116219326
20
44.560476080236199
30
0
10
433.01672775646358
20
45.835771928155857
30
0
10
432.47112321906366
20
46.937922027035981
30
0
10
432.1372234824662
20
47.743497755687585
30
0
10
431.97254787236318
20
48.175607952264208
30
0
10
431.96201060322505
20
48.203406947673813
30
0
0
CIRCLE
5
149
100
AcDbEntity
8
0
100
AcDbCircle
10
342.82404682523736
20
63.315835240605196
30
0
40
4.728958627264424
210
0
220
0
230
1
0
CIRCLE
5
150
100
AcDbEntity
8
0
100
AcDbCircle
10
336.36727877958378
20
49.966573518833393
30
0
40
2.056809291963706
210
0
220
0
230
1
0
ARC
5
151
100
AcDbEntity
8
0
100
AcDbCircle
10
350
20
85
30
0
40
15.00000000000002
210
0
220
0
230
1
100
AcDbArc
50
-144.93784056204595
51
3.3969657676957858
0
ARC
5
152
100
AcDbEntity
8
0
100
AcDbCircle
10
375.00000146831496
20
94.999998127111894
30
0
40
13.547757075144276
210
0
220
0
230
1
100
AcDbArc
50
239.27567045475928
51
281.09241001188809
0
SPLINE
5
153
100
AcDbEntity
8
0
100
AcDbSpline
70
4
71
5
72
16
73
10
74
0
42
0.000000001
43
0.0000000001
44
0.0000000001
40
0
40
0
40
0
40
0
40
0
40
0
40
0.20000000000000001
40
0.40000000000000002
40
0.60000000000000009
40
0.80000000000000004
40
1
40
1
40
1
40
1
40
1
40
1
41
1
41
1
41
1
41
1
41
1
41
1
41
1
41
1
41
1
41
1
10
364.46561157511093
20
88.650156820436564
30
0
10
364.61012087655763
20
88.438305208770487
30
0
10
364.89913947945331
20
88.014601985440265
30
0
10
365.33266738380519
20
87.379047150451342
30
0
10
365.91070458962133
20
86.531640703810609
30
0
10
366.63325109690612
20
85.472382645521634
30
0
10
367.2112883027358
20
84.624976198894629
30
0
10
367.64481620710592
20
83.989421363924848
30
0
10
367.93383481001729
20
83.565718140611537
30
0
10
368.07834411147263
20
83.353866528954853
30
0
0
ARC
5
154
100
AcDbEntity
8
0
100
AcDbCircle
10
340.13291054525729
20
66.625817947644222
30
0
40
5.0000000000000133
210
0
220
-0
230
1
100
AcDbArc
50
74.999999999999517
51
255.00000000000074
0
ARC
5
155
100
AcDbEntity
8
0
100
AcDbCircle
10
342.72110099628259
20
76.285076210534882
30
0
40
4.9999999999999796
210
0
220
-0
230
1
100
AcDbArc
50
74.999999999999417
51
254.99999999999937
0
ARC
5
156
100
AcDbEntity
8
0
100
AcDbCircle
10
345.30929144730777
20
85.944334473425528
30
0
40
5.0000000000000133
210
0
220
-0
230
1
100
AcDbArc
50
74.999999999999517
51
255.00000000000074
0
ARC
5
157
100
AcDbEntity
8
0
100
AcDbCircle
10
347.89748189833296
20
95.603592736316187
30
0
40
4.9999999999999787
210
0
220
-0
230
1
100
AcDbArc
50
75.000000000000085
51
255.00000000000068
0
ARC
5
158
100
AcDbEntity
8
0
100
AcDbCircle
10
350.48567234935808
20
105.26285099920683
30
0
40
4.9999999999999964
210
0
220
-0
230
1
100
AcDbArc
50
74.99999999999946
51
255.00000000000068
0
ARC
5
159
100
AcDbEntity
8
0
100
AcDbCircle
10
334.95652964320698
20
47.307301421862924
30
0
40
4.9999999999999885
210
0
220
-0
230
1
100
AcDbArc
50
74.999999999999446
51
255.00000000000011
0
ARC
5
160
100
AcDbEntity
8
0
100
AcDbCircle
10
337.5447200942321
20
56.966559684753548
30
0
40
5.0000000000000133
210
0
220
-0
230
1
100
AcDbArc
50
74.999999999999517
51
255.00000000000122
0
SPLINE
5
161
100
AcDbEntity
8
0
100
AcDbSpline
70
4
71
5
72
31
73
25
74
0
42
0.000000001
43
0.0000000001
44
0.0000000001
40
0
40
0
40
0
40
0
40
0
40
0
40
0.050000000000000003
40
0.10000000000000001
40
0.15000000000000002
40
0.20000000000000001
40
0.25
40
0.29999999999999999
40
0.34999999999999998
40
0.39999999999999997
40
0.44999999999999996
40
0.49999999999999994
40
0.54999999999999993
40
0.59999999999999998
40
0.65000000000000002
40
0.70000000000000007
40
0.75000000000000011
40
0.80000000000000016
40
0.8500000000000002
40
0.90000000000000024
40
0.95000000000000029
40
1
40
1
40
1
40
1
40
1
40
1
41
1
41
1
41
1
41
1
41
1
41
1
41
1
41
1
41
1
41
1
41
1
41
1
41
1
41
1
41
1
41
1
41
1
41
1
41
1
41
1
41
1
41
1
41
1
41
1
41
1
10
373.08089690627298
20
89.855124705366038
30
0
10
372.82323157721322
20
89.662676088321334
30
0
10
372.3260170829243
20
89.335828096435833
30
0
10
371.63453162990885
20
89.019691493815685
30
0
10
370.82177342431783
20
88.94797545685536
30
0
10
369.97776160708486
20
89.435810987196533
30
0
10
369.27264006697021
20
90.471736966251029
30
0
10
368.63241149959669
20
91.981139273827353
30
0
10
367.95133668723179
20
93.849379753340827
30
0
10
367.11437758517269
20
95.939483116595525
30
0
10
366.01473042330053
20
98.104853077764233
30
0
10
364.57474893094707
20
100.20402108872263
30
0
10
362.76337226390729
20
102.11327510687826
30
0
10
360.62271215777741
20
103.74322370921021
30
0
10
358.26844193216823
20
105.04437141398492
30
0
10
355.85393964077105
20
105.99758409248028
30
0
10
353.54374135074568
20
106.60907110651988
30
0
10
351.4846657110615
20
106.90431230836853
30
0
10
349.77540781044593
20
106.92331831430528
30
0
10
348.44129867557109
20
106.71564122229931
30
0
10
347.39144811704813
20
106.33681244927584
30
0
10
346.65033128503347
20
105.93912185939135
30
0
10
346.08175537089085
20
105.60550577821763
30
0
10
345.68699639682245
20
105.36961429397564
30
0
10
345.48569352783147
20
105.24829818899761
30
0
0
ARC
5
162
100
AcDbEntity
8
0
100
AcDbCircle
10
353.51970480407101
20
85.208921944264631
30
0
40
11.474100074222729
210
0
220
-0
230
1
100
AcDbArc
50
3.3969657676957858
51
143.14311475571401
0
ARC
5
163
100
AcDbEntity
8
0
100
AcDbCircle
10
353.51970480407101
20
85.208921944264631
30
0
40
11.474100074222767
210
0
220
0
230
1
100
AcDbArc
50
152.25358304500492
51
183.39696576769569
0
ARC
5
164
100
AcDbEntity
8
0
100
AcDbCircle
10
350
20
85
30
0
40
7.9482001484454488
210
0
220
0
230
1
100
AcDbArc
50
-227.97639111427134
51
126.76959656667331
0
ARC
5
165
100
AcDbEntity
8
0
100
AcDbCircle
10
342.82404682523736
20
63.315835240605196
30
0
40
9.8067508634165801
210
0
220
0
230
1
100
AcDbArc
50
100.410214324541
51
110.22637964058575
0
ARC
5
166
100
AcDbEntity
8
0
100
AcDbCircle
10
342.82404682523736
20
63.315835240605196
30
0
40
9.8067508634165499
210
0
220
0
230
1
100
AcDbArc
50
-160.37480738629978
51
42.967868337190303
0
ARC
5
167
100
AcDbEntity
8
0
100
AcDbCircle
10
336.36727877958378
20
49.966573518833393
30
0
40
5.1513399983962511
210
0
220
0
230
1
100
AcDbArc
50
-187.9642082367248
51
125.21813309336761
0
SPLINE
5
168
100
AcDbEntity
8
0
100
AcDbSpline
70
4
71
5
72
21
73
15
74
0
42
0.000000001
43
0.0000000001
44
0.0000000001
40
0
40
0
40
0
40
0
40
0
40
0
40
0.10000000000000001
40
0.20000000000000001
40
0.30000000000000004
40
0.40000000000000002
40
0.5
40
0.59999999999999998
40
0.69999999999999996
40
0.79999999999999993
40
0.89999999999999991
40
1
40
1
40
1
40
1
40
1
40
1
41
1
41
1
41
1
41
1
41
1
41
1
41
1
41
1
41
1
41
1
41
1
41
1
41
1
41
1
41
1
10
337.67365729861103
20
44.983634732925907
30
0
10
337.83210557701659
20
44.901147264404855
30
0
10
338.14549129589074
20
44.724490759420341
30
0
10
338.60503695689033
20
44.424459955550986
30
0
10
339.19635558173292
20
43.953185236689308
30
0
10
339.89761838354406
20
43.238035948641041
30
0
10
340.55837270189664
20
42.38810328173534
30
0
10
341.17662066631033
20
41.396739746375879
30
0
10
341.75338401718926
20
40.267344967039477
30
0
10
342.29202618928343
20
39.01111005889571
30
0
10
342.79630132939849
20
37.640526148484554
30
0
10
343.17485873543751
20
36.461333644544723
30
0
10
343.44574758595394
20
35.533587356579666
30
0
10
343.62064453998045
20
34.896138888349029
30
0
10
343.70666903011772
20
34.572676640243209
30
0
0
SPLINE
5
169
100
AcDbEntity
8
0
100
AcDbSpline
70
4
71
5
72
26
73
20
74
0
42
0.000000001
43
0.0000000001
44
0.0000000001
40
0
40
0
40
0
40
0
40
0
40
0
40
0.066666666666666666
40
0.13333333333333333
40
0.20000000000000001
40
0.26666666666666666
40
0.33333333333333331
40
0.39999999999999997
40
0.46666666666666662
40
0.53333333333333333
40
0.59999999999999998
40
0.66666666666666663
40
0.73333333333333328
40
0.79999999999999993
40
0.86666666666666659
40
0.93333333333333324
40
1
40
1
40
1
40
1
40
1
40
1
41
1
41
1
41
1
41
1
41
1
41
1
41
1
41
1
41
1
41
1
41
1
41
1
41
1
41
1
41
1
41
1
41
1
41
1
41
1
41
1
10
333.66243441769439
20
42.477672290417594
30
0
10
333.81455777886072
20
42.366322795551234
30
0
10
334.09788682858994
20
42.142057481006887
30
0
10
334.46012622126818
20
41.800960634712318
30
0
10
334.81670131757903
20
41.336697935075733
30
0
10
335.04890846866272
20
40.73985558681035
30
0
10
335.06902918011804
20
40.124992169165083
30
0
10
334.887458105522
20
39.489679227441229
30
0
10
334.5307749391157
20
38.830359659892736
30
0
10
334.03710338236289
20
38.142746300691314
30
0
10
333.44937431906646
20
37.422385505657722
30
0
10
332.80992373856463
20
36.66525793383385
30
0
10
332.1550720768272
20
35.868453740466563
30
0
10
331.50943717894557
20
35.031045098741352
30
0
10
330.88815162185915
20
34.15341536619573
30
0
10
330.29939660856007
20
33.236610216388982
30
0
10
329.85710176509423
20
32.472795094813456
30
0
10
329.54178103025646
20
31.883284260428958
30
0
10
329.3388032123533
20
31.482930901754898
30
0
10
329.23912332930689
20
31.280917674615978
30
0
0
ARC
5
170
100
AcDbEntity
8
0
100
AcDbCircle
10
341.2635798807417
20
33.76546712635384
30
0
40
2.5729888828194554
210
0
220
-0
230
1
100
AcDbArc
50
18.283826979669154
51
206.01305350472228
0
ARC
5
171
100
AcDbEntity
8
0
100
AcDbCircle
10
336.76659188406398
20
31.570871136153926
30
0
40
2.4309248456999617
210
0
220
-0
230
1
100
AcDbArc
50
26.013053504722194
51
199.74683660542598
0
ARC
5
172
100
AcDbEntity
8
0
100
AcDbCircle
10
331.73193049478181
20
29.763556791283399
30
0
40
2.9182994388017924
210
0
220
-0
230
1
100
AcDbArc
50
19.74683660542626
51
148.67130713219547
0
SPLINE
5
173
100
AcDbEntity
8
0
100
AcDbSpline
70
4
71
5
72
21
73
15
74
0
42
0.000000001
43
0.0000000001
44
0.0000000001
40
0
40
0
40
0
40
0
40
0
40
0
40
0.10000000000000001
40
0.20000000000000001
40
0.30000000000000004
40
0.40000000000000002
40
0.5
40
0.59999999999999998
40
0.69999999999999996
40
0.79999999999999993
40
0.89999999999999991
40
1
40
1
40
1
40
1
40
1
40
1
41
1
41
1
41
1
41
1
41
1
41
1
41
1
41
1
41
1
41
1
41
1
41
1
41
1
41
1
41
1
10
377.29633352636421
20
84.670936685896478
30
0
10
377.34037179419266
20
84.442444941831866
30
0
10
377.42086427175479
20
83.990381207618242
30
0
10
377.51885224083372
20
83.327043942341533
30
0
10
377.60324044859669
20
82.472604535763338
30
0
10
377.62620464906917
20
81.458086421257363
30
0
10
377.55860886399597
20
80.502314275865558
30
0
10
377.3919501441477
20
79.610803935143451
30
0
10
377.11976481235013
20
78.787748365472211
30
0
10
376.74338148280412
20
78.0322856990812
30
0
10
376.26950087229045
20
77.340069202674059
30
0
10
375.8182052881632
20
76.833126135189573
30
0
10
375.44162022367436
20
76.477642858206423
30
0
10
375.17389714774032
20
76.25146542462069
30
0
10
375.03586909194757
20
76.141079514425201
30
0
0
ARC
5
174
100
AcDbEntity
8
0
100
AcDbCircle
10
383.62193760850585
20
73.827050616673347
30
0
40
2.1946051495150409
210
0
220
-0
230
1
100
AcDbArc
50
0.00062380713075822715
51
180
0
ARC
5
175
100
AcDbEntity
8
0
100
AcDbCircle
10
377.81270376924977
20
73.827050616673347
30
0
40
3.6146286897410107
210
0
220
0
230
1
100
AcDbArc
50
0
51
140.19442890773445
0
SPLINE
5
176
100
AcDbEntity
8
0
100
AcDbSpline
70
4
71
5
72
51
73
45
74
0
42
0.000000001
43
0.0000000001
44
0.0000000001
40
0
40
0
40
0
40
0
40
0
40
0
40
0.025000000000000001
40
0.050000000000000003
40
0.075000000000000011
40
0.10000000000000001
40
0.125
40
0.14999999999999999
40
0.17499999999999999
40
0.19999999999999998
40
0.22499999999999998
40
0.24999999999999997
40
0.27499999999999997
40
0.29999999999999999
40
0.32500000000000001
40
0.35000000000000003
40
0.37500000000000006
40
0.40000000000000008
40
0.4250000000000001
40
0.45000000000000012
40
0.47500000000000014
40
0.50000000000000011
40
0.52500000000000013
40
0.55000000000000016
40
0.57500000000000018
40
0.6000000000000002
40
0.62500000000000022
40
0.65000000000000024
40
0.67500000000000027
40
0.70000000000000029
40
0.72500000000000031
40
0.75000000000000033
40
0.77500000000000036
40
0.80000000000000038
40
0.8250000000000004
40
0.85000000000000042
40
0.87500000000000044
40
0.90000000000000047
40
0.92500000000000049
40
0.95000000000000051
40
0.97500000000000053
40
1
40
1
40
1
40
1
40
1
40
1
41
1
41
1
41
1
41
1
41
1
41
1
41
1
41
1
41
1
41
1
41
1
41
1
41
1
41
1
41
1
41
1
41
1
41
1
41
1
41
1
41
1
41
1
41
1
41
1
41
1
41
1
41
1
41
1
41
1
41
1
41
1
41
1
41
1
41
1
41
1
41
1
41
1
41
1
41
1
41
1
41
1
41
1
41
1
41
1
41
1
10
381.56669623985829
20
85.213030606342329
30
0
10
381.5959587912231
20
85.287958458291726
30
0
10
381.6534134332743
20
85.43026682109317
30
0
10
381.73638805456744
20
85.621121528283979
30
0
10
381.84114231508892
20
85.868933391921942
30
0
10
381.95914708012515
20
86.347902632258183
30
0
10
382.04839763539644
20
87.143186089489888
30
0
10
382.07448799765018
20
88.270810565672676
30
0
10
381.99544379035621
20
89.658843578153252
30
0
10
381.77108515425755
20
91.176720158409537
30
0
10
381.37306709153097
20
92.66962746441439
30
0
10
380.79458972359356
20
93.990406169957822
30
0
10
380.06055123788707
20
95.032906684427289
30
0
10
379.23715394554677
20
95.76392332988847
30
0
10
378.44331020904923
20
96.258636455689683
30
0
10
377.8173262083339
20
96.657032897116096
30
0
10
377.47991045285369
20
97.115126233069958
30
0
10
377.50153889806302
20
97.761367517667111
30
0
10
377.8606181359425
20
98.643375239225364
30
0
10
378.42839180838274
20
99.702489459069525
30
0
10
379.02279226561058
20
100.819227131752
30
0
10
379.44769174016119
20
101.84412774230623
30
0
10
379.54035428788131
20
102.63596005183027
30
0
10
379.20966861773866
20
103.09277365234676
30
0
10
378.49317872518657
20
103.19619714762862
30
0
10
377.53977598241045
20
103.00433649686036
30
0
10
376.54591181417561
20
102.61258976276871
30
0
10
375.70427987990604
20
102.12325214727281
30
0
10
375.15119664981592
20
101.61381571977537
30
0
10
374.90446895586564
20
101.09993052226883
30
0
10
374.89444910567948
20
100.55328346313523
30
0
10
375.01158470083197
20
99.929230224586433
30
0
10
375.15035611669163
20
99.192437000389646
30
0
10
375.24787108425761
20
98.339034858439305
30
0
10
375.27115127953317
20
97.386105824218163
30
0
10
375.21070516692367
20
96.365214889052567
30
0
10
375.07156264841979
20
95.314219814426593
30
0
10
374.8659388987727
20
94.270374706262146
30
0
10
374.60405210774445
20
93.261569104387334
30
0
10
374.29244859826417
20
92.305750980782321
30
0
10
373.93529588680678
20
91.413645495690758
30
0
10
373.61483482840976
20
90.755034095667469
30
0
10
373.35531557155718
20
90.292768114984412
30
0
10
373.17378874941812
20
89.998660793670808
30
0
10
373.08089690627298
20
89.855124705366038
30
0
0
SPLINE
5
177
100
AcDbEntity
8
0
100
AcDbSpline
70
4
71
5
72
16
73
10
74
0
42
0.000000001
43
0.0000000001
44
0.0000000001
40
0
40
0
40
0
40
0
40
0
40
0
40
0.20000000000000001
40
0.40000000000000002
40
0.60000000000000009
40
0.80000000000000004
40
1
40
1
40
1
40
1
40
1
40
1
41
1
41
1
41
1
41
1
41
1
41
1
41
1
41
1
41
1
41
1
10
377.54519644301558
20
81.693471646083466
30
0
10
377.54765108873607
20
81.693656464021672
30
0
10
377.55255992690871
20
81.694027156842424
30
0
10
377.55992182493543
20
81.694586365573713
30
0
10
377.56973478159324
20
81.695338756723118
30
0
10
377.58199376116414
20
81.69629607265982
30
0
10
377.59179153414357
20
81.697083869351772
30
0
10
377.59913191146995
20
81.697693260383687
30
0
10
377.60402139636187
20
81.698109081473916
30
0
10
377.60646511288689
20
81.698319384271656
30
0
0
SPLINE
5
178
100
AcDbEntity
8
0
100
AcDbSpline
70
4
71
5
72
26
73
20
74
0
42
0.000000001
43
0.0000000001
44
0.0000000001
40
0
40
0
40
0
40
0
40
0
40
0
40
0.066666666666666666
40
0.13333333333333333
40
0.20000000000000001
40
0.26666666666666666
40
0.33333333333333331
40
0.39999999999999997
40
0.46666666666666662
40
0.53333333333333333
40
0.59999999999999998
40
0.66666666666666663
40
0.73333333333333328
40
0.79999999999999993
40
0.86666666666666659
40
0.93333333333333324
40
1
40
1
40
1
40
1
40
1
40
1
41
1
41
1
41
1
41
1
41
1
41
1
41
1
41
1
41
1
41
1
41
1
41
1
41
1
41
1
41
1
41
1
41
1
41
1
41
1
41
1
10
379.17387183702596
20
86.348768139527934
30
0
10
379.3830997608506
20
86.264819250026093
30
0
10
379.79751897424086
20
86.092527110354752
30
0
10
380.40703791723047
20
85.820905868448634
30
0
10
381.19533391158228
20
85.432186117894304
30
0
10
382.137605513111
20
84.900126686686207
30
0
10
383.03129401195378
20
84.31822447463432
30
0
10
383.86683969664068
20
83.680701352198739
30
0
10
384.6296637069571
20
82.979487052075086
30
0
10
385.29912073238501
20
82.204020035625661
30
0
10
385.85224688052853
20
81.344488783835445
30
0
10
386.26800139955969
20
80.395537070217586
30
0
10
386.53146000842685
20
79.359904435195531
30
0
10
386.6392472206262
20
78.253244250312534
30
0
10
386.60346023368731
20
77.107237661505238
30
0
10
386.44388501152866
20
75.960415439444461
30
0
10
386.23452721231297
20
75.072662587925862
30
0
10
386.03943633405805
20
74.43675791923863
30
0
10
385.89348853091485
20
74.027805037445347
30
0
10
385.81654275789083
20
73.827074510413198
30
0
0
CIRCLE
5
179
100
AcDbEntity
8
0
100
AcDbCircle
10
378.00000563263893
20
89.000001326203346
30
0
40
1.0000000149011612
210
0
220
0
230
1
0
ARC
5
180
100
AcDbEntity
8
0
100
AcDbCircle
10
332.02280462199656
20
37.222795739386541
30
0
40
5.5047355461925997
210
0
220
-0
230
1
100
AcDbArc
50
72.671002029038448
51
160.71150837122858
0
ARC
5
181
100
AcDbEntity
8
0
100
AcDbCircle
10
353.07386280038327
20
114.92210926209748
30
0
40
4.9999999999999849
210
0
220
0
230
1
100
AcDbArc
50
156.51480754281701
51
255.00000000000068
0
ARC
5
182
100
AcDbEntity
8
0
100
AcDbCircle
10
350.48567234935808
20
105.26285099920683
30
0
40
7.4714117564237128
210
0
220
0
230
1
100
AcDbArc
50
122.99329503779572
51
207.00670496220462
0
ARC
5
183
100
AcDbEntity
8
0
100
AcDbCircle
10
347.89748189833296
20
95.603592736316187
30
0
40
7.4714117564237368
210
0
220
0
230
1
100
AcDbArc
50
122.99329503779614
51
207.00670496220451
0
ARC
5
184
100
AcDbEntity
8
0
100
AcDbCircle
10
345.30929144730777
20
85.944334473425528
30
0
40
7.4714117564237279
210
0
220
0
230
1
100
AcDbArc
50
122.99329503779563
51
207.00670496220451
0
ARC
5
185
100
AcDbEntity
8
0
100
AcDbCircle
10
342.72110099628259
20
76.285076210534882
30
0
40
7.4714117564237128
210
0
220
0
230
1
100
AcDbArc
50
122.99329503779572
51
207.0067049622036
0
ARC
5
186
100
AcDbEntity
8
0
100
AcDbCircle
10
340.13291054525729
20
66.625817947644222
30
0
40
7.4714117564237883
210
0
220
0
230
1
100
AcDbArc
50
122.99329503779535
51
207.00670496220454
0
ARC
5
187
100
AcDbEntity
8
0
100
AcDbCircle
10
337.5447200942321
20
56.966559684753548
30
0
40
7.4714117564237279
210
0
220
0
230
1
100
AcDbArc
50
122.9932950377956
51
207.00670496220462
0
ARC
5
188
100
AcDbEntity
8
0
100
AcDbCircle
10
334.95652964320698
20
47.307301421862924
30
0
40
7.4714117564237137
210
0
220
0
230
1
100
AcDbArc
50
122.99329503779626
51
207.00670496220428
0
SPLINE
5
189
100
AcDbEntity
8
0
100
AcDbSpline
70
4
71
5
72
78
73
72
74
0
42
0.000000001
43
0.0000000001
44
0.0000000001
40
0
40
0
40
0
40
0
40
0
40
0
40
0.0055555555555555558
40
0.011111111111111112
40
0.016666666666666666
40
0.022222222222222223
40
0.02777777777777778
40
0.033333333333333333
40
0.03888888888888889
40
0.044444444444444446
40
0.050000000000000003
40
0.055555555555555559
40
0.061111111111111116
40
0.066666666666666666
40
0.072222222222222215
40
0.077777777777777765
40
0.083333333333333315
40
0.088888888888888865
40
0.094444444444444414
40
0.099999999999999964
40
0.10555555555555551
40
0.11111111111111106
40
0.11666666666666661
40
0.12222222222222216
40
0.12777777777777771
40
0.13333333333333328
40
0.13888888888888884
40
0.1444444444444444
40
0.14999999999999997
40
0.15555555555555553
40
0.16111111111111109
40
0.16666666666666666
40
0.17222222222222222
40
0.17777777777777778
40
0.18333333333333335
40
0.18888888888888891
40
0.19444444444444448
40
0.20000000000000004
40
0.2055555555555556
40
0.21111111111111117
40
0.21666666666666673
40
0.22222222222222229
40
0.22777777777777786
40
0.23333333333333342
40
0.23888888888888898
40
0.24444444444444455
40
0.25000000000000011
40
0.25555555555555565
40
0.26111111111111118
40
0.26666666666666672
40
0.27222222222222225
40
0.27777777777777779
40
0.28333333333333333
40
0.28888888888888886
40
0.2944444444444444
40
0.29999999999999993
40
0.30555555555555547
40
0.31111111111111101
40
0.31666666666666654
40
0.32222222222222208
40
0.32777777777777761
40
0.33333333333333315
40
0.33888888888888868
40
0.34444444444444422
40
0.34999999999999976
40
0.35555555555555529
40
0.36111111111111083
40
0.36666666666666636
40
0.3713317912778672
40
0.3713317912778672
40
0.3713317912778672
40
0.3713317912778672
40
0.3713317912778672
40
0.3713317912778672
41
1
41
1
41
1
41
1
41
1
41
1
41
1
41
1
41
1
41
1
41
1
41
1
41
1
41
1
41
1
41
1
41
1
41
1
41
1
41
1
41
1
41
1
41
1
41
1
41
1
41
1
41
1
41
1
41
1
41
1
41
1
41
1
41
1
41
1
41
1
41
1
41
1
41
1
41
1
41
1
41
1
41
1
41
1
41
1
41
1
41
1
41
1
41
1
41
1
41
1
41
1
41
1
41
1
41
1
41
1
41
1
41
1
41
1
41
1
41
1
41
1
41
1
41
1
41
1
41
1
41
1
41
1
41
1
41
1
41
1
41
1
41
1
10
158.16
20
55.579999999999998
30
0
10
158.56248632519001
20
55.336875305456218
30
0
10
159.35750111811041
20
54.90379697255409
30
0
10
160.52015259247398
20
54.413693084511472
30
0
10
162.0105853538933
20
54.07926064588662
30
0
10
163.76944491232695
20
54.18962461080207
30
0
10
165.40999259637687
20
54.81817718585652
30
0
10
166.90480295102543
20
55.944490963045496
30
0
10
168.20634088463447
20
57.534125250269341
30
0
10
169.25022017117723
20
59.536361969359177
30
0
10
169.97576472378708
20
61.884403982809602
30
0
10
170.34208085542258
20
64.495144326025994
30
0
10
170.34707299601189
20
67.268812583922951
30
0
10
170.04259775335126
20
70.089342063559201
30
0
10
169.55758668535751
20
72.822802464419041
30
0
10
169.09734888733351
20
75.321917849529981
30
0
10
168.88355023205173
20
77.445943861835104
30
0
10
169.10576648431416
20
79.077487290399716
30
0
10
169.86808807589355
20
80.14075558010704
30
0
10
171.13862963098563
20
80.618716656244956
30
0
10
172.69577559693249
20
80.571917514097748
30
0
10
174.22958443337188
20
80.091047199957643
30
0
10
175.43550765670301
20
79.254978478082847
30
0
10
176.1281676804187
20
78.074887052120857
30
0
10
176.28771319986737
20
76.484878180371695
30
0
10
176.00088866129695
20
74.404163741957461
30
0
10
175.42627863576726
20
71.784110683064512
30
0
10
174.75105417532819
20
68.657796490487073
30
0
10
174.14844512947167
20
65.197025794813271
30
0
10
173.74381158621287
20
61.740063125335382
30
0
10
173.62362104418372
20
58.693670764930175
30
0
10
173.83783770348103
20
56.455424967513693
30
0
10
174.40487103057919
20
55.32509320949935
30
0
10
175.31547195759913
20
55.427544378820514
30
0
10
176.53696502420001
20
56.614161338329765
30
0
10
178.01767051970134
20
58.424576388721469
30
0
10
179.69271959642577
20
60.251353535119307
30
0
10
181.48967629633398
20
61.474740910369839
30
0
10
183.33411169084013
20
61.602947952288723
30
0
10
185.15548737917126
20
60.424699274921053
30
0
10
186.89203102953311
20
58.112471974477245
30
0
10
188.49092700647662
20
55.09053440243369
30
0
10
189.90915680848528
20
51.934702969023505
30
0
10
191.11408757694647
20
49.261898700853941
30
0
10
192.08417224872929
20
47.619222413297805
30
0
10
192.8095991415039
20
47.384549338884355
30
0
10
193.29297892683454
20
48.633620805886324
30
0
10
193.54993577715777
20
51.15781018244288
30
0
10
193.60958496544333
20
54.570752372290528
30
0
10
193.51515437321416
20
58.388700230492709
30
0
10
193.32431418173894
20
62.119770912180769
30
0
10
193.11017764679309
20
65.353890385213901
30
0
10
192.96074123592749
20
67.841843750295453
30
0
10
192.98231910812771
20
69.606480437316947
30
0
10
193.27926597090922
20
70.864451693217106
30
0
10
193.92289683493689
20
71.872594669280559
30
0
10
194.92853236682032
20
72.816031410932823
30
0
10
196.21814037570689
20
73.638288893036332
30
0
10
197.64135429152148
20
74.08875049250986
30
0
10
199.02943406946156
20
73.890712967636588
30
0
10
200.24055927144602
20
72.87777889404876
30
0
10
201.20501146870049
20
71.129924247318939
30
0
10
201.90752166524791
20
68.878325996656116
30
0
10
202.3742502784703
20
66.428216613774453
30
0
10
202.65764145511142
20
64.071517408523121
30
0
10
202.82297030680709
20
62.011320864635174
30
0
10
202.93214502832498
20
60.261872374631487
30
0
10
203.03899605518467
20
58.742394634229278
30
0
10
203.16602934576491
20
57.529593416163614
30
0
10
203.30463104173998
20
56.560660399723616
30
0
10
203.41931910963194
20
55.893223131797768
30
0
10
203.47745450079589
20
55.579999912931228
30
0
0
SPLINE
5
190
100
AcDbEntity
8
0
100
AcDbSpline
70
4
71
5
72
121
73
115
74
0
42
0.000000001
43
0.0000000001
44
0.0000000001
40
0
40
0
40
0
40
0
40
0
40
0
40
0.0090909090909090905
40
0.018181818181818181
40
0.027272727272727271
40
0.036363636363636362
40
0.045454545454545456
40
0.05454545454545455
40
0.063636363636363644
40
0.072727272727272738
40
0.081818181818181832
40
0.090909090909090925
40
0.10000000000000002
40
0.10909090909090911
40
0.11818181818181821
40
0.12727272727272729
40
0.13636363636363638
40
0.14545454545454548
40
0.15454545454545457
40
0.16363636363636366
40
0.17272727272727276
40
0.18181818181818185
40
0.19090909090909094
40
0.20000000000000004
40
0.20909090909090913
40
0.21818181818181823
40
0.22727272727272732
40
0.23636363636363641
40
0.24545454545454551
40
0.25454545454545457
40
0.26363636363636367
40
0.27272727272727276
40
0.28181818181818186
40
0.29090909090909095
40
0.30000000000000004
40
0.30909090909090914
40
0.31818181818181823
40
0.32727272727272733
40
0.33636363636363642
40
0.34545454545454551
40
0.35454545454545461
40
0.3636363636363637
40
0.3727272727272728
40
0.38181818181818189
40
0.39090909090909098
40
0.40000000000000008
40
0.40909090909090917
40
0.41818181818181827
40
0.42727272727272736
40
0.43636363636363645
40
0.44545454545454555
40
0.45454545454545464
40
0.46363636363636374
40
0.47272727272727283
40
0.48181818181818192
40
0.49090909090909102
40
0.50000000000000011
40
0.50909090909090915
40
0.51818181818181819
40
0.52727272727272723
40
0.53636363636363626
40
0.5454545454545453
40
0.55454545454545434
40
0.56363636363636338
40
0.57272727272727242
40
0.58181818181818146
40
0.5909090909090905
40
0.59999999999999953
40
0.60909090909090857
40
0.61818181818181761
40
0.62727272727272665
40
0.63636363636363569
40
0.64545454545454473
40
0.65454545454545376
40
0.6636363636363628
40
0.67272727272727184
40
0.68181818181818088
40
0.69090909090908992
40
0.69999999999999896
40
0.70909090909090799
40
0.71818181818181703
40
0.72727272727272607
40
0.73636363636363511
40
0.74545454545454415
40
0.75454545454545319
40
0.76363636363636223
40
0.77272727272727126
40
0.7818181818181803
40
0.79090909090908934
40
0.79999999999999838
40
0.80909090909090742
40
0.81818181818181646
40
0.82727272727272549
40
0.83636363636363453
40
0.84545454545454357
40
0.85454545454545261
40
0.86363636363636165
40
0.87272727272727069
40
0.88181818181817972
40
0.89090909090908876
40
0.8999999999999978
40
0.90909090909090684
40
0.91818181818181588
40
0.92727272727272492
40
0.93636363636363396
40
0.94545454545454299
40
0.95454545454545203
40
0.96363636363636107
40
0.97272727272727011
40
0.98181818181817915
40
0.99090909090908819
40
1
40
1
40
1
40
1
40
1
40
1
41
1
41
1
41
1
41
1
41
1
41
1
41
1
41
1
41
1
41
1
41
1
41
1
41
1
41
1
41
1
41
1
41
1
41
1
41
1
41
1
41
1
41
1
41
1
41
1
41
1
41
1
41
1
41
1
41
1
41
1
41
1
41
1
41
1
41
1
41
1
41
1
41
1
41
1
41
1
41
1
41
1
41
1
41
1
41
1
41
1
41
1
41
1
41
1
41
1
41
1
41
1
41
1
41
1
41
1
41
1
41
1
41
1
41
1
41
1
41
1
41
1
41
1
41
1
41
1
41
1
41
1
41
1
41
1
41
1
41
1
41
1
41
1
41
1
41
1
41
1
41
1
41
1
41
1
41
1
41
1
41
1
41
1
41
1
41
1
41
1
41
1
41
1
41
1
41
1
41
1
41
1
41
1
41
1
41
1
41
1
41
1
41
1
41
1
41
1
41
1
41
1
41
1
41
1
41
1
41
1
41
1
41
1
41
1
41
1
41
1
41
1
41
1
41
1
41
1
41
1
10
219.76314263005696
20
45.836427470659757
30
0
10
220.11697530349187
20
46.030015540341239
30
0
10
220.80994661482572
20
46.439744866249612
30
0
10
221.8053326607799
20
47.122002182884628
30
0
10
223.06054170499422
20
48.145913133625044
30
0
10
224.59503448090823
20
49.483950632071014
30
0
10
226.18686770848942
20
50.693354607030692
30
0
10
227.90097859342393
20
51.559542769549793
30
0
10
229.7296794199809
20
51.862591364788884
30
0
10
231.59752609906289
20
51.418570235064145
30
0
10
233.40431323196003
20
50.140542162926096
30
0
10
235.05359087570417
20
48.084165488968544
30
0
10
236.49470262781011
20
45.52211657473503
30
0
10
237.73040681993029
20
42.921558617684212
30
0
10
238.79002187975172
20
40.818707418280056
30
0
10
239.71045261237015
20
39.715673346073402
30
0
10
240.51635457805457
20
39.978672731923638
30
0
10
241.19484972380408
20
41.709563359371622
30
0
10
241.70025431592194
20
44.75272816973267
30
0
10
241.97727958379954
20
48.784443621103847
30
0
10
241.9786884377765
20
53.377139029679185
30
0
10
241.68497171014889
20
58.073483851494359
30
0
10
241.12381304144915
20
62.457374925810313
30
0
10
240.38817551367148
20
66.223603827219961
30
0
10
239.65857619337729
20
69.25449627722935
30
0
10
239.21321245695862
20
71.675130536054439
30
0
10
239.33274447343692
20
73.722239077406755
30
0
10
240.21551833771264
20
75.630955313766947
30
0
10
241.88681513865504
20
77.512718723435114
30
0
10
244.11502315504697
20
79.241549586609082
30
0
10
246.31323192982711
20
80.324604474168808
30
0
10
247.81883062496735
20
80.180645912996468
30
0
10
248.15395527479245
20
78.400367529800249
30
0
10
247.35080539437331
20
75.070425187985009
30
0
10
246.05639095655945
20
70.881482430389127
30
0
10
245.1161430460773
20
66.742635405297833
30
0
10
245.34347300256661
20
63.555317660441986
30
0
10
247.05488941188946
20
61.807105957830693
30
0
10
250.07318887705082
20
61.509838583755332
30
0
10
252.63952602004369
20
61.343024378528888
30
0
10
253.70480812397221
20
60.250799571989077
30
0
10
253.4521983825513
20
57.984791066508528
30
0
10
252.47574186720428
20
54.653494181384104
30
0
10
251.48185869461417
20
50.67266280518308
30
0
10
250.8467334897409
20
46.558379355060815
30
0
10
250.7499151133735
20
42.877490217259776
30
0
10
251.20217482414077
20
40.156606390619842
30
0
10
252.11726736133426
20
38.805625292517156
30
0
10
253.36231589484183
20
39.041621140537885
30
0
10
254.82341498556144
20
40.796456440046356
30
0
10
256.44559428610313
20
43.681684815582102
30
0
10
258.2068465434607
20
47.130936877115644
30
0
10
260.10301428888386
20
50.512943816640387
30
0
10
262.12899120138093
20
53.252332460796822
30
0
10
264.26021347842709
20
54.955713242852198
30
0
10
266.43702250194377
20
55.515450270590712
30
0
10
268.54013647949512
20
55.274436017746183
30
0
10
270.4099323699125
20
54.893647056383365
30
0
10
271.88905933694565
20
55.054486917805612
30
0
10
272.85527727852332
20
56.242104572965388
30
0
10
273.26426500402096
20
58.424920219913481
30
0
10
273.15653025933295
20
61.150775919944493
30
0
10
272.64840839298057
20
63.822792933346776
30
0
10
271.92906590231308
20
65.924640335838063
30
0
10
271.25287393525946
20
67.252830964834516
30
0
10
270.93985531739446
20
68.184088795167838
30
0
10
271.26568384129439
20
69.324032551958425
30
0
10
272.32991293874215
20
71.062217490066843
30
0
10
273.95728722015627
20
73.228968123714239
30
0
10
275.8169073968719
20
75.337492509292062
30
0
10
277.52534903164985
20
76.781977231176285
30
0
10
278.74745394151194
20
77.035326840302446
30
0
10
279.31816766381894
20
75.887479759757639
30
0
10
279.28500203482599
20
73.52451888685097
30
0
10
278.82340893788279
20
70.351383867326859
30
0
10
278.18188173352917
20
66.874466317545227
30
0
10
277.61571840521788
20
63.561636889805399
30
0
10
277.32423417642798
20
60.708370015980897
30
0
10
277.39049073318654
20
58.311310715005504
30
0
10
277.81300265283267
20
56.177062508503546
30
0
10
278.53224129373689
20
54.016915258722392
30
0
10
279.46007707146686
20
51.551301006415493
30
0
10
280.50568821071886
20
48.599951777648009
30
0
10
281.60855898491445
20
45.203264544498154
30
0
10
282.74652082401792
20
41.632010217573459
30
0
10
283.91824504125844
20
38.28230021690252
30
0
10
285.13284865458934
20
35.602574460536147
30
0
10
286.39609464873428
20
34.005191291652302
30
0
10
287.6992253952759
20
33.790061276379134
30
0
10
289.00382731699113
20
35.049898796079901
30
0
10
290.23744393211308
20
37.625420830496765
30
0
10
291.31694055733925
20
41.190679220283201
30
0
10
292.16704934900736
20
45.314696235801549
30
0
10
292.74013735444169
20
49.53136157758766
30
0
10
293.03703378766477
20
53.408163765307812
30
0
10
293.12377424550226
20
56.609858531980805
30
0
10
293.15898888520616
20
58.977835502523412
30
0
10
293.38738778199598
20
60.558792429999535
30
0
10
294.02963959045007
20
61.488222591772328
30
0
10
295.20610965545126
20
61.912275472838267
30
0
10
296.81471024509034
20
61.869601541564961
30
0
10
298.56671371428445
20
61.296296047024697
30
0
10
300.13737352040221
20
60.118001340753359
30
0
10
301.2846576294873
20
58.317761991537253
30
0
10
301.9776893830857
20
56.011730167429178
30
0
10
302.33633322596557
20
53.405670743236314
30
0
10
302.57801948945064
20
50.756434188540993
30
0
10
302.96038980330547
20
48.330411375157553
30
0
10
303.72894742874314
20
46.365779108674936
30
0
10
305.05425928102414
20
45.026626094011945
30
0
10
307.03637677424962
20
44.409540268909566
30
0
10
309.18796302719323
20
44.532439278282858
30
0
10
311.12733227046755
20
44.978531264225545
30
0
10
312.56498760267436
20
45.433213648012931
30
0
10
313.31999999999999
20
45.699876072375581
30
0
0
LINE
5
191
100
AcDbEntity
8
0
100
AcDbLine
10
175
20
50
30
0
11
172.52797679173483
21
44.378852419757493
31
0
0
LINE
5
192
100
AcDbEntity
8
0
100
AcDbLine
10
175
20
50
30
0
11
177.22961358584203
21
44.930084180487064
31
0
0
SPLINE
5
193
100
AcDbEntity
8
0
100
AcDbSpline
70
4
71
5
72
31
73
25
74
0
42
0.000000001
43
0.0000000001
44
0.0000000001
40
0
40
0
40
0
40
0
40
0
40
0
40
0.050000000000000003
40
0.10000000000000001
40
0.15000000000000002
40
0.20000000000000001
40
0.25
40
0.29999999999999999
40
0.34999999999999998
40
0.39999999999999997
40
0.44999999999999996
40
0.49999999999999994
40
0.54999999999999993
40
0.59999999999999998
40
0.65000000000000002
40
0.70000000000000007
40
0.75000000000000011
40
0.80000000000000016
40
0.8500000000000002
40
0.90000000000000024
40
0.95000000000000029
40
1
40
1
40
1
40
1
40
1
40
1
41
1
41
1
41
1
41
1
41
1
41
1
41
1
41
1
41
1
41
1
41
1
41
1
41
1
41
1
41
1
41
1
41
1
41
1
41
1
41
1
41
1
41
1
41
1
41
1
41
1
10
172.77038641415797
20
44.930084180487064
30
0
10
172.7188764401422
20
44.842801629531124
30
0
10
172.62667812421341
20
44.669778701306633
30
0
10
172.52084581800912
20
44.414870563895064
30
0
10
172.44492902397093
20
44.084285582428976
30
0
10
172.45922059702372
20
43.687633258938028
30
0
10
172.58150403190137
20
43.310497329193993
30
0
10
172.80730003942443
20
42.958405272747619
30
0
10
173.12681100338253
20
42.640508141852258
30
0
10
173.52378902358305
20
42.369831079193801
30
0
10
173.97793806072144
20
42.160687581120243
30
0
10
174.46660575531553
20
42.026553525509044
30
0
10
174.96665308881433
20
41.977650177134038
30
0
10
175.45614885911928
20
42.018630268446948
30
0
10
175.91622647871344
20
42.145769485431643
30
0
10
176.33105378716212
20
42.349346786053232
30
0
10
176.68772122104573
20
42.616234673273226
30
0
10
176.97627347701726
20
42.932316453646131
30
0
10
177.1897410182352
20
43.284749268153263
30
0
10
177.32442851816768
20
43.664566488389809
30
0
10
177.37906125887193
20
44.066300484181014
30
0
10
177.35883635251372
20
44.40288262607951
30
0
10
177.30802843208693
20
44.663366950144464
30
0
10
177.25838109571322
20
44.840584807092057
30
0
10
177.22961358584203
20
44.930084180487064
30
0
0
SPLINE
5
194
100
AcDbEntity
8
0
100
AcDbSpline
70
4
71
5
72
31
73
25
74
0
42
0.000000001
43
0.0000000001
44
0.0000000001
40
0
40
0
40
0
40
0
40
0
40
0
40
0.050000000000000003
40
0.10000000000000001
40
0.15000000000000002
40
0.20000000000000001
40
0.25
40
0.29999999999999999
40
0.34999999999999998
40
0.39999999999999997
40
0.44999999999999996
40
0.49999999999999994
40
0.54999999999999993
40
0.59999999999999998
40
0.65000000000000002
40
0.70000000000000007
40
0.75000000000000011
40
0.80000000000000016
40
0.8500000000000002
40
0.90000000000000024
40
0.95000000000000029
40
1
40
1
40
1
40
1
40
1
40
1
41
1
41
1
41
1
41
1
41
1
41
1
41
1
41
1
41
1
41
1
41
1
41
1
41
1
41
1
41
1
41
1
41
1
41
1
41
1
41
1
41
1
41
1
41
1
41
1
41
1
10
180.31374702085895
20
34.715116692245694
30
0
10
180.26223704683375
20
34.6278341412944
30
0
10
180.17003873088893
20
34.454811213077846
30
0
10
180.06420642466912
20
34.199903075674094
30
0
10
179.9882896306263
20
33.86931809421074
30
0
10
180.00258120369122
20
33.472665770714023
30
0
10
180.12486463858914
20
33.095529840959948
30
0
10
180.35066064613096
20
32.743437784503428
30
0
10
180.67017161010003
20
32.425540653601352
30
0
10
181.06714963030288
20
32.154863590940572
30
0
10
181.52129866743644
20
31.945720092868712
30
0
10
182.00996636202277
20
31.811586037262039
30
0
10
182.51001369551454
20
31.762682688892486
30
0
10
182.99950946581686
20
31.803662780210132
30
0
10
183.45958708541269
20
31.930801997197552
30
0
10
183.8744143938651
20
32.13437929781945
30
0
10
184.23108182775093
20
32.401267185037199
30
0
10
184.51963408372046
20
32.717348965405826
30
0
10
184.73310162493078
20
33.069781779907686
30
0
10
184.86778912485329
20
33.449599000139528
30
0
10
184.92242186555023
20
33.851332995928566
30
0
10
184.90219695919347
20
34.187915137828746
30
0
10
184.85138903877441
20
34.448399461897402
30
0
10
184.80174170240926
20
34.625617318848612
30
0
10
184.77297419254302
20
34.715116692245694
30
0
0
LINE
5
195
100
AcDbEntity
8
0
100
AcDbLine
10
182.54336060670099
20
39.785032511758615
30
0
11
184.77297419254302
21
34.715116692245694
31
0
0
LINE
5
196
100
AcDbEntity
8
0
100
AcDbLine
10
182.54336060670099
20
39.785032511758615
30
0
11
180.07133739843582
21
34.163884931516122
31
0
0
LINE
5
197
100
AcDbEntity
8
0
100
AcDbLine
10
234.71826588808156
20
36.641968046946999
30
0
11
232.24624267981639
21
31.020820466704485
31
0
0
LINE
5
198
100
AcDbEntity
8
0
100
AcDbLine
10
234.71827146971771
20
36.641965592299847
30
0
11
236.94788505555974
21
31.572049772786922
31
0
0
SPLINE
5
199
100
AcDbEntity
8
0
100
AcDbSpline
70
4
71
5
72
31
73
25
74
0
42
0.000000001
43
0.0000000001
44
0.0000000001
40
0
40
0
40
0
40
0
40
0
40
0
40
0.050000000000000003
40
0.10000000000000001
40
0.15000000000000002
40
0.20000000000000001
40
0.25
40
0.29999999999999999
40
0.34999999999999998
40
0.39999999999999997
40
0.44999999999999996
40
0.49999999999999994
40
0.54999999999999993
40
0.59999999999999998
40
0.65000000000000002
40
0.70000000000000007
40
0.75000000000000011
40
0.80000000000000016
40
0.8500000000000002
40
0.90000000000000024
40
0.95000000000000029
40
1
40
1
40
1
40
1
40
1
40
1
41
1
41
1
41
1
41
1
41
1
41
1
41
1
41
1
41
1
41
1
41
1
41
1
41
1
41
1
41
1
41
1
41
1
41
1
41
1
41
1
41
1
41
1
41
1
41
1
41
1
10
232.48865788387565
20
31.572049772786922
30
0
10
232.43714790988889
20
31.484767221831632
30
0
10
232.34494959400965
20
31.311744293608225
30
0
10
232.23911728785384
20
31.056836156197765
30
0
10
232.16320049383157
20
30.726251174732127
30
0
10
232.1774920668467
20
30.329598851240402
30
0
10
232.2997755016608
20
29.95246292149497
30
0
10
232.52557150912514
20
29.600370865047058
30
0
10
232.84508247304873
20
29.282473734150628
30
0
10
233.24206049324246
20
29.011796671491656
30
0
10
233.69620953039549
20
28.802653173418232
30
0
10
234.18487722501365
20
28.668519117807758
30
0
10
234.68492455853382
20
28.61961576943381
30
0
10
235.17442032884841
20
28.660595860747826
30
0
10
235.63449794844104
20
28.787735077733284
30
0
10
236.04932525688162
20
28.991312378355119
30
0
10
236.40599269075858
20
29.258200265574622
30
0
10
236.69454494673113
20
29.57428204594634
30
0
10
236.90801248796078
20
29.92671486045186
30
0
10
237.04269998791062
20
30.306532080686882
30
0
10
237.09733272862763
20
30.70826607647739
30
0
10
237.07710782226667
20
31.044848218376476
30
0
10
237.02629990182686
20
31.305332542442574
30
0
10
236.97665256543925
20
31.482550399391286
30
0
10
236.94788505555974
20
31.572049772786922
30
0
0
LINE
5
200
100
AcDbEntity
8
0
100
AcDbLine
10
272.62000833562377
20
44.459202426752633
30
0
11
270.1479851273586
21
38.838054846510119
31
0
0
SPLINE
5
201
100
AcDbEntity
8
0
100
AcDbSpline
70
4
71
5
72
31
73
25
74
0
42
0.000000001
43
0.0000000001
44
0.0000000001
40
0
40
0
40
0
40
0
40
0
40
0
40
0.050000000000000003
40
0.10000000000000001
40
0.15000000000000002
40
0.20000000000000001
40
0.25
40
0.29999999999999999
40
0.34999999999999998
40
0.39999999999999997
40
0.44999999999999996
40
0.49999999999999994
40
0.54999999999999993
40
0.59999999999999998
40
0.65000000000000002
40
0.70000000000000007
40
0.75000000000000011
40
0.80000000000000016
40
0.8500000000000002
40
0.90000000000000024
40
0.95000000000000029
40
1
40
1
40
1
40
1
40
1
40
1
41
1
41
1
41
1
41
1
41
1
41
1
41
1
41
1
41
1
41
1
41
1
41
1
41
1
41
1
41
1
41
1
41
1
41
1
41
1
41
1
41
1
41
1
41
1
41
1
41
1
10
270.39040033141788
20
39.389284152592552
30
0
10
270.3388903573981
20
39.30200160164388
30
0
10
270.24669204146284
20
39.128978673431803
30
0
10
270.14085973525249
20
38.874070536032399
30
0
10
270.06494294121302
20
38.54348555457036
30
0
10
270.07923451427109
20
38.146833231070111
30
0
10
270.20151794915671
20
37.76969730131021
30
0
10
270.42731395668659
20
37.417605244848794
30
0
10
270.74682492064778
20
37.099708113944388
30
0
10
271.14380294084754
20
36.829031051283813
30
0
10
271.59795197798286
20
36.619887553213736
30
0
10
272.08661967257393
20
36.485753497608826
30
0
10
272.58666700607313
20
36.436850149239831
30
0
10
273.07616277638249
20
36.477830240556173
30
0
10
273.53624039598407
20
36.604969457541301
30
0
10
273.95106770443783
20
36.808546758161278
30
0
10
274.30773513832014
20
37.07543464537914
30
0
10
274.59628739428132
20
37.391516425751036
30
0
10
274.80975493548209
20
37.743949240259397
30
0
10
274.94444243539613
20
38.123766460498643
30
0
10
274.99907517608904
20
38.525500456292235
30
0
10
274.97885026973483
20
38.862082598190646
30
0
10
274.92804234932237
20
39.122566922253583
30
0
10
274.87839501296412
20
39.299784779198916
30
0
10
274.84962750310194
20
39.389284152592552
30
0
0
LINE
5
202
100
AcDbEntity
8
0
100
AcDbLine
10
272.62001391725994
20
44.459199972105466
30
0
11
274.84962750310194
21
39.389284152592552
31
0
0
SPLINE
5
203
100
AcDbEntity
8
0
100
AcDbSpline
70
4
71
5
72
31
73
25
74
0
42
0.000000001
43
0.0000000001
44
0.0000000001
40
0
40
0
40
0
40
0
40
0
40
0
40
0.050000000000000003
40
0.10000000000000001
40
0.15000000000000002
40
0.20000000000000001
40
0.25
40
0.29999999999999999
40
0.34999999999999998
40
0.39999999999999997
40
0.44999999999999996
40
0.49999999999999994
40
0.54999999999999993
40
0.59999999999999998
40
0.65000000000000002
40
0.70000000000000007
40
0.75000000000000011
40
0.80000000000000016
40
0.8500000000000002
40
0.90000000000000024
40
0.95000000000000029
40
1
40
1
40
1
40
1
40
1
40
1
41
1
41
1
41
1
41
1
41
1
41
1
41
1
41
1
41
1
41
1
41
1
41
1
41
1
41
1
41
1
41
1
41
1
41
1
41
1
41
1
41
1
41
1
41
1
41
1
41
1
10
282.23469484627481
20
20.675298819118289
30
0
10
282.18318487221785
20
20.588016268162306
30
0
10
282.09098655621892
20
20.414993339937752
30
0
10
281.98515424994616
20
20.160085202526275
30
0
10
281.90923745588418
20
19.829500221060531
30
0
10
281.92352902898716
20
19.432847897570021
30
0
10
282.04581246395423
20
19.05571196782606
30
0
10
282.27160847156586
20
18.703619911378762
30
0
10
282.59111943558344
20
18.385722780481725
30
0
10
282.98809745580371
20
18.11504571782147
30
0
10
283.4422464929259
20
17.905902219746942
30
0
10
283.93091418748014
20
17.771768164136613
30
0
10
284.43096152093227
20
17.722864815764577
30
0
10
284.92045729119843
20
17.763844907082181
30
0
10
285.38053491077216
20
17.890984124071473
30
0
10
285.79536221922081
20
18.094561424695534
30
0
10
286.15202965312324
20
18.361449311913798
30
0
10
286.44058190912682
20
18.677531092279931
30
0
10
286.6540494503821
20
19.029963906776175
30
0
10
286.78873695034582
20
19.409781127001409
30
0
10
286.84336969106317
20
19.81151512278625
30
0
10
286.82314478469243
20
20.148097264687955
30
0
10
286.77233686424097
20
20.408581588761653
30
0
10
286.72268952784367
20
20.585799445718113
30
0
10
286.69392201795887
20
20.675298819118289
30
0
0
LINE
5
204
100
AcDbEntity
8
0
100
AcDbLine
10
284.46430285048069
20
25.745217093278381
30
0
11
281.99227964221552
21
20.124069513035852
31
0
0
LINE
5
205
100
AcDbEntity
8
0
100
AcDbLine
10
284.46430843211681
20
25.745214638631211
30
0
11
286.69392201795887
21
20.675298819118289
31
0
0
SPLINE
5
206
100
AcDbEntity
8
0
100
AcDbSpline
70
4
71
5
72
76
73
70
74
0
42
0.000000001
43
0.0000000001
44
0.0000000001
40
0
40
0
40
0
40
0
40
0
40
0
40
0.015384615384615385
40
0.030769230769230771
40
0.046153846153846156
40
0.061538461538461542
40
0.076923076923076927
40
0.092307692307692313
40
0.1076923076923077
40
0.12307692307692308
40
0.13846153846153847
40
0.15384615384615385
40
0.16923076923076924
40
0.18461538461538463
40
0.20000000000000001
40
0.2153846153846154
40
0.23076923076923078
40
0.24615384615384617
40
0.26153846153846155
40
0.27692307692307694
40
0.29230769230769232
40
0.30769230769230771
40
0.32307692307692309
40
0.33846153846153848
40
0.35384615384615387
40
0.36923076923076925
40
0.38461538461538464
40
0.40000000000000002
40
0.41538461538461541
40
0.43076923076923079
40
0.44615384615384618
40
0.46153846153846156
40
0.47692307692307695
40
0.49230769230769234
40
0.50769230769230766
40
0.52307692307692299
40
0.53846153846153832
40
0.55384615384615365
40
0.56923076923076898
40
0.58461538461538431
40
0.59999999999999964
40
0.61538461538461497
40
0.6307692307692303
40
0.64615384615384563
40
0.66153846153846096
40
0.67692307692307629
40
0.69230769230769162
40
0.70769230769230695
40
0.72307692307692228
40
0.73846153846153761
40
0.75384615384615294
40
0.76923076923076827
40
0.7846153846153836
40
0.79999999999999893
40
0.81538461538461426
40
0.83076923076922959
40
0.84615384615384492
40
0.86153846153846025
40
0.87692307692307558
40
0.89230769230769091
40
0.90769230769230624
40
0.92307692307692157
40
0.9384615384615369
40
0.95384615384615223
40
0.96923076923076756
40
0.98461538461538289
40
1
40
1
40
1
40
1
40
1
40
1
41
1
41
1
41
1
41
1
41
1
41
1
41
1
41
1
41
1
41
1
41
1
41
1
41
1
41
1
41
1
41
1
41
1
41
1
41
1
41
1
41
1
41
1
41
1
41
1
41
1
41
1
41
1
41
1
41
1
41
1
41
1
41
1
41
1
41
1
41
1
41
1
41
1
41
1
41
1
41
1
41
1
41
1
41
1
41
1
41
1
41
1
41
1
41
1
41
1
41
1
41
1
41
1
41
1
41
1
41
1
41
1
41
1
41
1
41
1
41
1
41
1
41
1
41
1
41
1
41
1
41
1
41
1
41
1
41
1
41
1
10
-1.8399999999999928
20
55.579999999999998
30
0
10
-1.4263687072625131
20
55.329517951271384
30
0
10
-0.60964612819007979
20
54.884770256315178
30
0
10
0.58382158890622682
20
54.386298615858557
30
0
10
2.1118216922207136
20
54.059093531456064
30
0
10
3.9110429467042875
20
54.209233811299143
30
0
10
5.5832130387050594
20
54.9074211440794
30
0
10
7.0970587337540749
20
56.130659650691797
30
0
10
8.3980329187076812
20
57.83925564188992
30
0
10
9.4156412490568488
20
59.974750560792522
30
0
10
10.086890874513747
20
62.460390043163827
30
0
10
10.37442316487647
20
65.2011188677278
30
0
10
10.28890642595524
20
68.083204427234961
30
0
10
9.9049248670092691
20
70.975217717726451
30
0
10
9.3916453679049834
20
73.725322964470323
30
0
10
8.9839237982254758
20
76.173827446015622
30
0
10
8.9163350632390372
20
78.174878328042936
30
0
10
9.3641585065186401
20
79.617169662512438
30
0
10
10.390458476339454
20
80.441318274207248
30
0
10
11.868383956505596
20
80.667983017880658
30
0
10
13.495477252069662
20
80.387139110817699
30
0
10
14.929361763287268
20
79.695644486523989
30
0
10
15.889295452968369
20
78.650276449054758
30
0
10
16.280055171477692
20
77.208507882923968
30
0
10
16.151771175529458
20
75.281701124204915
30
0
10
15.650633159328876
20
72.794526698379215
30
0
10
14.972267807689047
20
69.744157347557248
30
0
10
14.315575947447474
20
66.255181153830975
30
0
10
13.832489193844212
20
62.648410042715
30
0
10
13.628011306361888
20
59.357644293953165
30
0
10
13.766570609621549
20
56.828294054948287
30
0
10
14.276044884499456
20
55.42129906835256
30
0
10
15.152723867600837
20
55.31743626423453
30
0
10
16.365760006152627
20
56.41476751299691
30
0
10
17.861931520254174
20
58.246916176122554
30
0
10
19.572207754595564
20
60.158828653570886
30
0
10
21.418264174645124
20
61.468407820458651
30
0
10
23.318866359873315
20
61.626670829134397
30
0
10
25.196600506985
20
60.39438797039189
30
0
10
26.983557686584611
20
57.965062256640493
30
0
10
28.621734111462796
20
54.812757374711538
30
0
10
30.064134394605809
20
51.575300903360734
30
0
10
31.275613886380217
20
48.925864023928121
30
0
10
32.233867875597596
20
47.44553339988996
30
0
10
32.930345764135915
20
47.504944796823551
30
0
10
33.371312413709347
20
49.116655651327633
30
0
10
33.578188529413097
20
52.000106835810733
30
0
10
33.587793372682967
20
55.695626979857025
30
0
10
33.452563451849215
20
59.660552753788529
30
0
10
33.240994581746094
20
63.374284189629869
30
0
10
33.037585621884105
20
66.435725080002271
30
0
10
32.944051487051325
20
68.673112232780113
30
0
10
33.076968392511759
20
70.222481170197952
30
0
10
33.535209367249308
20
71.356408207769988
30
0
10
34.371463261987174
20
72.341446677670675
30
0
10
35.559591617911117
20
73.274807863807126
30
0
10
36.971019553190075
20
73.958322486629498
30
0
10
38.432347394914082
20
74.088614424739006
30
0
10
39.77128949555911
20
73.401420602368248
30
0
10
40.876606256651577
20
71.87235126139872
30
0
10
41.705768955630589
20
69.705740637413541
30
0
10
42.265496839593496
20
67.215863573834525
30
0
10
42.600613392111612
20
64.736715492873202
30
0
10
42.779753002901145
20
62.530539105233565
30
0
10
42.881915214993498
20
60.671128458845516
30
0
10
42.98481068907148
20
59.036903183163247
30
0
10
43.121851307796668
20
57.749148049144722
30
0
10
43.2770363727602
20
56.705851317889923
30
0
10
43.40634060625662
20
55.963149021678937
30
0
10
43.477454484635629
20
55.579999999999998
30
0
0
SPLINE
5
207
100
AcDbEntity
8
0
100
AcDbSpline
70
4
71
5
72
121
73
115
74
0
42
0.000000001
43
0.0000000001
44
0.0000000001
40
0
40
0
40
0
40
0
40
0
40
0
40
0.0090909090909090905
40
0.018181818181818181
40
0.027272727272727271
40
0.036363636363636362
40
0.045454545454545456
40
0.05454545454545455
40
0.063636363636363644
40
0.072727272727272738
40
0.081818181818181832
40
0.090909090909090925
40
0.10000000000000002
40
0.10909090909090911
40
0.11818181818181821
40
0.12727272727272729
40
0.13636363636363638
40
0.14545454545454548
40
0.15454545454545457
40
0.16363636363636366
40
0.17272727272727276
40
0.18181818181818185
40
0.19090909090909094
40
0.20000000000000004
40
0.20909090909090913
40
0.21818181818181823
40
0.22727272727272732
40
0.23636363636363641
40
0.24545454545454551
40
0.25454545454545457
40
0.26363636363636367
40
0.27272727272727276
40
0.28181818181818186
40
0.29090909090909095
40
0.30000000000000004
40
0.30909090909090914
40
0.31818181818181823
40
0.32727272727272733
40
0.33636363636363642
40
0.34545454545454551
40
0.35454545454545461
40
0.3636363636363637
40
0.3727272727272728
40
0.38181818181818189
40
0.39090909090909098
40
0.40000000000000008
40
0.40909090909090917
40
0.41818181818181827
40
0.42727272727272736
40
0.43636363636363645
40
0.44545454545454555
40
0.45454545454545464
40
0.46363636363636374
40
0.47272727272727283
40
0.48181818181818192
40
0.49090909090909102
40
0.50000000000000011
40
0.50909090909090915
40
0.51818181818181819
40
0.52727272727272723
40
0.53636363636363626
40
0.5454545454545453
40
0.55454545454545434
40
0.56363636363636338
40
0.57272727272727242
40
0.58181818181818146
40
0.5909090909090905
40
0.59999999999999953
40
0.60909090909090857
40
0.61818181818181761
40
0.62727272727272665
40
0.63636363636363569
40
0.64545454545454473
40
0.65454545454545376
40
0.6636363636363628
40
0.67272727272727184
40
0.68181818181818088
40
0.69090909090908992
40
0.69999999999999896
40
0.70909090909090799
40
0.71818181818181703
40
0.72727272727272607
40
0.73636363636363511
40
0.74545454545454415
40
0.75454545454545319
40
0.76363636363636223
40
0.77272727272727126
40
0.7818181818181803
40
0.79090909090908934
40
0.79999999999999838
40
0.80909090909090742
40
0.81818181818181646
40
0.82727272727272549
40
0.83636363636363453
40
0.84545454545454357
40
0.85454545454545261
40
0.86363636363636165
40
0.87272727272727069
40
0.88181818181817972
40
0.89090909090908876
40
0.8999999999999978
40
0.90909090909090684
40
0.91818181818181588
40
0.92727272727272492
40
0.93636363636363396
40
0.94545454545454299
40
0.95454545454545203
40
0.96363636363636107
40
0.97272727272727011
40
0.98181818181817915
40
0.99090909090908819
40
1
40
1
40
1
40
1
40
1
40
1
41
1
41
1
41
1
41
1
41
1
41
1
41
1
41
1
41
1
41
1
41
1
41
1
41
1
41
1
41
1
41
1
41
1
41
1
41
1
41
1
41
1
41
1
41
1
41
1
41
1
41
1
41
1
41
1
41
1
41
1
41
1
41
1
41
1
41
1
41
1
41
1
41
1
41
1
41
1
41
1
41
1
41
1
41
1
41
1
41
1
41
1
41
1
41
1
41
1
41
1
41
1
41
1
41
1
41
1
41
1
41
1
41
1
41
1
41
1
41
1
41
1
41
1
41
1
41
1
41
1
41
1
41
1
41
1
41
1
41
1
41
1
41
1
41
1
41
1
41
1
41
1
41
1
41
1
41
1
41
1
41
1
41
1
41
1
41
1
41
1
41
1
41
1
41
1
41
1
41
1
41
1
41
1
41
1
41
1
41
1
41
1
41
1
41
1
41
1
41
1
41
1
41
1
41
1
41
1
41
1
41
1
41
1
41
1
41
1
41
1
41
1
41
1
41
1
41
1
41
1
10
59.763142630056976
20
45.836427470659757
30
0
10
60.116975303491884
20
46.030015540341239
30
0
10
60.809946614825506
20
46.439744866249612
30
0
10
61.805332660779385
20
47.122002182884628
30
0
10
63.060541704992986
20
48.145913133625044
30
0
10
64.595034480907799
20
49.483950632071014
30
0
10
66.186867708489643
20
50.693354607030692
30
0
10
67.900978593423901
20
51.559542769549793
30
0
10
69.729679419979661
20
51.862591364788884
30
0
10
71.597526099060957
20
51.418570235064145
30
0
10
73.404313231958767
20
50.140542162926096
30
0
10
75.053590875704941
20
48.084165488968544
30
0
10
76.494702627814036
20
45.52211657473503
30
0
10
77.730406819937073
20
42.921558617684212
30
0
10
78.790021879758825
20
40.818707418280056
30
0
10
79.710452612373544
20
39.715673346073402
30
0
10
80.51635457805007
20
39.978672731923638
30
0
10
81.194849723791322
20
41.709563359371622
30
0
10
81.700254315904886
20
44.75272816973267
30
0
10
81.977279583782632
20
48.784443621103847
30
0
10
81.978688437763708
20
53.377139029679185
30
0
10
81.684971710141539
20
58.073483851494359
30
0
10
81.123813041446226
20
62.457374925810313
30
0
10
80.388175513672138
20
66.223603827219961
30
0
10
79.658576193380384
20
69.25449627722935
30
0
10
79.21321245696285
20
71.675130536054439
30
0
10
79.332744473440926
20
73.722239077406755
30
0
10
80.215518337715181
20
75.630955313766947
30
0
10
81.886815138655024
20
77.512718723435114
30
0
10
84.11502315504471
20
79.241549586609082
30
0
10
86.313231929824283
20
80.324604474168808
30
0
10
87.818830624965869
20
80.180645912996468
30
0
10
88.153955274793176
20
78.400367529800249
30
0
10
87.350805394376337
20
75.070425187985009
30
0
10
86.056390956563632
20
70.881482430389127
30
0
10
85.116143046081007
20
66.742635405297833
30
0
10
85.343473002568558
20
63.555317660441986
30
0
10
87.054889411889604
20
61.807105957830693
30
0
10
90.073188877050598
20
61.509838583755332
30
0
10
92.6395260200443
20
61.343024378528888
30
0
10
93.70480812397409
20
60.250799571989077
30
0
10
93.452198382553021
20
57.984791066508528
30
0
10
92.47574186720405
20
54.653494181384104
30
0
10
91.481858694611375
20
50.67266280518308
30
0
10
90.846733489737176
20
46.558379355060815
30
0
10
90.74991511337015
20
42.877490217259776
30
0
10
91.202174824138808
20
40.156606390619842
30
0
10
92.117267361333987
20
38.805625292517156
30
0
10
93.36231589484234
20
39.041621140537885
30
0
10
94.823414985560603
20
40.796456440046356
30
0
10
96.44559428610043
20
43.681684815582102
30
0
10
98.206846543456578
20
47.130936877115644
30
0
10
100.10301428887979
20
50.512943816640387
30
0
10
102.12899120137826
20
53.252332460796822
30
0
10
104.26021347842666
20
54.955713242852198
30
0
10
106.43702250194492
20
55.515450270590712
30
0
10
108.54013647949674
20
55.274436017746183
30
0
10
110.4099323699146
20
54.893647056383365
30
0
10
111.8890593369462
20
55.054486917805612
30
0
10
112.85527727852198
20
56.242104572965388
30
0
10
113.26426500401872
20
58.424920219913481
30
0
10
113.15653025933074
20
61.150775919944493
30
0
10
112.64840839297966
20
63.822792933346776
30
0
10
111.92906590231311
20
65.924640335838063
30
0
10
111.25287393525996
20
67.252830964834516
30
0
10
110.93985531739449
20
68.184088795167838
30
0
10
111.26568384129419
20
69.324032551958425
30
0
10
112.32991293874264
20
71.062217490066843
30
0
10
113.95728722015726
20
73.228968123714239
30
0
10
115.81690739687323
20
75.337492509292062
30
0
10
117.52534903165063
20
76.781977231176285
30
0
10
118.74745394151145
20
77.035326840302446
30
0
10
119.31816766381779
20
75.887479759757639
30
0
10
119.2850020348242
20
73.52451888685097
30
0
10
118.82340893788086
20
70.351383867326859
30
0
10
118.18188173352758
20
66.874466317545227
30
0
10
117.61571840521793
20
63.561636889805399
30
0
10
117.32423417642974
20
60.708370015980897
30
0
10
117.39049073318881
20
58.311310715005504
30
0
10
117.81300265283464
20
56.177062508503546
30
0
10
118.53224129373812
20
54.016915258722392
30
0
10
119.46007707146732
20
51.551301006415493
30
0
10
120.50568821071829
20
48.599951777648009
30
0
10
121.6085589849138
20
45.203264544498154
30
0
10
122.74652082401786
20
41.632010217573459
30
0
10
123.91824504125876
20
38.28230021690252
30
0
10
125.13284865458972
20
35.602574460536147
30
0
10
126.39609464873453
20
34.005191291652302
30
0
10
127.69922539527568
20
33.790061276379134
30
0
10
129.00382731699122
20
35.049898796079901
30
0
10
130.23744393211382
20
37.625420830496765
30
0
10
131.31694055734056
20
41.190679220283201
30
0
10
132.1670493490092
20
45.314696235801549
30
0
10
132.74013735444322
20
49.53136157758766
30
0
10
133.03703378766559
20
53.408163765307812
30
0
10
133.12377424550198
20
56.609858531980805
30
0
10
133.15898888520451
20
58.977835502523412
30
0
10
133.38738778199348
20
60.558792429999535
30
0
10
134.02963959044817
20
61.488222591772328
30
0
10
135.20610965545319
20
61.912275472838267
30
0
10
136.81471024509676
20
61.869601541564961
30
0
10
138.56671371429172
20
61.296296047024697
30
0
10
140.1373735204038
20
60.118001340753359
30
0
10
141.28465762947604
20
58.317761991537253
30
0
10
141.97768938305995
20
56.011730167429178
30
0
10
142.33633322593141
20
53.405670743236314
30
0
10
142.57801948942063
20
50.756434188540993
30
0
10
142.96038980329595
20
48.330411375157553
30
0
10
143.72894742876872
20
46.365779108674936
30
0
10
145.05425928108747
20
45.026626094011945
30
0
10
147.03637677433557
20
44.409540268909566
30
0
10
149.18796302726992
20
44.532439278282858
30
0
10
151.12733227051532
20
44.978531264225545
30
0
10
152.56498760269216
20
45.433213648012931
30
0
10
153.31999999999999
20
45.699876072375581
30
0
0
SPLINE
5
208
100
AcDbEntity
8
0
100
AcDbSpline
70
4
71
5
72
31
73
25
74
0
42
0.000000001
43
0.0000000001
44
0.0000000001
40
0
40
0
40
0
40
0
40
0
40
0
40
0.050000000000000003
40
0.10000000000000001
40
0.15000000000000002
40
0.20000000000000001
40
0.25
40
0.29999999999999999
40
0.34999999999999998
40
0.39999999999999997
40
0.44999999999999996
40
0.49999999999999994
40
0.54999999999999993
40
0.59999999999999998
40
0.65000000000000002
40
0.70000000000000007
40
0.75000000000000011
40
0.80000000000000016
40
0.8500000000000002
40
0.90000000000000024
40
0.95000000000000029
40
1
40
1
40
1
40
1
40
1
40
1
41
1
41
1
41
1
41
1
41
1
41
1
41
1
41
1
41
1
41
1
41
1
41
1
41
1
41
1
41
1
41
1
41
1
41
1
41
1
41
1
41
1
41
1
41
1
41
1
41
1
10
72.488657883875646
20
31.572049772786922
30
0
10
72.437147909845237
20
31.484767221831632
30
0
10
72.344949593891542
20
31.311744293608225
30
0
10
72.239117287663547
20
31.056836156197765
30
0
10
72.163200493619641
20
30.726251174732127
30
0
10
72.177492066693517
20
30.329598851240402
30
0
10
72.29977550160244
20
29.95246292149497
30
0
10
72.525571509150282
20
29.600370865047058
30
0
10
72.845082473116918
20
29.282473734150628
30
0
10
73.242060493312252
20
29.011796671491656
30
0
10
73.696209530439006
20
28.802653173418232
30
0
10
74.18487722502546
20
28.668519117807758
30
0
10
74.684924558527939
20
28.61961576943381
30
0
10
75.174420328850175
20
28.660595860747826
30
0
10
75.634497948466986
20
28.787735077733284
30
0
10
76.049325256930913
20
28.991312378355119
30
0
10
76.405992690809569
20
29.258200265574622
30
0
10
76.694544946748778
20
29.57428204594634
30
0
10
76.908012487910071
20
29.92671486045186
30
0
10
77.04269998778156
20
30.306532080686882
30
0
10
77.097332728449842
20
30.70826607647739
30
0
10
77.07710782210755
20
31.044848218376476
30
0
10
77.026299901727924
20
31.305332542442574
30
0
10
76.976652565402603
20
31.482550399391286
30
0
10
76.947885055559738
20
31.572049772786922
30
0
0
LINE
5
209
100
AcDbEntity
8
0
100
AcDbLine
10
74.718271469717692
20
36.641965592299847
30
0
11
76.947885055559738
21
31.572049772786922
31
0
0
LINE
5
210
100
AcDbEntity
8
0
100
AcDbLine
10
74.718265888081561
20
36.641968046946999
30
0
11
72.24624267981639
21
31.020820466704485
31
0
0
SPLINE
5
211
100
AcDbEntity
8
0
100
AcDbSpline
70
4
71
5
72
31
73
25
74
0
42
0.000000001
43
0.0000000001
44
0.0000000001
40
0
40
0
40
0
40
0
40
0
40
0
40
0.050000000000000003
40
0.10000000000000001
40
0.15000000000000002
40
0.20000000000000001
40
0.25
40
0.29999999999999999
40
0.34999999999999998
40
0.39999999999999997
40
0.44999999999999996
40
0.49999999999999994
40
0.54999999999999993
40
0.59999999999999998
40
0.65000000000000002
40
0.70000000000000007
40
0.75000000000000011
40
0.80000000000000016
40
0.8500000000000002
40
0.90000000000000024
40
0.95000000000000029
40
1
40
1
40
1
40
1
40
1
40
1
41
1
41
1
41
1
41
1
41
1
41
1
41
1
41
1
41
1
41
1
41
1
41
1
41
1
41
1
41
1
41
1
41
1
41
1
41
1
41
1
41
1
41
1
41
1
41
1
41
1
10
122.23469484627479
20
20.675298819118289
30
0
10
122.18318487225454
20
20.588016268162306
30
0
10
122.09098655631813
20
20.414993339937752
30
0
10
121.98515425010676
20
20.160085202526275
30
0
10
121.90923745606746
20
19.829500221060531
30
0
10
121.92352902912724
20
19.432847897570021
30
0
10
122.04581246401435
20
19.05571196782606
30
0
10
122.27160847154377
20
18.703619911378762
30
0
10
122.59111943550187
20
18.385722780481725
30
0
10
122.98809745569824
20
18.11504571782147
30
0
10
123.4422464928316
20
17.905902219746942
30
0
10
123.93091418742455
20
17.771768164136613
30
0
10
124.43096152092885
20
17.722864815764577
30
0
10
124.92045729124625
20
17.763844907082181
30
0
10
125.38053491085479
20
17.890984124071473
30
0
10
125.79536221931224
20
18.094561424695534
30
0
10
126.15202965319159
20
18.361449311913798
30
0
10
126.44058190914237
20
18.677531092279931
30
0
10
126.65404945032563
20
19.029963906776175
30
0
10
126.78873695022179
20
19.409781127001409
30
0
10
126.84336969090506
20
19.81151512278625
30
0
10
126.82314478455672
20
20.148097264687955
30
0
10
126.77233686415809
20
20.408581588761653
30
0
10
126.72268952781322
20
20.585799445718113
30
0
10
126.69392201795887
20
20.675298819118289
30
0
0
LINE
5
212
100
AcDbEntity
8
0
100
AcDbLine
10
124.46430285048069
20
25.745217093278381
30
0
11
121.99227964221552
21
20.124069513035852
31
0
0
LINE
5
213
100
AcDbEntity
8
0
100
AcDbLine
10
124.46430843211684
20
25.745214638631211
30
0
11
126.69392201795887
21
20.675298819118289
31
0
0
LINE
5
214
100
AcDbEntity
8
0
100
AcDbLine
10
112.62000833562379
20
44.459202426752633
30
0
11
110.14798512735862
21
38.838054846510119
31
0
0
SPLINE
5
215
100
AcDbEntity
8
0
100
AcDbSpline
70
4
71
5
72
31
73
25
74
0
42
0.000000001
43
0.0000000001
44
0.0000000001
40
0
40
0
40
0
40
0
40
0
40
0
40
0.050000000000000003
40
0.10000000000000001
40
0.15000000000000002
40
0.20000000000000001
40
0.25
40
0.29999999999999999
40
0.34999999999999998
40
0.39999999999999997
40
0.44999999999999996
40
0.49999999999999994
40
0.54999999999999993
40
0.59999999999999998
40
0.65000000000000002
40
0.70000000000000007
40
0.75000000000000011
40
0.80000000000000016
40
0.8500000000000002
40
0.90000000000000024
40
0.95000000000000029
40
1
40
1
40
1
40
1
40
1
40
1
41
1
41
1
41
1
41
1
41
1
41
1
41
1
41
1
41
1
41
1
41
1
41
1
41
1
41
1
41
1
41
1
41
1
41
1
41
1
41
1
41
1
41
1
41
1
41
1
41
1
10
110.39040033141788
20
39.389284152592552
30
0
10
110.33889035736843
20
39.30200160164388
30
0
10
110.24669204138205
20
39.128978673431803
30
0
10
110.14085973512169
20
38.874070536032399
30
0
10
110.06494294106554
20
38.54348555457036
30
0
10
110.07923451416201
20
38.146833231070111
30
0
10
110.20151794911288
20
37.76969730131021
30
0
10
110.42731395670427
20
37.417605244848794
30
0
10
110.74682492070222
20
37.099708113944388
30
0
10
111.14380294091075
20
36.829031051283813
30
0
10
111.59795197803203
20
36.619887553213736
30
0
10
112.08661967259816
20
36.485753497608826
30
0
10
112.58666700607223
20
36.436850149239831
30
0
10
113.0761627763659
20
36.477830240556173
30
0
10
113.53624039596264
20
36.604969457541301
30
0
10
113.95106770442099
20
36.808546758161278
30
0
10
114.3077351383122
20
37.07543464537914
30
0
10
114.59628739428176
20
37.391516425751036
30
0
10
114.80975493548533
20
37.743949240259397
30
0
10
114.9444424353976
20
38.123766460498643
30
0
10
114.99907517608713
20
38.525500456292235
30
0
10
114.97885026973211
20
38.862082598190646
30
0
10
114.92804234932063
20
39.122566922253583
30
0
10
114.87839501296342
20
39.299784779198916
30
0
10
114.84962750310196
20
39.389284152592552
30
0
0
LINE
5
216
100
AcDbEntity
8
0
100
AcDbLine
10
112.62001391725991
20
44.459199972105466
30
0
11
114.84962750310196
21
39.389284152592552
31
0
0
LINE
5
217
100
AcDbEntity
8
0
100
AcDbLine
10
22.543360606700986
20
39.785032511758615
30
0
11
24.772974192543025
21
34.715116692245694
31
0
0
SPLINE
5
218
100
AcDbEntity
8
0
100
AcDbSpline
70
4
71
5
72
31
73
25
74
0
42
0.000000001
43
0.0000000001
44
0.0000000001
40
0
40
0
40
0
40
0
40
0
40
0
40
0.050000000000000003
40
0.10000000000000001
40
0.15000000000000002
40
0.20000000000000001
40
0.25
40
0.29999999999999999
40
0.34999999999999998
40
0.39999999999999997
40
0.44999999999999996
40
0.49999999999999994
40
0.54999999999999993
40
0.59999999999999998
40
0.65000000000000002
40
0.70000000000000007
40
0.75000000000000011
40
0.80000000000000016
40
0.8500000000000002
40
0.90000000000000024
40
0.95000000000000029
40
1
40
1
40
1
40
1
40
1
40
1
41
1
41
1
41
1
41
1
41
1
41
1
41
1
41
1
41
1
41
1
41
1
41
1
41
1
41
1
41
1
41
1
41
1
41
1
41
1
41
1
41
1
41
1
41
1
41
1
41
1
10
20.313747020858948
20
34.715116692245694
30
0
10
20.262237046827757
20
34.6278341412944
30
0
10
20.170038730872811
20
34.454811213077846
30
0
10
20.064206424643913
20
34.199903075674094
30
0
10
19.988289630600502
20
33.86931809421074
30
0
10
20.002581203676378
20
33.472665770714023
30
0
10
20.124864638586843
20
33.095529840959948
30
0
10
20.3506606461338
20
32.743437784503428
30
0
10
20.670171610096958
20
32.425540653601352
30
0
10
21.067149630288171
20
32.154863590940572
30
0
10
21.521298667412392
20
31.945720092868712
30
0
10
22.009966362000483
20
31.811586037262039
30
0
10
22.510013695509535
20
31.762682688892486
30
0
10
22.999509465842646
20
31.803662780210132
30
0
10
23.459587085470282
20
31.930801997197552
30
0
10
23.874414393940199
20
32.13437929781945
30
0
10
24.231081827814954
20
32.401267185037199
30
0
10
24.519634083738254
20
32.717348965405826
30
0
10
24.733101624873473
20
33.069781779907686
30
0
10
24.867789124717628
20
33.449599000139528
30
0
10
24.922421865370154
20
33.851332995928566
30
0
10
24.902196959035269
20
34.187915137828746
30
0
10
24.851389038676889
20
34.448399461897402
30
0
10
24.801741702373221
20
34.625617318848612
30
0
10
24.772974192543025
20
34.715116692245694
30
0
0
LINE
5
219
100
AcDbEntity
8
0
100
AcDbLine
10
22.543360606700986
20
39.785032511758615
30
0
11
20.071337398435816
21
34.163884931516122
31
0
0
LINE
5
220
100
AcDbEntity
8
0
100
AcDbLine
10
15
20
50
30
0
11
12.527976791734829
21
44.378852419757493
31
0
0
LINE
5
221
100
AcDbEntity
8
0
100
AcDbLine
10
15
20
50
30
0
11
17.229613585842039
21
44.930084180487064
31
0
0
SPLINE
5
222
100
AcDbEntity
8
0
100
AcDbSpline
70
4
71
5
72
31
73
25
74
0
42
0.000000001
43
0.0000000001
44
0.0000000001
40
0
40
0
40
0
40
0
40
0
40
0
40
0.050000000000000003
40
0.10000000000000001
40
0.15000000000000002
40
0.20000000000000001
40
0.25
40
0.29999999999999999
40
0.34999999999999998
40
0.39999999999999997
40
0.44999999999999996
40
0.49999999999999994
40
0.54999999999999993
40
0.59999999999999998
40
0.65000000000000002
40
0.70000000000000007
40
0.75000000000000011
40
0.80000000000000016
40
0.8500000000000002
40
0.90000000000000024
40
0.95000000000000029
40
1
40
1
40
1
40
1
40
1
40
1
41
1
41
1
41
1
41
1
41
1
41
1
41
1
41
1
41
1
41
1
41
1
41
1
41
1
41
1
41
1
41
1
41
1
41
1
41
1
41
1
41
1
41
1
41
1
41
1
41
1
10
12.770386414157961
20
44.930084180487064
30
0
10
12.71887644012355
20
44.842801629531124
30
0
10
12.626678124163087
20
44.669778701306633
30
0
10
12.520845817928754
20
44.414870563895064
30
0
10
12.444929023883503
20
44.084285582428976
30
0
10
12.459220596963483
20
43.687633258938028
30
0
10
12.581504031881014
20
43.310497329193993
30
0
10
12.807300039434747
20
42.958405272747619
30
0
10
13.126811003402041
20
42.640508141852258
30
0
10
13.523789023594265
20
42.369831079193801
30
0
10
13.977938060716964
20
42.160687581120243
30
0
10
14.466605755302204
20
42.026553525509044
30
0
10
14.966653088808474
20
41.977650177134038
30
0
10
15.456148859139848
20
42.018630268446948
30
0
10
15.916226478767028
20
42.145769485431643
30
0
10
16.331053787237437
20
42.349346786053232
30
0
10
16.68772122111314
20
42.616234673273226
30
0
10
16.976273477037299
20
42.932316453646131
30
0
10
17.18974101817286
20
43.284749268153263
30
0
10
17.324428518016919
20
43.664566488389809
30
0
10
17.379061258669157
20
44.066300484181014
30
0
10
17.358836352334158
20
44.40288262607951
30
0
10
17.308028431975796
20
44.663366950144464
30
0
10
17.258381095672195
20
44.840584807092057
30
0
10
17.229613585842039
20
44.930084180487064
30
0
0
SPLINE
5
223
100
AcDbEntity
8
0
100
AcDbSpline
70
4
71
5
72
31
73
25
74
0
42
0.000000001
43
0.0000000001
44
0.0000000001
40
0
40
0
40
0
40
0
40
0
40
0
40
0.050000000000000003
40
0.10000000000000001
40
0.15000000000000002
40
0.20000000000000001
40
0.25
40
0.29999999999999999
40
0.34999999999999998
40
0.39999999999999997
40
0.44999999999999996
40
0.49999999999999994
40
0.54999999999999993
40
0.59999999999999998
40
0.65000000000000002
40
0.70000000000000007
40
0.75000000000000011
40
0.80000000000000016
40
0.8500000000000002
40
0.90000000000000024
40
0.95000000000000029
40
1
40
1
40
1
40
1
40
1
40
1
41
1
41
1
41
1
41
1
41
1
41
1
41
1
41
1
41
1
41
1
41
1
41
1
41
1
41
1
41
1
41
1
41
1
41
1
41
1
41
1
41
1
41
1
41
1
41
1
41
1
10
43.477454484635629
20
55.579999999999998
30
0
10
43.627887811515961
20
55.208584459536169
30
0
10
43.937564838226486
20
54.524879536354305
30
0
10
44.428514883302071
20
53.67671176660339
30
0
10
45.136170489903343
20
52.901952237555122
30
0
10
46.105523172652724
20
52.518089004350841
30
0
10
47.145894924779348
20
52.674946031908306
30
0
10
48.228810940305351
20
53.27570357502487
30
0
10
49.302533599348848
20
54.139011830814532
30
0
10
50.295947604011801
20
55.008656816493996
30
0
10
51.13878144773296
20
55.617495823716055
30
0
10
51.777841433668222
20
55.737638166666272
30
0
10
52.195034906869211
20
55.236309846652539
30
0
10
52.425839914113944
20
54.13250452950691
30
0
10
52.543986213365258
20
52.556448738140169
30
0
10
52.646249982577586
20
50.709303985108278
30
0
10
52.837418426280223
20
48.823771061436531
30
0
10
53.216324402298653
20
47.127541273207171
30
0
10
53.859214757700101
20
45.800654188097234
30
0
10
54.810605263604614
20
44.951191954169303
30
0
10
56.093701155873781
20
44.63844057525931
30
0
10
57.391907199524255
20
44.836307735129637
30
0
10
58.518352051361397
20
45.23819830117511
30
0
10
59.336941255764017
20
45.618318461440531
30
0
10
59.763142630056976
20
45.836427470659757
30
0
0
SPLINE
5
224
100
AcDbEntity
8
0
100
AcDbSpline
70
4
71
5
72
76
73
70
74
0
42
0.000000001
43
0.0000000001
44
0.0000000001
40
0
40
0
40
0
40
0
40
0
40
0
40
0.015384615384615385
40
0.030769230769230771
40
0.046153846153846156
40
0.061538461538461542
40
0.076923076923076927
40
0.092307692307692313
40
0.1076923076923077
40
0.12307692307692308
40
0.13846153846153847
40
0.15384615384615385
40
0.16923076923076924
40
0.18461538461538463
40
0.20000000000000001
40
0.2153846153846154
40
0.23076923076923078
40
0.24615384615384617
40
0.26153846153846155
40
0.27692307692307694
40
0.29230769230769232
40
0.30769230769230771
40
0.32307692307692309
40
0.33846153846153848
40
0.35384615384615387
40
0.36923076923076925
40
0.38461538461538464
40
0.40000000000000002
40
0.41538461538461541
40
0.43076923076923079
40
0.44615384615384618
40
0.46153846153846156
40
0.47692307692307695
40
0.49230769230769234
40
0.50769230769230766
40
0.52307692307692299
40
0.53846153846153832
40
0.55384615384615365
40
0.56923076923076898
40
0.58461538461538431
40
0.59999999999999964
40
0.61538461538461497
40
0.6307692307692303
40
0.64615384615384563
40
0.66153846153846096
40
0.67692307692307629
40
0.69230769230769162
40
0.70769230769230695
40
0.72307692307692228
40
0.73846153846153761
40
0.75384615384615294
40
0.76923076923076827
40
0.7846153846153836
40
0.79999999999999893
40
0.81538461538461426
40
0.83076923076922959
40
0.84615384615384492
40
0.86153846153846025
40
0.87692307692307558
40
0.89230769230769091
40
0.90769230769230624
40
0.92307692307692157
40
0.9384615384615369
40
0.95384615384615223
40
0.96923076923076756
40
0.98461538461538289
40
1
40
1
40
1
40
1
40
1
40
1
41
1
41
1
41
1
41
1
41
1
41
1
41
1
41
1
41
1
41
1
41
1
41
1
41
1
41
1
41
1
41
1
41
1
41
1
41
1
41
1
41
1
41
1
41
1
41
1
41
1
41
1
41
1
41
1
41
1
41
1
41
1
41
1
41
1
41
1
41
1
41
1
41
1
41
1
41
1
41
1
41
1
41
1
41
1
41
1
41
1
41
1
41
1
41
1
41
1
41
1
41
1
41
1
41
1
41
1
41
1
41
1
41
1
41
1
41
1
41
1
41
1
41
1
41
1
41
1
41
1
41
1
41
1
41
1
41
1
41
1
10
-1.8399999999999928
20
165.57999999999998
30
0
10
-1.4263687072623243
20
165.32951795127451
30
0
10
-0.60964612818956032
20
164.88477025632386
30
0
10
0.58382158890709768
20
164.38629861587316
30
0
10
2.1118216922217852
20
164.05909353147376
30
0
10
3.9110429467051544
20
164.20923381131337
30
0
10
5.5832130387054457
20
164.90742114408479
30
0
10
7.0970587337537214
20
166.13065965068637
30
0
10
8.3980329187065408
20
167.83925564187507
30
0
10
9.4156412490552217
20
169.97475056077354
30
0
10
10.086890874512143
20
172.46039004314707
30
0
10
10.374423164875459
20
175.20111886771784
30
0
10
10.288906425954984
20
178.08320442723297
30
0
10
9.9049248670096954
20
180.97521771773017
30
0
10
9.391645367905765
20
183.72532296447642
30
0
10
8.9839237982262095
20
186.17382744602085
30
0
10
8.9163350632394547
20
188.17487832804588
30
0
10
9.364158506518713
20
189.61716966251302
30
0
10
10.390458476339351
20
190.44131827420648
30
0
10
11.868383956505497
20
190.66798301787975
30
0
10
13.495477252069684
20
190.38713911081746
30
0
10
14.929361763287307
20
189.69564448652409
30
0
10
15.889295452968282
20
188.6502764490549
30
0
10
16.280055171477393
20
187.20850788292395
30
0
10
16.151771175529056
20
185.28170112420511
30
0
10
15.650633159328581
20
182.79452669837934
30
0
10
14.972267807689008
20
179.74415734755709
30
0
10
14.315575947447709
20
176.25518115383107
30
0
10
13.832489193844657
20
172.64841004271588
30
0
10
13.628011306362422
20
169.35764429395502
30
0
10
13.766570609622047
20
166.82829405495039
30
0
10
14.276044884499747
20
165.42129906835416
30
0
10
15.152723867600816
20
165.3174362642344
30
0
10
16.365760006152279
20
166.41476751299496
30
0
10
17.861931520253602
20
168.24691617611921
30
0
10
19.572207754594992
20
170.15882865356724
30
0
10
21.418264174644793
20
171.4684078204566
30
0
10
23.31886635987339
20
171.62667082913484
30
0
10
25.196600506985469
20
170.39438797039469
30
0
10
26.983557686585268
20
167.96506225664459
30
0
10
28.621734111463425
20
164.81275737471549
30
0
10
30.06413439460621
20
161.5753009033636
30
0
10
31.275613886380391
20
158.92586402392942
30
0
10
32.233867875597589
20
157.44553339989
30
0
10
32.930345764135836
20
157.50494479682294
30
0
10
33.37131241370934
20
159.11665565132719
30
0
10
33.578188529413154
20
162.00010683581056
30
0
10
33.587793372683088
20
165.69562697985691
30
0
10
33.452563451849329
20
169.66055275378829
30
0
10
33.240994581746151
20
173.37428418962969
30
0
10
33.037585621884091
20
176.43572508000219
30
0
10
32.944051487051283
20
178.67311223278065
30
0
10
33.076968392511702
20
180.22248117019873
30
0
10
33.535209367249301
20
181.35640820777067
30
0
10
34.371463261987159
20
182.3414466776706
30
0
10
35.559591617911096
20
183.27480786380636
30
0
10
36.971019553190011
20
183.95832248662873
30
0
10
38.432347394914025
20
184.08861442473875
30
0
10
39.771289495559159
20
183.4014206023686
30
0
10
40.876606256651719
20
181.8723512614001
30
0
10
41.705768955630759
20
179.7057406374152
30
0
10
42.265496839593617
20
177.21586357383583
30
0
10
42.600613392111633
20
174.73671549287366
30
0
10
42.779753002901089
20
172.5305391052332
30
0
10
42.881915214993469
20
170.67112845884446
30
0
10
42.984810689071516
20
169.03690318316239
30
0
10
43.121851307796675
20
167.74914804914408
30
0
10
43.277036372760207
20
166.70585131788982
30
0
10
43.40634060625662
20
165.96314902167893
30
0
10
43.477454484635629
20
165.57999999999998
30
0
0
SPLINE
5
225
100
AcDbEntity
8
0
100
AcDbSpline
70
4
71
5
72
121
73
115
74
0
42
0.000000001
43
0.0000000001
44
0.0000000001
40
0
40
0
40
0
40
0
40
0
40
0
40
0.0090909090909090905
40
0.018181818181818181
40
0.027272727272727271
40
0.036363636363636362
40
0.045454545454545456
40
0.05454545454545455
40
0.063636363636363644
40
0.072727272727272738
40
0.081818181818181832
40
0.090909090909090925
40
0.10000000000000002
40
0.10909090909090911
40
0.11818181818181821
40
0.12727272727272729
40
0.13636363636363638
40
0.14545454545454548
40
0.15454545454545457
40
0.16363636363636366
40
0.17272727272727276
40
0.18181818181818185
40
0.19090909090909094
40
0.20000000000000004
40
0.20909090909090913
40
0.21818181818181823
40
0.22727272727272732
40
0.23636363636363641
40
0.24545454545454551
40
0.25454545454545457
40
0.26363636363636367
40
0.27272727272727276
40
0.28181818181818186
40
0.29090909090909095
40
0.30000000000000004
40
0.30909090909090914
40
0.31818181818181823
40
0.32727272727272733
40
0.33636363636363642
40
0.34545454545454551
40
0.35454545454545461
40
0.3636363636363637
40
0.3727272727272728
40
0.38181818181818189
40
0.39090909090909098
40
0.40000000000000008
40
0.40909090909090917
40
0.41818181818181827
40
0.42727272727272736
40
0.43636363636363645
40
0.44545454545454555
40
0.45454545454545464
40
0.46363636363636374
40
0.47272727272727283
40
0.48181818181818192
40
0.49090909090909102
40
0.50000000000000011
40
0.50909090909090915
40
0.51818181818181819
40
0.52727272727272723
40
0.53636363636363626
40
0.5454545454545453
40
0.55454545454545434
40
0.56363636363636338
40
0.57272727272727242
40
0.58181818181818146
40
0.5909090909090905
40
0.59999999999999953
40
0.60909090909090857
40
0.61818181818181761
40
0.62727272727272665
40
0.63636363636363569
40
0.64545454545454473
40
0.65454545454545376
40
0.6636363636363628
40
0.67272727272727184
40
0.68181818181818088
40
0.69090909090908992
40
0.69999999999999896
40
0.70909090909090799
40
0.71818181818181703
40
0.72727272727272607
40
0.73636363636363511
40
0.74545454545454415
40
0.75454545454545319
40
0.76363636363636223
40
0.77272727272727126
40
0.7818181818181803
40
0.79090909090908934
40
0.79999999999999838
40
0.80909090909090742
40
0.81818181818181646
40
0.82727272727272549
40
0.83636363636363453
40
0.84545454545454357
40
0.85454545454545261
40
0.86363636363636165
40
0.87272727272727069
40
0.88181818181817972
40
0.89090909090908876
40
0.8999999999999978
40
0.90909090909090684
40
0.91818181818181588
40
0.92727272727272492
40
0.93636363636363396
40
0.94545454545454299
40
0.95454545454545203
40
0.96363636363636107
40
0.97272727272727011
40
0.98181818181817915
40
0.99090909090908819
40
1
40
1
40
1
40
1
40
1
40
1
41
1
41
1
41
1
41
1
41
1
41
1
41
1
41
1
41
1
41
1
41
1
41
1
41
1
41
1
41
1
41
1
41
1
41
1
41
1
41
1
41
1
41
1
41
1
41
1
41
1
41
1
41
1
41
1
41
1
41
1
41
1
41
1
41
1
41
1
41
1
41
1
41
1
41
1
41
1
41
1
41
1
41
1
41
1
41
1
41
1
41
1
41
1
41
1
41
1
41
1
41
1
41
1
41
1
41
1
41
1
41
1
41
1
41
1
41
1
41
1
41
1
41
1
41
1
41
1
41
1
41
1
41
1
41
1
41
1
41
1
41
1
41
1
41
1
41
1
41
1
41
1
41
1
41
1
41
1
41
1
41
1
41
1
41
1
41
1
41
1
41
1
41
1
41
1
41
1
41
1
41
1
41
1
41
1
41
1
41
1
41
1
41
1
41
1
41
1
41
1
41
1
41
1
41
1
41
1
41
1
41
1
41
1
41
1
41
1
41
1
41
1
41
1
41
1
41
1
41
1
10
59.763142630056976
20
155.83642747065977
30
0
10
60.116975303491884
20
156.03001554034125
30
0
10
60.809946614825499
20
156.4397448662497
30
0
10
61.805332660779342
20
157.1220021828845
30
0
10
63.060541704992914
20
158.14591313362538
30
0
10
64.595034480907728
20
159.4839506320709
30
0
10
66.186867708489601
20
160.69335460703041
30
0
10
67.900978593423901
20
161.55954276954989
30
0
10
69.729679419980243
20
161.86259136479083
30
0
10
71.597526099061909
20
161.41857023506697
30
0
10
73.404313231959563
20
160.140542162928
30
0
10
75.053590875704415
20
158.08416548896733
30
0
10
76.494702627811961
20
155.52211657472964
30
0
10
77.730406819934387
20
152.92155861767648
30
0
10
78.790021879756623
20
150.81870741827333
30
0
10
79.710452612372762
20
149.7156733460709
30
0
10
80.516354578051192
20
149.97867273192725
30
0
10
81.194849723794647
20
151.70956335938118
30
0
10
81.700254315910456
20
154.75272816974646
30
0
10
81.977279583789837
20
158.78444362111946
30
0
10
81.978688437771297
20
163.37713902969398
30
0
10
81.684971710147764
20
168.0734838515053
30
0
10
81.123813041449353
20
172.45737492581566
30
0
10
80.388175513671612
20
176.22360382721897
30
0
10
79.658576193376916
20
179.25449627722375
30
0
10
79.213212456958047
20
181.67513053604679
30
0
10
79.332744473436676
20
183.72223907740101
30
0
10
80.215518337713178
20
185.63095531376464
30
0
10
81.886815138655251
20
187.51271872343554
30
0
10
84.115023155046032
20
189.2415495866104
30
0
10
86.313231929825548
20
190.32460447416952
30
0
10
87.81883062496631
20
190.18064591299637
30
0
10
88.153955274792892
20
188.40036752980009
30
0
10
87.350805394375826
20
185.07042518798568
30
0
10
86.056390956563035
20
180.88148243039046
30
0
10
85.116143046080538
20
176.74263540529907
30
0
10
85.343473002568274
20
173.55531766044254
30
0
10
87.054889411889661
20
171.80710595783074
30
0
10
90.073188877050569
20
171.50983858375528
30
0
10
92.639526020044315
20
171.34302437852907
30
0
10
93.704808123974161
20
170.25079957198915
30
0
10
93.452198382553064
20
167.98479106650845
30
0
10
92.475741867204007
20
164.65349418138416
30
0
10
91.48185869461139
20
160.67266280518294
30
0
10
90.84673348973736
20
156.55837935506054
30
0
10
90.749915113370662
20
152.87749021725955
30
0
10
91.202174824139547
20
150.15660639061969
30
0
10
92.117267361334569
20
148.80562529251711
30
0
10
93.362315894842268
20
149.04162114053784
30
0
10
94.823414985559396
20
150.79645644004677
30
0
10
96.445594286098355
20
153.68168481558317
30
0
10
98.20684654345412
20
157.13093687711688
30
0
10
100.10301428887765
20
160.51294381664124
30
0
10
102.12899120137686
20
163.25233246079702
30
0
10
104.26021347842644
20
164.95571324285211
30
0
10
106.43702250194558
20
165.51545027059075
30
0
10
108.54013647949785
20
165.27443601774706
30
0
10
110.40993236991555
20
164.89364705638397
30
0
10
111.88905933694649
20
165.05448691780572
30
0
10
112.85527727852147
20
166.2421045729651
30
0
10
113.26426500401755
20
168.42492021991288
30
0
10
113.15653025932954
20
171.15077591994392
30
0
10
112.64840839297898
20
173.82279293334642
30
0
10
111.92906590231318
20
175.92464033583815
30
0
10
111.25287393526035
20
177.25283096483454
30
0
10
110.93985531739462
20
178.18408879516781
30
0
10
111.26568384129406
20
179.32403255195834
30
0
10
112.32991293874289
20
181.06221749006747
30
0
10
113.95728722015809
20
183.2289681237155
30
0
10
115.81690739687444
20
185.33749250929367
30
0
10
117.52534903165156
20
186.78197723117739
30
0
10
118.74745394151107
20
187.03532684030182
30
0
10
119.31816766381581
20
185.88747975975531
30
0
10
119.28500203482128
20
183.52451888684794
30
0
10
118.823408937878
20
180.35138386732442
30
0
10
118.18188173352567
20
176.87446631754401
30
0
10
117.61571840521809
20
173.56163688980561
30
0
10
117.32423417643173
20
170.70837001598161
30
0
10
117.39049073319194
20
168.31131071500633
30
0
10
117.81300265283782
20
166.17706250850401
30
0
10
118.5322412937404
20
164.01691525872246
30
0
10
119.46007707146808
20
161.55130100641546
30
0
10
120.50568821071747
20
158.5999517776479
30
0
10
121.60855898491201
20
155.20326454449796
30
0
10
122.74652082401542
20
151.63201021757365
30
0
10
123.91824504125617
20
148.28230021690311
30
0
10
125.1328486545876
20
145.60257446053714
30
0
10
126.39609464873351
20
144.00519129165315
30
0
10
127.69922539527614
20
143.79006127637902
30
0
10
129.00382731699293
20
145.04989879607777
30
0
10
130.23744393211592
20
147.62542083049166
30
0
10
131.31694055734238
20
151.19067922027523
30
0
10
132.16704934901026
20
155.31469623579221
30
0
10
132.74013735444365
20
159.5313615775797
30
0
10
133.03703378766573
20
163.40816376530373
30
0
10
133.12377424550195
20
166.60985853198247
30
0
10
133.15898888520437
20
168.97783550253027
30
0
10
133.38738778199337
20
170.55879243000791
30
0
10
134.02963959044808
20
171.48822259177655
30
0
10
135.20610965545325
20
171.9122754728335
30
0
10
136.81471024509699
20
171.86960154155133
30
0
10
138.56671371429198
20
171.29629604700997
30
0
10
140.13737352040377
20
170.11800134075065
30
0
10
141.28465762947579
20
168.31776199155945
30
0
10
141.97768938305967
20
166.01173016747933
30
0
10
142.33633322593138
20
163.40567074330284
30
0
10
142.57801948942083
20
160.7564341885992
30
0
10
142.9603898032961
20
158.33041137517566
30
0
10
143.72894742876846
20
156.3657791086259
30
0
10
145.05425928108667
20
155.02662609389154
30
0
10
147.0363767743344
20
154.40954026874726
30
0
10
149.18796302726886
20
154.53243927813887
30
0
10
151.1273322705147
20
154.97853126413625
30
0
10
152.56498760269193
20
155.43321364797987
30
0
10
153.31999999999999
20
155.69987607237556
30
0
0
SPLINE
5
226
100
AcDbEntity
8
0
100
AcDbSpline
70
4
71
5
72
31
73
25
74
0
42
0.000000001
43
0.0000000001
44
0.0000000001
40
0
40
0
40
0
40
0
40
0
40
0
40
0.050000000000000003
40
0.10000000000000001
40
0.15000000000000002
40
0.20000000000000001
40
0.25
40
0.29999999999999999
40
0.34999999999999998
40
0.39999999999999997
40
0.44999999999999996
40
0.49999999999999994
40
0.54999999999999993
40
0.59999999999999998
40
0.65000000000000002
40
0.70000000000000007
40
0.75000000000000011
40
0.80000000000000016
40
0.8500000000000002
40
0.90000000000000024
40
0.95000000000000029
40
1
40
1
40
1
40
1
40
1
40
1
41
1
41
1
41
1
41
1
41
1
41
1
41
1
41
1
41
1
41
1
41
1
41
1
41
1
41
1
41
1
41
1
41
1
41
1
41
1
41
1
41
1
41
1
41
1
41
1
41
1
10
43.477454484635629
20
165.57999999999998
30
0
10
43.627887811516011
20
165.2085844595162
30
0
10
43.937564838226628
20
164.52487953630026
30
0
10
44.428514883302299
20
163.67671176651589
30
0
10
45.136170489903627
20
162.90195223745641
30
0
10
46.105523172652923
20
162.51808900427849
30
0
10
47.145894924779455
20
162.6749460318826
30
0
10
48.228810940305273
20
163.27570357504669
30
0
10
49.302533599348628
20
164.13901183086895
30
0
10
50.295947604011538
20
165.00865681655708
30
0
10
51.138781447732818
20
165.61749582376115
30
0
10
51.777841433668208
20
165.73763816667022
30
0
10
52.19503490686936
20
165.23630984660258
30
0
10
52.42583991411415
20
164.1325045294067
30
0
10
52.54398621336545
20
162.55644873801151
30
0
10
52.646249982577693
20
160.70930398498714
30
0
10
52.837418426280244
20
158.82377106136698
30
0
10
53.216324402298618
20
157.12754127323049
30
0
10
53.859214757700101
20
155.80065418823517
30
0
10
54.810605263604721
20
154.95119195440719
30
0
10
56.093701155873966
20
154.63844057553874
30
0
10
57.391907199524425
20
154.83630773536271
30
0
10
58.518352051361504
20
155.23819830131532
30
0
10
59.33694125576406
20
155.61831846149175
30
0
10
59.763142630056976
20
155.83642747065977
30
0
0
SPLINE
5
227
100
AcDbEntity
8
0
100
AcDbSpline
70
4
71
5
72
31
73
25
74
0
42
0.000000001
43
0.0000000001
44
0.0000000001
40
0
40
0
40
0
40
0
40
0
40
0
40
0.050000000000000003
40
0.10000000000000001
40
0.15000000000000002
40
0.20000000000000001
40
0.25
40
0.29999999999999999
40
0.34999999999999998
40
0.39999999999999997
40
0.44999999999999996
40
0.49999999999999994
40
0.54999999999999993
40
0.59999999999999998
40
0.65000000000000002
40
0.70000000000000007
40
0.75000000000000011
40
0.80000000000000016
40
0.8500000000000002
40
0.90000000000000024
40
0.95000000000000029
40
1
40
1
40
1
40
1
40
1
40
1
41
1
41
1
41
1
41
1
41
1
41
1
41
1
41
1
41
1
41
1
41
1
41
1
41
1
41
1
41
1
41
1
41
1
41
1
41
1
41
1
41
1
41
1
41
1
41
1
41
1
10
12.770386414157961
20
154.93008418048706
30
0
10
12.718876440123505
20
154.84280162953812
30
0
10
12.626678124162957
20
154.66977870132555
30
0
10
12.520845817928537
20
154.41487056392549
30
0
10
12.444929023883249
20
154.08428558246217
30
0
10
12.459220596963283
20
153.68763325896094
30
0
10
12.581504031880939
20
153.31049732920158
30
0
10
12.807300039434782
20
152.95840527274373
30
0
10
13.126811003402137
20
152.64050814184532
30
0
10
13.52378902359437
20
152.36983107919048
30
0
10
13.977938060717054
20
152.16068758112331
30
0
10
14.466605755302282
20
152.02655352551551
30
0
10
14.966653088808485
20
151.97765017713667
30
0
10
15.456148859139773
20
152.01863026843736
30
0
10
15.916226478766866
20
152.14576948540758
30
0
10
16.331053787237263
20
152.34934678601988
30
0
10
16.687721221113005
20
152.61623467324372
30
0
10
16.976273477037267
20
152.9323164536375
30
0
10
17.189741018172963
20
153.28474926818038
30
0
10
17.3244285180171
20
153.66456648845474
30
0
10
17.379061258669363
20
154.06630048426803
30
0
10
17.358836352334325
20
154.40288262615616
30
0
10
17.308028431975899
20
154.66336695019183
30
0
10
17.258381095672231
20
154.84058480710956
30
0
10
17.229613585842039
20
154.93008418048706
30
0
0
SPLINE
5
228
100
AcDbEntity
8
0
100
AcDbSpline
70
4
71
5
72
31
73
25
74
0
42
0.000000001
43
0.0000000001
44
0.0000000001
40
0
40
0
40
0
40
0
40
0
40
0
40
0.050000000000000003
40
0.10000000000000001
40
0.15000000000000002
40
0.20000000000000001
40
0.25
40
0.29999999999999999
40
0.34999999999999998
40
0.39999999999999997
40
0.44999999999999996
40
0.49999999999999994
40
0.54999999999999993
40
0.59999999999999998
40
0.65000000000000002
40
0.70000000000000007
40
0.75000000000000011
40
0.80000000000000016
40
0.8500000000000002
40
0.90000000000000024
40
0.95000000000000029
40
1
40
1
40
1
40
1
40
1
40
1
41
1
41
1
41
1
41
1
41
1
41
1
41
1
41
1
41
1
41
1
41
1
41
1
41
1
41
1
41
1
41
1
41
1
41
1
41
1
41
1
41
1
41
1
41
1
41
1
41
1
10
20.313747020858948
20
144.71511669224569
30
0
10
20.262237046827927
20
144.6278341413182
30
0
10
20.170038730873287
20
144.45481121314234
30
0
10
20.064206424644734
20
144.19990307577851
30
0
10
19.988289630601539
20
143.86931809432812
30
0
10
20.002581203677284
20
143.47266577080052
30
0
10
20.124864638587283
20
143.09552984099426
30
0
10
20.350660646133669
20
142.74343778448934
30
0
10
20.67017161009629
20
142.42554065355958
30
0
10
21.067149630287258
20
142.15486359089459
30
0
10
21.521298667411561
20
141.94572009283587
30
0
10
22.009966361999965
20
141.81158603724856
30
0
10
22.510013695509503
20
141.76268268889447
30
0
10
22.999509465843108
20
141.80366278021674
30
0
10
23.459587085471053
20
141.9308019971989
30
0
10
23.874414393941002
20
142.13437929781196
30
0
10
24.231081827815494
20
142.40126718502526
30
0
10
24.51963408373836
20
142.71734896540036
30
0
10
24.733101624873072
20
143.0697817799215
30
0
10
24.867789124716836
20
143.4495990001779
30
0
10
24.922421865369238
20
143.85133299598357
30
0
10
24.902196959034523
20
144.18791513787872
30
0
10
24.851389038676444
20
144.44839946192877
30
0
10
24.801741702373057
20
144.62561731886024
30
0
10
24.772974192543025
20
144.71511669224569
30
0
0
LINE
5
229
100
AcDbEntity
8
0
100
AcDbLine
10
15
20
160
30
0
11
17.229613585842039
21
154.93008418048706
31
0
0
LINE
5
230
100
AcDbEntity
8
0
100
AcDbLine
10
15
20
160
30
0
11
12.527976791734829
21
154.37885241975749
31
0
0
LINE
5
231
100
AcDbEntity
8
0
100
AcDbLine
10
22.543360606700986
20
149.78503251175863
30
0
11
24.772974192543025
21
144.71511669224569
31
0
0
LINE
5
232
100
AcDbEntity
8
0
100
AcDbLine
10
22.543360606700986
20
149.78503251175863
30
0
11
20.071337398435816
21
144.16388493151612
31
0
0
SPLINE
5
233
100
AcDbEntity
8
0
100
AcDbSpline
70
4
71
5
72
31
73
25
74
0
42
0.000000001
43
0.0000000001
44
0.0000000001
40
0
40
0
40
0
40
0
40
0
40
0
40
0.050000000000000003
40
0.10000000000000001
40
0.15000000000000002
40
0.20000000000000001
40
0.25
40
0.29999999999999999
40
0.34999999999999998
40
0.39999999999999997
40
0.44999999999999996
40
0.49999999999999994
40
0.54999999999999993
40
0.59999999999999998
40
0.65000000000000002
40
0.70000000000000007
40
0.75000000000000011
40
0.80000000000000016
40
0.8500000000000002
40
0.90000000000000024
40
0.95000000000000029
40
1
40
1
40
1
40
1
40
1
40
1
41
1
41
1
41
1
41
1
41
1
41
1
41
1
41
1
41
1
41
1
41
1
41
1
41
1
41
1
41
1
41
1
41
1
41
1
41
1
41
1
41
1
41
1
41
1
41
1
41
1
10
72.488657883875646
20
141.57204977278693
30
0
10
72.437147909845294
20
141.48476722184103
30
0
10
72.344949593891684
20
141.31174429363361
30
0
10
72.239117287663703
20
141.05683615623843
30
0
10
72.163200493619485
20
140.72625117477645
30
0
10
72.177492066693048
20
140.3295988512709
30
0
10
72.29977550160207
20
139.95246292150517
30
0
10
72.525571509150325
20
139.60037086504187
30
0
10
72.845082473117685
20
139.28247373414104
30
0
10
73.242060493313815
20
139.01179667148662
30
0
10
73.696209530440868
20
138.80265317342119
30
0
10
74.184877225026909
20
138.66851911781495
30
0
10
74.684924558528138
20
138.61961576943671
30
0
10
75.17442032884874
20
138.6605958607372
30
0
10
75.634497948464215
20
138.7877350777064
30
0
10
76.049325256927816
20
138.9913123783179
30
0
10
76.405992690807253
20
139.25820026554166
30
0
10
76.694544946748323
20
139.57428204593674
30
0
10
76.908012487911833
20
139.92671486048201
30
0
10
77.042699987785269
20
140.30653208075915
30
0
10
77.097332728454305
20
140.70826607657395
30
0
10
77.077107822111202
20
141.04484821846134
30
0
10
77.026299901730113
20
141.30533254249491
30
0
10
76.976652565403384
20
141.4825503994106
30
0
10
76.947885055559738
20
141.57204977278693
30
0
0
LINE
5
234
100
AcDbEntity
8
0
100
AcDbLine
10
74.718265888081561
20
146.641968046947
30
0
11
72.24624267981639
21
141.02082046670449
31
0
0
LINE
5
235
100
AcDbEntity
8
0
100
AcDbLine
10
74.718271469717692
20
146.64196559229987
30
0
11
76.947885055559738
21
141.57204977278693
31
0
0
SPLINE
5
236
100
AcDbEntity
8
0
100
AcDbSpline
70
4
71
5
72
31
73
25
74
0
42
0.000000001
43
0.0000000001
44
0.0000000001
40
0
40
0
40
0
40
0
40
0
40
0
40
0.050000000000000003
40
0.10000000000000001
40
0.15000000000000002
40
0.20000000000000001
40
0.25
40
0.29999999999999999
40
0.34999999999999998
40
0.39999999999999997
40
0.44999999999999996
40
0.49999999999999994
40
0.54999999999999993
40
0.59999999999999998
40
0.65000000000000002
40
0.70000000000000007
40
0.75000000000000011
40
0.80000000000000016
40
0.8500000000000002
40
0.90000000000000024
40
0.95000000000000029
40
1
40
1
40
1
40
1
40
1
40
1
41
1
41
1
41
1
41
1
41
1
41
1
41
1
41
1
41
1
41
1
41
1
41
1
41
1
41
1
41
1
41
1
41
1
41
1
41
1
41
1
41
1
41
1
41
1
41
1
41
1
10
122.23469484627479
20
130.6752988191183
30
0
10
122.18318487225471
20
130.58801626819667
30
0
10
122.09098655631864
20
130.4149933400308
30
0
10
121.98515425010767
20
130.1600852026763
30
0
10
121.90923745606874
20
129.82950022122853
30
0
10
121.9235290291285
20
129.43284789769282
30
0
10
122.045812464015
20
129.055711967874
30
0
10
122.27160847154357
20
128.70361991135869
30
0
10
122.59111943550097
20
128.38572278042409
30
0
10
122.98809745569721
20
128.11504571775902
30
0
10
123.44224649283106
20
127.90590221970362
30
0
10
123.93091418742459
20
127.77176816412026
30
0
10
124.43096152092906
20
127.72286481576801
30
0
10
124.92045729124575
20
127.76384490708828
30
0
10
125.38053491085299
20
127.890984124067
30
0
10
125.79536221930944
20
128.09456142467698
30
0
10
126.15202965318917
20
128.36144931189065
30
0
10
126.44058190914171
20
128.6775310922707
30
0
10
126.65404945032783
20
129.02996390680096
30
0
10
126.78873695022659
20
129.40978112706713
30
0
10
126.84336969091106
20
129.81151512287835
30
0
10
126.82314478456166
20
130.14809726477094
30
0
10
126.77233686416108
20
130.40858158881338
30
0
10
126.7226895278143
20
130.58579944573728
30
0
10
126.69392201795887
20
130.6752988191183
30
0
0
LINE
5
237
100
AcDbEntity
8
0
100
AcDbLine
10
124.46430843211684
20
135.74521463863121
30
0
11
126.69392201795887
21
130.6752988191183
31
0
0
LINE
5
238
100
AcDbEntity
8
0
100
AcDbLine
10
112.62001391725991
20
154.45919997210547
30
0
11
114.84962750310196
21
149.38928415259255
31
0
0
LINE
5
239
100
AcDbEntity
8
0
100
AcDbLine
10
112.62000833562379
20
154.45920242675265
30
0
11
110.14798512735862
21
148.83805484651012
31
0
0
SPLINE
5
240
100
AcDbEntity
8
0
100
AcDbSpline
70
4
71
5
72
31
73
25
74
0
42
0.000000001
43
0.0000000001
44
0.0000000001
40
0
40
0
40
0
40
0
40
0
40
0
40
0.050000000000000003
40
0.10000000000000001
40
0.15000000000000002
40
0.20000000000000001
40
0.25
40
0.29999999999999999
40
0.34999999999999998
40
0.39999999999999997
40
0.44999999999999996
40
0.49999999999999994
40
0.54999999999999993
40
0.59999999999999998
40
0.65000000000000002
40
0.70000000000000007
40
0.75000000000000011
40
0.80000000000000016
40
0.8500000000000002
40
0.90000000000000024
40
0.95000000000000029
40
1
40
1
40
1
40
1
40
1
40
1
41
1
41
1
41
1
41
1
41
1
41
1
41
1
41
1
41
1
41
1
41
1
41
1
41
1
41
1
41
1
41
1
41
1
41
1
41
1
41
1
41
1
41
1
41
1
41
1
41
1
10
110.39040033141788
20
149.38928415259255
30
0
10
110.33889035736703
20
149.30200160166382
30
0
10
110.24669204137814
20
149.12897867348573
30
0
10
110.140859735115
20
148.87407053611926
30
0
10
110.06494294105738
20
148.54348555466697
30
0
10
110.07923451415513
20
148.14683323113942
30
0
10
110.20151794910986
20
147.76969730133607
30
0
10
110.42731395670532
20
147.41760524483726
30
0
10
110.74682492070656
20
147.09970811391517
30
0
10
111.1438029409164
20
146.82903105125601
30
0
10
111.59795197803705
20
146.61988755319894
30
0
10
112.086619672601
20
146.4857534976075
30
0
10
112.58666700607229
20
146.43685014924316
30
0
10
113.07616277636367
20
146.47783024055113
30
0
10
113.53624039595888
20
146.60496945752084
30
0
10
113.95106770441727
20
146.80854675812819
30
0
10
114.30773513830982
20
147.07543464534726
30
0
10
114.59628739428148
20
147.39151642574092
30
0
10
114.80975493548686
20
147.74394924028974
30
0
10
114.94444243539994
20
148.12376646057359
30
0
10
114.99907517608945
20
148.52550045639387
30
0
10
114.97885026973375
20
148.86208259828075
30
0
10
114.9280423493215
20
149.12256692230935
30
0
10
114.87839501296371
20
149.29978477921955
30
0
10
114.84962750310196
20
149.38928415259255
30
0
0
LINE
5
241
100
AcDbEntity
8
0
100
AcDbLine
10
124.46430285048069
20
135.74521709327837
30
0
11
121.99227964221552
21
130.12406951303586
31
0
0
SPLINE
5
242
100
AcDbEntity
8
0
100
AcDbSpline
70
4
71
5
72
21
73
15
74
0
42
0.000000001
43
0.0000000001
44
0.0000000001
40
0
40
0
40
0
40
0
40
0
40
0
40
0.10000000000000001
40
0.20000000000000001
40
0.30000000000000004
40
0.40000000000000002
40
0.5
40
0.59999999999999998
40
0.69999999999999996
40
0.79999999999999993
40
0.89999999999999991
40
1
40
1
40
1
40
1
40
1
40
1
41
1
41
1
41
1
41
1
41
1
41
1
41
1
41
1
41
1
41
1
41
1
41
1
41
1
41
1
41
1
10
383.33034681443803
20
41.082045743165814
30
0
10
383.42373536983462
20
40.571913139361477
30
0
10
383.59923567153766
20
39.557843339767018
30
0
10
383.82865782063379
20
38.055323697610618
30
0
10
384.06576597175683
20
36.089755895631505
30
0
10
384.23944875571857
20
33.700208072902896
30
0
10
384.27847253643847
20
31.384641059770168
30
0
10
384.17018772365844
20
29.150004461510338
30
0
10
383.90497118464702
20
27.001585166673546
30
0
10
383.48478213186763
20
24.938306796217709
30
0
10
382.91957967496154
20
22.954697877915144
30
0
10
382.36004036074434
20
21.426803183269641
30
0
10
381.88369537375695
20
20.312027567138738
30
0
10
381.54134218832235
20
19.582463216636871
30
0
10
381.36396824107612
20
19.221085828983604
30
0
0
LINE
5
243
100
AcDbEntity
8
0
100
AcDbLine
10
381.36396824107612
20
19.221085828983604
30
0
11
370.92277497125349
21
36.503060896276295
31
0
0
LINE
5
244
100
AcDbEntity
8
0
100
AcDbLine
10
381.36396824107612
20
19.221085828983604
30
0
11
377.05328424463067
21
19.221085828983597
31
0
0
SPLINE
5
245
100
AcDbEntity
8
0
100
AcDbSpline
70
4
71
5
72
21
73
15
74
0
42
0.000000001
43
0.0000000001
44
0.0000000001
40
0
40
0
40
0
40
0
40
0
40
0
40
0.10000000000000001
40
0.20000000000000001
40
0.30000000000000004
40
0.40000000000000002
40
0.5
40
0.59999999999999998
40
0.69999999999999996
40
0.79999999999999993
40
0.89999999999999991
40
1
40
1
40
1
40
1
40
1
40
1
41
1
41
1
41
1
41
1
41
1
41
1
41
1
41
1
41
1
41
1
41
1
41
1
41
1
41
1
41
1
10
381.36396824107612
20
19.221085828983604
30
0
10
381.28877162038668
20
19.577173617854648
30
0
10
381.13591451683408
20
20.283485244065091
30
0
10
380.89923776177358
20
21.325361987335029
30
0
10
380.56863915366597
20
22.678760773825676
30
0
10
380.128564244166
20
24.306662271808882
30
0
10
379.65899407567059
20
25.864365537567537
30
0
10
379.15705645948674
20
27.345034809175171
30
0
10
378.62045021604189
20
28.743193317049567
30
0
10
378.04932409574349
20
30.059195084766309
30
0
10
377.44577745434049
20
31.298036544607179
30
0
10
376.93887712556784
20
32.231840130412778
30
0
10
376.54598886934883
20
32.901936065636228
30
0
10
376.27850390984059
20
33.33543527667468
30
0
10
376.14337160616486
20
33.548877124089536
30
0
0
LINE
5
246
100
AcDbEntity
8
0
100
AcDbLine
10
383.33034681443803
20
41.082045743165814
30
0
11
374.04044862755768
21
31.342773465152195
31
0
0
LWPOLYLINE
5
247
100
AcDbEntity
8
0
100
AcDbPolyline
90
8
70
1
43
0.0
10
371.15727168028195
20
33.837340583968654
42
-0.7673269657669044
10
367.55919563468018
20
39.801442359373439
42
1.0194228845919346
10
369.42522087271686
20
32.837340583972143
42
0.78272162906436926
10
372.92522087271243
20
26.775162757476984
42
0.78272162906393861
10
376.42522087271431
20
20.712984930986849
42
1.0194228845914459
10
381.5232973057374
20
15.614908783045468
42
-0.76732696576688586
10
378.15727168028212
20
21.712984930986572
42
-0.78272162906384157
10
374.65727168028144
20
27.775162757477581
42
-0.78272162906382536
0
ARC
5
248
100
AcDbEntity
8
0
100
AcDbCircle
10
375.42522106642809
20
24.177086657965667
30
0
40
3.6055513291908339
210
-0
220
0
230
1
100
AcDbArc
50
313.8978896984766
51
316.10211350545228
0
ARC
5
249
100
AcDbEntity
8
0
100
AcDbCircle
10
378.92522106642809
20
18.114908831474594
30
0
40
3.6055513291909165
210
0
220
0
230
1
100
AcDbArc
50
103.89788649452802
51
106.10211030152146
0
ARC
5
250
100
AcDbEntity
8
0
100
AcDbCircle
10
375.42522106642809
20
24.177086657965667
30
0
40
3.6055513291909138
210
0
220
0
230
1
100
AcDbArc
50
103.89788649454754
51
106.10211030148953
0
ARC
5
251
100
AcDbEntity
8
0
100
AcDbCircle
10
371.92522106642809
20
30.23926448445674
30
0
40
3.6055513291911909
210
-0
220
0
230
1
100
AcDbArc
50
313.8978896985094
51
316.1021135054533
0
ARC
5
252
100
AcDbEntity
8
0
100
AcDbCircle
10
368.42522106642804
20
36.301442310947792
30
0
40
3.6055513291886045
210
-0
220
0
230
1
100
AcDbArc
50
313.89788969842505
51
316.10211350545416
0
ARC
5
253
100
AcDbEntity
8
0
100
AcDbCircle
10
371.92522106642809
20
30.23926448445674
30
0
40
3.6055513291909218
210
0
220
0
230
1
100
AcDbArc
50
103.89788649454755
51
106.10211030158435
0
SPLINE
5
254
100
AcDbEntity
8
0
100
AcDbSpline
70
4
71
5
72
17
73
11
74
0
42
0.000000001
43
0.0000000001
44
0.0000000001
40
0.44317180689000579
40
0.44317180689000579
40
0.44317180689000579
40
0.44317180689000579
40
0.44317180689000579
40
0.44317180689000579
40
0.5
40
0.59999999999999998
40
0.69999999999999996
40
0.79999999999999993
40
0.89999999999999991
40
1
40
1
40
1
40
1
40
1
40
1
41
1
41
1
41
1
41
1
41
1
41
1
41
1
41
1
41
1
41
1
41
1
10
369.21877420282976
20
33.820174939918552
30
0
10
369.2325811563183
20
33.882113618346622
30
0
10
369.27380104086177
20
34.051978550924879
30
0
10
369.35549910033376
20
34.325298865556626
30
0
10
369.50172783895107
20
34.693843895367181
30
0
10
369.74526414421177
20
35.146397525818273
30
0
10
370.07577472191963
20
35.619832406717656
30
0
10
370.38718555362243
20
35.982496296120168
30
0
10
370.64550698998056
20
36.24602031062394
30
0
10
370.82854783687389
20
36.417998184539663
30
0
10
370.92277497125349
20
36.503060896276295
30
0
0
SPLINE
5
255
100
AcDbEntity
8
0
100
AcDbSpline
70
4
71
5
72
12
73
6
74
0
42
0.000000001
43
0.0000000001
44
0.0000000001
40
0.21205313558375891
40
0.21205313558375891
40
0.21205313558375891
40
0.21205313558375891
40
0.21205313558375891
40
0.21205313558375891
40
0.25628700832471946
40
0.25628700832471946
40
0.25628700832471946
40
0.25628700832471946
40
0.25628700832471946
40
0.25628700832471946
41
1
41
1
41
1
41
1
41
1
41
1
10
369.11621411962193
20
32.499680464875532
30
0
10
369.1137031275706
20
32.552429076490263
30
0
10
369.11177033099477
20
32.60497983201877
30
0
10
369.11042244974965
20
32.657330431954605
30
0
10
369.10966663524931
20
32.709478429113631
30
0
10
369.10951025361658
20
32.76142130283926
30
0
0
LINE
5
256
100
AcDbEntity
8
0
100
AcDbLine
10
375.96254585519006
20
20.169794711551955
30
0
11
375.71288349493301
21
20.583028963011852
31
0
0
ARC
5
257
100
AcDbEntity
8
0
100
AcDbCircle
10
348.97381056378885
20
113.63706303111962
30
0
40
3.3134076393247289
210
0
220
0
230
1
100
AcDbArc
50
98.430251818932007
51
219.50215820748258
0
ARC
5
258
100
AcDbEntity
8
0
100
AcDbCircle
10
328.6971324751982
20
41.135254456268022
30
0
40
2.8075686783294711
210
0
220
0
230
1
100
AcDbArc
50
98.134891153036463
51
228.2346983516326
0
LINE
5
259
100
AcDbEntity
8
0
100
AcDbLine
10
182.54336060670099
20
149.78503251175866
30
0
11
184.77297419254299
21
144.71511669224569
31
0
0
LWPOLYLINE
5
260
100
AcDbEntity
8
0
100
AcDbPolyline
90
44
70
1
43
0.0
10
251.40999999999997
20
216.27313710000004
10
251.40999999999997
20
213.82000000000005
10
278.75
20
213.82000000000005
10
278.75
20
216.27313710000004
10
278.79686290000001
20
216.32000000000005
10
315.11313710000002
20
216.32000000000005
10
315.15999999999997
20
216.27313710000004
10
315.15999999999997
20
177.45686290000003
10
315.11313710000002
20
177.41
10
312.65999999999997
20
177.41
10
312.65999999999997
20
150.07000000000002
10
315.11313710000002
20
150.07000000000002
10
315.15999999999997
20
150.02313710000004
10
315.15999999999997
20
111.20686290000002
10
315.11313710000002
20
111.16
10
278.79686290000001
20
111.16
10
278.75
20
111.20686290000002
10
278.75
20
113.66
10
251.40999999999997
20
113.66
10
251.40999999999997
20
111.20686290000002
10
251.36313709999996
20
111.16
10
223.79686289999995
20
111.16
10
223.75
20
111.20686290000002
10
223.75
20
113.66
10
196.40999999999997
20
113.66
10
196.40999999999997
20
111.20686290000002
10
196.36313709999996
20
111.16
10
160.04686289999998
20
111.16
10
159.99999999999997
20
111.20686290000002
10
159.99999999999997
20
150.02313710000004
10
160.04686289999998
20
150.07000000000002
10
162.5
20
150.07000000000002
10
162.5
20
177.41
10
160.04686289999998
20
177.41
10
159.99999999999997
20
177.45686290000003
10
159.99999999999997
20
216.27313710000004
10
160.04686289999998
20
216.32000000000005
10
196.36313709999996
20
216.32000000000005
10
196.40999999999997
20
216.27313710000004
10
196.40999999999997
20
213.82000000000005
10
223.75
20
213.82000000000005
10
223.75
20
216.27313710000004
10
223.79686289999995
20
216.32000000000005
10
251.36313709999996
20
216.32000000000005
0
LINE
5
261
100
AcDbEntity
8
0
100
AcDbLine
10
182.54336060670099
20
149.78503251175866
30
0
11
180.07133739843582
21
144.16388493151615
31
0
0
LINE
5
262
100
AcDbEntity
8
0
100
AcDbLine
10
272.62000833562377
20
154.45920242675265
30
0
11
270.1479851273586
21
148.83805484651015
31
0
0
SPLINE
5
263
100
AcDbEntity
8
0
100
AcDbSpline
70
4
71
5
72
31
73
25
74
0
42
0.000000001
43
0.0000000001
44
0.0000000001
40
0
40
0
40
0
40
0
40
0
40
0
40
0.050000000000000003
40
0.10000000000000001
40
0.15000000000000002
40
0.20000000000000001
40
0.25
40
0.29999999999999999
40
0.34999999999999998
40
0.39999999999999997
40
0.44999999999999996
40
0.49999999999999994
40
0.54999999999999993
40
0.59999999999999998
40
0.65000000000000002
40
0.70000000000000007
40
0.75000000000000011
40
0.80000000000000016
40
0.8500000000000002
40
0.90000000000000024
40
0.95000000000000029
40
1
40
1
40
1
40
1
40
1
40
1
41
1
41
1
41
1
41
1
41
1
41
1
41
1
41
1
41
1
41
1
41
1
41
1
41
1
41
1
41
1
41
1
41
1
41
1
41
1
41
1
41
1
41
1
41
1
41
1
41
1
10
270.39040033141788
20
149.38928415259255
30
0
10
270.33889035740128
20
149.30200160166498
30
0
10
270.24669204147148
20
149.12897867348906
30
0
10
270.14085973526727
20
148.87407053612498
30
0
10
270.06494294123127
20
148.54348555467405
30
0
10
270.07923451428633
20
148.14683323114571
30
0
10
270.20151794916353
20
147.76969730133925
30
0
10
270.42731395668415
20
147.41760524483635
30
0
10
270.74682492063812
20
147.09970811391045
30
0
10
271.14380294083588
20
146.82903105124944
30
0
10
271.59795197797354
20
146.61988755319283
30
0
10
272.08661967256938
20
146.48575349760378
30
0
10
272.58666700607313
20
146.43685014924296
30
0
10
273.0761627763859
20
146.47783024055457
30
0
10
273.53624039598776
20
146.60496945752641
30
0
10
273.95106770444033
20
146.80854675813401
30
0
10
274.30773513832088
20
147.07543464535124
30
0
10
274.59628739428132
20
147.39151642574168
30
0
10
274.80975493548152
20
147.74394924028678
30
0
10
274.94444243539527
20
148.12376646056779
30
0
10
274.99907517608835
20
148.52550045638694
30
0
10
274.97885026973432
20
148.86208259827515
30
0
10
274.92804234932203
20
149.12256692230602
30
0
10
274.87839501296401
20
149.2997847792183
30
0
10
274.84962750310194
20
149.38928415259255
30
0
0
SPLINE
5
264
100
AcDbEntity
8
0
100
AcDbSpline
70
4
71
5
72
31
73
25
74
0
42
0.000000001
43
0.0000000001
44
0.0000000001
40
0
40
0
40
0
40
0
40
0
40
0
40
0.050000000000000003
40
0.10000000000000001
40
0.15000000000000002
40
0.20000000000000001
40
0.25
40
0.29999999999999999
40
0.34999999999999998
40
0.39999999999999997
40
0.44999999999999996
40
0.49999999999999994
40
0.54999999999999993
40
0.59999999999999998
40
0.65000000000000002
40
0.70000000000000007
40
0.75000000000000011
40
0.80000000000000016
40
0.8500000000000002
40
0.90000000000000024
40
0.95000000000000029
40
1
40
1
40
1
40
1
40
1
40
1
41
1
41
1
41
1
41
1
41
1
41
1
41
1
41
1
41
1
41
1
41
1
41
1
41
1
41
1
41
1
41
1
41
1
41
1
41
1
41
1
41
1
41
1
41
1
41
1
41
1
10
232.48865788387562
20
141.57204977278695
30
0
10
232.43714790989003
20
141.48476722183415
30
0
10
232.344949594013
20
141.31174429361488
30
0
10
232.23911728785939
20
141.05683615620757
30
0
10
232.16320049383813
20
140.72625117474072
30
0
10
232.17749206685215
20
140.3295988512433
30
0
10
232.29977550166342
20
139.95246292149335
30
0
10
232.52557150912423
20
139.60037086504636
30
0
10
232.84508247304512
20
139.28247373415687
30
0
10
233.24206049323834
20
139.01179667150745
30
0
10
233.69620953039217
20
138.80265317344015
30
0
10
234.18487722501214
20
138.66851911782658
30
0
10
234.68492455853377
20
138.61961576943759
30
0
10
235.17442032884952
20
138.66059586072691
30
0
10
235.63449794844249
20
138.78773507768756
30
0
10
236.04932525688321
20
138.99131237829616
30
0
10
236.40599269075992
20
139.25820026552492
30
0
10
236.69454494673164
20
139.57428204593262
30
0
10
236.90801248795933
20
139.92671486049628
30
0
10
237.04269998790707
20
140.30653208079175
30
0
10
237.09733272862229
20
140.70826607661638
30
0
10
237.07710782226172
20
141.04484821849854
30
0
10
237.02629990182376
20
141.30533254251776
30
0
10
236.97665256543809
20
141.48255039941904
30
0
10
236.94788505555971
20
141.57204977278695
30
0
0
LINE
5
265
100
AcDbEntity
8
0
100
AcDbLine
10
284.46430285048064
20
135.7452170932784
30
0
11
281.99227964221552
21
130.12406951303589
31
0
0
LINE
5
266
100
AcDbEntity
8
0
100
AcDbLine
10
234.71826588808156
20
146.64196804694706
30
0
11
232.24624267981639
21
141.02082046670449
31
0
0
LINE
5
267
100
AcDbEntity
8
0
100
AcDbLine
10
284.46430843211681
20
135.74521463863121
30
0
11
286.69392201795887
21
130.67529881911832
31
0
0
SPLINE
5
268
100
AcDbEntity
8
0
100
AcDbSpline
70
4
71
5
72
76
73
70
74
0
42
0.000000001
43
0.0000000001
44
0.0000000001
40
0
40
0
40
0
40
0
40
0
40
0
40
0.015384615384615385
40
0.030769230769230771
40
0.046153846153846156
40
0.061538461538461542
40
0.076923076923076927
40
0.092307692307692313
40
0.1076923076923077
40
0.12307692307692308
40
0.13846153846153847
40
0.15384615384615385
40
0.16923076923076924
40
0.18461538461538463
40
0.20000000000000001
40
0.2153846153846154
40
0.23076923076923078
40
0.24615384615384617
40
0.26153846153846155
40
0.27692307692307694
40
0.29230769230769232
40
0.30769230769230771
40
0.32307692307692309
40
0.33846153846153848
40
0.35384615384615387
40
0.36923076923076925
40
0.38461538461538464
40
0.40000000000000002
40
0.41538461538461541
40
0.43076923076923079
40
0.44615384615384618
40
0.46153846153846156
40
0.47692307692307695
40
0.49230769230769234
40
0.50769230769230766
40
0.52307692307692299
40
0.53846153846153832
40
0.55384615384615365
40
0.56923076923076898
40
0.58461538461538431
40
0.59999999999999964
40
0.61538461538461497
40
0.6307692307692303
40
0.64615384615384563
40
0.66153846153846096
40
0.67692307692307629
40
0.69230769230769162
40
0.70769230769230695
40
0.72307692307692228
40
0.73846153846153761
40
0.75384615384615294
40
0.76923076923076827
40
0.7846153846153836
40
0.79999999999999893
40
0.81538461538461426
40
0.83076923076922959
40
0.84615384615384492
40
0.86153846153846025
40
0.87692307692307558
40
0.89230769230769091
40
0.90769230769230624
40
0.92307692307692157
40
0.9384615384615369
40
0.95384615384615223
40
0.96923076923076756
40
0.98461538461538289
40
1
40
1
40
1
40
1
40
1
40
1
41
1
41
1
41
1
41
1
41
1
41
1
41
1
41
1
41
1
41
1
41
1
41
1
41
1
41
1
41
1
41
1
41
1
41
1
41
1
41
1
41
1
41
1
41
1
41
1
41
1
41
1
41
1
41
1
41
1
41
1
41
1
41
1
41
1
41
1
41
1
41
1
41
1
41
1
41
1
41
1
41
1
41
1
41
1
41
1
41
1
41
1
41
1
41
1
41
1
41
1
41
1
41
1
41
1
41
1
41
1
41
1
41
1
41
1
41
1
41
1
41
1
41
1
41
1
41
1
41
1
41
1
41
1
41
1
41
1
41
1
10
158.16
20
165.57999999999998
30
0
10
158.57363129273543
20
165.3295179512709
30
0
10
159.39035387180462
20
164.88477025631391
30
0
10
160.5838215888989
20
164.38629861585665
30
0
10
162.11182169221445
20
164.05909353145421
30
0
10
163.9110429467018
20
164.20923381129825
30
0
10
165.58321303870528
20
164.90742114407939
30
0
10
167.09705873375444
20
166.13065965069205
30
0
10
168.39803291870612
20
167.83925564188934
30
0
10
169.41564124905483
20
169.97475056079182
30
0
10
170.08689087451231
20
172.46039004316319
30
0
10
170.37442316487673
20
175.20111886772804
30
0
10
170.28890642595613
20
178.08320442723542
30
0
10
169.90492486700848
20
180.97521771772597
30
0
10
169.39164536790122
20
183.72532296446849
30
0
10
168.98392379821951
20
186.1738274460123
30
0
10
168.91633506323404
20
188.17487832803988
30
0
10
169.36415850651684
20
189.61716966251103
30
0
10
170.39045847634094
20
190.44131827420836
30
0
10
171.86838395650915
20
190.66798301788333
30
0
10
173.49547725207216
20
190.38713911081973
30
0
10
174.9293617632874
20
189.6956444865242
30
0
10
175.88929545296628
20
188.65027644905297
30
0
10
176.28005517147523
20
187.20850788292142
30
0
10
176.15177117552773
20
185.28170112420258
30
0
10
175.65063315932846
20
182.79452669837812
30
0
10
174.97226780768938
20
179.74415734755729
30
0
10
174.31557594744734
20
176.25518115383164
30
0
10
173.83248919384249
20
172.64841004271534
30
0
10
173.6280113063593
20
169.3576442939532
30
0
10
173.76657060961864
20
166.82829405494795
30
0
10
174.27604488449771
20
165.42129906835237
30
0
10
175.15272386760063
20
165.3174362642344
30
0
10
176.3657600061552
20
166.41476751299737
30
0
10
177.86193152025811
20
168.24691617612348
30
0
10
179.5722077545993
20
170.15882865357196
30
0
10
181.4182641746475
20
171.46840782045959
30
0
10
183.318866359873
20
171.62667082913441
30
0
10
185.19660050698133
20
170.39438797038994
30
0
10
186.98355768657794
20
167.96506225663626
30
0
10
188.62173411145454
20
164.81275737470597
30
0
10
190.0641343945982
20
161.57530090335536
30
0
10
191.27561388637525
20
158.92586402392456
30
0
10
192.23386787559667
20
157.44553339988934
30
0
10
192.93034576413947
20
157.50494479682615
30
0
10
193.37131241371625
20
159.11665565133268
30
0
10
193.57818852942114
20
162.00010683581681
30
0
10
193.58779337269002
20
165.69562697986245
30
0
10
193.45256345185373
20
169.66055275379208
30
0
10
193.24099458174788
20
173.37428418963125
30
0
10
193.03758562188349
20
176.43572508000179
30
0
10
192.94405148704993
20
178.67311223277909
30
0
10
193.07696839251051
20
180.22248117019714
30
0
10
193.53520936724891
20
181.35640820776999
30
0
10
194.37146326198734
20
182.34144667767072
30
0
10
195.55959161791137
20
183.27480786380715
30
0
10
196.9710195531901
20
183.95832248662944
30
0
10
198.43234739491402
20
184.08861442473898
30
0
10
199.77128949555916
20
183.4014206023682
30
0
10
200.87660625665171
20
181.87235126139922
30
0
10
201.70576895563099
20
179.70574063741441
30
0
10
202.26549683959365
20
177.21586357383529
30
0
10
202.60061339211148
20
174.73671549287354
30
0
10
202.77975300290115
20
172.5305391052334
30
0
10
202.8819152149938
20
170.67112845884475
30
0
10
202.98481068907199
20
169.03690318316239
30
0
10
203.12185130779682
20
167.74914804914417
30
0
10
203.27703637276031
20
166.70585131788982
30
0
10
203.40634060625663
20
165.96314902167893
30
0
10
203.47745448463564
20
165.57999999999998
30
0
0
SPLINE
5
269
100
AcDbEntity
8
0
100
AcDbSpline
70
4
71
5
72
31
73
25
74
0
42
0.000000001
43
0.0000000001
44
0.0000000001
40
0
40
0
40
0
40
0
40
0
40
0
40
0.050000000000000003
40
0.10000000000000001
40
0.15000000000000002
40
0.20000000000000001
40
0.25
40
0.29999999999999999
40
0.34999999999999998
40
0.39999999999999997
40
0.44999999999999996
40
0.49999999999999994
40
0.54999999999999993
40
0.59999999999999998
40
0.65000000000000002
40
0.70000000000000007
40
0.75000000000000011
40
0.80000000000000016
40
0.8500000000000002
40
0.90000000000000024
40
0.95000000000000029
40
1
40
1
40
1
40
1
40
1
40
1
41
1
41
1
41
1
41
1
41
1
41
1
41
1
41
1
41
1
41
1
41
1
41
1
41
1
41
1
41
1
41
1
41
1
41
1
41
1
41
1
41
1
41
1
41
1
41
1
41
1
10
203.47745448463564
20
165.57999999999998
30
0
10
203.62788781152585
20
165.20858445951666
30
0
10
203.93756483825345
20
164.52487953630151
30
0
10
204.428514883345
20
163.67671176651805
30
0
10
205.136170489949
20
162.901952237459
30
0
10
206.10552317268105
20
162.51808900428071
30
0
10
207.14589492478495
20
162.67494603188368
30
0
10
208.2288109402981
20
163.27570357504601
30
0
10
209.30253359934363
20
164.13901183086668
30
0
10
210.29594760401687
20
165.00865681655429
30
0
10
211.1387814477448
20
165.61749582375899
30
0
10
211.77784143367265
20
165.73763816666991
30
0
10
212.19503490684932
20
165.23630984660531
30
0
10
212.4258399140615
20
164.13250452941298
30
0
10
212.54398621328727
20
162.55644873802009
30
0
10
212.64624998249599
20
160.70930398499544
30
0
10
212.83741842622896
20
158.82377106137187
30
0
10
213.21632440231437
20
157.12754127322887
30
0
10
213.85921475780651
20
155.80065418822591
30
0
10
214.81060526379463
20
154.9511919543915
30
0
10
216.09370115610159
20
154.63844057552072
30
0
10
217.3919071997162
20
154.83630773534799
30
0
10
218.51835205147754
20
155.23819830130665
30
0
10
219.33694125580655
20
155.61831846148866
30
0
10
219.76314263005696
20
155.8364274706598
30
0
0
SPLINE
5
270
100
AcDbEntity
8
0
100
AcDbSpline
70
4
71
5
72
31
73
25
74
0
42
0.000000001
43
0.0000000001
44
0.0000000001
40
0
40
0
40
0
40
0
40
0
40
0
40
0.050000000000000003
40
0.10000000000000001
40
0.15000000000000002
40
0.20000000000000001
40
0.25
40
0.29999999999999999
40
0.34999999999999998
40
0.39999999999999997
40
0.44999999999999996
40
0.49999999999999994
40
0.54999999999999993
40
0.59999999999999998
40
0.65000000000000002
40
0.70000000000000007
40
0.75000000000000011
40
0.80000000000000016
40
0.8500000000000002
40
0.90000000000000024
40
0.95000000000000029
40
1
40
1
40
1
40
1
40
1
40
1
41
1
41
1
41
1
41
1
41
1
41
1
41
1
41
1
41
1
41
1
41
1
41
1
41
1
41
1
41
1
41
1
41
1
41
1
41
1
41
1
41
1
41
1
41
1
41
1
41
1
10
282.23469484627481
20
130.67529881911832
30
0
10
282.18318487222092
20
130.58801626817612
30
0
10
282.09098655622734
20
130.4149933399751
30
0
10
281.98515424996032
20
130.1600852025862
30
0
10
281.90923745590169
20
129.82950022112706
30
0
10
281.92352902900166
20
129.43284789761768
30
0
10
282.04581246396094
20
129.05571196784368
30
0
10
282.27160847156341
20
128.70361991137079
30
0
10
282.59111943557429
20
128.38572278046257
30
0
10
282.98809745579359
20
128.11504571780492
30
0
10
283.44224649291857
20
127.90590221974058
30
0
10
283.93091418747736
20
127.77176816413916
30
0
10
284.4309615209325
20
127.72286481576768
30
0
10
284.92045729119968
20
127.76384490707474
30
0
10
285.38053491077045
20
127.89098412404805
30
0
10
285.79536221921592
20
128.09456142466001
30
0
10
286.15202965311778
20
128.3614493118807
30
0
10
286.44058190912529
20
128.67753109226973
30
0
10
286.65404945038694
20
129.02996390680732
30
0
10
286.78873695035725
20
129.40978112707793
30
0
10
286.84336969107795
20
129.81151512288966
30
0
10
286.82314478470511
20
130.14809726477969
30
0
10
286.77233686424859
20
130.40858158881844
30
0
10
286.72268952784646
20
130.58579944573913
30
0
10
286.69392201795887
20
130.67529881911832
30
0
0
SPLINE
5
271
100
AcDbEntity
8
0
100
AcDbSpline
70
4
71
5
72
31
73
25
74
0
42
0.000000001
43
0.0000000001
44
0.0000000001
40
0
40
0
40
0
40
0
40
0
40
0
40
0.050000000000000003
40
0.10000000000000001
40
0.15000000000000002
40
0.20000000000000001
40
0.25
40
0.29999999999999999
40
0.34999999999999998
40
0.39999999999999997
40
0.44999999999999996
40
0.49999999999999994
40
0.54999999999999993
40
0.59999999999999998
40
0.65000000000000002
40
0.70000000000000007
40
0.75000000000000011
40
0.80000000000000016
40
0.8500000000000002
40
0.90000000000000024
40
0.95000000000000029
40
1
40
1
40
1
40
1
40
1
40
1
41
1
41
1
41
1
41
1
41
1
41
1
41
1
41
1
41
1
41
1
41
1
41
1
41
1
41
1
41
1
41
1
41
1
41
1
41
1
41
1
41
1
41
1
41
1
41
1
41
1
10
180.3137470208589
20
144.71511669224569
30
0
10
180.26223704685151
20
144.62783414131738
30
0
10
180.17003873093711
20
144.45481121314015
30
0
10
180.06420642474754
20
144.19990307577487
30
0
10
179.98828963071585
20
143.86931809432406
30
0
10
180.00258120375906
20
143.47266577079751
30
0
10
180.12486463861705
20
143.09552984099273
30
0
10
180.35066064611996
20
142.74343778448977
30
0
10
180.67017161006424
20
142.42554065356194
30
0
10
181.06714963026067
20
142.15486359089789
30
0
10
181.52129866740339
20
141.94572009283937
30
0
10
182.00996636200685
20
141.81158603725126
30
0
10
182.5100136955154
20
141.76268268889493
30
0
10
182.9995094658272
20
141.8036627802139
30
0
10
183.45958708542398
20
141.93080199719341
30
0
10
183.87441439387121
20
142.13437929780508
30
0
10
184.23108182775107
20
142.40126718501969
30
0
10
184.51963408371856
20
142.717348965399
30
0
10
184.73310162493357
20
143.06978177992619
30
0
10
184.86778912486528
20
143.44959900018864
30
0
10
184.92242186556993
20
143.85133299599721
30
0
10
184.90219695921263
20
144.18791513789034
30
0
10
184.85138903878678
20
144.44839946193576
30
0
10
184.80174170241384
20
144.62561731886279
30
0
10
184.77297419254299
20
144.71511669224569
30
0
0
LINE
5
272
100
AcDbEntity
8
0
100
AcDbLine
10
175
20
160
30
0
11
172.52797679173483
21
154.37885241975749
31
0
0
LINE
5
273
100
AcDbEntity
8
0
100
AcDbLine
10
234.71827146971771
20
146.64196559229987
30
0
11
236.94788505555971
21
141.57204977278695
31
0
0
LINE
5
274
100
AcDbEntity
8
0
100
AcDbLine
10
272.62001391725988
20
154.45919997210549
30
0
11
274.84962750310194
21
149.38928415259255
31
0
0
SPLINE
5
275
100
AcDbEntity
8
0
100
AcDbSpline
70
4
71
5
72
31
73
25
74
0
42
0.000000001
43
0.0000000001
44
0.0000000001
40
0
40
0
40
0
40
0
40
0
40
0
40
0.050000000000000003
40
0.10000000000000001
40
0.15000000000000002
40
0.20000000000000001
40
0.25
40
0.29999999999999999
40
0.34999999999999998
40
0.39999999999999997
40
0.44999999999999996
40
0.49999999999999994
40
0.54999999999999993
40
0.59999999999999998
40
0.65000000000000002
40
0.70000000000000007
40
0.75000000000000011
40
0.80000000000000016
40
0.8500000000000002
40
0.90000000000000024
40
0.95000000000000029
40
1
40
1
40
1
40
1
40
1
40
1
41
1
41
1
41
1
41
1
41
1
41
1
41
1
41
1
41
1
41
1
41
1
41
1
41
1
41
1
41
1
41
1
41
1
41
1
41
1
41
1
41
1
41
1
41
1
41
1
41
1
10
172.77038641415794
20
154.93008418048709
30
0
10
172.7188764401626
20
154.84280162955218
30
0
10
172.62667812426878
20
154.66977870136355
30
0
10
172.52084581809862
20
154.4148705639866
30
0
10
172.44492902407174
20
154.08428558253024
30
0
10
172.4592205970981
20
153.68763325901017
30
0
10
172.58150403193113
20
153.31049732922077
30
0
10
172.80730003941255
20
152.95840527273569
30
0
10
173.12681100334518
20
152.64050814182235
30
0
10
173.52378902353931
20
152.36983107916532
30
0
10
173.97793806068665
20
152.16068758110512
30
0
10
174.46660575529816
20
152.02655352550767
30
0
10
174.96665308881475
20
151.97765017713746
30
0
10
175.4561488591315
20
152.01863026844188
30
0
10
175.91622647872953
20
152.14576948541034
30
0
10
176.33105378717514
20
152.34934678601826
30
0
10
176.68772122105193
20
152.61623467323895
30
0
10
176.97627347701726
20
152.93231645363483
30
0
10
177.18974101823204
20
153.28474926818654
30
0
10
177.32442851816469
20
153.66456648847321
30
0
10
177.37906125887076
20
154.06630048429514
30
0
10
177.35883635251369
20
154.40288262618131
30
0
10
177.30802843208716
20
154.66336695020769
30
0
10
177.2583810957133
20
154.84058480711548
30
0
10
177.229613585842
20
154.93008418048709
30
0
0
LINE
5
276
100
AcDbEntity
8
0
100
AcDbLine
10
175
20
160
30
0
11
177.229613585842
21
154.93008418048709
31
0
0
SPLINE
5
277
100
AcDbEntity
8
0
100
AcDbSpline
70
4
71
5
72
121
73
115
74
0
42
0.000000001
43
0.0000000001
44
0.0000000001
40
0
40
0
40
0
40
0
40
0
40
0
40
0.0090909090909090905
40
0.018181818181818181
40
0.027272727272727271
40
0.036363636363636362
40
0.045454545454545456
40
0.05454545454545455
40
0.063636363636363644
40
0.072727272727272738
40
0.081818181818181832
40
0.090909090909090925
40
0.10000000000000002
40
0.10909090909090911
40
0.11818181818181821
40
0.12727272727272729
40
0.13636363636363638
40
0.14545454545454548
40
0.15454545454545457
40
0.16363636363636366
40
0.17272727272727276
40
0.18181818181818185
40
0.19090909090909094
40
0.20000000000000004
40
0.20909090909090913
40
0.21818181818181823
40
0.22727272727272732
40
0.23636363636363641
40
0.24545454545454551
40
0.25454545454545457
40
0.26363636363636367
40
0.27272727272727276
40
0.28181818181818186
40
0.29090909090909095
40
0.30000000000000004
40
0.30909090909090914
40
0.31818181818181823
40
0.32727272727272733
40
0.33636363636363642
40
0.34545454545454551
40
0.35454545454545461
40
0.3636363636363637
40
0.3727272727272728
40
0.38181818181818189
40
0.39090909090909098
40
0.40000000000000008
40
0.40909090909090917
40
0.41818181818181827
40
0.42727272727272736
40
0.43636363636363645
40
0.44545454545454555
40
0.45454545454545464
40
0.46363636363636374
40
0.47272727272727283
40
0.48181818181818192
40
0.49090909090909102
40
0.50000000000000011
40
0.50909090909090915
40
0.51818181818181819
40
0.52727272727272723
40
0.53636363636363626
40
0.5454545454545453
40
0.55454545454545434
40
0.56363636363636338
40
0.57272727272727242
40
0.58181818181818146
40
0.5909090909090905
40
0.59999999999999953
40
0.60909090909090857
40
0.61818181818181761
40
0.62727272727272665
40
0.63636363636363569
40
0.64545454545454473
40
0.65454545454545376
40
0.6636363636363628
40
0.67272727272727184
40
0.68181818181818088
40
0.69090909090908992
40
0.69999999999999896
40
0.70909090909090799
40
0.71818181818181703
40
0.72727272727272607
40
0.73636363636363511
40
0.74545454545454415
40
0.75454545454545319
40
0.76363636363636223
40
0.77272727272727126
40
0.7818181818181803
40
0.79090909090908934
40
0.79999999999999838
40
0.80909090909090742
40
0.81818181818181646
40
0.82727272727272549
40
0.83636363636363453
40
0.84545454545454357
40
0.85454545454545261
40
0.86363636363636165
40
0.87272727272727069
40
0.88181818181817972
40
0.89090909090908876
40
0.8999999999999978
40
0.90909090909090684
40
0.91818181818181588
40
0.92727272727272492
40
0.93636363636363396
40
0.94545454545454299
40
0.95454545454545203
40
0.96363636363636107
40
0.97272727272727011
40
0.98181818181817915
40
0.99090909090908819
40
1
40
1
40
1
40
1
40
1
40
1
41
1
41
1
41
1
41
1
41
1
41
1
41
1
41
1
41
1
41
1
41
1
41
1
41
1
41
1
41
1
41
1
41
1
41
1
41
1
41
1
41
1
41
1
41
1
41
1
41
1
41
1
41
1
41
1
41
1
41
1
41
1
41
1
41
1
41
1
41
1
41
1
41
1
41
1
41
1
41
1
41
1
41
1
41
1
41
1
41
1
41
1
41
1
41
1
41
1
41
1
41
1
41
1
41
1
41
1
41
1
41
1
41
1
41
1
41
1
41
1
41
1
41
1
41
1
41
1
41
1
41
1
41
1
41
1
41
1
41
1
41
1
41
1
41
1
41
1
41
1
41
1
41
1
41
1
41
1
41
1
41
1
41
1
41
1
41
1
41
1
41
1
41
1
41
1
41
1
41
1
41
1
41
1
41
1
41
1
41
1
41
1
41
1
41
1
41
1
41
1
41
1
41
1
41
1
41
1
41
1
41
1
41
1
41
1
41
1
41
1
41
1
41
1
41
1
41
1
41
1
10
219.76314263005696
20
155.8364274706598
30
0
10
220.11697530349187
20
156.03001554034128
30
0
10
220.80994661482578
20
156.43974486624961
30
0
10
221.80533266078027
20
157.12200218288393
30
0
10
223.06054170499547
20
158.14591313362433
30
0
10
224.59503448090953
20
159.48395063206968
30
0
10
226.18686770848996
20
160.6933546070299
30
0
10
227.90097859342322
20
161.55954276955075
30
0
10
229.7296794199801
20
161.86259136479254
30
0
10
231.59752609906209
20
161.41857023506876
30
0
10
233.40431323195983
20
160.14054216292888
30
0
10
235.05359087570429
20
158.08416548896648
30
0
10
236.49470262781097
20
155.52211657472733
30
0
10
237.73040681993137
20
152.92155861767316
30
0
10
238.79002187975289
20
150.81870741827046
30
0
10
239.71045261237063
20
149.71567334606976
30
0
10
240.51635457805372
20
149.9786727319289
30
0
10
241.19484972380172
20
151.70956335938502
30
0
10
241.70025431591978
20
154.75272816975095
30
0
10
241.97727958379727
20
158.78444362112185
30
0
10
241.97868843777488
20
163.37713902969335
30
0
10
241.68497171014806
20
168.07348385150266
30
0
10
241.12381304144952
20
172.45737492581367
30
0
10
240.38817551367157
20
176.22360382721922
30
0
10
239.65857619337672
20
179.25449627722654
30
0
10
239.21321245695739
20
181.6751305360508
30
0
10
239.33274447343521
20
183.72223907740377
30
0
10
240.21551833771224
20
185.63095531376572
30
0
10
241.88681513865521
20
187.51271872343546
30
0
10
244.11502315504703
20
189.24154958660972
30
0
10
246.31323192982651
20
190.32460447416892
30
0
10
247.81883062496701
20
190.18064591299623
30
0
10
248.15395527479251
20
188.40036752980026
30
0
10
247.35080539437431
20
185.07042518798562
30
0
10
246.05639095656073
20
180.88148243039018
30
0
10
245.11614304607832
20
176.74263540529861
30
0
10
245.34347300256709
20
173.55531766044226
30
0
10
247.05488941188975
20
171.80710595783083
30
0
10
250.07318887705068
20
171.50983858375528
30
0
10
252.63952602004417
20
171.34302437852909
30
0
10
253.70480812397369
20
170.25079957198932
30
0
10
253.45219838255247
20
167.98479106650859
30
0
10
252.47574186720402
20
164.65349418138402
30
0
10
251.48185869461236
20
160.6726628051828
30
0
10
250.84673348973826
20
156.55837935506054
30
0
10
250.74991511337078
20
152.87749021725935
30
0
10
251.20217482413895
20
150.15660639061957
30
0
10
252.11726736133409
20
148.80562529251711
30
0
10
253.36231589484228
20
149.04162114053801
30
0
10
254.82341498556113
20
150.79645644004674
30
0
10
256.44559428610143
20
153.6816848155828
30
0
10
258.20684654345877
20
157.13093687711711
30
0
10
260.10301428888232
20
160.51294381664209
30
0
10
262.12899120138002
20
163.25233246079816
30
0
10
264.26021347842703
20
164.95571324285262
30
0
10
266.43702250194406
20
165.51545027058992
30
0
10
268.54013647949557
20
165.27443601774522
30
0
10
270.40993236991352
20
164.89364705638269
30
0
10
271.88905933694627
20
165.05448691780569
30
0
10
272.85527727852252
20
166.24210457296562
30
0
10
273.26426500401885
20
168.42492021991364
30
0
10
273.15653025933079
20
171.15077591994449
30
0
10
272.64840839297955
20
173.82279293334673
30
0
10
271.92906590231308
20
175.92464033583815
30
0
10
271.25287393526008
20
177.25283096483457
30
0
10
270.93985531739492
20
178.18408879516781
30
0
10
271.26568384129439
20
179.32403255195851
30
0
10
272.3299129387417
20
181.06221749006721
30
0
10
273.95728722015588
20
183.22896812371525
30
0
10
275.81690739687178
20
185.3374925092933
30
0
10
277.52534903164968
20
186.78197723117708
30
0
10
278.74745394151211
20
187.03532684030199
30
0
10
279.31816766381974
20
185.88747975975616
30
0
10
279.28500203482685
20
183.52451888684894
30
0
10
278.82340893788319
20
180.35138386732501
30
0
10
278.18188173352905
20
176.87446631754415
30
0
10
277.61571840521793
20
173.56163688980536
30
0
10
277.32423417642798
20
170.70837001598181
30
0
10
277.3904907331862
20
168.31131071500707
30
0
10
277.81300265283198
20
166.17706250850517
30
0
10
278.53224129373638
20
164.01691525872334
30
0
10
279.46007707146674
20
161.55130100641574
30
0
10
280.50568821071897
20
158.59995177764756
30
0
10
281.60855898491559
20
155.20326454449727
30
0
10
282.74652082402065
20
151.63201021757294
30
0
10
283.91824504126208
20
148.28230021690271
30
0
10
285.13284865459309
20
145.60257446053711
30
0
10
286.39609464873666
20
144.00519129165329
30
0
10
287.69922539527511
20
143.79006127637896
30
0
10
289.00382731698653
20
145.04989879607749
30
0
10
290.23744393210467
20
147.62542083049152
30
0
10
291.31694055732873
20
151.19067922027574
30
0
10
292.16704934899701
20
155.31469623579329
30
0
10
292.74013735443384
20
159.53136157758078
30
0
10
293.03703378766147
20
163.40816376530438
30
0
10
293.12377424550402
20
166.60985853198244
30
0
10
293.15898888521042
20
168.97783550252927
30
0
10
293.38738778199956
20
170.55879243000663
30
0
10
294.02963959045076
20
171.48822259177606
30
0
10
295.20610965545018
20
171.91227547283427
30
0
10
296.81471024508835
20
171.86960154155312
30
0
10
298.56671371428303
20
171.29629604701182
30
0
10
300.13737352040226
20
170.11800134075091
30
0
10
301.28465762948883
20
168.31776199155658
30
0
10
301.97768938308877
20
166.01173016747353
30
0
10
302.33633322596978
20
163.40567074329584
30
0
10
302.57801948945439
20
160.75643418859352
30
0
10
302.96038980330655
20
158.33041137517404
30
0
10
303.72894742874018
20
156.36577910863036
30
0
10
305.05425928101681
20
155.02662609390168
30
0
10
307.03637677423944
20
154.40954026876059
30
0
10
309.1879630271842
20
154.53243927815052
30
0
10
311.12733227046198
20
154.97853126414341
30
0
10
312.56498760267232
20
155.43321364798254
30
0
10
313.31999999999999
20
155.69987607237556
30
0
0
ENDSEC
0
SECTION
2
OBJECTS
0
DICTIONARY
5
C
100
AcDbDictionary
3
ACAD_GROUP
350
D
3
ACAD_MLINESTYLE
350
17
0
DICTIONARY
5
D
100
AcDbDictionary
0
DICTIONARY
5
1A
330
C
100
AcDbDictionary
0
DICTIONARY
5
17
100
AcDbDictionary
0
ENDSEC
0
EOF
