<svg width="591.48mm" height="105.16mm" viewBox="0 0 591.48 105.16" xmlns="http://www.w3.org/2000/svg" version="1.1" preserveAspectRatio="xMidYMid meet"><g id="svgGroup" stroke-linecap="round" fill-rule="evenodd" font-size="9pt" stroke="#000" stroke-width="0.25mm" fill="none" style="stroke:#000;stroke-width:0.25mm;fill:none"><path d="M 25.038 105.113 L 25.038 102.66 L 39.512 102.66 L 39.512 105.113 L 39.559 105.16 L 54.26 105.16 L 54.307 105.113 L 54.307 102.66 L 68.781 102.66 L 68.781 105.113 L 68.828 105.16 L 83.528 105.16 L 83.575 105.113 L 83.575 102.66 L 98.049 102.66 L 98.049 105.113 L 98.096 105.16 L 112.796 105.16 L 112.843 105.113 L 112.843 102.66 L 127.317 102.66 L 127.317 105.113 L 127.364 105.16 L 142.064 105.16 L 142.111 105.113 L 142.111 102.66 L 156.585 102.66 L 156.585 105.113 L 156.632 105.16 L 171.332 105.16 L 171.379 105.113 L 171.379 102.66 L 185.853 102.66 L 185.853 105.113 L 185.9 105.16 L 200.601 105.16 L 200.648 105.113 L 200.648 102.66 L 215.122 102.66 L 215.122 105.113 L 215.169 105.16 L 240.113 105.16 L 240.16 105.113 L 240.16 96.114 L 240.113 96.067 L 237.66 96.067 L 237.66 81.593 L 240.113 81.593 L 240.16 81.546 L 240.16 72.547 L 240.113 72.5 L 0.047 72.5 L 0 72.547 L 0 81.546 L 0.047 81.593 L 2.5 81.593 L 2.5 96.067 L 0.047 96.067 L 0 96.114 L 0 105.113 L 0.047 105.16 L 24.991 105.16 L 25.038 105.113 Z" id="front_outsideCutPath" stroke="#FF0000" stroke-width="0.1" style="stroke:#FF0000;stroke-width:0.1" vector-effect="non-scaling-stroke"/><path d="M 259.235 105.113 L 259.235 102.66 L 273.709 102.66 L 273.709 105.113 L 273.756 105.16 L 288.456 105.16 L 288.503 105.113 L 288.503 102.66 L 302.977 102.66 L 302.977 105.113 L 303.024 105.16 L 317.724 105.16 L 317.771 105.113 L 317.771 102.66 L 332.245 102.66 L 332.245 105.113 L 332.292 105.16 L 345.773 105.16 L 345.82 105.113 L 345.82 96.227 L 348.273 96.227 L 348.32 96.18 L 348.32 81.48 L 348.273 81.433 L 345.82 81.433 L 345.82 72.547 L 345.773 72.5 L 245.707 72.5 L 245.66 72.547 L 245.66 81.433 L 243.207 81.433 L 243.16 81.48 L 243.16 96.18 L 243.207 96.227 L 245.66 96.227 L 245.66 105.113 L 245.707 105.16 L 259.188 105.16 L 259.235 105.113 Z" id="left_outsideCutPath" stroke="#FF0000" stroke-width="0.1" style="stroke:#FF0000;stroke-width:0.1" vector-effect="non-scaling-stroke"/><path d="M 25.038 69.453 L 25.038 67 L 39.512 67 L 39.512 69.453 L 39.559 69.5 L 54.26 69.5 L 54.307 69.453 L 54.307 67 L 68.781 67 L 68.781 69.453 L 68.828 69.5 L 83.528 69.5 L 83.575 69.453 L 83.575 67 L 98.049 67 L 98.049 69.453 L 98.096 69.5 L 112.796 69.5 L 112.843 69.453 L 112.843 67 L 127.317 67 L 127.317 69.453 L 127.364 69.5 L 142.064 69.5 L 142.111 69.453 L 142.111 67 L 156.585 67 L 156.585 69.453 L 156.632 69.5 L 171.332 69.5 L 171.379 69.453 L 171.379 67 L 185.853 67 L 185.853 69.453 L 185.9 69.5 L 200.601 69.5 L 200.648 69.453 L 200.648 67 L 215.122 67 L 215.122 69.453 L 215.169 69.5 L 240.113 69.5 L 240.16 69.453 L 240.16 60.454 L 240.113 60.407 L 237.66 60.407 L 237.66 45.933 L 240.113 45.933 L 240.16 45.886 L 240.16 36.887 L 240.113 36.84 L 0.047 36.84 L 0 36.887 L 0 45.886 L 0.047 45.933 L 2.5 45.933 L 2.5 60.407 L 0.047 60.407 L 0 60.454 L 0 69.453 L 0.047 69.5 L 24.991 69.5 L 25.038 69.453 Z" id="back_outsideCutPath" stroke="#FF0000" stroke-width="0.1" style="stroke:#FF0000;stroke-width:0.1" vector-effect="non-scaling-stroke"/><path d="M 259.235 69.453 L 259.235 67 L 273.709 67 L 273.709 69.453 L 273.756 69.5 L 288.456 69.5 L 288.503 69.453 L 288.503 67 L 302.977 67 L 302.977 69.453 L 303.024 69.5 L 317.724 69.5 L 317.771 69.453 L 317.771 67 L 332.245 67 L 332.245 69.453 L 332.292 69.5 L 345.773 69.5 L 345.82 69.453 L 345.82 60.567 L 348.273 60.567 L 348.32 60.52 L 348.32 45.82 L 348.273 45.773 L 345.82 45.773 L 345.82 36.887 L 345.773 36.84 L 245.707 36.84 L 245.66 36.887 L 245.66 45.773 L 243.207 45.773 L 243.16 45.82 L 243.16 60.52 L 243.207 60.567 L 245.66 60.567 L 245.66 69.453 L 245.707 69.5 L 259.188 69.5 L 259.235 69.453 Z" id="right_outsideCutPath" stroke="#FF0000" stroke-width="0.1" style="stroke:#FF0000;stroke-width:0.1" vector-effect="non-scaling-stroke"/><path d="M 390.992 105.113 L 390.992 102.66 L 405.467 102.66 L 405.467 105.113 L 405.513 105.16 L 420.214 105.16 L 420.261 105.113 L 420.261 102.66 L 434.735 102.66 L 434.735 105.113 L 434.782 105.16 L 449.482 105.16 L 449.529 105.113 L 449.529 102.66 L 464.003 102.66 L 464.003 105.113 L 464.05 105.16 L 478.75 105.16 L 478.797 105.113 L 478.797 102.66 L 493.271 102.66 L 493.271 105.113 L 493.318 105.16 L 508.018 105.16 L 508.065 105.113 L 508.065 102.66 L 522.539 102.66 L 522.539 105.113 L 522.586 105.16 L 537.287 105.16 L 537.333 105.113 L 537.333 102.66 L 551.808 102.66 L 551.808 105.113 L 551.854 105.16 L 566.555 105.16 L 566.602 105.113 L 566.602 102.66 L 588.933 102.66 L 588.98 102.613 L 588.98 89.245 L 591.433 89.245 L 591.48 89.198 L 591.48 74.498 L 591.433 74.451 L 588.98 74.451 L 588.98 59.977 L 591.433 59.977 L 591.48 59.93 L 591.48 45.23 L 591.433 45.183 L 588.98 45.183 L 588.98 30.709 L 591.433 30.709 L 591.48 30.662 L 591.48 15.962 L 591.433 15.915 L 588.98 15.915 L 588.98 2.547 L 588.933 2.5 L 566.602 2.5 L 566.602 0.047 L 566.555 0 L 551.854 0 L 551.808 0.047 L 551.808 2.5 L 537.333 2.5 L 537.333 0.047 L 537.287 0 L 522.586 0 L 522.539 0.047 L 522.539 2.5 L 508.065 2.5 L 508.065 0.047 L 508.018 0 L 493.318 0 L 493.271 0.047 L 493.271 2.5 L 478.797 2.5 L 478.797 0.047 L 478.75 0 L 464.05 0 L 464.003 0.047 L 464.003 2.5 L 449.529 2.5 L 449.529 0.047 L 449.482 0 L 434.782 0 L 434.735 0.047 L 434.735 2.5 L 420.261 2.5 L 420.261 0.047 L 420.214 0 L 405.513 0 L 405.467 0.047 L 405.467 2.5 L 390.992 2.5 L 390.992 0.047 L 390.946 0 L 376.245 0 L 376.198 0.047 L 376.198 2.5 L 353.867 2.5 L 353.82 2.547 L 353.82 15.915 L 351.367 15.915 L 351.32 15.962 L 351.32 30.662 L 351.367 30.709 L 353.82 30.709 L 353.82 45.183 L 351.367 45.183 L 351.32 45.23 L 351.32 59.93 L 351.367 59.977 L 353.82 59.977 L 353.82 74.451 L 351.367 74.451 L 351.32 74.498 L 351.32 89.198 L 351.367 89.245 L 353.82 89.245 L 353.82 102.613 L 353.867 102.66 L 376.198 102.66 L 376.198 105.113 L 376.245 105.16 L 390.946 105.16 L 390.992 105.113 Z" id="bottom_outsideCutPath" stroke="#FF0000" stroke-width="0.1" style="stroke:#FF0000;stroke-width:0.1" vector-effect="non-scaling-stroke"/></g></svg>