<svg width="166.48mm" height="143.32mm" viewBox="0 0 166.48 143.32" xmlns="http://www.w3.org/2000/svg" version="1.1" preserveAspectRatio="xMidYMid meet"><g id="svgGroup" stroke-linecap="round" fill-rule="evenodd" font-size="9pt" stroke="#000" stroke-width="0.25mm" fill="none" style="stroke:#000;stroke-width:0.25mm;fill:none"><path d="M 4.847 143.273 L 4.847 140.82 L 10.313 140.82 L 10.313 143.273 L 10.359 143.32 L 16.051 143.32 L 16.097 143.273 L 16.097 140.82 L 21.563 140.82 L 21.563 143.273 L 21.609 143.32 L 27.301 143.32 L 27.347 143.273 L 27.347 140.82 L 32.813 140.82 L 32.813 143.273 L 32.859 143.32 L 38.551 143.32 L 38.598 143.273 L 38.598 140.82 L 44.063 140.82 L 44.063 143.273 L 44.109 143.32 L 49.801 143.32 L 49.848 143.273 L 49.848 140.82 L 55.313 140.82 L 55.313 143.273 L 55.359 143.32 L 60.113 143.32 L 60.16 143.273 L 60.16 133.519 L 60.113 133.473 L 57.66 133.473 L 57.66 128.008 L 60.113 128.008 L 60.16 127.961 L 60.16 122.269 L 60.113 122.223 L 57.66 122.223 L 57.66 116.758 L 60.113 116.758 L 60.16 116.711 L 60.16 111.019 L 60.113 110.973 L 57.66 110.973 L 57.66 105.508 L 60.113 105.508 L 60.16 105.461 L 60.16 99.769 L 60.113 99.723 L 57.66 99.723 L 57.66 94.258 L 60.113 94.258 L 60.16 94.211 L 60.16 88.519 L 60.113 88.473 L 57.66 88.473 L 57.66 83.008 L 60.113 83.008 L 60.16 82.961 L 60.16 73.207 L 60.113 73.16 L 0.047 73.16 L 0 73.207 L 0 82.961 L 0.047 83.008 L 2.5 83.008 L 2.5 88.473 L 0.047 88.473 L 0 88.519 L 0 94.211 L 0.047 94.258 L 2.5 94.258 L 2.5 99.723 L 0.047 99.723 L 0 99.769 L 0 105.461 L 0.047 105.508 L 2.5 105.508 L 2.5 110.973 L 0.047 110.973 L 0 111.019 L 0 116.711 L 0.047 116.758 L 2.5 116.758 L 2.5 122.223 L 0.047 122.223 L 0 122.269 L 0 127.961 L 0.047 128.008 L 2.5 128.008 L 2.5 133.473 L 0.047 133.473 L 0 133.519 L 0 143.273 L 0.047 143.32 L 4.801 143.32 L 4.847 143.273 Z" id="front_outsideCutPath" stroke="#FF0000" stroke-width="0.1" style="stroke:#FF0000;stroke-width:0.1" vector-effect="non-scaling-stroke"/><path d="M 69.258 143.273 L 69.258 140.82 L 74.723 140.82 L 74.723 143.273 L 74.769 143.32 L 80.461 143.32 L 80.508 143.273 L 80.508 140.82 L 85.973 140.82 L 85.973 143.273 L 86.019 143.32 L 91.711 143.32 L 91.758 143.273 L 91.758 140.82 L 97.223 140.82 L 97.223 143.273 L 97.269 143.32 L 100.773 143.32 L 100.82 143.273 L 100.82 133.633 L 103.273 133.633 L 103.32 133.586 L 103.32 127.894 L 103.273 127.848 L 100.82 127.848 L 100.82 122.383 L 103.273 122.383 L 103.32 122.336 L 103.32 116.644 L 103.273 116.598 L 100.82 116.598 L 100.82 111.133 L 103.273 111.133 L 103.32 111.086 L 103.32 105.394 L 103.273 105.348 L 100.82 105.348 L 100.82 99.883 L 103.273 99.883 L 103.32 99.836 L 103.32 94.144 L 103.273 94.098 L 100.82 94.098 L 100.82 88.633 L 103.273 88.633 L 103.32 88.586 L 103.32 82.894 L 103.273 82.848 L 100.82 82.848 L 100.82 73.207 L 100.773 73.16 L 65.707 73.16 L 65.66 73.207 L 65.66 82.848 L 63.207 82.848 L 63.16 82.894 L 63.16 88.586 L 63.207 88.633 L 65.66 88.633 L 65.66 94.098 L 63.207 94.098 L 63.16 94.144 L 63.16 99.836 L 63.207 99.883 L 65.66 99.883 L 65.66 105.348 L 63.207 105.348 L 63.16 105.394 L 63.16 111.086 L 63.207 111.133 L 65.66 111.133 L 65.66 116.598 L 63.207 116.598 L 63.16 116.644 L 63.16 122.336 L 63.207 122.383 L 65.66 122.383 L 65.66 127.848 L 63.207 127.848 L 63.16 127.894 L 63.16 133.586 L 63.207 133.633 L 65.66 133.633 L 65.66 143.273 L 65.707 143.32 L 69.211 143.32 L 69.258 143.273 Z" id="left_outsideCutPath" stroke="#FF0000" stroke-width="0.1" style="stroke:#FF0000;stroke-width:0.1" vector-effect="non-scaling-stroke"/><path d="M 4.847 70.113 L 4.847 67.66 L 10.313 67.66 L 10.313 70.113 L 10.359 70.16 L 16.051 70.16 L 16.097 70.113 L 16.097 67.66 L 21.563 67.66 L 21.563 70.113 L 21.609 70.16 L 27.301 70.16 L 27.347 70.113 L 27.347 67.66 L 32.813 67.66 L 32.813 70.113 L 32.859 70.16 L 38.551 70.16 L 38.598 70.113 L 38.598 67.66 L 44.063 67.66 L 44.063 70.113 L 44.109 70.16 L 49.801 70.16 L 49.848 70.113 L 49.848 67.66 L 55.313 67.66 L 55.313 70.113 L 55.359 70.16 L 60.113 70.16 L 60.16 70.113 L 60.16 60.359 L 60.113 60.313 L 57.66 60.313 L 57.66 54.848 L 60.113 54.848 L 60.16 54.801 L 60.16 49.109 L 60.113 49.063 L 57.66 49.063 L 57.66 43.598 L 60.113 43.598 L 60.16 43.551 L 60.16 37.859 L 60.113 37.813 L 57.66 37.813 L 57.66 32.348 L 60.113 32.348 L 60.16 32.301 L 60.16 26.609 L 60.113 26.563 L 57.66 26.563 L 57.66 21.097 L 60.113 21.097 L 60.16 21.051 L 60.16 15.359 L 60.113 15.313 L 57.66 15.313 L 57.66 9.847 L 60.113 9.847 L 60.16 9.801 L 60.16 0.047 L 60.113 0 L 0.047 0 L 0 0.047 L 0 9.801 L 0.047 9.847 L 2.5 9.847 L 2.5 15.313 L 0.047 15.313 L 0 15.359 L 0 21.051 L 0.047 21.097 L 2.5 21.097 L 2.5 26.563 L 0.047 26.563 L 0 26.609 L 0 32.301 L 0.047 32.348 L 2.5 32.348 L 2.5 37.813 L 0.047 37.813 L 0 37.859 L 0 43.551 L 0.047 43.598 L 2.5 43.598 L 2.5 49.063 L 0.047 49.063 L 0 49.109 L 0 54.801 L 0.047 54.848 L 2.5 54.848 L 2.5 60.313 L 0.047 60.313 L 0 60.359 L 0 70.113 L 0.047 70.16 L 4.801 70.16 L 4.847 70.113 Z" id="back_outsideCutPath" stroke="#FF0000" stroke-width="0.1" style="stroke:#FF0000;stroke-width:0.1" vector-effect="non-scaling-stroke"/><path d="M 69.258 70.113 L 69.258 67.66 L 74.723 67.66 L 74.723 70.113 L 74.769 70.16 L 80.461 70.16 L 80.508 70.113 L 80.508 67.66 L 85.973 67.66 L 85.973 70.113 L 86.019 70.16 L 91.711 70.16 L 91.758 70.113 L 91.758 67.66 L 97.223 67.66 L 97.223 70.113 L 97.269 70.16 L 100.773 70.16 L 100.82 70.113 L 100.82 60.473 L 103.273 60.473 L 103.32 60.426 L 103.32 54.734 L 103.273 54.688 L 100.82 54.688 L 100.82 49.223 L 103.273 49.223 L 103.32 49.176 L 103.32 43.484 L 103.273 43.438 L 100.82 43.438 L 100.82 37.973 L 103.273 37.973 L 103.32 37.926 L 103.32 32.234 L 103.273 32.188 L 100.82 32.188 L 100.82 26.722 L 103.273 26.722 L 103.32 26.676 L 103.32 20.984 L 103.273 20.938 L 100.82 20.938 L 100.82 15.472 L 103.273 15.472 L 103.32 15.426 L 103.32 9.734 L 103.273 9.688 L 100.82 9.688 L 100.82 0.047 L 100.773 0 L 65.707 0 L 65.66 0.047 L 65.66 9.688 L 63.207 9.688 L 63.16 9.734 L 63.16 15.426 L 63.207 15.472 L 65.66 15.472 L 65.66 20.938 L 63.207 20.938 L 63.16 20.984 L 63.16 26.676 L 63.207 26.722 L 65.66 26.722 L 65.66 32.188 L 63.207 32.188 L 63.16 32.234 L 63.16 37.926 L 63.207 37.973 L 65.66 37.973 L 65.66 43.438 L 63.207 43.438 L 63.16 43.484 L 63.16 49.176 L 63.207 49.223 L 65.66 49.223 L 65.66 54.688 L 63.207 54.688 L 63.16 54.734 L 63.16 60.426 L 63.207 60.473 L 65.66 60.473 L 65.66 70.113 L 65.707 70.16 L 69.211 70.16 L 69.258 70.113 Z" id="right_outsideCutPath" stroke="#FF0000" stroke-width="0.1" style="stroke:#FF0000;stroke-width:0.1" vector-effect="non-scaling-stroke"/><path d="M 116.792 143.273 L 116.792 140.82 L 122.257 140.82 L 122.257 143.273 L 122.304 143.32 L 127.996 143.32 L 128.043 143.273 L 128.043 140.82 L 133.507 140.82 L 133.507 143.273 L 133.554 143.32 L 139.246 143.32 L 139.293 143.273 L 139.293 140.82 L 144.757 140.82 L 144.757 143.273 L 144.804 143.32 L 150.496 143.32 L 150.543 143.273 L 150.543 140.82 L 156.008 140.82 L 156.008 143.273 L 156.054 143.32 L 161.746 143.32 L 161.792 143.273 L 161.792 140.82 L 163.933 140.82 L 163.98 140.773 L 163.98 137.383 L 166.433 137.383 L 166.48 137.336 L 166.48 131.644 L 166.433 131.598 L 163.98 131.598 L 163.98 126.133 L 166.433 126.133 L 166.48 126.086 L 166.48 120.394 L 166.433 120.348 L 163.98 120.348 L 163.98 114.883 L 166.433 114.883 L 166.48 114.836 L 166.48 109.144 L 166.433 109.098 L 163.98 109.098 L 163.98 105.707 L 163.933 105.66 L 161.792 105.66 L 161.792 103.207 L 161.746 103.16 L 156.054 103.16 L 156.008 103.207 L 156.008 105.66 L 150.543 105.66 L 150.543 103.207 L 150.496 103.16 L 144.804 103.16 L 144.757 103.207 L 144.757 105.66 L 139.293 105.66 L 139.293 103.207 L 139.246 103.16 L 133.554 103.16 L 133.507 103.207 L 133.507 105.66 L 128.043 105.66 L 128.043 103.207 L 127.996 103.16 L 122.304 103.16 L 122.257 103.207 L 122.257 105.66 L 116.792 105.66 L 116.792 103.207 L 116.746 103.16 L 111.054 103.16 L 111.007 103.207 L 111.007 105.66 L 108.867 105.66 L 108.82 105.707 L 108.82 109.098 L 106.367 109.098 L 106.32 109.144 L 106.32 114.836 L 106.367 114.883 L 108.82 114.883 L 108.82 120.348 L 106.367 120.348 L 106.32 120.394 L 106.32 126.086 L 106.367 126.133 L 108.82 126.133 L 108.82 131.598 L 106.367 131.598 L 106.32 131.644 L 106.32 137.336 L 106.367 137.383 L 108.82 137.383 L 108.82 140.773 L 108.867 140.82 L 111.007 140.82 L 111.007 143.273 L 111.054 143.32 L 116.746 143.32 L 116.792 143.273 Z" id="bottom_outsideCutPath" stroke="#FF0000" stroke-width="0.1" style="stroke:#FF0000;stroke-width:0.1" vector-effect="non-scaling-stroke"/></g></svg>