0
SECTION
2
HEADER
9
$INSUNITS
70
4
9
$ACADVER
1
AC1014
9
$HANDSEED
5
FFFF
0
ENDSEC
0
SECTION
2
TABLES
0
TABLE
2
VPORT
5
8
100
AcDbSymbolTable
0
ENDTAB
0
TABLE
2
LTYPE
5
5
100
AcDbSymbolTable
0
LTYPE
5
14
100
AcDbSymbolTableRecord
100
AcDbLinetypeTableRecord
2
BYBLOCK
70
0
0
LTYPE
5
15
100
AcDbSymbolTableRecord
100
AcDbLinetypeTableRecord
2
BYLAYER
70
0
0
ENDTAB
0
TABLE
2
LAYER
5
2
100
AcDbSymbolTable
70
2
0
LAYER
5
50
100
AcDbSymbolTableRecord
100
AcDbLayerTableRecord
2
0
70
0
6
CONTINUOUS
0
ENDTAB
0
TABLE
2
STYLE
5
3
100
AcDbSymbolTable
70
1
0
STYLE
5
11
100
AcDbSymbolTableRecord
100
AcDbTextStyleTableRecord
2
STANDARD
70
0
0
ENDTAB
0
TABLE
2
VIEW
5
6
100
AcDbSymbolTable
70
0
0
ENDTAB
0
TABLE
2
UCS
5
7
100
AcDbSymbolTable
70
0
0
ENDTAB
0
TABLE
2
APPID
5
9
100
AcDbSymbolTable
70
2
0
APPID
5
12
100
AcDbSymbolTableRecord
100
AcDbRegAppTableRecord
2
ACAD
70
0
0
ENDTAB
0
TABLE
2
DIMSTYLE
5
A
100
AcDbSymbolTable
70
1
0
ENDTAB
0
TABLE
2
BLOCK_RECORD
5
1
100
AcDbSymbolTable
70
1
0
BLOCK_RECORD
5
1F
100
AcDbSymbolTableRecord
100
AcDbBlockTableRecord
2
*MODEL_SPACE
0
BLOCK_RECORD
5
1B
100
AcDbSymbolTableRecord
100
AcDbBlockTableRecord
2
*PAPER_SPACE
0
ENDTAB
0
ENDSEC
0
SECTION
2
BLOCKS
0
BLOCK
5
20
100
AcDbEntity
100
AcDbBlockBegin
2
*MODEL_SPACE
0
ENDBLK
5
21
100
AcDbEntity
100
AcDbBlockEnd
0
BLOCK
5
1C
100
AcDbEntity
100
AcDbBlockBegin
2
*PAPER_SPACE
0
ENDBLK
5
1D
100
AcDbEntity
100
AcDbBlockEnd
0
ENDSEC
0
SECTION
2
ENTITIES
0
SPLINE
5
100
100
AcDbEntity
8
0
100
AcDbSpline
70
4
71
5
72
31
73
25
74
0
42
0.000000001
43
0.0000000001
44
0.0000000001
40
0
40
0
40
0
40
0
40
0
40
0
40
0.050000000000000003
40
0.10000000000000001
40
0.15000000000000002
40
0.20000000000000001
40
0.25
40
0.29999999999999999
40
0.34999999999999998
40
0.39999999999999997
40
0.44999999999999996
40
0.49999999999999994
40
0.54999999999999993
40
0.59999999999999998
40
0.65000000000000002
40
0.70000000000000007
40
0.75000000000000011
40
0.80000000000000016
40
0.8500000000000002
40
0.90000000000000024
40
0.95000000000000029
40
1
40
1
40
1
40
1
40
1
40
1
41
1
41
1
41
1
41
1
41
1
41
1
41
1
41
1
41
1
41
1
41
1
41
1
41
1
41
1
41
1
41
1
41
1
41
1
41
1
41
1
41
1
41
1
41
1
41
1
41
1
10
18.64930686250872
20
48.588277139531321
30
0
10
18.514072024674057
20
48.676370379954072
30
0
10
18.241431125911884
20
48.854137451762369
30
0
10
17.825956100829423
20
49.125529122643449
30
0
10
17.259846246202407
20
49.497659490601897
30
0
10
16.537564825080441
20
49.98028245152458
30
0
10
15.808654754044518
20
50.473597659135194
30
0
10
15.082596038100979
20
50.95782911761183
30
0
10
14.369477521985921
20
51.39490354301455
30
0
10
13.678939387175914
20
51.720899843770134
30
0
10
13.021647867749962
20
51.861771284380254
30
0
10
12.411319666537153
20
51.75319054410545
30
0
10
11.866116804094505
20
51.356908243391011
30
0
10
11.411407820414226
20
50.684741135461351
30
0
10
11.076781849473861
20
49.793411051831988
30
0
10
10.890033057654971
20
48.763920647050924
30
0
10
10.871633132534054
20
47.685848949056002
30
0
10
11.029462240101397
20
46.641191357569923
30
0
10
11.351343338826322
20
45.685597866609214
30
0
10
11.803736241750116
20
44.839815299997767
30
0
10
12.343757518366418
20
44.103424353793272
30
0
10
12.811225988557622
20
43.591407185902547
30
0
10
13.166585872436556
20
43.243853702938317
30
0
10
13.403660617106928
20
43.027238542152155
30
0
10
13.522240158901639
20
42.922703040970944
30
0
0
SPLINE
5
101
100
AcDbEntity
8
0
100
AcDbSpline
70
4
71
5
72
31
73
25
74
0
42
0.000000001
43
0.0000000001
44
0.0000000001
40
0
40
0
40
0
40
0
40
0
40
0
40
0.050000000000000003
40
0.10000000000000001
40
0.15000000000000002
40
0.20000000000000001
40
0.25
40
0.29999999999999999
40
0.34999999999999998
40
0.39999999999999997
40
0.44999999999999996
40
0.49999999999999994
40
0.54999999999999993
40
0.59999999999999998
40
0.65000000000000002
40
0.70000000000000007
40
0.75000000000000011
40
0.80000000000000016
40
0.8500000000000002
40
0.90000000000000024
40
0.95000000000000029
40
1
40
1
40
1
40
1
40
1
40
1
41
1
41
1
41
1
41
1
41
1
41
1
41
1
41
1
41
1
41
1
41
1
41
1
41
1
41
1
41
1
41
1
41
1
41
1
41
1
41
1
41
1
41
1
41
1
41
1
41
1
10
31.323855060843925
20
48.555840643727521
30
0
10
31.461369037532762
20
48.645551587885699
30
0
10
31.738081013560272
20
48.827098050731045
30
0
10
32.158200937920924
20
49.105791044243084
30
0
10
32.728471271664958
20
49.49016842260982
30
0
10
33.457008352678045
20
49.988228502347702
30
0
10
34.197722080208294
20
50.492348519831481
30
0
10
34.943429632097093
20
50.978910281710846
30
0
10
35.682045883356757
20
51.408204479347091
30
0
10
36.39501120157356
20
51.719094574129699
30
0
10
37.060057701075863
20
51.843296365701335
30
0
10
37.654424576700606
20
51.722097587204878
30
0
10
38.157687305870603
20
51.320770163109515
30
0
10
38.555460684376399
20
50.648753613306148
30
0
10
38.839181248294274
20
49.752947561356649
30
0
10
39.004599292108338
20
48.702096428785708
30
0
10
39.050890567113832
20
47.574297995211836
30
0
10
38.97968990693829
20
46.444637013487309
30
0
10
38.794369017976955
20
45.370408865649836
30
0
10
38.499257079646483
20
44.386840433929066
30
0
10
38.09883749713957
20
43.514110912502474
30
0
10
37.697418155275081
20
42.911614798266974
30
0
10
37.352004647396427
20
42.514496949160858
30
0
10
37.102164923935156
20
42.273995141691216
30
0
10
36.972354039744665
20
42.159805313065661
30
0
0
SPLINE
5
102
100
AcDbEntity
8
0
100
AcDbSpline
70
4
71
5
72
36
73
30
74
0
42
0.000000001
43
0.0000000001
44
0.0000000001
40
0
40
0
40
0
40
0
40
0
40
0
40
0.040000000000000001
40
0.080000000000000002
40
0.12
40
0.16
40
0.20000000000000001
40
0.24000000000000002
40
0.28000000000000003
40
0.32000000000000001
40
0.35999999999999999
40
0.39999999999999997
40
0.43999999999999995
40
0.47999999999999993
40
0.51999999999999991
40
0.55999999999999994
40
0.59999999999999998
40
0.64000000000000001
40
0.68000000000000005
40
0.72000000000000008
40
0.76000000000000012
40
0.80000000000000016
40
0.84000000000000019
40
0.88000000000000023
40
0.92000000000000026
40
0.9600000000000003
40
1
40
1
40
1
40
1
40
1
40
1
41
1
41
1
41
1
41
1
41
1
41
1
41
1
41
1
41
1
41
1
41
1
41
1
41
1
41
1
41
1
41
1
41
1
41
1
41
1
41
1
41
1
41
1
41
1
41
1
41
1
41
1
41
1
41
1
41
1
41
1
10
25.00000037252903
20
40.000000596046448
30
0
10
24.840370232038744
20
40.026148283122609
30
0
10
24.525788350943248
20
40.061389933496471
30
0
10
24.06795133415395
20
40.063090459057911
30
0
10
23.485641588728786
20
39.962773697256935
30
0
10
22.804360290458451
20
39.666694461346211
30
0
10
22.167953063379763
20
39.203669271669284
30
0
10
21.572538885403304
20
38.583085014377389
30
0
10
21.01064964538946
20
37.823202915098541
30
0
10
20.473349338721945
20
36.949713540866696
30
0
10
19.953735221433408
20
35.992511379519286
30
0
10
19.450016291148636
20
34.98313953164152
30
0
10
18.968750305510763
20
33.952044484929573
30
0
10
18.528217023555481
20
32.925887920886282
30
0
10
18.161469611808215
20
31.924955535876972
30
0
10
17.908369423801542
20
30.96443847772434
30
0
10
17.808280985941977
20
30.055494510971865
30
0
10
17.8921090200588
20
29.206353738726921
30
0
10
18.175352956018582
20
28.423293698006397
30
0
10
18.648270155673139
20
27.71175675139418
30
0
10
19.280322585190696
20
27.076538708167789
30
0
10
20.029587467608536
20
26.521631282770013
30
0
10
20.850520535026259
20
26.050126235836576
30
0
10
21.701855386565509
20
25.664074509151433
30
0
10
22.55554513595321
20
25.364247225007929
30
0
10
23.39527504529125
20
25.150504883117009
30
0
10
24.049432343171308
20
25.047909195029199
30
0
10
24.529003018351144
20
25.009144702867818
30
0
10
24.843817695343571
20
25.000227517001342
30
0
10
25.00000037252903
20
25.00000037252903
30
0
0
SPLINE
5
103
100
AcDbEntity
8
0
100
AcDbSpline
70
4
71
5
72
31
73
25
74
0
42
0.000000001
43
0.0000000001
44
0.0000000001
40
0
40
0
40
0
40
0
40
0
40
0
40
0.050000000000000003
40
0.10000000000000001
40
0.15000000000000002
40
0.20000000000000001
40
0.25
40
0.29999999999999999
40
0.34999999999999998
40
0.39999999999999997
40
0.44999999999999996
40
0.49999999999999994
40
0.54999999999999993
40
0.59999999999999998
40
0.65000000000000002
40
0.70000000000000007
40
0.75000000000000011
40
0.80000000000000016
40
0.8500000000000002
40
0.90000000000000024
40
0.95000000000000029
40
1
40
1
40
1
40
1
40
1
40
1
41
1
41
1
41
1
41
1
41
1
41
1
41
1
41
1
41
1
41
1
41
1
41
1
41
1
41
1
41
1
41
1
41
1
41
1
41
1
41
1
41
1
41
1
41
1
41
1
41
1
10
22.000000327825546
20
30.000000447034836
30
0
10
21.867626926831289
20
29.963803707158995
30
0
10
21.613430879369581
20
29.883868410676527
30
0
10
21.263789061006246
20
29.741340852835116
30
0
10
20.861162854031619
20
29.50586290762212
30
0
10
20.465491235223162
20
29.136943786123979
30
0
10
20.179784500796117
20
28.698743416541511
30
0
10
20.006677803099425
20
28.203642502846243
30
0
10
19.948553419181831
20
27.67338869365657
30
0
10
20.007044069636141
20
27.143563720645737
30
0
10
20.181898900899931
20
26.659433920552395
30
0
10
20.469497789067937
20
26.266932869724165
30
0
10
20.861175433685595
20
26.004753749627561
30
0
10
21.341711248201459
20
25.896660615971115
30
0
10
21.886780888376457
20
25.941186436808927
30
0
10
22.465264635961137
20
26.115528917711735
30
0
10
23.043107587423414
20
26.384066124350213
30
0
10
23.586599975768682
20
26.705020322212221
30
0
10
24.065792337249206
20
27.037503399262018
30
0
10
24.458131526148573
20
27.348629304197516
30
0
10
24.751581983085469
20
27.619734376057849
30
0
10
24.903221354498012
20
27.797499656468716
30
0
10
24.969853193446223
20
27.90770560549776
30
0
10
24.993426002656037
20
27.97094123218325
30
0
10
25.00000037252903
20
28.000000417232513
30
0
0
SPLINE
5
104
100
AcDbEntity
8
0
100
AcDbSpline
70
4
71
5
72
31
73
25
74
0
42
0.000000001
43
0.0000000001
44
0.0000000001
40
0
40
0
40
0
40
0
40
0
40
0
40
0.050000000000000003
40
0.10000000000000001
40
0.15000000000000002
40
0.20000000000000001
40
0.25
40
0.29999999999999999
40
0.34999999999999998
40
0.39999999999999997
40
0.44999999999999996
40
0.49999999999999994
40
0.54999999999999993
40
0.59999999999999998
40
0.65000000000000002
40
0.70000000000000007
40
0.75000000000000011
40
0.80000000000000016
40
0.8500000000000002
40
0.90000000000000024
40
0.95000000000000029
40
1
40
1
40
1
40
1
40
1
40
1
41
1
41
1
41
1
41
1
41
1
41
1
41
1
41
1
41
1
41
1
41
1
41
1
41
1
41
1
41
1
41
1
41
1
41
1
41
1
41
1
41
1
41
1
41
1
41
1
41
1
10
24.000000357627869
20
37.000000551342964
30
0
10
23.976148907765996
20
37.051426557130299
30
0
10
23.925669391285052
20
37.151852460197979
30
0
10
23.841620522178953
20
37.295212862870535
30
0
10
23.712825950568131
20
37.471744882755857
30
0
10
23.524356244996426
20
37.667257537580326
30
0
10
23.310298334756844
20
37.835865402915239
30
0
10
23.075075875369624
20
37.974489148063711
30
0
10
22.826501153041342
20
38.078505898042735
30
0
10
22.577310175306245
20
38.141171555074358
30
0
10
22.343541347450987
20
38.154935764530009
30
0
10
22.141655010599184
20
38.113542082724635
30
0
10
21.986067780173713
20
38.01393311389738
30
0
10
21.886458811347396
20
37.858345883465134
30
0
10
21.845065129538483
20
37.656459546604772
30
0
10
21.858829338989899
20
37.42269071874491
30
0
10
21.921494996021163
20
37.173499741014751
30
0
10
22.02551174600702
20
36.924925018703732
30
0
10
22.164135491168846
20
36.68970255934299
30
0
10
22.332743356518115
20
36.475644649129208
30
0
10
22.528256011350361
20
36.287174943570079
30
0
10
22.704788031230713
20
36.158380371949065
30
0
10
22.848148433890959
20
36.074331502820087
30
0
10
22.948574336946447
20
36.023851986316672
30
0
10
23.000000342726707
20
36.000000536441803
30
0
0
LINE
5
105
100
AcDbEntity
8
0
100
AcDbLine
10
25.00000037252903
20
48.000000715255737
30
0
11
25.00000037252903
21
47.000000700354576
31
0
0
SPLINE
5
106
100
AcDbEntity
8
0
100
AcDbSpline
70
4
71
5
72
36
73
30
74
0
42
0.000000001
43
0.0000000001
44
0.0000000001
40
0
40
0
40
0
40
0
40
0
40
0
40
0.040000000000000001
40
0.080000000000000002
40
0.12
40
0.16
40
0.20000000000000001
40
0.24000000000000002
40
0.28000000000000003
40
0.32000000000000001
40
0.35999999999999999
40
0.39999999999999997
40
0.43999999999999995
40
0.47999999999999993
40
0.51999999999999991
40
0.55999999999999994
40
0.59999999999999998
40
0.64000000000000001
40
0.68000000000000005
40
0.72000000000000008
40
0.76000000000000012
40
0.80000000000000016
40
0.84000000000000019
40
0.88000000000000023
40
0.92000000000000026
40
0.9600000000000003
40
1
40
1
40
1
40
1
40
1
40
1
41
1
41
1
41
1
41
1
41
1
41
1
41
1
41
1
41
1
41
1
41
1
41
1
41
1
41
1
41
1
41
1
41
1
41
1
41
1
41
1
41
1
41
1
41
1
41
1
41
1
41
1
41
1
41
1
41
1
41
1
10
25.00000037252903
20
40.000000596046448
30
0
10
25.159630513019316
20
40.026148283122609
30
0
10
25.474212394114812
20
40.061389933496471
30
0
10
25.93204941090411
20
40.063090459057911
30
0
10
26.514359156329274
20
39.962773697256935
30
0
10
27.195640454599609
20
39.666694461346211
30
0
10
27.832047681678297
20
39.203669271669284
30
0
10
28.427461859654755
20
38.583085014377389
30
0
10
28.9893510996686
20
37.823202915098541
30
0
10
29.526651406336114
20
36.949713540866696
30
0
10
30.046265523624651
20
35.992511379519286
30
0
10
30.549984453909424
20
34.98313953164152
30
0
10
31.0312504395473
20
33.952044484929573
30
0
10
31.471783721502575
20
32.925887920886282
30
0
10
31.838531133249841
20
31.924955535876972
30
0
10
32.091631321256521
20
30.96443847772434
30
0
10
32.191719759116083
20
30.055494510971865
30
0
10
32.107891724999256
20
29.206353738726921
30
0
10
31.824647789039481
20
28.423293698006397
30
0
10
31.351730589384921
20
27.71175675139418
30
0
10
30.719678159867364
20
27.076538708167789
30
0
10
29.970413277449524
20
26.521631282770013
30
0
10
29.1494802100318
20
26.050126235836576
30
0
10
28.298145358492551
20
25.664074509151433
30
0
10
27.44445560910485
20
25.364247225007929
30
0
10
26.60472569976681
20
25.150504883117009
30
0
10
25.950568401886752
20
25.047909195029199
30
0
10
25.470997726706916
20
25.009144702867818
30
0
10
25.156183049714489
20
25.000227517001342
30
0
10
25.00000037252903
20
25.00000037252903
30
0
0
SPLINE
5
107
100
AcDbEntity
8
0
100
AcDbSpline
70
4
71
5
72
31
73
25
74
0
42
0.000000001
43
0.0000000001
44
0.0000000001
40
0
40
0
40
0
40
0
40
0
40
0
40
0.050000000000000003
40
0.10000000000000001
40
0.15000000000000002
40
0.20000000000000001
40
0.25
40
0.29999999999999999
40
0.34999999999999998
40
0.39999999999999997
40
0.44999999999999996
40
0.49999999999999994
40
0.54999999999999993
40
0.59999999999999998
40
0.65000000000000002
40
0.70000000000000007
40
0.75000000000000011
40
0.80000000000000016
40
0.8500000000000002
40
0.90000000000000024
40
0.95000000000000029
40
1
40
1
40
1
40
1
40
1
40
1
41
1
41
1
41
1
41
1
41
1
41
1
41
1
41
1
41
1
41
1
41
1
41
1
41
1
41
1
41
1
41
1
41
1
41
1
41
1
41
1
41
1
41
1
41
1
41
1
41
1
10
26.000000387430191
20
37.000000551342964
30
0
10
26.023851837292064
20
37.051426557130299
30
0
10
26.074331353773008
20
37.151852460197979
30
0
10
26.158380222879106
20
37.295212862870535
30
0
10
26.287174794489928
20
37.471744882755857
30
0
10
26.475644500061634
20
37.667257537580326
30
0
10
26.689702410301216
20
37.835865402915239
30
0
10
26.924924869688436
20
37.974489148063711
30
0
10
27.173499592016718
20
38.078505898042735
30
0
10
27.422690569751815
20
38.141171555074358
30
0
10
27.656459397607073
20
38.154935764530009
30
0
10
27.858345734458876
20
38.113542082724635
30
0
10
28.013932964884347
20
38.01393311389738
30
0
10
28.113541933710664
20
37.858345883465134
30
0
10
28.154935615519577
20
37.656459546604772
30
0
10
28.14117140606816
20
37.42269071874491
30
0
10
28.078505749036896
20
37.173499741014751
30
0
10
27.97448899905104
20
36.924925018703732
30
0
10
27.835865253889214
20
36.68970255934299
30
0
10
27.667257388539944
20
36.475644649129208
30
0
10
27.471744733707698
20
36.287174943570079
30
0
10
27.295212713827347
20
36.158380371949065
30
0
10
27.151852311167101
20
36.074331502820087
30
0
10
27.051426408111613
20
36.023851986316672
30
0
10
27.000000402331352
20
36.000000536441803
30
0
0
SPLINE
5
108
100
AcDbEntity
8
0
100
AcDbSpline
70
4
71
5
72
31
73
25
74
0
42
0.000000001
43
0.0000000001
44
0.0000000001
40
0
40
0
40
0
40
0
40
0
40
0
40
0.050000000000000003
40
0.10000000000000001
40
0.15000000000000002
40
0.20000000000000001
40
0.25
40
0.29999999999999999
40
0.34999999999999998
40
0.39999999999999997
40
0.44999999999999996
40
0.49999999999999994
40
0.54999999999999993
40
0.59999999999999998
40
0.65000000000000002
40
0.70000000000000007
40
0.75000000000000011
40
0.80000000000000016
40
0.8500000000000002
40
0.90000000000000024
40
0.95000000000000029
40
1
40
1
40
1
40
1
40
1
40
1
41
1
41
1
41
1
41
1
41
1
41
1
41
1
41
1
41
1
41
1
41
1
41
1
41
1
41
1
41
1
41
1
41
1
41
1
41
1
41
1
41
1
41
1
41
1
41
1
41
1
10
28.000000417232513
20
30.000000447034836
30
0
10
28.132373818226771
20
29.963803707158995
30
0
10
28.386569865688479
20
29.883868410676527
30
0
10
28.736211684051813
20
29.741340852835116
30
0
10
29.138837891026441
20
29.50586290762212
30
0
10
29.534509509834898
20
29.136943786123979
30
0
10
29.820216244261943
20
28.698743416541511
30
0
10
29.993322941958635
20
28.203642502846243
30
0
10
30.051447325876232
20
27.67338869365657
30
0
10
29.992956675421919
20
27.143563720645737
30
0
10
29.818101844158129
20
26.659433920552395
30
0
10
29.530502955990123
20
26.266932869724165
30
0
10
29.138825311372464
20
26.004753749627561
30
0
10
28.6582894968566
20
25.896660615971115
30
0
10
28.113219856681603
20
25.941186436808927
30
0
10
27.534736109096922
20
26.115528917711735
30
0
10
26.956893157634646
20
26.384066124350213
30
0
10
26.413400769289378
20
26.705020322212221
30
0
10
25.934208407808853
20
27.037503399262018
30
0
10
25.541869218909486
20
27.348629304197516
30
0
10
25.248418761972591
20
27.619734376057849
30
0
10
25.096779390560048
20
27.797499656468716
30
0
10
25.030147551611837
20
27.90770560549776
30
0
10
25.006574742402023
20
27.97094123218325
30
0
10
25.00000037252903
20
28.000000417232513
30
0
0
SPLINE
5
109
100
AcDbEntity
8
0
100
AcDbSpline
70
6
71
5
72
46
73
40
74
0
42
0.000000001
43
0.0000000001
44
0.0000000001
40
0
40
0
40
0
40
0
40
0
40
0
40
0.028571428571428571
40
0.057142857142857141
40
0.085714285714285715
40
0.11428571428571428
40
0.14285714285714285
40
0.17142857142857143
40
0.20000000000000001
40
0.22857142857142859
40
0.25714285714285717
40
0.28571428571428575
40
0.31428571428571433
40
0.34285714285714292
40
0.3714285714285715
40
0.40000000000000008
40
0.42857142857142866
40
0.45714285714285724
40
0.48571428571428582
40
0.51428571428571435
40
0.54285714285714293
40
0.57142857142857151
40
0.60000000000000009
40
0.62857142857142867
40
0.65714285714285725
40
0.68571428571428583
40
0.71428571428571441
40
0.74285714285714299
40
0.77142857142857157
40
0.80000000000000016
40
0.82857142857142874
40
0.85714285714285732
40
0.8857142857142859
40
0.91428571428571448
40
0.94285714285714306
40
0.97142857142857164
40
1
40
1
40
1
40
1
40
1
40
1
41
1
41
1
41
1
41
1
41
1
41
1
41
1
41
1
41
1
41
1
41
1
41
1
41
1
41
1
41
1
41
1
41
1
41
1
41
1
41
1
41
1
41
1
41
1
41
1
41
1
41
1
41
1
41
1
41
1
41
1
41
1
41
1
41
1
41
1
41
1
41
1
41
1
41
1
41
1
41
1
10
19.032561960721793
20
41.614654362179103
30
0
10
18.991266624570017
20
41.644425777801793
30
0
10
18.90715945820293
20
41.700205848718205
30
0
10
18.778334551547388
20
41.772177396124839
30
0
10
18.605223491496158
20
41.845988052202607
30
0
10
18.384040070545129
20
41.913026881596508
30
0
10
18.148444528587369
20
41.968976511138784
30
0
10
17.886779693175523
20
42.024984263131188
30
0
10
17.591275564016687
20
42.082093617985905
30
0
10
17.260862815048963
20
42.129934579073058
30
0
10
16.90015818979612
20
42.152749953653618
30
0
10
16.519399697442953
20
42.133406834743681
30
0
10
16.13414882538482
20
42.058474014382838
30
0
10
15.764854004196366
20
41.922259076692107
30
0
10
15.437185995398499
20
41.73284823351792
30
0
10
15.17883762381418
20
41.510098531311137
30
0
10
15.014470269397211
20
41.279221107123021
30
0
10
14.960850865023039
20
41.065501240062481
30
0
10
15.022666631406683
20
40.889113451273786
30
0
10
15.185972214188517
20
40.758492712778306
30
0
10
15.421795450550778
20
40.670615275498136
30
0
10
15.696727685424703
20
40.615982782660126
30
0
10
15.980931990557776
20
40.582037015761543
30
0
10
16.25822886430068
20
40.5574509700729
30
0
10
16.532304396619672
20
40.535274382671048
30
0
10
16.817317440096375
20
40.512269711261951
30
0
10
17.130821227301439
20
40.488756726120812
30
0
10
17.485591218428841
20
40.468309199549438
30
0
10
17.882419701630926
20
40.457467685709631
30
0
10
18.301065704536427
20
40.465636309738585
30
0
10
18.706936793453742
20
40.503040752778617
30
0
10
19.059847237659451
20
40.578440348514007
30
0
10
19.322177928631426
20
40.696844321157556
30
0
10
19.466902911318993
20
40.85737431260128
30
0
10
19.486659032359459
20
41.050625843436663
30
0
10
19.399708129748472
20
41.257397706051194
30
0
10
19.270107935194709
20
41.415740964608815
30
0
10
19.154931475113578
20
41.521577354982057
30
0
10
19.07385729687357
20
41.584882946556412
30
0
10
19.032561960721793
20
41.614654362179103
30
0
0
CIRCLE
5
110
100
AcDbEntity
8
0
100
AcDbCircle
10
14.000000208616257
20
37.000000551342964
30
0
40
2.2360680108197992
210
0
220
0
230
1
0
SPLINE
5
111
100
AcDbEntity
8
0
100
AcDbSpline
70
6
71
5
72
46
73
40
74
0
42
0.000000001
43
0.0000000001
44
0.0000000001
40
0
40
0
40
0
40
0
40
0
40
0
40
0.028571428571428571
40
0.057142857142857141
40
0.085714285714285715
40
0.11428571428571428
40
0.14285714285714285
40
0.17142857142857143
40
0.20000000000000001
40
0.22857142857142859
40
0.25714285714285717
40
0.28571428571428575
40
0.31428571428571433
40
0.34285714285714292
40
0.3714285714285715
40
0.40000000000000008
40
0.42857142857142866
40
0.45714285714285724
40
0.48571428571428582
40
0.51428571428571435
40
0.54285714285714293
40
0.57142857142857151
40
0.60000000000000009
40
0.62857142857142867
40
0.65714285714285725
40
0.68571428571428583
40
0.71428571428571441
40
0.74285714285714299
40
0.77142857142857157
40
0.80000000000000016
40
0.82857142857142874
40
0.85714285714285732
40
0.8857142857142859
40
0.91428571428571448
40
0.94285714285714306
40
0.97142857142857164
40
1
40
1
40
1
40
1
40
1
40
1
41
1
41
1
41
1
41
1
41
1
41
1
41
1
41
1
41
1
41
1
41
1
41
1
41
1
41
1
41
1
41
1
41
1
41
1
41
1
41
1
41
1
41
1
41
1
41
1
41
1
41
1
41
1
41
1
41
1
41
1
41
1
41
1
41
1
41
1
41
1
41
1
41
1
41
1
41
1
41
1
10
30.967438784336263
20
41.614654362179103
30
0
10
31.00873412048804
20
41.644425777801793
30
0
10
31.09284128685513
20
41.700205848718205
30
0
10
31.221666193510671
20
41.772177396124839
30
0
10
31.394777253561902
20
41.845988052202607
30
0
10
31.615960674512927
20
41.913026881596508
30
0
10
31.851556216470691
20
41.968976511138784
30
0
10
32.113221051882533
20
42.024984263131188
30
0
10
32.408725181041369
20
42.082093617985905
30
0
10
32.739137930009093
20
42.129934579073058
30
0
10
33.099842555261944
20
42.152749953653618
30
0
10
33.48060104761511
20
42.133406834743681
30
0
10
33.86585191967324
20
42.058474014382838
30
0
10
34.235146740861694
20
41.922259076692107
30
0
10
34.562814749659559
20
41.73284823351792
30
0
10
34.821163121243885
20
41.510098531311137
30
0
10
34.985530475660845
20
41.279221107123021
30
0
10
35.039149880035019
20
41.065501240062481
30
0
10
34.977334113651381
20
40.889113451273786
30
0
10
34.814028530869543
20
40.758492712778306
30
0
10
34.578205294507278
20
40.670615275498136
30
0
10
34.303273059633355
20
40.615982782660126
30
0
10
34.019068754500282
20
40.582037015761543
30
0
10
33.741771880757383
20
40.5574509700729
30
0
10
33.467696348438388
20
40.535274382671048
30
0
10
33.182683304961685
20
40.512269711261951
30
0
10
32.869179517756621
20
40.488756726120812
30
0
10
32.514409526629223
20
40.468309199549438
30
0
10
32.11758104342713
20
40.457467685709631
30
0
10
31.698935040521633
20
40.465636309738585
30
0
10
31.293063951604317
20
40.503040752778617
30
0
10
30.940153507398609
20
40.578440348514007
30
0
10
30.677822816426634
20
40.696844321157556
30
0
10
30.533097833739067
20
40.85737431260128
30
0
10
30.513341712698605
20
41.050625843436663
30
0
10
30.600292615309588
20
41.257397706051194
30
0
10
30.729892809863351
20
41.415740964608815
30
0
10
30.845069269944485
20
41.521577354982057
30
0
10
30.92614344818449
20
41.584882946556412
30
0
10
30.967438784336263
20
41.614654362179103
30
0
0
CIRCLE
5
112
100
AcDbEntity
8
0
100
AcDbCircle
10
36.000000536441803
20
37.000000551342964
30
0
40
2.2360680108197992
210
0
220
0
230
1
0
LINE
5
113
100
AcDbEntity
8
0
100
AcDbLine
10
25.00000037252903
20
28.000000417232513
30
0
11
25.00000037252903
21
35.000000521540642
31
0
0
SPLINE
5
114
100
AcDbEntity
8
0
100
AcDbSpline
70
4
71
5
72
26
73
20
74
0
42
0.000000001
43
0.0000000001
44
0.0000000001
40
0
40
0
40
0
40
0
40
0
40
0
40
0.066666666666666666
40
0.13333333333333333
40
0.20000000000000001
40
0.26666666666666666
40
0.33333333333333331
40
0.39999999999999997
40
0.46666666666666662
40
0.53333333333333333
40
0.59999999999999998
40
0.66666666666666663
40
0.73333333333333328
40
0.79999999999999993
40
0.86666666666666659
40
0.93333333333333324
40
1
40
1
40
1
40
1
40
1
40
1
41
1
41
1
41
1
41
1
41
1
41
1
41
1
41
1
41
1
41
1
41
1
41
1
41
1
41
1
41
1
41
1
41
1
41
1
41
1
41
1
10
23.732140686293981
20
21.763946838672553
30
0
10
23.669024210595811
20
21.597856994705449
30
0
10
23.548044373824734
20
21.263284625540066
30
0
10
23.382332785930913
20
20.754247815219671
30
0
10
23.188807289899138
20
20.060932961063536
30
0
10
22.969280459937469
20
19.16958732218626
30
0
10
22.74286114189103
20
18.254978678774965
30
0
10
22.480993177614067
20
17.321915821609878
30
0
10
22.163187288677086
20
16.380516663226285
30
0
10
21.783119131296708
20
15.447728194454204
30
0
10
21.358900592747986
20
14.550441274547428
30
0
10
20.928519195422201
20
13.722858019410399
30
0
10
20.535139185871579
20
12.999830174372262
30
0
10
20.215806510757837
20
12.411314003012681
30
0
10
19.988335033036222
20
11.975806237553099
30
0
10
19.838854972534644
20
11.693787835124237
30
0
10
19.732855744142647
20
11.570215428139701
30
0
10
19.629845437471452
20
11.520460549058667
30
0
10
19.545838224831101
20
11.504030587648405
30
0
10
19.500000290572647
20
11.50000017136335
30
0
0
SPLINE
5
115
100
AcDbEntity
8
0
100
AcDbSpline
70
4
71
5
72
21
73
15
74
0
42
0.000000001
43
0.0000000001
44
0.0000000001
40
0
40
0
40
0
40
0
40
0
40
0
40
0.10000000000000001
40
0.20000000000000001
40
0.30000000000000004
40
0.40000000000000002
40
0.5
40
0.59999999999999998
40
0.69999999999999996
40
0.79999999999999993
40
0.89999999999999991
40
1
40
1
40
1
40
1
40
1
40
1
41
1
41
1
41
1
41
1
41
1
41
1
41
1
41
1
41
1
41
1
41
1
41
1
41
1
41
1
41
1
10
16.167192472236195
20
13.44067993921999
30
0
10
16.110649304018033
20
13.262371697814061
30
0
10
16.007987653753627
20
12.901104105138394
30
0
10
15.88527051687673
20
12.345248815442954
30
0
10
15.785216346574277
20
11.575746433009947
30
0
10
15.772752464043386
20
10.563628785649957
30
0
10
15.881008572691364
20
9.497650337833635
30
0
10
16.116608543312417
20
8.3748557631103289
30
0
10
16.477677868345797
20
7.1960813975060622
30
0
10
16.954610371011455
20
5.965613162230758
30
0
10
17.536370079663605
20
4.688374900144149
30
0
10
18.077753570500025
20
3.6326867291394196
30
0
10
18.523636364049032
20
2.8231431555625131
30
0
10
18.838309187233527
20
2.2756763378980041
30
0
10
19.000000283122063
20
2.0000000298023224
30
0
0
SPLINE
5
116
100
AcDbEntity
8
0
100
AcDbSpline
70
4
71
5
72
26
73
20
74
0
42
0.000000001
43
0.0000000001
44
0.0000000001
40
0
40
0
40
0
40
0
40
0
40
0
40
0.066666666666666666
40
0.13333333333333333
40
0.20000000000000001
40
0.26666666666666666
40
0.33333333333333331
40
0.39999999999999997
40
0.46666666666666662
40
0.53333333333333333
40
0.59999999999999998
40
0.66666666666666663
40
0.73333333333333328
40
0.79999999999999993
40
0.86666666666666659
40
0.93333333333333324
40
1
40
1
40
1
40
1
40
1
40
1
41
1
41
1
41
1
41
1
41
1
41
1
41
1
41
1
41
1
41
1
41
1
41
1
41
1
41
1
41
1
41
1
41
1
41
1
41
1
41
1
10
20.000000298023224
20
12.000000178813934
30
0
10
20.043410175230399
20
11.865757035417591
30
0
10
20.131709489098558
20
11.599723929197168
30
0
10
20.26859715472138
20
11.208033621075469
30
0
10
20.456437566261382
20
10.702042622029715
30
0
10
20.680566655829903
20
10.10431790883198
30
0
10
20.87058264178555
20
9.5489825726627178
30
0
10
21.006044106091956
20
9.039569761020056
30
0
10
21.076117531536713
20
8.5715799525774443
30
0
10
21.087673873245084
20
8.1274440395923868
30
0
10
21.059351001476102
20
7.6815428684652556
30
0
10
21.014166881694052
20
7.2063991415330895
30
0
10
20.973595710829862
20
6.6777397477776841
30
0
10
20.949628015129733
20
6.0816039559960213
30
0
10
20.944590592298901
20
5.4140970719862471
30
0
10
20.955302585437284
20
4.6770703203909676
30
0
10
20.971596516484997
20
4.0357818226909554
30
0
10
20.985493266740029
20
3.5280157395422602
30
0
10
20.995106465277601
20
3.1779338653728928
30
0
10
21.000000312924385
20
3.0000000447034836
30
0
0
SPLINE
5
117
100
AcDbEntity
8
0
100
AcDbSpline
70
4
71
5
72
56
73
50
74
0
42
0.000000001
43
0.0000000001
44
0.0000000001
40
0
40
0
40
0
40
0
40
0
40
0
40
0.022222222222222223
40
0.044444444444444446
40
0.066666666666666666
40
0.088888888888888892
40
0.11111111111111112
40
0.13333333333333333
40
0.15555555555555556
40
0.17777777777777778
40
0.20000000000000001
40
0.22222222222222224
40
0.24444444444444446
40
0.26666666666666666
40
0.28888888888888886
40
0.31111111111111106
40
0.33333333333333326
40
0.35555555555555546
40
0.37777777777777766
40
0.39999999999999986
40
0.42222222222222205
40
0.44444444444444425
40
0.46666666666666645
40
0.48888888888888865
40
0.51111111111111085
40
0.5333333333333331
40
0.55555555555555536
40
0.57777777777777761
40
0.59999999999999987
40
0.62222222222222212
40
0.64444444444444438
40
0.66666666666666663
40
0.68888888888888888
40
0.71111111111111114
40
0.73333333333333339
40
0.75555555555555565
40
0.7777777777777779
40
0.80000000000000016
40
0.82222222222222241
40
0.84444444444444466
40
0.86666666666666692
40
0.88888888888888917
40
0.91111111111111143
40
0.93333333333333368
40
0.95555555555555594
40
0.97777777777777819
40
1
40
1
40
1
40
1
40
1
40
1
41
1
41
1
41
1
41
1
41
1
41
1
41
1
41
1
41
1
41
1
41
1
41
1
41
1
41
1
41
1
41
1
41
1
41
1
41
1
41
1
41
1
41
1
41
1
41
1
41
1
41
1
41
1
41
1
41
1
41
1
41
1
41
1
41
1
41
1
41
1
41
1
41
1
41
1
41
1
41
1
41
1
41
1
41
1
41
1
41
1
41
1
41
1
41
1
41
1
41
1
10
19.000000283122063
20
2.0000000298023224
30
0
10
18.98331036655464
20
1.9112313499591544
30
0
10
18.941739582249973
20
1.7377797109238136
30
0
10
18.854810367804056
20
1.4898594580833384
30
0
10
18.689720736895637
20
1.183832870019454
30
0
10
18.402733905565189
20
0.84194697808150021
30
0
10
18.039599376331729
20
0.53977534968073815
30
0
10
17.609531059779325
20
0.27531172592971714
30
0
10
17.128294016436719
20
0.045044411331618295
30
0
10
16.619589750385501
20
-0.15637358626250342
30
0
10
16.117594912150665
20
-0.33673158683095167
30
0
10
15.662832351901494
20
-0.50526803661566122
30
0
10
15.296048926417008
20
-0.67119695482106567
30
0
10
15.052662443914034
20
-0.84237641265505792
30
0
10
14.95717761398874
20
-1.0239589344513853
30
0
10
15.017049865712021
20
-1.2169362401419987
30
0
10
15.218281938975956
20
-1.4170283536923538
30
0
10
15.532500517804671
20
-1.6159728957841826
30
0
10
15.922864527684901
20
-1.8025094181070704
30
0
10
16.35009312720954
20
-1.9635294095438141
30
0
10
16.779137788968214
20
-2.0850054432088339
30
0
10
17.182532694874556
20
-2.153599967905536
30
0
10
17.540881115516974
20
-2.1587069504156515
30
0
10
17.844351724047478
20
-2.0945193811566227
30
0
10
18.093445721690909
20
-1.9617968860107402
30
0
10
18.300946229160026
20
-1.7705213940188722
30
0
10
18.490603723754713
20
-1.5397269314001125
30
0
10
18.689921048873131
20
-1.292040110997084
30
0
10
18.923976460070801
20
-1.0492077587888557
30
0
10
19.209372180299408
20
-0.82761211715115279
30
0
10
19.546718354640809
20
-0.63280566072750899
30
0
10
19.923095578554438
20
-0.46102347652374837
30
0
10
20.317478752951146
20
-0.30278360119125985
30
0
10
20.70519823264323
20
-0.14580237043166672
30
0
10
21.062639750489268
20
0.021906701986667047
30
0
10
21.372187790109891
20
0.20880138670417878
30
0
10
21.626056875889688
20
0.41725860793053632
30
0
10
21.822995137850654
20
0.64545183865017719
30
0
10
21.965733734827026
20
0.8887444384602341
30
0
10
22.058372395350734
20
1.1411708987005653
30
0
10
22.103296719180399
20
1.397088473421213
30
0
10
22.100482638128867
20
1.6518319159177055
30
0
10
22.048742110615773
20
1.9015708976690249
30
0
10
21.946337702960527
20
2.1433880416260482
30
0
10
21.792005560058819
20
2.3753045826898611
30
0
10
21.585141713744473
20
2.5961742530876686
30
0
10
21.377447480286882
20
2.7635871684721378
30
0
10
21.197945585967627
20
2.8838513961400603
30
0
10
21.067738571254075
20
2.9616757845462551
30
0
10
21.000000312924389
20
3.000000044703484
30
0
0
SPLINE
5
118
100
AcDbEntity
8
0
100
AcDbSpline
70
4
71
5
72
36
73
30
74
0
42
0.000000001
43
0.0000000001
44
0.0000000001
40
0
40
0
40
0
40
0
40
0
40
0
40
0.040000000000000001
40
0.080000000000000002
40
0.12
40
0.16
40
0.20000000000000001
40
0.24000000000000002
40
0.28000000000000003
40
0.32000000000000001
40
0.35999999999999999
40
0.39999999999999997
40
0.43999999999999995
40
0.47999999999999993
40
0.51999999999999991
40
0.55999999999999994
40
0.59999999999999998
40
0.64000000000000001
40
0.68000000000000005
40
0.72000000000000008
40
0.76000000000000012
40
0.80000000000000016
40
0.84000000000000019
40
0.88000000000000023
40
0.92000000000000026
40
0.9600000000000003
40
1
40
1
40
1
40
1
40
1
40
1
41
1
41
1
41
1
41
1
41
1
41
1
41
1
41
1
41
1
41
1
41
1
41
1
41
1
41
1
41
1
41
1
41
1
41
1
41
1
41
1
41
1
41
1
41
1
41
1
41
1
41
1
41
1
41
1
41
1
41
1
10
2.0000001043081279
20
16.500000193715096
30
0
10
1.9584026487459587
20
16.457316283696766
30
0
10
1.8795553748455398
20
16.367219925790724
30
0
10
1.7743271776531298
20
16.217889005930246
30
0
10
1.6601781001417957
20
15.990340959034196
30
0
10
1.5618361970224215
20
15.659782094411298
30
0
10
1.5094359088194746
20
15.28782234161306
30
0
10
1.5055901015973157
20
14.884308793569886
30
0
10
1.5542924917751366
20
14.466779473195428
30
0
10
1.6606576027116633
20
14.060515512247251
30
0
10
1.8292972907269065
20
13.692969522253492
30
0
10
2.0629055827794844
20
13.38922200163598
30
0
10
2.3608079377032789
20
13.167286787949074
30
0
10
2.7172486296567211
20
13.03272152368676
30
0
10
3.1203664726581533
20
12.975428132364641
30
0
10
3.5543494224557697
20
12.976473516599718
30
0
10
4.0010523444368626
20
13.013245758803155
30
0
10
4.44181362680132
20
13.065346591348819
30
0
10
4.8590862772076999
20
13.11976382742062
30
0
10
5.2383676998295412
20
13.177437969792496
30
0
10
5.5681662840693038
20
13.25018012360238
30
0
10
5.8396274745724313
20
13.355721543616017
30
0
10
6.0463166574539944
20
13.513608934451671
30
0
10
6.1840102903079703
20
13.740466410264652
30
0
10
6.2504740222607094
20
14.046378727732506
30
0
10
6.2448595780702787
20
14.436860282074003
30
0
10
6.1827237311294727
20
14.818639932097938
30
0
10
6.1038711555974707
20
15.144132360776075
30
0
10
6.0370065376863895
20
15.378484652579431
30
0
10
6.0000001639127731
20
15.500000178813934
30
0
0
SPLINE
5
119
100
AcDbEntity
8
0
100
AcDbSpline
70
4
71
5
72
26
73
20
74
0
42
0.000000001
43
0.0000000001
44
0.0000000001
40
0
40
0
40
0
40
0
40
0
40
0
40
0.066666666666666666
40
0.13333333333333333
40
0.20000000000000001
40
0.26666666666666666
40
0.33333333333333331
40
0.39999999999999997
40
0.46666666666666662
40
0.53333333333333333
40
0.59999999999999998
40
0.66666666666666663
40
0.73333333333333328
40
0.79999999999999993
40
0.86666666666666659
40
0.93333333333333324
40
1
40
1
40
1
40
1
40
1
40
1
41
1
41
1
41
1
41
1
41
1
41
1
41
1
41
1
41
1
41
1
41
1
41
1
41
1
41
1
41
1
41
1
41
1
41
1
41
1
41
1
10
4.0000001341104499
20
17.500000208616257
30
0
10
4.1050433642898918
20
17.503333476696518
30
0
10
4.3090916873453562
20
17.504058951402289
30
0
10
4.5970499910398503
20
17.487324551183633
30
0
10
4.9445006977666424
20
17.429102643033055
30
0
10
5.3162796809839161
20
17.296084980108045
30
0
10
5.6231382209652425
20
17.10432927697838
30
0
10
5.8625876163544373
20
16.85926402373903
30
0
10
6.0326409908699477
20
16.572022889010199
30
0
10
6.1328968137216657
20
16.262637572205346
30
0
10
6.1647864110649797
20
15.959532746236942
30
0
10
6.1306804593964941
20
15.69419479387971
30
0
10
6.0335324842000695
20
15.49702501261857
30
0
10
5.8765391837437022
20
15.392912290570212
30
0
10
5.66307619676531
20
15.395812934070786
30
0
10
5.3962503871086955
20
15.511331871264426
30
0
10
5.1420652741167752
20
15.694438601334308
30
0
10
4.9292242946222933
20
15.8821143096747
30
0
10
4.7775340867871723
20
16.029446521864454
30
0
10
4.6992399161282323
20
16.108666353788777
30
0
0
SPLINE
5
120
100
AcDbEntity
8
0
100
AcDbSpline
70
4
71
5
72
26
73
20
74
0
42
0.000000001
43
0.0000000001
44
0.0000000001
40
0
40
0
40
0
40
0
40
0
40
0
40
0.066666666666666666
40
0.13333333333333333
40
0.20000000000000001
40
0.26666666666666666
40
0.33333333333333331
40
0.39999999999999997
40
0.46666666666666662
40
0.53333333333333333
40
0.59999999999999998
40
0.66666666666666663
40
0.73333333333333328
40
0.79999999999999993
40
0.86666666666666659
40
0.93333333333333324
40
1
40
1
40
1
40
1
40
1
40
1
41
1
41
1
41
1
41
1
41
1
41
1
41
1
41
1
41
1
41
1
41
1
41
1
41
1
41
1
41
1
41
1
41
1
41
1
41
1
41
1
10
5.1810316206015177
20
15.676850271768961
30
0
10
5.1958911607231588
20
15.61357194328281
30
0
10
5.222684846797593
20
15.493930752003074
30
0
10
5.2540993109884058
20
15.335215116272652
30
0
10
5.2783044981362579
20
15.165390354682353
30
0
10
5.2787447752952268
20
15.023940816199001
30
0
10
5.2496650742884663
20
14.953668619763645
30
0
10
5.1927956802832345
20
14.952606550926731
30
0
10
5.1121263663084893
20
15.01488731817134
30
0
10
5.0150238710741988
20
15.128575789722451
30
0
10
4.9110275779453287
20
15.277814304108597
30
0
10
4.8105608890573066
20
15.445091415407358
30
0
10
4.7236736694696742
20
15.613367048301081
30
0
10
4.6589207180991963
20
15.767945194787657
30
0
10
4.6217341132848357
20
15.899051481974102
30
0
10
4.6145131598047175
20
16.001787478000722
30
0
10
4.6332460264576305
20
16.059733569950364
30
0
10
4.6609648096038034
20
16.089491222649777
30
0
10
4.6854762129366003
20
16.103282455161679
30
0
10
4.6992399161282323
20
16.108666353788777
30
0
0
SPLINE
5
121
100
AcDbEntity
8
0
100
AcDbSpline
70
4
71
5
72
26
73
20
74
0
42
0.000000001
43
0.0000000001
44
0.0000000001
40
0
40
0
40
0
40
0
40
0
40
0
40
0.066666666666666666
40
0.13333333333333333
40
0.20000000000000001
40
0.26666666666666666
40
0.33333333333333331
40
0.39999999999999997
40
0.46666666666666662
40
0.53333333333333333
40
0.59999999999999998
40
0.66666666666666663
40
0.73333333333333328
40
0.79999999999999993
40
0.86666666666666659
40
0.93333333333333324
40
1
40
1
40
1
40
1
40
1
40
1
41
1
41
1
41
1
41
1
41
1
41
1
41
1
41
1
41
1
41
1
41
1
41
1
41
1
41
1
41
1
41
1
41
1
41
1
41
1
41
1
10
30.000000447034836
20
12.000000178813934
30
0
10
29.956590569827661
20
11.865757035417591
30
0
10
29.868291255959395
20
11.599723929197165
30
0
10
29.731403590336267
20
11.20803362107546
30
0
10
29.54356317879607
20
10.702042622029689
30
0
10
29.319434089227514
20
10.104317908831941
30
0
10
29.129418103272116
20
9.5489825726626876
30
0
10
28.993956638966083
20
9.0395697610200525
30
0
10
28.923883213521595
20
8.5715799525774674
30
0
10
28.912326871813345
20
8.1274440395924259
30
0
10
28.940649743582245
20
7.6815428684652911
30
0
10
28.985833863364139
20
7.2063991415331046
30
0
10
29.026405034227984
20
6.6777397477776645
30
0
10
29.050372729927851
20
6.0816039559959822
30
0
10
29.05541015275854
20
5.414097071986208
30
0
10
29.044698159620232
20
4.6770703203909445
30
0
10
29.028404228572768
20
4.0357818226909483
30
0
10
29.014507478317981
20
3.5280157395422584
30
0
10
29.004894279780459
20
3.1779338653728928
30
0
10
29.000000432133675
20
3.0000000447034836
30
0
0
SPLINE
5
122
100
AcDbEntity
8
0
100
AcDbSpline
70
4
71
5
72
56
73
50
74
0
42
0.000000001
43
0.0000000001
44
0.0000000001
40
0
40
0
40
0
40
0
40
0
40
0
40
0.022222222222222223
40
0.044444444444444446
40
0.066666666666666666
40
0.088888888888888892
40
0.11111111111111112
40
0.13333333333333333
40
0.15555555555555556
40
0.17777777777777778
40
0.20000000000000001
40
0.22222222222222224
40
0.24444444444444446
40
0.26666666666666666
40
0.28888888888888886
40
0.31111111111111106
40
0.33333333333333326
40
0.35555555555555546
40
0.37777777777777766
40
0.39999999999999986
40
0.42222222222222205
40
0.44444444444444425
40
0.46666666666666645
40
0.48888888888888865
40
0.51111111111111085
40
0.5333333333333331
40
0.55555555555555536
40
0.57777777777777761
40
0.59999999999999987
40
0.62222222222222212
40
0.64444444444444438
40
0.66666666666666663
40
0.68888888888888888
40
0.71111111111111114
40
0.73333333333333339
40
0.75555555555555565
40
0.7777777777777779
40
0.80000000000000016
40
0.82222222222222241
40
0.84444444444444466
40
0.86666666666666692
40
0.88888888888888917
40
0.91111111111111143
40
0.93333333333333368
40
0.95555555555555594
40
0.97777777777777819
40
1
40
1
40
1
40
1
40
1
40
1
41
1
41
1
41
1
41
1
41
1
41
1
41
1
41
1
41
1
41
1
41
1
41
1
41
1
41
1
41
1
41
1
41
1
41
1
41
1
41
1
41
1
41
1
41
1
41
1
41
1
41
1
41
1
41
1
41
1
41
1
41
1
41
1
41
1
41
1
41
1
41
1
41
1
41
1
41
1
41
1
41
1
41
1
41
1
41
1
41
1
41
1
41
1
41
1
41
1
41
1
10
31.000000461935997
20
2.0000000298023224
30
0
10
31.016690378503419
20
1.9112313499591544
30
0
10
31.058261162808087
20
1.7377797109238136
30
0
10
31.145190377254004
20
1.4898594580833384
30
0
10
31.310280008162419
20
1.183832870019454
30
0
10
31.597266839492875
20
0.84194697808150021
30
0
10
31.96040136872633
20
0.53977534968073815
30
0
10
32.390469685278738
20
0.27531172592971714
30
0
10
32.871706728621341
20
0.045044411331618295
30
0
10
33.380410994672559
20
-0.15637358626250342
30
0
10
33.882405832907395
20
-0.33673158683095167
30
0
10
34.337168393156567
20
-0.50526803661566122
30
0
10
34.703951818641052
20
-0.67119695482106567
30
0
10
34.947338301144029
20
-0.84237641265505792
30
0
10
35.042823131069319
20
-1.0239589344513853
30
0
10
34.982950879346035
20
-1.2169362401419987
30
0
10
34.781718806082104
20
-1.4170283536923538
30
0
10
34.467500227253389
20
-1.6159728957841826
30
0
10
34.077136217373159
20
-1.8025094181070704
30
0
10
33.64990761784852
20
-1.9635294095438141
30
0
10
33.220862956089846
20
-2.0850054432088339
30
0
10
32.8174680501835
20
-2.153599967905536
30
0
10
32.459119629541085
20
-2.1587069504156515
30
0
10
32.155649021010582
20
-2.0945193811566227
30
0
10
31.906555023367147
20
-1.9617968860107402
30
0
10
31.699054515898037
20
-1.7705213940188722
30
0
10
31.509397021303343
20
-1.5397269314001125
30
0
10
31.310079696184928
20
-1.292040110997084
30
0
10
31.076024284987263
20
-1.0492077587888557
30
0
10
30.790628564758649
20
-0.82761211715115279
30
0
10
30.453282390417247
20
-0.63280566072750899
30
0
10
30.076905166503618
20
-0.46102347652374837
30
0
10
29.682521992106913
20
-0.30278360119125985
30
0
10
29.294802512414829
20
-0.14580237043166672
30
0
10
28.937360994568792
20
0.021906701986667047
30
0
10
28.627812954948169
20
0.20880138670417878
30
0
10
28.373943869168372
20
0.41725860793053632
30
0
10
28.177005607207406
20
0.64545183865017719
30
0
10
28.034267010231034
20
0.8887444384602341
30
0
10
27.941628349707326
20
1.1411708987005653
30
0
10
27.896704025877661
20
1.397088473421213
30
0
10
27.899518106929193
20
1.6518319159177055
30
0
10
27.951258634442286
20
1.9015708976690249
30
0
10
28.053663042097533
20
2.1433880416260482
30
0
10
28.207995184999241
20
2.3753045826898611
30
0
10
28.414859031313586
20
2.5961742530876686
30
0
10
28.622553264771177
20
2.7635871684721378
30
0
10
28.802055159090433
20
2.8838513961400603
30
0
10
28.932262173803984
20
2.9616757845462551
30
0
10
29.000000432133671
20
3.000000044703484
30
0
0
SPLINE
5
123
100
AcDbEntity
8
0
100
AcDbSpline
70
4
71
5
72
21
73
15
74
0
42
0.000000001
43
0.0000000001
44
0.0000000001
40
0
40
0
40
0
40
0
40
0
40
0
40
0.10000000000000001
40
0.20000000000000001
40
0.30000000000000004
40
0.40000000000000002
40
0.5
40
0.59999999999999998
40
0.69999999999999996
40
0.79999999999999993
40
0.89999999999999991
40
1
40
1
40
1
40
1
40
1
40
1
41
1
41
1
41
1
41
1
41
1
41
1
41
1
41
1
41
1
41
1
41
1
41
1
41
1
41
1
41
1
10
33.832808272821865
20
13.44067993921999
30
0
10
33.889351441040027
20
13.262371697814061
30
0
10
33.992013091304429
20
12.901104105138394
30
0
10
34.11473022818133
20
12.345248815442954
30
0
10
34.214784398483779
20
11.575746433009947
30
0
10
34.227248281014674
20
10.563628785649957
30
0
10
34.118992172366696
20
9.497650337833635
30
0
10
33.883392201745643
20
8.3748557631103289
30
0
10
33.522322876712266
20
7.1960813975060622
30
0
10
33.045390374046605
20
5.965613162230758
30
0
10
32.463630665394454
20
4.688374900144149
30
0
10
31.922247174558038
20
3.6326867291394196
30
0
10
31.476364381009027
20
2.8231431555625131
30
0
10
31.161691557824533
20
2.2756763378980041
30
0
10
31.000000461935997
20
2.0000000298023224
30
0
0
SPLINE
5
124
100
AcDbEntity
8
0
100
AcDbSpline
70
4
71
5
72
26
73
20
74
0
42
0.000000001
43
0.0000000001
44
0.0000000001
40
0
40
0
40
0
40
0
40
0
40
0
40
0.066666666666666666
40
0.13333333333333333
40
0.20000000000000001
40
0.26666666666666666
40
0.33333333333333331
40
0.39999999999999997
40
0.46666666666666662
40
0.53333333333333333
40
0.59999999999999998
40
0.66666666666666663
40
0.73333333333333328
40
0.79999999999999993
40
0.86666666666666659
40
0.93333333333333324
40
1
40
1
40
1
40
1
40
1
40
1
41
1
41
1
41
1
41
1
41
1
41
1
41
1
41
1
41
1
41
1
41
1
41
1
41
1
41
1
41
1
41
1
41
1
41
1
41
1
41
1
10
26.267860057984311
20
21.763946838672553
30
0
10
26.330976533683955
20
21.597856994701566
30
0
10
26.451956370464703
20
21.263284625530162
30
0
10
26.617667958393216
20
20.754247815205957
30
0
10
26.811193454508913
20
20.060932961053535
30
0
10
27.030720284618678
20
19.169587322191077
30
0
10
27.257139602831355
20
18.254978678799155
30
0
10
27.519007567266407
20
17.321915821652549
30
0
10
27.836813456330738
20
16.380516663282105
30
0
10
28.216881613792772
20
15.447728194514806
30
0
10
28.64110015237604
20
14.550441274603859
30
0
10
29.071481549699328
20
13.722858019455789
30
0
10
29.464861559225884
20
12.999830174403179
30
0
10
29.784194234311339
20
12.411314003029554
30
0
10
30.011665712014427
20
11.975806237559546
30
0
10
30.161145772513262
20
11.693787835125541
30
0
10
30.267145000910457
20
11.570215428140012
30
0
10
30.370155307585076
20
11.520460549058773
30
0
10
30.454162520226632
20
11.504030587648433
30
0
10
30.500000454485413
20
11.50000017136335
30
0
0
SPLINE
5
125
100
AcDbEntity
8
0
100
AcDbSpline
70
4
71
5
72
14
73
8
74
0
42
0.000000001
43
0.0000000001
44
0.0000000001
40
0
40
0
40
0
40
0
40
0
40
0
40
0.040000000000000001
40
0.080000000000000002
40
0.10962504305903661
40
0.10962504305903661
40
0.10962504305903661
40
0.10962504305903661
40
0.10962504305903661
40
0.10962504305903661
41
1
41
1
41
1
41
1
41
1
41
1
41
1
41
1
10
25.000000000000004
20
50.000000000000007
30
0
10
24.403827024241785
20
50.037565256220127
30
0
10
23.262818423113913
20
50.056178212479452
30
0
10
21.839977098978451
20
49.926787185685114
30
0
10
20.602915247172866
20
49.597981948132535
30
0
10
19.528814889521939
20
49.110493493211642
30
0
10
18.90485702003177
20
48.749907874494824
30
0
10
18.649306862498275
20
48.588277139524706
30
0
0
SPLINE
5
126
100
AcDbEntity
8
0
100
AcDbSpline
70
4
71
5
72
14
73
8
74
0
42
0.000000001
43
0.0000000001
44
0.0000000001
40
0
40
0
40
0
40
0
40
0
40
0
40
0.040000000000000001
40
0.080000000000000002
40
0.10989410387618975
40
0.10989410387618975
40
0.10989410387618975
40
0.10989410387618975
40
0.10989410387618975
40
0.10989410387618975
41
1
41
1
41
1
41
1
41
1
41
1
41
1
41
1
10
24.999999999999996
20
50.000000000000007
30
0
10
25.596172977774202
20
50.03756525634715
30
0
10
26.73718158204688
20
50.056178212554869
30
0
10
28.163515092320033
20
49.926469610922993
30
0
10
29.403156063947094
20
49.596366722244703
30
0
10
30.479090901185494
20
49.10690118412095
30
0
10
31.104782723976481
20
48.744329477214407
30
0
10
31.362289745031035
20
48.5809305517407
30
0
0
SPLINE
5
127
100
AcDbEntity
8
0
100
AcDbSpline
70
4
71
5
72
21
73
15
74
0
42
0.000000001
43
0.0000000001
44
0.0000000001
40
0
40
0
40
0
40
0
40
0
40
0
40
0.10000000000000001
40
0.20000000000000001
40
0.30000000000000004
40
0.40000000000000002
40
0.5
40
0.59999999999999998
40
0.69999999999999996
40
0.79999999999999993
40
0.89999999999999991
40
1
40
1
40
1
40
1
40
1
40
1
41
1
41
1
41
1
41
1
41
1
41
1
41
1
41
1
41
1
41
1
41
1
41
1
41
1
41
1
41
1
10
32.423618545305743
20
21.899664959808078
30
0
10
32.521460594783832
20
21.675536212670778
30
0
10
32.709232002415597
20
21.218295231760031
30
0
10
32.967151733195628
20
20.505489258790249
30
0
10
33.264047922217969
20
19.511999892980153
30
0
10
33.55866266192357
20
18.259539229170159
30
0
10
33.778533800811836
20
17.07387893404519
30
0
10
33.92548685572811
20
16.03264599239106
30
0
10
34.00281733981798
20
15.194468675458921
30
0
10
34.016883035324661
20
14.582647273995972
30
0
10
33.981700857937412
20
14.150715569383159
30
0
10
33.928973542280531
20
13.873471630048389
30
0
10
33.882660428240705
20
13.663315996592651
30
0
10
33.849762970836672
20
13.516078809413887
30
0
10
33.832808272821872
20
13.44067993921999
30
0
0
SPLINE
5
128
100
AcDbEntity
8
0
100
AcDbSpline
70
4
71
5
72
19
73
13
74
0
42
0.000000001
43
0.0000000001
44
0.0000000001
40
0
40
0
40
0
40
0
40
0
40
0
40
0.066666666666666666
40
0.13333333333333333
40
0.20000000000000001
40
0.26666666666666666
40
0.33333333333333331
40
0.39999999999999997
40
0.46666666666666662
40
0.51996697603626751
40
0.51996697603626751
40
0.51996697603626751
40
0.51996697603626751
40
0.51996697603626751
40
0.51996697603626751
41
1
41
1
41
1
41
1
41
1
41
1
41
1
41
1
41
1
41
1
41
1
41
1
41
1
10
17.576382354446608
20
21.899664950624388
30
0
10
17.474608667658295
20
21.666529922964148
30
0
10
17.27882837134549
20
21.20071790913191
30
0
10
17.008459047116741
20
20.503373882056593
30
0
10
16.694908543333749
20
19.576350802019171
30
0
10
16.38363001031091
20
18.424280315738287
30
0
10
16.156719173423806
20
17.285050181481946
30
0
10
16.018720954398457
20
16.170841613661981
30
0
10
15.976126222910985
20
15.144973200601097
30
0
10
16.012919725171944
20
14.38791423357533
30
0
10
16.079103407283377
20
13.876119224920441
30
0
10
16.137874297650487
20
13.571060158199973
30
0
10
16.167192472236195
20
13.44067993921999
30
0
0
SPLINE
5
129
100
AcDbEntity
8
0
100
AcDbSpline
70
4
71
5
72
21
73
15
74
0
42
0.000000001
43
0.0000000001
44
0.0000000001
40
0
40
0
40
0
40
0
40
0
40
0
40
0.10000000000000001
40
0.20000000000000001
40
0.30000000000000004
40
0.40000000000000002
40
0.5
40
0.59999999999999998
40
0.69999999999999996
40
0.79999999999999993
40
0.89999999999999991
40
1
40
1
40
1
40
1
40
1
40
1
41
1
41
1
41
1
41
1
41
1
41
1
41
1
41
1
41
1
41
1
41
1
41
1
41
1
41
1
41
1
10
33.832808272821872
20
13.44067993921999
30
0
10
33.827573612349944
20
13.353793254300124
30
0
10
33.812847952504853
20
13.187006775101381
30
0
10
33.77799013365599
20
12.95778824100231
30
0
10
33.705556934997489
20
12.694771151123925
30
0
10
33.568943016130497
20
12.441628861393774
30
0
10
33.382620370050077
20
12.270084735928396
30
0
10
33.143286881011569
20
12.185559283309805
30
0
10
32.850527868580038
20
12.18873321221303
30
0
10
32.507778503810627
20
12.273967600299592
30
0
10
32.119414560322276
20
12.434079501741611
30
0
10
31.77550787045088
20
12.616693184714993
30
0
10
31.500127212149764
20
12.782299126317048
30
0
10
31.308911903754396
20
12.905224980112564
30
0
10
31.211397075098311
20
12.969818583319688
30
0
0
SPLINE
5
130
100
AcDbEntity
8
0
100
AcDbSpline
70
4
71
5
72
21
73
15
74
0
42
0.000000001
43
0.0000000001
44
0.0000000001
40
0
40
0
40
0
40
0
40
0
40
0
40
0.10000000000000001
40
0.20000000000000001
40
0.30000000000000004
40
0.40000000000000002
40
0.5
40
0.59999999999999998
40
0.69999999999999996
40
0.79999999999999993
40
0.89999999999999991
40
1
40
1
40
1
40
1
40
1
40
1
41
1
41
1
41
1
41
1
41
1
41
1
41
1
41
1
41
1
41
1
41
1
41
1
41
1
41
1
41
1
10
16.167192472236188
20
13.44067993921999
30
0
10
16.172427132708119
20
13.353793254300124
30
0
10
16.187152792553206
20
13.187006775101381
30
0
10
16.222010611402069
20
12.95778824100231
30
0
10
16.294443810060567
20
12.694771151123925
30
0
10
16.431057728927563
20
12.441628861393774
30
0
10
16.617380375007986
20
12.270084735928396
30
0
10
16.85671386404649
20
12.185559283309805
30
0
10
17.149472876478022
20
12.18873321221303
30
0
10
17.492222241247433
20
12.273967600299592
30
0
10
17.88058618473578
20
12.434079501741611
30
0
10
18.224492874607179
20
12.616693184714993
30
0
10
18.499873532908296
20
12.782299126317048
30
0
10
18.691088841303664
20
12.905224980112564
30
0
10
18.788603669959748
20
12.969818583319688
30
0
0
SPLINE
5
131
100
AcDbEntity
8
0
100
AcDbSpline
70
4
71
5
72
26
73
20
74
0
42
0.000000001
43
0.0000000001
44
0.0000000001
40
0
40
0
40
0
40
0
40
0
40
0
40
0.066666666666666666
40
0.13333333333333333
40
0.20000000000000001
40
0.26666666666666666
40
0.33333333333333331
40
0.39999999999999997
40
0.46666666666666662
40
0.53333333333333333
40
0.59999999999999998
40
0.66666666666666663
40
0.73333333333333328
40
0.79999999999999993
40
0.86666666666666659
40
0.93333333333333324
40
1
40
1
40
1
40
1
40
1
40
1
41
1
41
1
41
1
41
1
41
1
41
1
41
1
41
1
41
1
41
1
41
1
41
1
41
1
41
1
41
1
41
1
41
1
41
1
41
1
41
1
10
13.52224024181297
20
42.922703165357248
30
0
10
13.417492271234117
20
42.765556815745676
30
0
10
13.210766144187559
20
42.459785311027247
30
0
10
12.90898700328858
20
42.026684341943522
30
0
10
12.524443430011949
20
41.483756180137419
30
0
10
12.080001099308381
20
40.773022220519863
30
0
10
11.679144726854247
20
39.927214166305497
30
0
10
11.327557255266235
20
38.862078309481397
30
0
10
11.02604041424769
20
37.550679138659341
30
0
10
10.768772437503884
20
36.046946408078483
30
0
10
10.547328083067171
20
34.451624706423168
30
0
10
10.353656954015902
20
32.888739672301391
30
0
10
10.183159145382493
20
31.480216791922075
30
0
10
10.038068671741158
20
30.319242445190632
30
0
10
9.92991043682912
20
29.448323330428007
30
0
10
9.8847462179824905
20
28.820155375434695
30
0
10
9.9268987222729734
20
28.421424571274141
30
0
10
10.016193443375432
20
28.130534946417114
30
0
10
10.103291383006017
20
27.932562542673168
30
0
10
10.153731722194957
20
27.832569237394246
30
0
0
SPLINE
5
132
100
AcDbEntity
8
0
100
AcDbSpline
70
4
71
5
72
14
73
8
74
0
42
0.000000001
43
0.0000000001
44
0.0000000001
40
0.77287154586143558
40
0.77287154586143558
40
0.77287154586143558
40
0.77287154586143558
40
0.77287154586143558
40
0.77287154586143558
40
0.80000000000000016
40
0.84000000000000019
40
0.87424760585697736
40
0.87424760585697736
40
0.87424760585697736
40
0.87424760585697736
40
0.87424760585697736
40
0.87424760585697736
41
1
41
1
41
1
41
1
41
1
41
1
41
1
41
1
10
13.000000193749983
20
23.000000342705889
30
0
10
13.189305301958463
20
22.887069318655566
30
0
10
13.67801393700702
20
22.628346702139485
30
0
10
14.491078875507613
20
22.313892611990156
30
0
10
15.412088449908586
20
22.106414380912835
30
0
10
16.424682099379908
20
21.981224021451435
30
0
10
17.207400031805591
20
21.921570196747396
30
0
10
17.57638219975232
20
21.899664959808078
30
0
0
SPLINE
5
133
100
AcDbEntity
8
0
100
AcDbSpline
70
4
71
5
72
16
73
10
74
0
42
0.000000001
43
0.0000000001
44
0.0000000001
40
0
40
0
40
0
40
0
40
0
40
0
40
0.20000000000000001
40
0.40000000000000002
40
0.60000000000000009
40
0.80000000000000004
40
1
40
1
40
1
40
1
40
1
40
1
41
1
41
1
41
1
41
1
41
1
41
1
41
1
41
1
41
1
41
1
10
23.732140686293981
20
21.763946838672553
30
0
10
23.784895351983288
20
21.76218919476635
30
0
10
23.890478209636335
20
21.758560862517463
30
0
10
24.049072893443331
20
21.75277950321421
30
0
10
24.260927115905503
20
21.744458490403311
30
0
10
24.526286437332764
20
21.733177379746348
30
0
10
24.738992203717359
20
21.723426129226237
30
0
10
24.898793829445914
20
21.715617612188129
30
0
10
25.005462073783391
20
21.710166284174068
30
0
10
25.058829679602006
20
21.707379157157373
30
0
0
SPLINE
5
134
100
AcDbEntity
8
0
100
AcDbSpline
70
4
71
5
72
16
73
10
74
0
42
0.000000001
43
0.0000000001
44
0.0000000001
40
0
40
0
40
0
40
0
40
0
40
0
40
0.20000000000000001
40
0.40000000000000002
40
0.60000000000000009
40
0.80000000000000004
40
1
40
1
40
1
40
1
40
1
40
1
41
1
41
1
41
1
41
1
41
1
41
1
41
1
41
1
41
1
41
1
10
26.267860057984311
20
21.763946838672553
30
0
10
26.215105362712123
20
21.762189194415335
30
0
10
26.109522445834479
20
21.758560861813457
30
0
10
25.950927673014569
20
21.752779503026577
30
0
10
25.739073331567091
20
21.744458492504673
30
0
10
25.473713861096957
20
21.733177385047053
30
0
10
25.261007975358815
20
21.723426135138276
30
0
10
25.101206260095402
20
21.715617616238596
30
0
10
24.994537956064331
20
21.710166285732868
30
0
10
24.941170320397994
20
21.707379157157373
30
0
0
SPLINE
5
135
100
AcDbEntity
8
0
100
AcDbSpline
70
4
71
5
72
26
73
20
74
0
42
0.000000001
43
0.0000000001
44
0.0000000001
40
0
40
0
40
0
40
0
40
0
40
0
40
0.066666666666666666
40
0.13333333333333333
40
0.20000000000000001
40
0.26666666666666666
40
0.33333333333333331
40
0.39999999999999997
40
0.46666666666666662
40
0.53333333333333333
40
0.59999999999999998
40
0.66666666666666663
40
0.73333333333333328
40
0.79999999999999993
40
0.86666666666666659
40
0.93333333333333324
40
1
40
1
40
1
40
1
40
1
40
1
41
1
41
1
41
1
41
1
41
1
41
1
41
1
41
1
41
1
41
1
41
1
41
1
41
1
41
1
41
1
41
1
41
1
41
1
41
1
41
1
10
36.972354039674357
20
42.159805312975394
30
0
10
37.05592134290449
20
42.026882836002066
30
0
10
37.220806839503993
20
41.769250202765733
30
0
10
37.46138712375479
20
41.407424624729181
30
0
10
37.768079800681804
20
40.955613881161888
30
0
10
38.124897059776913
20
40.342133459269903
30
0
10
38.451953985348254
20
39.568521465155335
30
0
10
38.747163980049635
20
38.547708307355194
30
0
10
39.011602825487671
20
37.266497291329763
30
0
10
39.249089310049087
20
35.789177159812795
30
0
10
39.463712126373423
20
34.222643725164147
30
0
10
39.6579973973043
20
32.694034047323001
30
0
10
39.830973971687598
20
31.325308274292848
30
0
10
39.976020051339738
20
30.20723552290514
30
0
10
40.079307051853164
20
29.377125805720688
30
0
10
40.116386417788959
20
28.780875565285648
30
0
10
40.069583225309408
20
28.400896775115484
30
0
10
39.980329751252299
20
28.121176465260369
30
0
10
39.895223108971948
20
27.929616212205932
30
0
10
39.846269022863098
20
27.832569237394246
30
0
0
SPLINE
5
136
100
AcDbEntity
8
0
100
AcDbSpline
70
4
71
5
72
21
73
15
74
0
42
0.000000001
43
0.0000000001
44
0.0000000001
40
0
40
0
40
0
40
0
40
0
40
0
40
0.10000000000000001
40
0.20000000000000001
40
0.30000000000000004
40
0.40000000000000002
40
0.5
40
0.59999999999999998
40
0.69999999999999996
40
0.79999999999999993
40
0.89999999999999991
40
1
40
1
40
1
40
1
40
1
40
1
41
1
41
1
41
1
41
1
41
1
41
1
41
1
41
1
41
1
41
1
41
1
41
1
41
1
41
1
41
1
10
37.000007075334324
20
22.999990360122951
30
0
10
37.000007047668987
20
22.999990343619032
30
0
10
37.006092951380502
20
23.002184615644886
30
0
10
37.033478662054918
20
23.012058676749042
30
0
10
37.082637087066118
20
23.029602213444615
30
0
10
37.052510684695676
20
23.01835303005295
30
0
10
36.827499774363133
20
22.938898576409692
30
0
10
36.380432995321364
20
22.787417790130387
30
0
10
35.736186589450043
20
22.581727160909224
30
0
10
34.949954691072151
20
22.352517886022181
30
0
10
34.090472218656267
20
22.136288138509258
30
0
10
33.398257813573629
20
22.002190414367917
30
0
10
32.900095511103537
20
21.936072972750118
30
0
10
32.580378635370572
20
21.908971280837271
30
0
10
32.423618545305743
20
21.899664959808078
30
0
0
SPLINE
5
137
100
AcDbEntity
8
0
100
AcDbSpline
70
4
71
5
72
26
73
20
74
0
42
0.000000001
43
0.0000000001
44
0.0000000001
40
0
40
0
40
0
40
0
40
0
40
0
40
0.066666666666666666
40
0.13333333333333333
40
0.20000000000000001
40
0.26666666666666666
40
0.33333333333333331
40
0.39999999999999997
40
0.46666666666666662
40
0.53333333333333333
40
0.59999999999999998
40
0.66666666666666663
40
0.73333333333333328
40
0.79999999999999993
40
0.86666666666666659
40
0.93333333333333324
40
1
40
1
40
1
40
1
40
1
40
1
41
1
41
1
41
1
41
1
41
1
41
1
41
1
41
1
41
1
41
1
41
1
41
1
41
1
41
1
41
1
41
1
41
1
41
1
41
1
41
1
10
10.153731722194957
20
27.832569237394246
30
0
10
10.023411352304894
20
27.789934375596722
30
0
10
9.7618259307138064
20
27.704901847195114
30
0
10
9.3666137926238253
20
27.578064635614293
30
0
10
8.8339546789476167
20
27.410381898277443
30
0
10
8.1589230118638909
20
27.203253317412358
30
0
10
7.4760499563987075
20
26.998748060506909
30
0
10
6.788462392717908
20
26.797075808205896
30
0
10
6.1017832351265717
20
26.598500801360089
30
0
10
5.4249873260910046
20
26.403328856847374
30
0
10
4.7711719054496697
20
26.211888898554459
30
0
10
4.1557095437706923
20
26.024519908699123
30
0
10
3.5946013343698446
20
25.841550194100119
30
0
10
3.1025437263706328
20
25.663261759915542
30
0
10
2.6912084305521491
20
25.489854122939001
30
0
10
2.3663943681723172
20
25.321366190061898
30
0
10
2.1765956653550358
20
25.190450647961455
30
0
10
2.0732450138061265
20
25.09440069624317
30
0
10
2.0215476719207284
20
25.031310034586411
30
0
10
2.0000000298023224
20
25.00000037252903
30
0
0
SPLINE
5
138
100
AcDbEntity
8
0
100
AcDbSpline
70
4
71
5
72
21
73
15
74
0
42
0.000000001
43
0.0000000001
44
0.0000000001
40
0
40
0
40
0
40
0
40
0
40
0
40
0.10000000000000001
40
0.20000000000000001
40
0.30000000000000004
40
0.40000000000000002
40
0.5
40
0.59999999999999998
40
0.69999999999999996
40
0.79999999999999993
40
0.89999999999999991
40
1
40
1
40
1
40
1
40
1
40
1
41
1
41
1
41
1
41
1
41
1
41
1
41
1
41
1
41
1
41
1
41
1
41
1
41
1
41
1
41
1
10
13.000000193715096
20
23.000000342726707
30
0
10
12.84165882024219
20
23.006968422463391
30
0
10
12.523715697072399
20
23.019569349272928
30
0
10
12.043019906193457
20
23.034465065382612
30
0
10
11.394405366668792
20
23.046182665258399
30
0
10
10.56997171089032
20
23.046352561559029
30
0
10
9.7307120087212144
20
23.030815860856571
30
0
10
8.8755102790222988
20
22.998390301502575
30
0
10
8.0039324452162415
20
22.948616026181014
30
0
10
7.1168173595591533
20
22.882381708375547
30
0
10
6.2154192537251056
20
22.80101607125998
30
0
10
5.4838520942643072
20
22.724854317615875
30
0
10
4.9296790240494204
20
22.661908781556427
30
0
10
4.5578269543317127
20
22.617398994137559
30
0
10
4.3713000499740868
20
22.594507544003687
30
0
0
SPLINE
5
139
100
AcDbEntity
8
0
100
AcDbSpline
70
4
71
5
72
26
73
20
74
0
42
0.000000001
43
0.0000000001
44
0.0000000001
40
0
40
0
40
0
40
0
40
0
40
0
40
0.066666666666666666
40
0.13333333333333333
40
0.20000000000000001
40
0.26666666666666666
40
0.33333333333333331
40
0.39999999999999997
40
0.46666666666666662
40
0.53333333333333333
40
0.59999999999999998
40
0.66666666666666663
40
0.73333333333333328
40
0.79999999999999993
40
0.86666666666666659
40
0.93333333333333324
40
1
40
1
40
1
40
1
40
1
40
1
41
1
41
1
41
1
41
1
41
1
41
1
41
1
41
1
41
1
41
1
41
1
41
1
41
1
41
1
41
1
41
1
41
1
41
1
41
1
41
1
10
4.8373708270199014
20
22.650289795964223
30
0
10
4.8472919266142958
20
22.596107484044875
30
0
10
4.8649413404558413
20
22.487432266427078
30
0
10
4.8848369053116967
20
22.323487763113242
30
0
10
4.8981132906259983
20
22.103017302395713
30
0
10
4.89231758337821
20
21.824006653692681
30
0
10
4.8642631829999363
20
21.540816684395885
30
0
10
4.8149836727448561
20
21.252064826394403
30
0
10
4.747212842328187
20
20.955469754888686
30
0
10
4.6653118301722074
20
20.647965727288948
30
0
10
4.5743561098201093
20
20.326183769094577
30
0
10
4.4794950852261159
20
19.98688311929001
30
0
10
4.385307084830977
20
19.627386035706497
30
0
10
4.2950079327121191
20
19.246241508457427
30
0
10
4.2104671787338148
20
18.84310125510812
30
0
10
4.1326558872028194
20
18.418200257318162
30
0
10
4.0760623537660985
20
18.061281219553969
30
0
10
4.0368018766148737
20
17.784248006580896
30
0
10
4.0120332095412357
20
17.595436587183379
30
0
10
4.0000001341104499
20
17.500000208616257
30
0
0
SPLINE
5
140
100
AcDbEntity
8
0
100
AcDbSpline
70
4
71
5
72
26
73
20
74
0
42
0.000000001
43
0.0000000001
44
0.0000000001
40
0
40
0
40
0
40
0
40
0
40
0
40
0.066666666666666666
40
0.13333333333333333
40
0.20000000000000001
40
0.26666666666666666
40
0.33333333333333331
40
0.39999999999999997
40
0.46666666666666662
40
0.53333333333333333
40
0.59999999999999998
40
0.66666666666666663
40
0.73333333333333328
40
0.79999999999999993
40
0.86666666666666659
40
0.93333333333333324
40
1
40
1
40
1
40
1
40
1
40
1
41
1
41
1
41
1
41
1
41
1
41
1
41
1
41
1
41
1
41
1
41
1
41
1
41
1
41
1
41
1
41
1
41
1
41
1
41
1
41
1
10
2.0000000298023224
20
25.00000037252903
30
0
10
1.9631571156992369
20
24.938262871657749
30
0
10
1.8924441595163035
20
24.811905339541752
30
0
10
1.7952933511253841
20
24.613721493457028
30
0
10
1.6837257805445747
20
24.33205519016553
30
0
10
1.5747583626699506
20
23.950011179387516
30
0
10
1.4965452984954062
20
23.536549242363975
30
0
10
1.4485037199063773
20
23.089820184696833
30
0
10
1.4284749507991559
20
22.607801252362002
30
0
10
1.4332810605353385
20
22.088422733519138
30
0
10
1.4592828056456522
20
21.529780842831595
30
0
10
1.5028258075065037
20
20.93042573050743
30
0
10
1.5606672020464252
20
20.289813232810804
30
0
10
1.6303063984278465
20
19.608711745657065
30
0
10
1.7098954424493586
20
18.888533608325421
30
0
10
1.7981736333092018
20
18.130901738478251
30
0
10
1.8751346264042845
20
17.495997000808575
30
0
10
1.9362549087438929
20
17.004076270813734
30
0
10
1.9785017121359247
20
16.669183209063839
30
0
10
2.0000001043081279
20
16.500000193715096
30
0
0
SPLINE
5
141
100
AcDbEntity
8
0
100
AcDbSpline
70
4
71
5
72
26
73
20
74
0
42
0.000000001
43
0.0000000001
44
0.0000000001
40
0
40
0
40
0
40
0
40
0
40
0
40
0.066666666666666666
40
0.13333333333333333
40
0.20000000000000001
40
0.26666666666666666
40
0.33333333333333331
40
0.39999999999999997
40
0.46666666666666662
40
0.53333333333333333
40
0.59999999999999998
40
0.66666666666666663
40
0.73333333333333328
40
0.79999999999999993
40
0.86666666666666659
40
0.93333333333333324
40
1
40
1
40
1
40
1
40
1
40
1
41
1
41
1
41
1
41
1
41
1
41
1
41
1
41
1
41
1
41
1
41
1
41
1
41
1
41
1
41
1
41
1
41
1
41
1
41
1
41
1
10
48.000000715255737
20
25.00000037252903
30
0
10
48.03684362935882
20
24.938262871657749
30
0
10
48.107556585541758
20
24.811905339541752
30
0
10
48.204707393932679
20
24.613721493457028
30
0
10
48.316274964513482
20
24.33205519016553
30
0
10
48.425242382388106
20
23.950011179387516
30
0
10
48.503455446562654
20
23.536549242363975
30
0
10
48.55149702515169
20
23.089820184696833
30
0
10
48.571525794258903
20
22.607801252362002
30
0
10
48.566719684522717
20
22.088422733519138
30
0
10
48.54071793941241
20
21.529780842831595
30
0
10
48.497174937551563
20
20.93042573050743
30
0
10
48.439333543011635
20
20.289813232810804
30
0
10
48.369694346630212
20
19.608711745657065
30
0
10
48.290105302608701
20
18.888533608325421
30
0
10
48.201827111748862
20
18.130901738478251
30
0
10
48.124866118653777
20
17.495997000808575
30
0
10
48.063745836314169
20
17.004076270813734
30
0
10
48.021499032922137
20
16.669183209063839
30
0
10
48.000000640749931
20
16.500000193715096
30
0
0
SPLINE
5
142
100
AcDbEntity
8
0
100
AcDbSpline
70
4
71
5
72
21
73
15
74
0
42
0.000000001
43
0.0000000001
44
0.0000000001
40
0
40
0
40
0
40
0
40
0
40
0
40
0.10000000000000001
40
0.20000000000000001
40
0.30000000000000004
40
0.40000000000000002
40
0.5
40
0.59999999999999998
40
0.69999999999999996
40
0.79999999999999993
40
0.89999999999999991
40
1
40
1
40
1
40
1
40
1
40
1
41
1
41
1
41
1
41
1
41
1
41
1
41
1
41
1
41
1
41
1
41
1
41
1
41
1
41
1
41
1
10
37.000000551342964
20
23.000000342726707
30
0
10
37.158341924815872
20
23.006968422463391
30
0
10
37.476285047985662
20
23.019569349272928
30
0
10
37.956980838864602
20
23.034465065382612
30
0
10
38.605595378389268
20
23.046182665258399
30
0
10
39.430029034167745
20
23.046352561559029
30
0
10
40.269288736336847
20
23.030815860856571
30
0
10
41.124490466035759
20
22.998390301502575
30
0
10
41.996068299841824
20
22.948616026181014
30
0
10
42.88318338549891
20
22.882381708375547
30
0
10
43.784581491332951
20
22.80101607125998
30
0
10
44.516148650793752
20
22.724854317615875
30
0
10
45.070321721008639
20
22.661908781556427
30
0
10
45.442173790726343
20
22.617398994137559
30
0
10
45.628700695083978
20
22.594507544003687
30
0
0
SPLINE
5
143
100
AcDbEntity
8
0
100
AcDbSpline
70
4
71
5
72
26
73
20
74
0
42
0.000000001
43
0.0000000001
44
0.0000000001
40
0
40
0
40
0
40
0
40
0
40
0
40
0.066666666666666666
40
0.13333333333333333
40
0.20000000000000001
40
0.26666666666666666
40
0.33333333333333331
40
0.39999999999999997
40
0.46666666666666662
40
0.53333333333333333
40
0.59999999999999998
40
0.66666666666666663
40
0.73333333333333328
40
0.79999999999999993
40
0.86666666666666659
40
0.93333333333333324
40
1
40
1
40
1
40
1
40
1
40
1
41
1
41
1
41
1
41
1
41
1
41
1
41
1
41
1
41
1
41
1
41
1
41
1
41
1
41
1
41
1
41
1
41
1
41
1
41
1
41
1
10
39.846269022863098
20
27.832569237394246
30
0
10
39.976589392753169
20
27.789934375596722
30
0
10
40.238174814344248
20
27.704901847195114
30
0
10
40.633386952434236
20
27.578064635614293
30
0
10
41.166046066110447
20
27.410381898277443
30
0
10
41.841077733194169
20
27.203253317412358
30
0
10
42.523950788659349
20
26.998748060506909
30
0
10
43.211538352340149
20
26.797075808205896
30
0
10
43.898217509931492
20
26.598500801360089
30
0
10
44.575013418967053
20
26.403328856847374
30
0
10
45.22882883960839
20
26.211888898554459
30
0
10
45.844291201287362
20
26.024519908699123
30
0
10
46.405399410688219
20
25.841550194100119
30
0
10
46.897457018687433
20
25.663261759915542
30
0
10
47.308792314505908
20
25.489854122939001
30
0
10
47.633606376885744
20
25.321366190061898
30
0
10
47.823405079703029
20
25.190450647961455
30
0
10
47.926755731251937
20
25.09440069624317
30
0
10
47.978453073137331
20
25.031310034586411
30
0
10
48.000000715255737
20
25.00000037252903
30
0
0
SPLINE
5
144
100
AcDbEntity
8
0
100
AcDbSpline
70
4
71
5
72
26
73
20
74
0
42
0.000000001
43
0.0000000001
44
0.0000000001
40
0
40
0
40
0
40
0
40
0
40
0
40
0.066666666666666666
40
0.13333333333333333
40
0.20000000000000001
40
0.26666666666666666
40
0.33333333333333331
40
0.39999999999999997
40
0.46666666666666662
40
0.53333333333333333
40
0.59999999999999998
40
0.66666666666666663
40
0.73333333333333328
40
0.79999999999999993
40
0.86666666666666659
40
0.93333333333333324
40
1
40
1
40
1
40
1
40
1
40
1
41
1
41
1
41
1
41
1
41
1
41
1
41
1
41
1
41
1
41
1
41
1
41
1
41
1
41
1
41
1
41
1
41
1
41
1
41
1
41
1
10
45.162629918038164
20
22.650289795964223
30
0
10
45.152708818443763
20
22.596107484044875
30
0
10
45.135059404602217
20
22.487432266427078
30
0
10
45.115163839746366
20
22.323487763113242
30
0
10
45.10188745443206
20
22.103017302395713
30
0
10
45.107683161679844
20
21.824006653692681
30
0
10
45.135737562058125
20
21.540816684395885
30
0
10
45.185017072313201
20
21.252064826394403
30
0
10
45.252787902729878
20
20.955469754888686
30
0
10
45.334688914885852
20
20.647965727288948
30
0
10
45.425644635237951
20
20.326183769094577
30
0
10
45.52050565983194
20
19.98688311929001
30
0
10
45.614693660227076
20
19.627386035706497
30
0
10
45.704992812345935
20
19.246241508457427
30
0
10
45.789533566324245
20
18.84310125510812
30
0
10
45.867344857855237
20
18.418200257318162
30
0
10
45.923938391291955
20
18.061281219553969
30
0
10
45.963198868443186
20
17.784248006580896
30
0
10
45.987967535516823
20
17.595436587183379
30
0
10
46.000000610947609
20
17.500000208616257
30
0
0
LINE
5
145
100
AcDbEntity
8
0
100
AcDbLine
10
46.000000610947609
20
17.500000208616257
30
0
11
46.000000610947609
21
17.500000208616257
31
0
0
LINE
5
146
100
AcDbEntity
8
0
100
AcDbLine
10
37.36335037330069
20
23.216758716922289
30
0
11
36.636650729385238
21
22.783241968531126
31
0
0
SPLINE
5
147
100
AcDbEntity
8
0
100
AcDbSpline
70
4
71
5
72
26
73
20
74
0
42
0.000000001
43
0.0000000001
44
0.0000000001
40
0
40
0
40
0
40
0
40
0
40
0
40
0.066666666666666666
40
0.13333333333333333
40
0.20000000000000001
40
0.26666666666666666
40
0.33333333333333331
40
0.39999999999999997
40
0.46666666666666662
40
0.53333333333333333
40
0.59999999999999998
40
0.66666666666666663
40
0.73333333333333328
40
0.79999999999999993
40
0.86666666666666659
40
0.93333333333333324
40
1
40
1
40
1
40
1
40
1
40
1
41
1
41
1
41
1
41
1
41
1
41
1
41
1
41
1
41
1
41
1
41
1
41
1
41
1
41
1
41
1
41
1
41
1
41
1
41
1
41
1
10
44.818969124456544
20
15.676850271768961
30
0
10
44.804109584334896
20
15.61357194328281
30
0
10
44.777315898260468
20
15.493930752003074
30
0
10
44.745901434069651
20
15.335215116272652
30
0
10
44.721696246921795
20
15.165390354682353
30
0
10
44.721255969762836
20
15.023940816199001
30
0
10
44.750335670769594
20
14.953668619763645
30
0
10
44.807205064774827
20
14.952606550926731
30
0
10
44.887874378749572
20
15.01488731817134
30
0
10
44.984976873983854
20
15.128575789722451
30
0
10
45.088973167112734
20
15.277814304108597
30
0
10
45.189439856000753
20
15.445091415407358
30
0
10
45.276327075588384
20
15.613367048301081
30
0
10
45.341080026958863
20
15.767945194787657
30
0
10
45.378266631773229
20
15.899051481974102
30
0
10
45.385487585253344
20
16.001787478000722
30
0
10
45.366754718600433
20
16.059733569950364
30
0
10
45.339035935454255
20
16.089491222649777
30
0
10
45.31452453212146
20
16.103282455161679
30
0
10
45.300760828929825
20
16.108666353788777
30
0
0
SPLINE
5
148
100
AcDbEntity
8
0
100
AcDbSpline
70
4
71
5
72
36
73
30
74
0
42
0.000000001
43
0.0000000001
44
0.0000000001
40
0
40
0
40
0
40
0
40
0
40
0
40
0.040000000000000001
40
0.080000000000000002
40
0.12
40
0.16
40
0.20000000000000001
40
0.24000000000000002
40
0.28000000000000003
40
0.32000000000000001
40
0.35999999999999999
40
0.39999999999999997
40
0.43999999999999995
40
0.47999999999999993
40
0.51999999999999991
40
0.55999999999999994
40
0.59999999999999998
40
0.64000000000000001
40
0.68000000000000005
40
0.72000000000000008
40
0.76000000000000012
40
0.80000000000000016
40
0.84000000000000019
40
0.88000000000000023
40
0.92000000000000026
40
0.9600000000000003
40
1
40
1
40
1
40
1
40
1
40
1
41
1
41
1
41
1
41
1
41
1
41
1
41
1
41
1
41
1
41
1
41
1
41
1
41
1
41
1
41
1
41
1
41
1
41
1
41
1
41
1
41
1
41
1
41
1
41
1
41
1
41
1
41
1
41
1
41
1
41
1
10
48.000000640749931
20
16.500000193715096
30
0
10
48.0415980963121
20
16.457316283696766
30
0
10
48.120445370212515
20
16.367219925790724
30
0
10
48.225673567404932
20
16.217889005930246
30
0
10
48.339822644916268
20
15.990340959034196
30
0
10
48.438164548035644
20
15.659782094411298
30
0
10
48.490564836238583
20
15.28782234161306
30
0
10
48.494410643460746
20
14.884308793569886
30
0
10
48.445708253282916
20
14.466779473195428
30
0
10
48.339343142346394
20
14.060515512247251
30
0
10
48.170703454331154
20
13.692969522253492
30
0
10
47.937095162278574
20
13.38922200163598
30
0
10
47.639192807354782
20
13.167286787949074
30
0
10
47.282752115401337
20
13.03272152368676
30
0
10
46.879634272399912
20
12.975428132364641
30
0
10
46.445651322602288
20
12.976473516599718
30
0
10
45.998948400621195
20
13.013245758803155
30
0
10
45.55818711825674
20
13.065346591348819
30
0
10
45.140914467850365
20
13.11976382742062
30
0
10
44.761633045228521
20
13.177437969792496
30
0
10
44.431834460988753
20
13.25018012360238
30
0
10
44.160373270485628
20
13.355721543616017
30
0
10
43.95368408760406
20
13.513608934451671
30
0
10
43.815990454750093
20
13.740466410264652
30
0
10
43.749526722797356
20
14.046378727732506
30
0
10
43.755141166987777
20
14.436860282074003
30
0
10
43.817277013928589
20
14.818639932097938
30
0
10
43.896129589460593
20
15.144132360776075
30
0
10
43.962994207371665
20
15.378484652579431
30
0
10
44.000000581145287
20
15.500000178813934
30
0
0
SPLINE
5
149
100
AcDbEntity
8
0
100
AcDbSpline
70
4
71
5
72
26
73
20
74
0
42
0.000000001
43
0.0000000001
44
0.0000000001
40
0
40
0
40
0
40
0
40
0
40
0
40
0.066666666666666666
40
0.13333333333333333
40
0.20000000000000001
40
0.26666666666666666
40
0.33333333333333331
40
0.39999999999999997
40
0.46666666666666662
40
0.53333333333333333
40
0.59999999999999998
40
0.66666666666666663
40
0.73333333333333328
40
0.79999999999999993
40
0.86666666666666659
40
0.93333333333333324
40
1
40
1
40
1
40
1
40
1
40
1
41
1
41
1
41
1
41
1
41
1
41
1
41
1
41
1
41
1
41
1
41
1
41
1
41
1
41
1
41
1
41
1
41
1
41
1
41
1
41
1
10
46.000000610947609
20
17.500000208616257
30
0
10
45.894957380768169
20
17.503333476696518
30
0
10
45.690909057712702
20
17.504058951402289
30
0
10
45.402950754018214
20
17.487324551183633
30
0
10
45.055500047291417
20
17.429102643033055
30
0
10
44.683721064074142
20
17.296084980108045
30
0
10
44.376862524092822
20
17.10432927697838
30
0
10
44.137413128703628
20
16.85926402373903
30
0
10
43.967359754188109
20
16.572022889010199
30
0
10
43.867103931336395
20
16.262637572205346
30
0
10
43.835214333993079
20
15.959532746236942
30
0
10
43.869320285661566
20
15.69419479387971
30
0
10
43.966468260857994
20
15.49702501261857
30
0
10
44.123461561314357
20
15.392912290570212
30
0
10
44.336924548292757
20
15.395812934070786
30
0
10
44.603750357949366
20
15.511331871264426
30
0
10
44.857935470941285
20
15.694438601334308
30
0
10
45.070776450435766
20
15.8821143096747
30
0
10
45.222466658270889
20
16.029446521864454
30
0
10
45.300760828929825
20
16.108666353788777
30
0
0
ENDSEC
0
SECTION
2
OBJECTS
0
DICTIONARY
5
C
100
AcDbDictionary
3
ACAD_GROUP
350
D
3
ACAD_MLINESTYLE
350
17
0
DICTIONARY
5
D
100
AcDbDictionary
0
DICTIONARY
5
1A
330
C
100
AcDbDictionary
0
DICTIONARY
5
17
100
AcDbDictionary
0
ENDSEC
0
EOF
