0
SECTION
2
HEADER
9
$INSUNITS
70
4
9
$ACADVER
1
AC1014
9
$HANDSEED
5
FFFF
0
ENDSEC
0
SECTION
2
TABLES
0
TABLE
2
VPORT
5
8
100
AcDbSymbolTable
0
ENDTAB
0
TABLE
2
LTYPE
5
5
100
AcDbSymbolTable
0
LTYPE
5
14
100
AcDbSymbolTableRecord
100
AcDbLinetypeTableRecord
2
BYBLOCK
70
0
0
LTYPE
5
15
100
AcDbSymbolTableRecord
100
AcDbLinetypeTableRecord
2
BYLAYER
70
0
0
ENDTAB
0
TABLE
2
LAYER
5
2
100
AcDbSymbolTable
70
2
0
LAYER
5
50
100
AcDbSymbolTableRecord
100
AcDbLayerTableRecord
2
0
70
0
6
CONTINUOUS
0
ENDTAB
0
TABLE
2
STYLE
5
3
100
AcDbSymbolTable
70
1
0
STYLE
5
11
100
AcDbSymbolTableRecord
100
AcDbTextStyleTableRecord
2
STANDARD
70
0
0
ENDTAB
0
TABLE
2
VIEW
5
6
100
AcDbSymbolTable
70
0
0
ENDTAB
0
TABLE
2
UCS
5
7
100
AcDbSymbolTable
70
0
0
ENDTAB
0
TABLE
2
APPID
5
9
100
AcDbSymbolTable
70
2
0
APPID
5
12
100
AcDbSymbolTableRecord
100
AcDbRegAppTableRecord
2
ACAD
70
0
0
ENDTAB
0
TABLE
2
DIMSTYLE
5
A
100
AcDbSymbolTable
70
1
0
ENDTAB
0
TABLE
2
BLOCK_RECORD
5
1
100
AcDbSymbolTable
70
1
0
BLOCK_RECORD
5
1F
100
AcDbSymbolTableRecord
100
AcDbBlockTableRecord
2
*MODEL_SPACE
0
BLOCK_RECORD
5
1B
100
AcDbSymbolTableRecord
100
AcDbBlockTableRecord
2
*PAPER_SPACE
0
ENDTAB
0
ENDSEC
0
SECTION
2
BLOCKS
0
BLOCK
5
20
100
AcDbEntity
100
AcDbBlockBegin
2
*MODEL_SPACE
0
ENDBLK
5
21
100
AcDbEntity
100
AcDbBlockEnd
0
BLOCK
5
1C
100
AcDbEntity
100
AcDbBlockBegin
2
*PAPER_SPACE
0
ENDBLK
5
1D
100
AcDbEntity
100
AcDbBlockEnd
0
ENDSEC
0
SECTION
2
ENTITIES
0
SPLINE
5
100
100
AcDbEntity
8
0
100
AcDbSpline
70
4
71
5
72
26
73
20
74
0
42
0.000000001
43
0.0000000001
44
0.0000000001
40
0
40
0
40
0
40
0
40
0
40
0
40
0.066666666666666666
40
0.13333333333333333
40
0.20000000000000001
40
0.26666666666666666
40
0.33333333333333331
40
0.39999999999999997
40
0.46666666666666662
40
0.53333333333333333
40
0.59999999999999998
40
0.66666666666666663
40
0.73333333333333328
40
0.79999999999999993
40
0.86666666666666659
40
0.93333333333333324
40
1
40
1
40
1
40
1
40
1
40
1
41
1
41
1
41
1
41
1
41
1
41
1
41
1
41
1
41
1
41
1
41
1
41
1
41
1
41
1
41
1
41
1
41
1
41
1
41
1
41
1
10
20.872202588238235
20
114.82743728259084
30
0
10
20.618944987163967
20
114.96809110840347
30
0
10
20.111122077343673
20
115.26798655668765
30
0
10
19.345463085076076
20
115.77359446918936
30
0
10
18.316690944325266
20
116.56006695801038
30
0
10
17.020483617137504
20
117.73326125444007
30
0
10
15.723692217025169
20
119.0963811281301
30
0
10
14.445892216830876
20
120.64247536642822
30
0
10
13.221619395782636
20
122.35166777582256
30
0
10
12.100058928275905
20
124.19050369792394
30
0
10
11.137377853460038
20
126.11896276368164
30
0
10
10.390784149483796
20
128.09495715829001
30
0
10
9.9115490919847353
20
130.07935895800085
30
0
10
9.7374741560010118
20
132.04072083874655
30
0
10
9.8848674923140347
20
133.9600009861135
30
0
10
10.356483794223564
20
135.82713805396733
30
0
10
10.989533069757639
20
137.27600718037394
30
0
10
11.605360997398847
20
138.33723954029333
30
0
10
12.078143178455269
20
139.03351241424267
30
0
10
12.330091956284646
20
139.37884497435743
30
0
0
SPLINE
5
101
100
AcDbEntity
8
0
100
AcDbSpline
70
4
71
5
72
116
73
110
74
0
42
0.000000001
43
0.0000000001
44
0.0000000001
40
0
40
0
40
0
40
0
40
0
40
0
40
0.0095238095238095247
40
0.019047619047619049
40
0.028571428571428574
40
0.038095238095238099
40
0.047619047619047623
40
0.057142857142857148
40
0.06666666666666668
40
0.076190476190476197
40
0.085714285714285715
40
0.095238095238095233
40
0.10476190476190475
40
0.11428571428571427
40
0.12380952380952379
40
0.1333333333333333
40
0.14285714285714282
40
0.15238095238095234
40
0.16190476190476186
40
0.17142857142857137
40
0.18095238095238089
40
0.19047619047619041
40
0.19999999999999993
40
0.20952380952380945
40
0.21904761904761896
40
0.22857142857142848
40
0.238095238095238
40
0.24761904761904752
40
0.25714285714285706
40
0.26666666666666661
40
0.27619047619047615
40
0.2857142857142857
40
0.29523809523809524
40
0.30476190476190479
40
0.31428571428571433
40
0.32380952380952388
40
0.33333333333333343
40
0.34285714285714297
40
0.35238095238095252
40
0.36190476190476206
40
0.37142857142857161
40
0.38095238095238115
40
0.3904761904761907
40
0.40000000000000024
40
0.40952380952380979
40
0.41904761904761934
40
0.42857142857142888
40
0.43809523809523843
40
0.44761904761904797
40
0.45714285714285752
40
0.46666666666666706
40
0.47619047619047661
40
0.48571428571428615
40
0.4952380952380957
40
0.50476190476190519
40
0.51428571428571468
40
0.52380952380952417
40
0.53333333333333366
40
0.54285714285714315
40
0.55238095238095264
40
0.56190476190476213
40
0.57142857142857162
40
0.58095238095238111
40
0.5904761904761906
40
0.60000000000000009
40
0.60952380952380958
40
0.61904761904761907
40
0.62857142857142856
40
0.63809523809523805
40
0.64761904761904754
40
0.65714285714285703
40
0.66666666666666652
40
0.67619047619047601
40
0.6857142857142855
40
0.69523809523809499
40
0.70476190476190448
40
0.71428571428571397
40
0.72380952380952346
40
0.73333333333333295
40
0.74285714285714244
40
0.75238095238095193
40
0.76190476190476142
40
0.77142857142857091
40
0.7809523809523804
40
0.79047619047618989
40
0.79999999999999938
40
0.80952380952380887
40
0.81904761904761836
40
0.82857142857142785
40
0.83809523809523734
40
0.84761904761904683
40
0.85714285714285632
40
0.86666666666666581
40
0.8761904761904753
40
0.88571428571428479
40
0.89523809523809428
40
0.90476190476190377
40
0.91428571428571326
40
0.92380952380952275
40
0.93333333333333224
40
0.94285714285714173
40
0.95238095238095122
40
0.96190476190476071
40
0.9714285714285702
40
0.98095238095237969
40
0.99047619047618918
40
1
40
1
40
1
40
1
40
1
40
1
41
1
41
1
41
1
41
1
41
1
41
1
41
1
41
1
41
1
41
1
41
1
41
1
41
1
41
1
41
1
41
1
41
1
41
1
41
1
41
1
41
1
41
1
41
1
41
1
41
1
41
1
41
1
41
1
41
1
41
1
41
1
41
1
41
1
41
1
41
1
41
1
41
1
41
1
41
1
41
1
41
1
41
1
41
1
41
1
41
1
41
1
41
1
41
1
41
1
41
1
41
1
41
1
41
1
41
1
41
1
41
1
41
1
41
1
41
1
41
1
41
1
41
1
41
1
41
1
41
1
41
1
41
1
41
1
41
1
41
1
41
1
41
1
41
1
41
1
41
1
41
1
41
1
41
1
41
1
41
1
41
1
41
1
41
1
41
1
41
1
41
1
41
1
41
1
41
1
41
1
41
1
41
1
41
1
41
1
41
1
41
1
41
1
41
1
41
1
41
1
41
1
41
1
41
1
41
1
41
1
41
1
41
1
41
1
41
1
41
1
10
12.330091956284646
20
139.37884497435743
30
0
10
11.831968307437894
20
139.66086023686944
30
0
10
10.880811426798815
20
140.22688422798194
30
0
10
9.5893472253658345
20
141.0819006672069
30
0
10
8.1379786981450248
20
142.23388435311122
30
0
10
6.771984643451793
20
143.69432316885977
30
0
10
5.8455541876095927
20
145.17676808884499
30
0
10
5.3410366079841056
20
146.6843189366069
30
0
10
5.2288135333244492
20
148.2221020493113
30
0
10
5.4640110860236621
20
149.79787384537877
30
0
10
5.9839361764138852
20
151.42232307592968
30
0
10
6.703633089811154
20
153.11014852407627
30
0
10
7.5240085417679623
20
154.87592614611208
30
0
10
8.3431227232888006
20
156.72864962114539
30
0
10
9.0663415295456851
20
158.66676499081785
30
0
10
9.6170985170059815
20
160.67289119301716
30
0
10
9.9471050080918779
20
162.70890000869946
30
0
10
10.047510144159855
20
164.71028581292092
30
0
10
9.9580351875780888
20
166.58210507897411
30
0
10
9.7813529853089669
20
168.19082632939907
30
0
10
9.6545628427023544
20
169.39000676131715
30
0
10
9.7112261942292886
20
170.05371450085323
30
0
10
10.049138150497583
20
170.1047901289962
30
0
10
10.689969077425152
20
169.55106257536607
30
0
10
11.560554667858181
20
168.49980193567325
30
0
10
12.532182270196952
20
167.11324685508427
30
0
10
13.448612869276801
20
165.57584382581422
30
0
10
14.159777543891451
20
164.05507824783766
30
0
10
14.550187266927509
20
162.66917659904945
30
0
10
14.576863729938822
20
161.4413781772964
30
0
10
14.266908776856358
20
160.31224798920422
30
0
10
13.694335137981176
20
159.18148392393692
30
0
10
12.963035456753778
20
157.94177558537251
30
0
10
12.187949115893684
20
156.51321118897226
30
0
10
11.47528171533666
20
154.88403580822254
30
0
10
10.908827738772418
20
153.12707466615484
30
0
10
10.551316865202999
20
151.35962986015556
30
0
10
10.442656832069053
20
149.71489422483469
30
0
10
10.599407258160573
20
148.30883026271539
30
0
10
11.013699639053007
20
147.20888275684061
30
0
10
11.652411050417355
20
146.40211424820154
30
0
10
12.456115683060617
20
145.76280539270363
30
0
10
13.350370932497297
20
145.11422586612591
30
0
10
14.257564562566182
20
144.29496876869172
30
0
10
15.107782241966017
20
143.21764472769803
30
0
10
15.851897149319941
20
141.94479792063046
30
0
10
16.467961259107245
20
140.71303027472013
30
0
10
16.94955078154743
20
139.81784548761223
30
0
10
17.297370048546327
20
139.52340562226249
30
0
10
17.509753715182207
20
139.96426125899362
30
0
10
17.57314043386112
20
141.04543975425088
30
0
10
17.471202545688715
20
142.52334930358899
30
0
10
17.195150108181746
20
144.09648784567003
30
0
10
16.752921485680545
20
145.48837806939059
30
0
10
16.180438369797006
20
146.54330429729194
30
0
10
15.54714703080708
20
147.28755987847489
30
0
10
14.937717204335581
20
147.84845305276676
30
0
10
14.437680907732025
20
148.3962452813856
30
0
10
14.116602467558394
20
149.07277349693996
30
0
10
14.015025541841119
20
149.93871006740369
30
0
10
14.147295038498884
20
150.99859681313396
30
0
10
14.502732207557894
20
152.21598131230229
30
0
10
15.046769466342518
20
153.53327600994081
30
0
10
15.724286119913051
20
154.88649087945583
30
0
10
16.467849908341933
20
156.21437509069699
30
0
10
17.204788380807717
20
157.46814910256427
30
0
10
17.864849589863464
20
158.62206717327027
30
0
10
18.387326744899237
20
159.68120851168575
30
0
10
18.729129264976216
20
160.6965224969295
30
0
10
18.869298484507389
20
161.75083662864199
30
0
10
18.810542947174419
20
162.92392415724328
30
0
10
18.58215171175064
20
164.26189620901494
30
0
10
18.241247788143021
20
165.74867131856092
30
0
10
17.877616466176562
20
167.26658698241789
30
0
10
17.597947744144701
20
168.62807116174181
30
0
10
17.503698975350986
20
169.62965155619415
30
0
10
17.671336156656285
20
170.09792789195808
30
0
10
18.130998467229986
20
169.94014579693228
30
0
10
18.847424779021736
20
169.18936272166323
30
0
10
19.73991738404154
20
167.96529042151053
30
0
10
20.70039468784454
20
166.43925355428325
30
0
10
21.612607148527086
20
164.79648146291862
30
0
10
22.369780425582221
20
163.20222240513854
30
0
10
22.895672547677531
20
161.75938038857254
30
0
10
23.148247317760511
20
160.50929255483356
30
0
10
23.116377417282401
20
159.44928679571555
30
0
10
22.819120980710679
20
158.54496414591017
30
0
10
22.303283917496366
20
157.74422644787782
30
0
10
21.643422687288137
20
156.99162607646497
30
0
10
20.931102428037121
20
156.23677803979209
30
0
10
20.259007727003318
20
155.44051653015006
30
0
10
19.707958790982495
20
154.58074442989923
30
0
10
19.329754995893552
20
153.66091278570278
30
0
10
19.143386653383512
20
152.70749925094228
30
0
10
19.144530180645376
20
151.7553276004067
30
0
10
19.311320570326135
20
150.83728281053871
30
0
10
19.611955837728242
20
149.96968557738725
30
0
10
20.010205534963376
20
149.15019764771446
30
0
10
20.470236121406447
20
148.36545761259163
30
0
10
20.961205862788802
20
147.59569409480554
30
0
10
21.462893717462748
20
146.82123909685009
30
0
10
21.964889702380081
20
146.0239784910774
30
0
10
22.463637810762783
20
145.18753750549453
30
0
10
22.960266175497971
20
144.29784004778054
30
0
10
23.457920463567397
20
143.3435815275115
30
0
10
23.96063271862289
20
142.31622102755011
30
0
10
24.370104875603552
20
141.43109313336612
30
0
10
24.682741754741411
20
140.73011637215191
30
0
10
24.893807129588154
20
140.24614731984448
30
0
10
25
20
140
30
0
0
SPLINE
5
102
100
AcDbEntity
8
0
100
AcDbSpline
70
4
71
5
72
116
73
110
74
0
42
0.000000001
43
0.0000000001
44
0.0000000001
40
0
40
0
40
0
40
0
40
0
40
0
40
0.0095238095238095247
40
0.019047619047619049
40
0.028571428571428574
40
0.038095238095238099
40
0.047619047619047623
40
0.057142857142857148
40
0.06666666666666668
40
0.076190476190476197
40
0.085714285714285715
40
0.095238095238095233
40
0.10476190476190475
40
0.11428571428571427
40
0.12380952380952379
40
0.1333333333333333
40
0.14285714285714282
40
0.15238095238095234
40
0.16190476190476186
40
0.17142857142857137
40
0.18095238095238089
40
0.19047619047619041
40
0.19999999999999993
40
0.20952380952380945
40
0.21904761904761896
40
0.22857142857142848
40
0.238095238095238
40
0.24761904761904752
40
0.25714285714285706
40
0.26666666666666661
40
0.27619047619047615
40
0.2857142857142857
40
0.29523809523809524
40
0.30476190476190479
40
0.31428571428571433
40
0.32380952380952388
40
0.33333333333333343
40
0.34285714285714297
40
0.35238095238095252
40
0.36190476190476206
40
0.37142857142857161
40
0.38095238095238115
40
0.3904761904761907
40
0.40000000000000024
40
0.40952380952380979
40
0.41904761904761934
40
0.42857142857142888
40
0.43809523809523843
40
0.44761904761904797
40
0.45714285714285752
40
0.46666666666666706
40
0.47619047619047661
40
0.48571428571428615
40
0.4952380952380957
40
0.50476190476190519
40
0.51428571428571468
40
0.52380952380952417
40
0.53333333333333366
40
0.54285714285714315
40
0.55238095238095264
40
0.56190476190476213
40
0.57142857142857162
40
0.58095238095238111
40
0.5904761904761906
40
0.60000000000000009
40
0.60952380952380958
40
0.61904761904761907
40
0.62857142857142856
40
0.63809523809523805
40
0.64761904761904754
40
0.65714285714285703
40
0.66666666666666652
40
0.67619047619047601
40
0.6857142857142855
40
0.69523809523809499
40
0.70476190476190448
40
0.71428571428571397
40
0.72380952380952346
40
0.73333333333333295
40
0.74285714285714244
40
0.75238095238095193
40
0.76190476190476142
40
0.77142857142857091
40
0.7809523809523804
40
0.79047619047618989
40
0.79999999999999938
40
0.80952380952380887
40
0.81904761904761836
40
0.82857142857142785
40
0.83809523809523734
40
0.84761904761904683
40
0.85714285714285632
40
0.86666666666666581
40
0.8761904761904753
40
0.88571428571428479
40
0.89523809523809428
40
0.90476190476190377
40
0.91428571428571326
40
0.92380952380952275
40
0.93333333333333224
40
0.94285714285714173
40
0.95238095238095122
40
0.96190476190476071
40
0.9714285714285702
40
0.98095238095237969
40
0.99047619047618918
40
1
40
1
40
1
40
1
40
1
40
1
41
1
41
1
41
1
41
1
41
1
41
1
41
1
41
1
41
1
41
1
41
1
41
1
41
1
41
1
41
1
41
1
41
1
41
1
41
1
41
1
41
1
41
1
41
1
41
1
41
1
41
1
41
1
41
1
41
1
41
1
41
1
41
1
41
1
41
1
41
1
41
1
41
1
41
1
41
1
41
1
41
1
41
1
41
1
41
1
41
1
41
1
41
1
41
1
41
1
41
1
41
1
41
1
41
1
41
1
41
1
41
1
41
1
41
1
41
1
41
1
41
1
41
1
41
1
41
1
41
1
41
1
41
1
41
1
41
1
41
1
41
1
41
1
41
1
41
1
41
1
41
1
41
1
41
1
41
1
41
1
41
1
41
1
41
1
41
1
41
1
41
1
41
1
41
1
41
1
41
1
41
1
41
1
41
1
41
1
41
1
41
1
41
1
41
1
41
1
41
1
41
1
41
1
41
1
41
1
41
1
41
1
41
1
41
1
41
1
41
1
10
37.669908043715353
20
139.37884497435743
30
0
10
38.169274224164958
20
139.66156370251892
30
0
10
39.122691543860519
20
140.22900482503982
30
0
10
40.416872525160173
20
141.08617755913681
30
0
10
41.870514772837161
20
142.24109732028563
30
0
10
43.237135121907933
20
143.70531308973636
30
0
10
44.162082236668503
20
145.19165976572228
30
0
10
44.663224679279125
20
146.70327385499212
30
0
10
44.770554095904131
20
148.24534574170278
30
0
10
44.529502070907839
20
149.82572579023955
30
0
10
44.003567511278455
20
151.45524331849754
30
0
10
43.278741806622463
20
153.14876742240901
30
0
10
42.455036926185095
20
154.92091993641358
30
0
10
41.635124160751261
20
156.78057864967639
30
0
10
40.914015397288381
20
158.72582962431875
30
0
10
40.368199065192272
20
160.73864373735532
30
0
10
40.04524298208851
20
162.77985026746529
30
0
10
39.952615957007268
20
164.78353316001039
30
0
10
40.048152023345565
20
166.65269099536528
30
0
10
40.226207936795817
20
168.25155891303507
30
0
10
40.348077142457186
20
169.43280232181675
30
0
10
40.280099950393762
20
170.07112645963781
30
0
10
39.926162838704464
20
170.09170889116135
30
0
10
39.269339882789836
20
169.50767102722781
30
0
10
38.387260257417502
20
168.43107722483279
30
0
10
37.411852479590998
20
167.02744134089417
30
0
10
36.501145886846416
20
165.48272637047347
30
0
10
35.805114752085942
20
163.96368669616763
30
0
10
35.436772156952486
20
162.58496315143418
30
0
10
35.434074891945784
20
161.36324834896837
30
0
10
35.76596535812245
20
160.23489773135992
30
0
10
36.35504146691666
20
159.09703659801389
30
0
10
37.095204366911418
20
157.84250963683195
30
0
10
37.87049685153368
20
156.39407023470281
30
0
10
38.57555500500618
20
154.74695022474728
30
0
10
39.127870880011855
20
152.97958601048907
30
0
10
39.466288252427518
20
151.21260896363333
30
0
10
39.552740437727508
20
149.58022131361568
30
0
10
39.372748798051738
20
148.19615347295945
30
0
10
38.936339476959013
20
147.12293583561106
30
0
10
38.279096668393123
20
146.33734076405065
30
0
10
37.462331345769556
20
145.7040767281006
30
0
10
36.561235631077665
20
145.04361822459197
30
0
10
35.653321471501705
20
144.19815767698739
30
0
10
34.807725359411727
20
143.09040421498304
30
0
10
34.071830582984703
20
141.80417557547588
30
0
10
33.467074313400389
20
140.59054695355155
30
0
10
33.000220808543645
20
139.74830199629534
30
0
10
32.670880513210953
20
139.53533958889022
30
0
10
32.480935497335778
20
140.06329138616363
30
0
10
32.442033182962902
20
141.21130226000682
30
0
10
32.566634436763621
20
142.72166980672137
30
0
10
32.859556213339836
20
144.28835704423201
30
0
10
33.310167540544114
20
145.64146841104855
30
0
10
33.882314766134598
20
146.64918341194624
30
0
10
34.511820518505857
20
147.35966566399608
30
0
10
35.120129005552691
20
147.91247404969178
30
0
10
35.624355357048742
20
148.48127694700804
30
0
10
35.949213105961768
20
149.1955310231213
30
0
10
36.036799696977468
20
150.09880518186637
30
0
10
35.854309051434278
20
151.18087913472439
30
0
10
35.400679625480969
20
152.39469216037531
30
0
10
34.716897035145585
20
153.68133873241672
30
0
10
33.882203025577702
20
154.98356794595514
30
0
10
32.996005754015655
20
156.25152330104811
30
0
10
32.163939648141202
20
157.45004905200238
30
0
10
31.481694720520402
20
158.56619755265098
30
0
10
31.021053326410623
20
159.61475079796512
30
0
10
30.811764627369985
20
160.6494762336805
30
0
10
30.842896353305534
20
161.74535068996454
30
0
10
31.072513546420129
20
162.96894785740108
30
0
10
31.434617341903536
20
164.35134725990548
30
0
10
31.847335675336158
20
165.8628319628356
30
0
10
32.220226252642732
20
167.37932466788044
30
0
10
32.465029089569612
20
168.71674080810547
30
0
10
32.507206603054186
20
169.68022092519726
30
0
10
32.296852462918977
20
170.10691426219566
30
0
10
31.820735622147783
20
169.91443668892975
30
0
10
31.111381633147257
20
169.13831928134627
30
0
10
30.234211455588017
20
167.89356727864188
30
0
10
29.276887513445228
20
166.34398932838968
30
0
10
28.337759755648655
20
164.66781646289522
30
0
10
27.514862638393236
20
163.02669144138002
30
0
10
26.894255297689014
20
161.52857644504496
30
0
10
26.542231279484735
20
160.22911429165916
30
0
10
26.498848255588968
20
159.14211980434072
30
0
10
26.770199195698822
20
158.24681573615467
30
0
10
27.322982486652894
20
157.4966830419776
30
0
10
28.073534178509888
20
156.8269004671443
30
0
10
28.902436184454551
20
156.16625929989522
30
0
10
29.684018295448759
20
155.45231440128424
30
0
10
30.308868775546323
20
154.6437246201499
30
0
10
30.714740744732826
20
153.73801796701653
30
0
10
30.893328568444268
20
152.77104625818205
30
0
10
30.868432512589685
20
151.79328089597772
30
0
10
30.682464866332321
20
150.85380833824118
30
0
10
30.377200405234479
20
149.97715933356278
30
0
10
29.986522189241988
20
149.15942054653999
30
0
10
29.538656473216651
20
148.38137529587706
30
0
10
29.055860371013964
20
147.61639381896404
30
0
10
28.555161408351214
20
146.84191661764822
30
0
10
28.048517777658578
20
146.04066836784705
30
0
10
27.543074656507322
20
145.19872405155138
30
0
10
27.041442148169672
20
144.30465612917402
30
0
10
26.54177451518521
20
143.3480284248314
30
0
10
26.039315057199936
20
142.31968700516563
30
0
10
25.630524123568065
20
141.43385272822312
30
0
10
25.317878269345169
20
140.73179026144845
30
0
10
25.106457760460312
20
140.24676131563561
30
0
10
25
20
140
30
0
0
SPLINE
5
103
100
AcDbEntity
8
0
100
AcDbSpline
70
4
71
5
72
26
73
20
74
0
42
0.000000001
43
0.0000000001
44
0.0000000001
40
0
40
0
40
0
40
0
40
0
40
0
40
0.066666666666666666
40
0.13333333333333333
40
0.20000000000000001
40
0.26666666666666666
40
0.33333333333333331
40
0.39999999999999997
40
0.46666666666666662
40
0.53333333333333333
40
0.59999999999999998
40
0.66666666666666663
40
0.73333333333333328
40
0.79999999999999993
40
0.86666666666666659
40
0.93333333333333324
40
1
40
1
40
1
40
1
40
1
40
1
41
1
41
1
41
1
41
1
41
1
41
1
41
1
41
1
41
1
41
1
41
1
41
1
41
1
41
1
41
1
41
1
41
1
41
1
41
1
41
1
10
29.127797804852918
20
114.82743731750035
30
0
10
29.38105540026293
20
114.96809113906055
30
0
10
29.888878295461158
20
115.26798658113229
30
0
10
30.654537255916736
20
115.77359449119231
30
0
10
31.683309337170318
20
116.56006698907422
30
0
10
32.979516576282904
20
117.73326130933714
30
0
10
34.27630789204057
20
119.09638120960324
30
0
10
35.554107827018491
20
120.6424754681119
30
0
10
36.778380609155064
20
122.35166788580797
30
0
10
37.899941061992138
20
124.19050380396209
30
0
10
38.862622139288312
20
126.11896285621141
30
0
10
39.609215853339023
20
128.09495723219729
30
0
10
40.088450919474241
20
130.079359012829
30
0
10
40.262525857101664
20
132.0407208775656
30
0
10
40.115132515849012
20
133.96000101281669
30
0
10
39.643516206233542
20
135.8271380714603
30
0
10
39.010466926600806
20
137.27600719134287
30
0
10
38.394638999216014
20
138.33723954601999
30
0
10
37.921856820118393
20
139.03351241619765
30
0
10
37.669908043715353
20
139.37884497435743
30
0
0
SPLINE
5
104
100
AcDbEntity
8
0
100
AcDbSpline
70
4
71
5
72
31
73
25
74
0
42
0.000000001
43
0.0000000001
44
0.0000000001
40
0
40
0
40
0
40
0
40
0
40
0
40
0.050000000000000003
40
0.10000000000000001
40
0.15000000000000002
40
0.20000000000000001
40
0.25
40
0.29999999999999999
40
0.34999999999999998
40
0.39999999999999997
40
0.44999999999999996
40
0.49999999999999994
40
0.54999999999999993
40
0.59999999999999998
40
0.65000000000000002
40
0.70000000000000007
40
0.75000000000000011
40
0.80000000000000016
40
0.8500000000000002
40
0.90000000000000024
40
0.95000000000000029
40
1
40
1
40
1
40
1
40
1
40
1
41
1
41
1
41
1
41
1
41
1
41
1
41
1
41
1
41
1
41
1
41
1
41
1
41
1
41
1
41
1
41
1
41
1
41
1
41
1
41
1
41
1
41
1
41
1
41
1
41
1
10
15.898538413002811
20
30.275188734900873
30
0
10
15.869151526176921
20
30.170460291240349
30
0
10
15.77559205755616
20
29.960277920098072
30
0
10
15.530892979206577
20
29.642827792828321
30
0
10
14.99507992209792
20
29.215191073904052
30
0
10
13.982464489436946
20
28.673841753784338
30
0
10
12.655579155136724
20
28.12733789117366
30
0
10
11.078041393297466
20
27.579107035346251
30
0
10
9.3652045404277331
20
27.035121115294224
30
0
10
7.6925444908347025
20
26.504318393134227
30
0
10
6.258741421844328
20
25.997166871504106
30
0
10
5.2558521394236779
20
25.52451098107553
30
0
10
4.8349289488437961
20
25.096241607301472
30
0
10
5.0763817456089448
20
24.720125510725278
30
0
10
5.9470281805245513
20
24.400159869353484
30
0
10
7.3182030006161725
20
24.137001470050805
30
0
10
9.0050045196439541
20
23.929094847967786
30
0
10
10.797196242093124
20
23.773475638277013
30
0
10
12.492190156815276
20
23.666613804205376
30
0
10
13.927854963515795
20
23.605179669567601
30
0
10
15.013283172440852
20
23.586748546714553
30
0
10
15.568198130354197
20
23.605116041943205
30
0
10
15.803451398361297
20
23.637124395400107
30
0
10
15.880192888023517
20
23.666533634412833
30
0
10
15.898540495499685
20
23.683255848179364
30
0
0
SPLINE
5
105
100
AcDbEntity
8
0
100
AcDbSpline
70
4
71
5
72
31
73
25
74
0
42
0.000000001
43
0.0000000001
44
0.0000000001
40
0
40
0
40
0
40
0
40
0
40
0
40
0.050000000000000003
40
0.10000000000000001
40
0.15000000000000002
40
0.20000000000000001
40
0.25
40
0.29999999999999999
40
0.34999999999999998
40
0.39999999999999997
40
0.44999999999999996
40
0.49999999999999994
40
0.54999999999999993
40
0.59999999999999998
40
0.65000000000000002
40
0.70000000000000007
40
0.75000000000000011
40
0.80000000000000016
40
0.8500000000000002
40
0.90000000000000024
40
0.95000000000000029
40
1
40
1
40
1
40
1
40
1
40
1
41
1
41
1
41
1
41
1
41
1
41
1
41
1
41
1
41
1
41
1
41
1
41
1
41
1
41
1
41
1
41
1
41
1
41
1
41
1
41
1
41
1
41
1
41
1
41
1
41
1
10
34.101459504500312
20
30.275188423494619
30
0
10
34.130846404766181
20
30.170459953486354
30
0
10
34.22440591368467
20
29.960277546524598
30
0
10
34.469105092722373
20
29.642827416151434
30
0
10
35.004918355282285
20
29.215190784362164
30
0
10
36.017534111976353
20
28.673841668670001
30
0
10
37.344419778349859
20
28.127338035802016
30
0
10
38.921957828547434
20
27.579107368428275
30
0
10
40.63479490886175
20
27.035121551239044
30
0
10
42.307455133521245
20
26.504318839105679
30
0
10
43.741258340726183
20
25.997167251570637
30
0
10
44.744147743641058
20
25.524511251115932
30
0
10
45.165071051005725
20
25.096241759247057
30
0
10
44.923618368023767
20
24.720125567824333
30
0
10
44.052972026458988
20
24.400159869452608
30
0
10
42.681797268723059
20
24.137001449719058
30
0
10
40.994995772854267
20
23.929094833296602
30
0
10
39.202804032683289
20
23.773475640318402
30
0
10
37.507810063947339
20
23.666613819699521
30
0
10
36.072145181948997
20
23.605179686795374
30
0
10
34.986716897495491
20
23.586748556203467
30
0
10
34.431801894199801
20
23.605116043840447
30
0
10
34.196548607309062
20
23.637124394646854
30
0
10
34.119807112607688
20
23.666533633837545
30
0
10
34.101459504500312
20
23.683255848179364
30
0
0
LINE
5
106
100
AcDbEntity
8
0
100
AcDbLine
10
20.872202588238235
20
114.82743728259084
30
0
11
15.898535814727913
21
30.275144564250059
31
0
0
LINE
5
107
100
AcDbEntity
8
0
100
AcDbLine
10
15.506611041035704
20
23.612426755068057
30
0
11
14.999997490099677
21
15.000000711176227
31
0
0
LINE
5
108
100
AcDbEntity
8
0
100
AcDbLine
10
29.127798273934239
20
114.82743779707701
30
0
11
34.101464393951964
21
30.275144576525367
31
0
0
LINE
5
109
100
AcDbEntity
8
0
100
AcDbLine
10
34.493389114007186
20
23.612426764188225
30
0
11
35.000002602148975
21
15.00000060505198
31
0
0
LINE
5
110
100
AcDbEntity
8
0
100
AcDbLine
10
23.266456947285846
20
118.48068189380314
30
0
11
20.872202195147082
21
25.062692826064339
31
0
0
LINE
5
111
100
AcDbEntity
8
0
100
AcDbLine
10
26.733543057757426
20
118.48068169702685
30
0
11
29.127797804852918
21
25.062692826064339
31
0
0
ARC
5
112
100
AcDbEntity
8
0
100
AcDbCircle
10
25
20
25.062692826064339
30
0
40
4.1277978048529196
210
0
220
0
230
1
100
AcDbArc
50
-182.9362795952436
51
2.9362795952436347
0
ARC
5
113
100
AcDbEntity
8
0
100
AcDbCircle
10
25.00000037252903
20
125.00000186264515
30
0
40
6.745865820140974
210
0
220
0
230
1
100
AcDbArc
50
-75.109145935129291
51
255.10913943142583
0
SPLINE
5
114
100
AcDbEntity
8
0
100
AcDbSpline
70
4
71
5
72
21
73
15
74
0
42
0.000000001
43
0.0000000001
44
0.0000000001
40
0
40
0
40
0
40
0
40
0
40
0
40
0.10000000000000001
40
0.20000000000000001
40
0.30000000000000004
40
0.40000000000000002
40
0.5
40
0.59999999999999998
40
0.69999999999999996
40
0.79999999999999993
40
0.89999999999999991
40
1
40
1
40
1
40
1
40
1
40
1
41
1
41
1
41
1
41
1
41
1
41
1
41
1
41
1
41
1
41
1
41
1
41
1
41
1
41
1
41
1
10
21.755249712818603
20
5.5410573754866101
30
0
10
22.330984531619119
20
5.3069066494740849
30
0
10
23.450228121512819
20
4.8589456104240716
30
0
10
25.032418487267122
20
4.2480233189475083
30
0
10
26.945448056623405
20
3.5575233348675779
30
0
10
28.984167202285729
20
2.9169318483256323
30
0
10
30.630683762424319
20
2.5238904998591711
30
0
10
31.836841637774683
20
2.4087944206151439
30
0
10
32.556436712893785
20
2.6008066900344096
30
0
10
32.76172815529722
20
3.1174367462641301
30
0
10
32.465802015496919
20
3.950424945613038
30
0
10
31.85062733600407
20
4.8556750508835131
30
0
10
31.18791958857781
20
5.661685891417263
30
0
10
30.658093113431168
20
6.2545836772914312
30
0
10
30.371174034443076
20
6.5649222009495514
30
0
0
ARC
5
115
100
AcDbEntity
8
0
100
AcDbCircle
10
25.00000004612432
20
15.000000215272095
30
0
40
10.000002556024645
210
0
220
0
230
1
100
AcDbArc
50
173.26707814342211
51
251.06622734621624
0
ARC
5
116
100
AcDbEntity
8
0
100
AcDbCircle
10
25.00000004612432
20
15.000000215272095
30
0
40
10.000002556024651
210
0
220
0
230
1
100
AcDbArc
50
-57.512386873201542
51
6.7329215421673316
0
ENDSEC
0
SECTION
2
OBJECTS
0
DICTIONARY
5
C
100
AcDbDictionary
3
ACAD_GROUP
350
D
3
ACAD_MLINESTYLE
350
17
0
DICTIONARY
5
D
100
AcDbDictionary
0
DICTIONARY
5
1A
330
C
100
AcDbDictionary
0
DICTIONARY
5
17
100
AcDbDictionary
0
ENDSEC
0
EOF
