<?xml version="1.0" encoding="UTF-8"?><svg id="_レイヤー_2" xmlns="http://www.w3.org/2000/svg" viewBox="0 0 609.78 157.44"><defs><style>.cls-1{fill:#b1c9e9;}.cls-2{fill:#231815;}.cls-3{fill:#609ec9;}.cls-4{stroke-width:2.83px;}.cls-4,.cls-5{fill:none;stroke:#231815;stroke-miterlimit:10;}.cls-5{stroke-width:2.83px;}</style></defs><g><path class="cls-2" d="M609.53,53.08h-.71c-.01-1.1-.38-1.91-1.14-2.48-1.89-1.43-5.94-1.17-10.9-.19v-.72c5.12-1.02,9.24-1.23,11.33,.34,.93,.7,1.41,1.73,1.42,3.05Z"/><path class="cls-2" d="M596.78,49.69v.72c-4,.8-8.59,2.08-13.11,3.33-10.31,2.86-20.05,5.56-23.48,3.01-.83-.63-1.26-1.53-1.28-2.7-.02-.94-.35-1.65-1.02-2.17-3.29-2.54-13.87,.03-24.1,2.52-10.85,2.63-21.1,5.12-24.63,2.38-.84-.65-1.26-1.57-1.28-2.73-.01-1.15-.5-2.09-1.48-2.85-8.46-6.57-48.65,3.09-49.06,3.19l-.44,.11v-1.41c-.01-1.11-.38-1.92-1.13-2.49-3.42-2.58-13.9,.33-24.02,3.14-10.31,2.86-20.05,5.56-23.48,3.01-.83-.63-1.26-1.53-1.28-2.7-.02-.94-.35-1.65-1.02-2.17-3.29-2.54-13.87,.03-24.1,2.52-7.5,1.82-14.72,3.57-19.63,3.57-2.18,0-3.91-.35-5-1.19-.83-.65-1.26-1.57-1.28-2.73-.01-1.15-.49-2.09-1.48-2.85-8.46-6.57-48.65,3.09-49.06,3.19l-.43,.11v-1.41c-.01-1.11-.39-1.92-1.14-2.49-3.43-2.58-13.9,.33-24.02,3.14-10.31,2.86-20.05,5.56-23.47,3.01-.84-.63-1.27-1.53-1.29-2.7-.02-.94-.35-1.65-1.02-2.17-3.29-2.54-13.87,.03-24.1,2.52-10.85,2.63-21.09,5.12-24.63,2.38-.83-.65-1.26-1.57-1.28-2.73,0-1.15-.49-2.09-1.48-2.85-8.46-6.57-48.65,3.09-49.05,3.19l-.44,.11v-1.41c-.01-1.11-.39-1.92-1.14-2.49-3.43-2.58-13.89,.33-24.02,3.14-10.31,2.86-20.05,5.56-23.47,3.01-.83-.63-1.27-1.53-1.29-2.7-.01-.94-.35-1.65-1.02-2.17-3.29-2.54-13.87,.03-24.1,2.52-10.85,2.63-21.09,5.12-24.63,2.38-.83-.65-1.26-1.57-1.27-2.73-.02-1.15-.5-2.09-1.49-2.85-8.45-6.57-48.65,3.09-49.05,3.19l-.09-.37v-.34c2.58-.62,40.96-9.73,49.58-3.04,1.15,.89,1.74,2.04,1.76,3.4,.01,.95,.33,1.66,1,2.18,3.26,2.53,13.82-.03,24.03-2.51,10.87-2.64,21.13-5.14,24.7-2.39,.83,.65,1.27,1.56,1.29,2.72,.02,.95,.35,1.65,1,2.14,3.15,2.35,13.17-.44,22.86-3.13,10.77-2.98,20.93-5.8,24.64-3.02,.92,.7,1.4,1.73,1.42,3.05v.52c4.65-1.11,40.88-9.44,49.22-2.96,1.15,.89,1.74,2.04,1.75,3.4,.01,.95,.34,1.66,1.01,2.18,3.26,2.53,13.81-.03,24.02-2.51,10.87-2.64,21.14-5.14,24.7-2.39,.84,.65,1.28,1.56,1.3,2.72,.02,.95,.34,1.65,1,2.14,3.14,2.35,13.17-.44,22.86-3.13,10.76-2.98,20.93-5.8,24.63-3.02,.93,.7,1.41,1.73,1.42,3.05v.52c4.66-1.11,40.89-9.44,49.22-2.96,1.16,.89,1.75,2.04,1.76,3.4,.01,.95,.34,1.66,1.01,2.18,3.26,2.53,13.81-.03,24.02-2.51,10.87-2.64,21.14-5.14,24.7-2.39,.84,.65,1.28,1.56,1.3,2.72,.01,.95,.34,1.65,1,2.14,3.14,2.35,13.17-.44,22.86-3.13,10.76-2.98,20.93-5.8,24.63-3.02,.93,.7,1.41,1.73,1.42,3.05v.52c4.66-1.11,40.89-9.44,49.22-2.96,1.15,.89,1.74,2.04,1.76,3.4,.01,.95,.34,1.66,1,2.18,3.27,2.53,13.82-.03,24.03-2.51,10.87-2.64,21.14-5.14,24.7-2.39,.84,.65,1.28,1.56,1.3,2.72,.01,.95,.34,1.65,1,2.14,3.14,2.35,13.17-.44,22.86-3.13,4.71-1.31,9.31-2.58,13.3-3.36Z"/><path class="cls-1" d="M596.78,43.92v5.77c-3.99,.78-8.59,2.05-13.3,3.36-9.69,2.69-19.72,5.48-22.86,3.13-.66-.49-.99-1.19-1-2.14-.02-1.16-.46-2.07-1.3-2.72-3.56-2.75-13.83-.25-24.7,2.39-10.21,2.48-20.76,5.04-24.03,2.51-.66-.52-.99-1.23-1-2.18-.02-1.36-.61-2.51-1.76-3.4-8.33-6.48-44.56,1.85-49.22,2.96v-.52c-.01-1.32-.49-2.35-1.42-3.05-3.7-2.78-13.87,.04-24.63,3.02-9.69,2.69-19.72,5.48-22.86,3.13-.66-.49-.99-1.19-1-2.14-.02-1.16-.46-2.07-1.3-2.72-3.56-2.75-13.83-.25-24.7,2.39-10.21,2.48-20.76,5.04-24.02,2.51-.67-.52-1-1.23-1.01-2.18-.01-1.36-.6-2.51-1.76-3.4-8.33-6.48-44.56,1.85-49.22,2.96v-.52c-.01-1.32-.49-2.35-1.42-3.05-3.7-2.78-13.87,.04-24.63,3.02-9.69,2.69-19.72,5.48-22.86,3.13-.66-.49-.98-1.19-1-2.14-.02-1.16-.46-2.07-1.3-2.72-3.56-2.75-13.83-.25-24.7,2.39-10.21,2.48-20.76,5.04-24.02,2.51-.67-.52-1-1.23-1.01-2.18,0-1.36-.6-2.51-1.75-3.4-8.34-6.48-44.57,1.85-49.22,2.96v-.52c-.02-1.32-.5-2.35-1.42-3.05-3.71-2.78-13.87,.04-24.64,3.02-9.69,2.69-19.71,5.48-22.86,3.13-.65-.49-.98-1.19-1-2.14-.02-1.16-.46-2.07-1.29-2.72-3.57-2.75-13.83-.25-24.7,2.39-10.21,2.48-20.77,5.04-24.03,2.51-.67-.52-.99-1.23-1-2.18-.02-1.36-.61-2.51-1.76-3.4-8.62-6.69-47,2.42-49.58,3.04v-9.76c5.09,.55,20.92-26.09,20.92-26.09l.76-1.25C29.78,3.53,45.72-1.7,58.77,4.9c7.04,3.56,11.24,10.5,11.61,17.86h0s-.28,.02-.28,.02c-.74,4.09-2.15,7.73-4.59,10.98-5.12,6.83-17.86,9.63-24.01,2.75-.42-.48-.79-1-1.11-1.55-1.93-3.32-1.94-7.74,.07-10.98,2.96-5.25,10.57-6.5,14.11-1.85,1.76,2.45,1.39,6.63-1.34,8.08-2,1.09-4.94,.53-5.86-1.74-.64-1.58-.25-3.7,1.39-4.66,.82-.51,1.94-.71,3.07-.42l.26-.5c-2.31-1.87-6.17-.83-7.54,1.88-1.62,2.65-1.08,6.59,1.49,8.89,3.88,3.52,10.32,2.73,13.44-1.4,3.11-3.98,2.97-9.85-.19-13.7-6.1-7.57-18.99-5.12-21.68,4.18-1.51,4.48-.84,9.07,1.24,12.91,2.88,5.32,8.49,9.2,14.84,9.37,11.45,.35,19.98-11.49,16.97-22.27h-.28c1.84-2.9,3.04-4.92,3.04-4.92l.77-1.25C80.79,3.53,96.72-1.7,109.78,4.9c7.04,3.56,11.24,10.51,11.6,17.87-.38,4.66-2.09,9.36-5.26,12.72-5.49,5.98-15.52,6.75-21.29,1.06-4.38-4.34-4.24-12.84,1.3-16.06,4.75-2.88,12.05,.18,11.23,6.3-.28,2.74-2.59,4.99-5.4,4.85-4.5,.05-6.46-6.06-2.37-8.3,.98-.52,2.22-.61,3.37-.2-2.19-1.57-5.58-.56-6.8,1.9-1.45,2.53-.78,5.98,1.42,7.96,5.09,4.41,12.96,1.07,14.16-5.38,1.56-6.26-3.25-12.53-9.51-13.46-9.85-1.73-17.35,7.2-15.99,16.65,.89,7.19,6.68,12.43,13.42,13.79,1.64,.33,3.33,.43,5.03,.28,10-.7,17-9.26,17-18.67,0-1.14-.1-2.29-.31-3.44h.03c1.84-2.92,3.04-4.94,3.04-4.94l.77-1.25c6.6-13.05,22.53-18.28,35.59-11.68,7.24,3.66,11.47,10.9,11.63,18.49h0s-.29,.01-.29,.01c-.76,3.5-1.94,6.64-3.93,9.49-4.72,7-15.01,9.73-22.44,5.56-1.45-.94-2.55-2.11-3.33-3.41-4.1-6.88,.75-17.39,10.12-15.55,4.22,.83,6.52,5.7,4.21,9.35-1.2,1.87-4.05,2.47-5.93,1.32-3.5-2.29-1.33-7.91,3.02-6.77l.25-.5c-2.29-1.86-6.13-.85-7.52,1.83-1.62,2.63-1.13,6.55,1.4,8.87,5.48,4.99,14.2,1.41,15.51-5.61,1.14-4.81-1.32-10.04-5.65-12.33-8.59-4.55-18.32,1.14-18.93,10.66-.32,3.28,.42,6.5,1.92,9.31,2.79,5.23,8.21,9.08,14.34,9.41,11.33,.73,20.24-10.86,17.53-21.64h-.28c1.85-2.91,3.04-4.93,3.04-4.93l.77-1.25c6.6-13.05,22.53-18.28,35.59-11.68,7.04,3.56,11.24,10.51,11.61,17.87-.39,4.66-2.1,9.36-5.27,12.71-5.49,5.99-15.52,6.76-21.29,1.07-4.38-4.34-4.24-12.84,1.31-16.06,4.75-2.89,12.04,.17,11.22,6.3-.27,2.73-2.58,4.99-5.4,4.85-4.5,.05-6.46-6.06-2.37-8.3,.98-.52,2.22-.61,3.37-.2-2.19-1.57-5.58-.56-6.8,1.9-1.45,2.53-.77,5.98,1.42,7.96,5.09,4.41,12.96,1.07,14.16-5.38,1.56-6.26-3.25-12.53-9.51-13.46-9.84-1.73-17.35,7.2-15.99,16.65,1.11,8.94,9.79,14.86,18.45,14.07,11.21-.78,18.65-11.44,16.7-22.11h.02c1.85-2.92,3.05-4.94,3.05-4.94l.76-1.25c6.6-13.05,22.53-18.28,35.59-11.68,6.53,3.3,10.61,9.51,11.46,16.26h0s-.28,.04-.28,.04c-.45,4.66-1.96,9.19-4.76,12.78-5.14,6.51-16.62,9.35-23.09,3.25-.52-.49-.97-1.04-1.36-1.62-3.25-4.93-1.8-12.6,3.66-15.29,3.23-1.69,7.62-1.34,9.97,1.55,3.21,4.09,.02,10.84-5.43,8.39-3.62-2.09-1.68-8.03,2.89-6.87l.25-.5c-2.34-1.89-6.26-.78-7.59,1.99-1.59,2.72-.92,6.73,1.77,8.95,5.82,4.8,14.45,.67,15.34-6.6,1.17-6.75-4.46-12.91-11.13-13.15-9.39-.69-15.12,7.86-13.46,16.49,.35,2.04,1.11,3.96,2.16,5.69,3.27,5.36,9.47,8.9,15.89,8.65,11.49-.36,19.22-13.17,15.5-23.66,1.76-2.78,2.89-4.68,2.89-4.68l.76-1.25c6.6-13.05,22.54-18.28,35.59-11.68,7.04,3.56,11.24,10.51,11.61,17.87-.38,4.66-2.1,9.36-5.27,12.72-5.49,5.98-15.52,6.75-21.29,1.06-4.38-4.34-4.24-12.84,1.31-16.06,4.75-2.88,12.04,.18,11.22,6.3-.27,2.74-2.58,4.99-5.39,4.85-4.51,.06-6.47-6.06-2.38-8.3,.98-.52,2.22-.6,3.38-.2-2.2-1.57-5.59-.56-6.81,1.9-1.45,2.53-.77,5.99,1.42,7.97,5.09,4.4,12.97,1.06,14.16-5.39,1.56-6.26-3.25-12.53-9.51-13.46-9.84-1.73-17.34,7.21-15.99,16.65,1.11,8.94,9.79,14.86,18.45,14.07,11.21-.78,18.65-11.44,16.7-22.11h.02c1.85-2.92,3.05-4.94,3.05-4.94l.76-1.25c6.6-13.05,22.54-18.28,35.59-11.68,7.24,3.66,11.48,10.9,11.63,18.49h0s-.28,0-.28,0c-.77,3.51-1.95,6.65-3.93,9.49-4.72,7-15.02,9.73-22.44,5.57-1.66-1.07-2.86-2.45-3.65-3.98-3.52-6.88,1.32-16.78,10.43-14.98,4.23,.82,6.52,5.7,4.21,9.34-1.2,1.87-4.04,2.47-5.92,1.32-3.5-2.29-1.34-7.91,3.01-6.76l.25-.51c-2.29-1.86-6.12-.85-7.51,1.84-1.63,2.62-1.14,6.54,1.39,8.86,5.48,4.99,14.2,1.41,15.51-5.61,1.15-4.81-1.32-10.04-5.65-12.33-8.59-4.55-18.32,1.14-18.92,10.66-.29,3.01,.3,5.96,1.56,8.59,2.65,5.6,8.28,9.78,14.69,10.13,11.33,.73,20.25-10.85,17.53-21.64h-.28c1.85-2.91,3.05-4.93,3.05-4.93l.76-1.25c6.6-13.05,22.54-18.28,35.59-11.68,7.04,3.56,11.24,10.51,11.61,17.87-.38,4.66-2.09,9.36-5.27,12.72-5.49,5.98-15.51,6.75-21.29,1.06-4.38-4.34-4.24-12.84,1.31-16.06,4.75-2.88,12.05,.18,11.22,6.3-.27,2.74-2.58,4.99-5.39,4.85-4.51,.05-6.47-6.06-2.38-8.3,.98-.52,2.22-.61,3.38-.2-2.2-1.57-5.59-.56-6.81,1.9-1.45,2.53-.77,5.98,1.42,7.96,5.09,4.41,12.97,1.07,14.16-5.38,1.57-6.26-3.25-12.53-9.5-13.46-9.85-1.73-17.35,7.2-15.99,16.65,1.1,8.94,9.78,14.86,18.44,14.07,11.21-.78,18.65-11.44,16.7-22.11h.02c1.85-2.92,3.05-4.94,3.05-4.94l.76-1.25c6.6-13.05,22.54-18.28,35.59-11.68,7.04,3.56,11.24,10.51,11.61,17.87h-.28c-.74,4.1-2.15,7.74-4.59,10.99-5.12,6.83-17.86,9.63-24.01,2.75-.42-.48-.79-1-1.11-1.55-1.93-3.32-1.94-7.74,.07-10.98,2.96-5.25,10.57-6.5,14.11-1.85,1.76,2.45,1.39,6.63-1.34,8.08-2,1.09-4.94,.53-5.86-1.74-1.21-2.85,1.27-5.95,4.46-5.08l.26-.5c-2.31-1.87-6.17-.83-7.54,1.88-1.62,2.65-1.08,6.59,1.49,8.89,3.88,3.52,10.32,2.73,13.44-1.4,3.11-3.98,2.97-9.85-.19-13.7-6.1-7.57-18.99-5.12-21.68,4.18-1.51,4.48-.84,9.07,1.24,12.91,2.88,5.32,8.49,9.2,14.84,9.37,11.45,.35,19.98-11.49,16.97-22.27h-.25c1.84-2.9,3.04-4.92,3.04-4.92l.76-1.25c6.6-13.05,22.54-18.28,35.59-11.68,7.05,3.56,11.24,10.51,11.61,17.87-.38,4.66-2.09,9.36-5.26,12.72-5.49,5.98-15.52,6.75-21.3,1.06-4.37-4.34-4.23-12.84,1.31-16.06,4.75-2.88,12.05,.18,11.23,6.3-.28,2.74-2.59,4.99-5.4,4.85-4.51,.05-6.47-6.06-2.38-8.3,.98-.52,2.23-.61,3.38-.2-2.2-1.57-5.59-.56-6.8,1.9-1.46,2.53-.78,5.98,1.41,7.96,5.1,4.41,12.97,1.07,14.16-5.38,1.57-6.26-3.24-12.53-9.5-13.46-9.85-1.73-17.35,7.2-15.99,16.65,1.1,8.94,9.78,14.86,18.45,14.07,11.2-.78,18.65-11.44,16.69-22.11h.03c1.84-2.92,3.04-4.94,3.04-4.94l.76-1.25c6.61-13.05,22.54-18.28,35.59-11.68,5.23,2.64,8.88,7.14,10.58,12.3l-.27,.09c.52,5.08-.29,9.87-2.4,13.93-3.08,6.08-9.43,9.71-16.16,9.69-3.89-.04-7.01-1.79-8.99-4.32-3.43-4.39-3.46-11.13,1.76-15.41,4.32-3.54,12.37-1.7,12.38,4.54,.18,3.39-3.15,6.19-6.47,4.71-4.04-1.95-2.03-8.28,2.63-7.04l.26-.5c-2.44-1.97-6.54-.6-7.71,2.29-1.54,3.05-.41,7.11,2.48,9.05,4.42,3.19,11.12,1.38,13.54-3.46,2.51-4.54,1.33-10.71-2.73-13.95-8.03-6.44-20.21-1.4-21.01,8.93-.5,4.32,.8,8.28,3.2,11.46,4.16,5.5,11.6,8.61,18.61,7.02,9.98-2.08,15.32-13.61,12.91-22.88,3.63,7.22,11.95,22.99,15.12,22.57Z"/><path class="cls-3" d="M581.66,21.35c2.41,9.27-2.93,20.8-12.91,22.88-7.01,1.59-14.45-1.52-18.61-7.02l1.67-.62c1.98,2.53,5.1,4.28,8.99,4.32,6.73,.02,13.08-3.61,16.16-9.69,2.11-4.06,2.92-8.85,2.4-13.93l.27-.09,.3,.63s.66,1.37,1.72,3.49c0,.01,.01,.02,.01,.03Z"/><path class="cls-2" d="M579.89,17.11c.79,1.32,1.38,2.74,1.76,4.21-1.06-2.12-1.72-3.49-1.72-3.49l-.3-.63,.26-.09Z"/><path class="cls-3" d="M567.95,16.82c4.06,3.24,5.24,9.41,2.73,13.95-2.42,4.84-9.12,6.65-13.54,3.46-2.89-1.94-4.02-6-2.48-9.05,1.17-2.89,5.27-4.26,7.71-2.29l-.26,.5c-4.66-1.24-6.67,5.09-2.63,7.04,3.32,1.48,6.65-1.32,6.47-4.71-.01-6.24-8.06-8.08-12.38-4.54-5.22,4.28-5.19,11.02-1.76,15.41l-1.67,.62c-2.4-3.18-3.7-7.14-3.2-11.46,.8-10.33,12.98-15.37,21.01-8.93Z"/><path class="cls-3" d="M529.63,22.77c1.96,10.67-5.49,21.33-16.69,22.11-8.67,.79-17.35-5.13-18.45-14.07-1.36-9.45,6.14-18.38,15.99-16.65,6.26,.93,11.07,7.2,9.5,13.46-1.19,6.45-9.06,9.79-14.16,5.38-2.19-1.98-2.87-5.43-1.41-7.96,1.21-2.46,4.6-3.47,6.8-1.9-1.15-.41-2.4-.32-3.38,.2-4.09,2.24-2.13,8.35,2.38,8.3,2.81,.14,5.12-2.11,5.4-4.85,.82-6.12-6.48-9.18-11.23-6.3-5.54,3.22-5.68,11.72-1.31,16.06,5.78,5.69,15.81,4.92,21.3-1.06,3.17-3.36,4.88-8.06,5.26-12.72Z"/><path class="cls-3" d="M478.63,22.76h.25c3.01,10.77-5.52,22.61-16.97,22.26-6.35-.17-11.96-4.05-14.84-9.37l1.54-.69c.32,.55,.69,1.07,1.11,1.55,6.15,6.88,18.89,4.08,24.01-2.75,2.44-3.25,3.85-6.89,4.59-10.98h.28s.03-.02,.03-.02Z"/><path class="cls-3" d="M467.51,18.56c3.16,3.85,3.3,9.72,.19,13.7-3.12,4.13-9.56,4.92-13.44,1.4-2.57-2.3-3.11-6.24-1.49-8.89,1.37-2.71,5.23-3.75,7.54-1.88l-.26,.5c-3.19-.87-5.67,2.23-4.46,5.08,.92,2.27,3.86,2.83,5.86,1.74,2.73-1.45,3.1-5.63,1.34-8.08-3.54-4.65-11.15-3.4-14.11,1.85-2.01,3.24-2,7.66-.07,10.98l-1.54,.69c-2.08-3.84-2.75-8.43-1.24-12.91,2.69-9.3,15.58-11.75,21.68-4.18Z"/><path class="cls-3" d="M427.57,22.77c1.95,10.67-5.49,21.33-16.7,22.11-8.66,.79-17.34-5.13-18.44-14.07-1.36-9.45,6.14-18.38,15.99-16.65,6.25,.93,11.07,7.2,9.5,13.46-1.19,6.45-9.07,9.79-14.16,5.38-2.19-1.98-2.87-5.43-1.42-7.96,1.22-2.46,4.61-3.47,6.81-1.9-1.16-.41-2.4-.32-3.38,.2-4.09,2.24-2.13,8.35,2.38,8.3,2.81,.14,5.12-2.11,5.39-4.85,.83-6.12-6.47-9.18-11.22-6.3-5.55,3.22-5.69,11.72-1.31,16.06,5.78,5.69,15.8,4.92,21.29-1.06,3.18-3.36,4.89-8.06,5.27-12.72Z"/><path class="cls-3" d="M376.84,22.76c2.72,10.79-6.2,22.37-17.53,21.64-6.41-.35-12.04-4.53-14.69-10.13l1.64-.42c.79,1.53,1.99,2.91,3.65,3.98,7.42,4.16,17.72,1.43,22.44-5.57,1.98-2.84,3.16-5.98,3.93-9.49h.28s.28,0,.28,0Z"/><path class="cls-3" d="M361.98,15.02c4.33,2.29,6.8,7.52,5.65,12.33-1.31,7.02-10.03,10.6-15.51,5.61-2.53-2.32-3.02-6.24-1.39-8.86,1.39-2.69,5.22-3.7,7.51-1.84l-.25,.51c-4.35-1.15-6.51,4.47-3.01,6.76,1.88,1.15,4.72,.55,5.92-1.32,2.31-3.64,.02-8.52-4.21-9.34-9.11-1.8-13.95,8.1-10.43,14.98l-1.64,.42c-1.26-2.63-1.85-5.58-1.56-8.59,.6-9.52,10.33-15.21,18.92-10.66Z"/><path class="cls-3" d="M325.51,22.14c1.95,10.67-5.49,21.33-16.7,22.11-8.66,.79-17.34-5.13-18.45-14.07-1.35-9.44,6.15-18.38,15.99-16.65,6.26,.93,11.07,7.2,9.51,13.46-1.19,6.45-9.07,9.79-14.16,5.39-2.19-1.98-2.87-5.44-1.42-7.97,1.22-2.46,4.61-3.47,6.81-1.9-1.16-.4-2.4-.32-3.38,.2-4.09,2.24-2.13,8.36,2.38,8.3,2.81,.14,5.12-2.11,5.39-4.85,.82-6.12-6.47-9.18-11.22-6.3-5.55,3.22-5.69,11.72-1.31,16.06,5.77,5.69,15.8,4.92,21.29-1.06,3.17-3.36,4.89-8.06,5.27-12.72Z"/><path class="cls-3" d="M274.66,21.88c3.72,10.49-4.01,23.3-15.5,23.66-6.42,.25-12.62-3.29-15.89-8.65l1.57-.65c.39,.58,.84,1.13,1.36,1.62,6.47,6.1,17.95,3.26,23.09-3.25,2.8-3.59,4.31-8.12,4.76-12.78l.28-.03,.29-.04s.03,.08,.04,.12Z"/><path class="cls-3" d="M254.57,14.71c6.67,.24,12.3,6.4,11.13,13.15-.89,7.27-9.52,11.4-15.34,6.6-2.69-2.22-3.36-6.23-1.77-8.95,1.33-2.77,5.25-3.88,7.59-1.99l-.25,.5c-4.57-1.16-6.51,4.78-2.89,6.87,5.45,2.45,8.64-4.3,5.43-8.39-2.35-2.89-6.74-3.24-9.97-1.55-5.46,2.69-6.91,10.36-3.66,15.29l-1.57,.65c-1.05-1.73-1.81-3.65-2.16-5.69-1.66-8.63,4.07-17.18,13.46-16.49Z"/><path class="cls-3" d="M223.45,23.4c1.95,10.67-5.49,21.33-16.7,22.11-8.66,.79-17.34-5.13-18.45-14.07-1.36-9.45,6.15-18.38,15.99-16.65,6.26,.93,11.07,7.2,9.51,13.46-1.2,6.45-9.07,9.79-14.16,5.38-2.19-1.98-2.87-5.43-1.42-7.96,1.22-2.46,4.61-3.47,6.8-1.9-1.15-.41-2.39-.32-3.37,.2-4.09,2.24-2.13,8.35,2.37,8.3,2.82,.14,5.13-2.12,5.4-4.85,.82-6.13-6.47-9.19-11.22-6.3-5.55,3.22-5.69,11.72-1.31,16.06,5.77,5.69,15.8,4.92,21.29-1.07,3.17-3.35,4.88-8.05,5.27-12.71Z"/><path class="cls-3" d="M172.72,23.39c2.71,10.78-6.2,22.37-17.53,21.64-6.13-.33-11.55-4.18-14.34-9.41l1.6-.58c.78,1.3,1.88,2.47,3.33,3.41,7.43,4.17,17.72,1.44,22.44-5.56,1.99-2.85,3.17-5.99,3.93-9.49h.29s.28-.01,.28-.01Z"/><path class="cls-3" d="M157.86,15.65c4.33,2.29,6.79,7.52,5.65,12.33-1.31,7.02-10.03,10.6-15.51,5.61-2.53-2.32-3.02-6.24-1.4-8.87,1.39-2.68,5.23-3.69,7.52-1.83l-.25,.5c-4.35-1.14-6.52,4.48-3.02,6.77,1.88,1.15,4.73,.55,5.93-1.32,2.31-3.65,0-8.52-4.21-9.35-9.37-1.84-14.22,8.67-10.12,15.55l-1.6,.58c-1.5-2.81-2.24-6.03-1.92-9.31,.61-9.52,10.34-15.21,18.93-10.66Z"/><path class="cls-3" d="M121.38,22.77c.21,1.15,.31,2.3,.31,3.44,0,9.41-7,17.97-17,18.67-1.7,.15-3.39,.05-5.03-.28-6.74-1.36-12.53-6.6-13.42-13.79-1.36-9.45,6.14-18.38,15.99-16.65,6.26,.93,11.07,7.2,9.51,13.46-1.2,6.45-9.07,9.79-14.16,5.38-2.2-1.98-2.87-5.43-1.42-7.96,1.22-2.46,4.61-3.47,6.8-1.9-1.15-.41-2.39-.32-3.37,.2-4.09,2.24-2.13,8.35,2.37,8.3,2.81,.14,5.12-2.11,5.4-4.85,.82-6.12-6.48-9.18-11.23-6.3-5.54,3.22-5.68,11.72-1.3,16.06,5.77,5.69,15.8,4.92,21.29-1.06,3.17-3.36,4.88-8.06,5.26-12.72Z"/><path class="cls-3" d="M70.66,22.75c3.01,10.78-5.52,22.62-16.97,22.27-6.35-.17-11.96-4.05-14.84-9.37l1.54-.69c.32,.55,.69,1.07,1.11,1.55,6.15,6.88,18.89,4.08,24.01-2.75,2.44-3.25,3.85-6.89,4.59-10.98h.28v-.02h.28Z"/><path class="cls-3" d="M59.29,18.56c3.16,3.85,3.3,9.72,.19,13.7-3.12,4.13-9.56,4.92-13.44,1.4-2.57-2.3-3.11-6.24-1.49-8.89,1.37-2.71,5.23-3.75,7.54-1.88l-.26,.5c-1.13-.29-2.25-.09-3.07,.42-1.64,.96-2.03,3.08-1.39,4.66,.92,2.27,3.86,2.83,5.86,1.74,2.73-1.45,3.1-5.63,1.34-8.08-3.54-4.65-11.15-3.4-14.11,1.85-2.01,3.24-2,7.66-.07,10.98l-1.54,.69c-2.08-3.84-2.75-8.43-1.24-12.91,2.69-9.3,15.58-11.75,21.68-4.18Z"/><path class="cls-2" d="M1.5,53.68v.34l-.08-.32s.05-.01,.08-.02Z"/></g><g><path class="cls-4" d="M1.5,43.92c5.09,.55,20.92-26.09,20.92-26.09l.76-1.25C29.78,3.53,45.72-1.7,58.77,4.9c7.04,3.56,11.24,10.5,11.61,17.86"/><path class="cls-4" d="M70.38,22.76c1.84-2.91,3.04-4.93,3.04-4.93l.77-1.25C80.79,3.53,96.72-1.7,109.78,4.9c7.04,3.56,11.24,10.51,11.6,17.87"/><path class="cls-4" d="M121.41,22.77c1.84-2.92,3.04-4.94,3.04-4.94l.77-1.25c6.6-13.05,22.53-18.28,35.59-11.68,7.24,3.66,11.47,10.9,11.63,18.49"/><path class="cls-4" d="M172.44,23.4h0c1.85-2.92,3.04-4.94,3.04-4.94l.77-1.25c6.6-13.05,22.53-18.28,35.59-11.68,7.04,3.56,11.24,10.51,11.61,17.87"/><path class="cls-4" d="M223.47,23.4c1.85-2.92,3.05-4.94,3.05-4.94l.76-1.25c6.6-13.05,22.53-18.28,35.59-11.68,6.53,3.3,10.61,9.51,11.46,16.26"/><path class="cls-4" d="M274.5,22.14c.06-.09,.11-.17,.16-.26,1.76-2.78,2.89-4.68,2.89-4.68l.76-1.25c6.6-13.05,22.54-18.28,35.59-11.68,7.04,3.56,11.24,10.51,11.61,17.87"/><path class="cls-4" d="M325.53,22.14c1.85-2.92,3.05-4.94,3.05-4.94l.76-1.25c6.6-13.05,22.54-18.28,35.59-11.68,7.24,3.66,11.48,10.9,11.63,18.49"/><path class="cls-4" d="M376.56,22.77h0c1.85-2.92,3.05-4.94,3.05-4.94l.76-1.25c6.6-13.05,22.54-18.28,35.59-11.68,7.04,3.56,11.24,10.51,11.61,17.87"/><path class="cls-4" d="M427.59,22.77c1.85-2.92,3.05-4.94,3.05-4.94l.76-1.25c6.6-13.05,22.54-18.28,35.59-11.68,7.04,3.56,11.24,10.51,11.61,17.87"/><path class="cls-4" d="M478.63,22.77h0c1.84-2.92,3.04-4.94,3.04-4.94l.76-1.25c6.6-13.05,22.54-18.28,35.59-11.68,7.05,3.56,11.24,10.51,11.61,17.87"/><polyline class="cls-5" points="1.5 53.68 1.5 53.09 1.5 43.92"/><polyline class="cls-5" points="596.78 50.41 596.78 62.25 1.5 62.25 1.5 54.02"/><line class="cls-5" x1="596.78" y1="43.92" x2="596.78" y2="49.69"/><path class="cls-5" d="M596.78,43.92c-3.17,.42-11.49-15.35-15.12-22.57,0,0-.01-.02-.01-.03-1.06-2.12-1.72-3.49-1.72-3.49l-.3-.63c-1.7-5.16-5.35-9.66-10.58-12.3-13.05-6.6-28.98-1.37-35.59,11.68l-.76,1.25s-1.2,2.02-3.04,4.94"/></g></svg>