0
SECTION
2
HEADER
9
$INSUNITS
70
4
9
$ACADVER
1
AC1014
9
$HANDSEED
5
FFFF
0
ENDSEC
0
SECTION
2
TABLES
0
TABLE
2
VPORT
5
8
100
AcDbSymbolTable
0
ENDTAB
0
TABLE
2
LTYPE
5
5
100
AcDbSymbolTable
0
LTYPE
5
14
100
AcDbSymbolTableRecord
100
AcDbLinetypeTableRecord
2
BYBLOCK
70
0
0
LTYPE
5
15
100
AcDbSymbolTableRecord
100
AcDbLinetypeTableRecord
2
BYLAYER
70
0
0
ENDTAB
0
TABLE
2
LAYER
5
2
100
AcDbSymbolTable
70
2
0
LAYER
5
50
100
AcDbSymbolTableRecord
100
AcDbLayerTableRecord
2
0
70
0
6
CONTINUOUS
0
ENDTAB
0
TABLE
2
STYLE
5
3
100
AcDbSymbolTable
70
1
0
STYLE
5
11
100
AcDbSymbolTableRecord
100
AcDbTextStyleTableRecord
2
STANDARD
70
0
0
ENDTAB
0
TABLE
2
VIEW
5
6
100
AcDbSymbolTable
70
0
0
ENDTAB
0
TABLE
2
UCS
5
7
100
AcDbSymbolTable
70
0
0
ENDTAB
0
TABLE
2
APPID
5
9
100
AcDbSymbolTable
70
2
0
APPID
5
12
100
AcDbSymbolTableRecord
100
AcDbRegAppTableRecord
2
ACAD
70
0
0
ENDTAB
0
TABLE
2
DIMSTYLE
5
A
100
AcDbSymbolTable
70
1
0
ENDTAB
0
TABLE
2
BLOCK_RECORD
5
1
100
AcDbSymbolTable
70
1
0
BLOCK_RECORD
5
1F
100
AcDbSymbolTableRecord
100
AcDbBlockTableRecord
2
*MODEL_SPACE
0
BLOCK_RECORD
5
1B
100
AcDbSymbolTableRecord
100
AcDbBlockTableRecord
2
*PAPER_SPACE
0
ENDTAB
0
ENDSEC
0
SECTION
2
BLOCKS
0
BLOCK
5
20
100
AcDbEntity
100
AcDbBlockBegin
2
*MODEL_SPACE
0
ENDBLK
5
21
100
AcDbEntity
100
AcDbBlockEnd
0
BLOCK
5
1C
100
AcDbEntity
100
AcDbBlockBegin
2
*PAPER_SPACE
0
ENDBLK
5
1D
100
AcDbEntity
100
AcDbBlockEnd
0
ENDSEC
0
SECTION
2
ENTITIES
0
LINE
5
100
100
AcDbEntity
8
0
100
AcDbLine
10
-35.936000451693808
20
115.0883909811113
30
0
11
17.102791286286724
21
110
31
0
0
LINE
5
101
100
AcDbEntity
8
0
100
AcDbLine
10
17.102791286286731
20
105.23449397338503
30
0
11
-34.213942811318866
21
110
31
0
0
LINE
5
102
100
AcDbEntity
8
0
100
AcDbLine
10
-45.01435093031305
20
54.616488533101005
30
0
11
80
21
45
31
0
0
LINE
5
103
100
AcDbEntity
8
0
100
AcDbLine
10
80
20
55
30
0
11
-50
21
45
31
0
0
LINE
5
104
100
AcDbEntity
8
0
100
AcDbLine
10
-40
20
120
30
0
11
-45.030846719189626
21
120
31
0
0
ARC
5
105
100
AcDbEntity
8
0
100
AcDbCircle
10
-35
20
120
30
0
40
10.030846719189626
210
0
220
0
230
1
100
AcDbArc
50
180
51
274.49453410943346
0
ARC
5
106
100
AcDbEntity
8
0
100
AcDbCircle
10
-35
20
120
30
0
40
5
210
0
220
0
230
1
100
AcDbArc
50
-180
51
0.51624355471385786
0
LINE
5
107
100
AcDbEntity
8
0
100
AcDbLine
10
-55.000377754861461
20
55
30
0
11
-60
21
55
31
0
0
ARC
5
108
100
AcDbEntity
8
0
100
AcDbCircle
10
-50
20
55
30
0
40
10
210
0
220
0
230
1
100
AcDbArc
50
180
51
278.79741070999103
0
LINE
5
109
100
AcDbEntity
8
0
100
AcDbLine
10
9.2444637330587321e-32
20
45
30
0
11
-50
21
45
31
0
0
SPLINE
5
110
100
AcDbEntity
8
0
100
AcDbSpline
70
4
71
5
72
26
73
20
74
0
42
0.000000001
43
0.0000000001
44
0.0000000001
40
0
40
0
40
0
40
0
40
0
40
0
40
0.066666666666666666
40
0.13333333333333333
40
0.20000000000000001
40
0.26666666666666666
40
0.33333333333333331
40
0.39999999999999997
40
0.46666666666666662
40
0.53333333333333333
40
0.59999999999999998
40
0.66666666666666663
40
0.73333333333333328
40
0.79999999999999993
40
0.86666666666666659
40
0.93333333333333324
40
1
40
1
40
1
40
1
40
1
40
1
41
1
41
1
41
1
41
1
41
1
41
1
41
1
41
1
41
1
41
1
41
1
41
1
41
1
41
1
41
1
41
1
41
1
41
1
41
1
41
1
10
-3.7228367467767058
20
28.842268248466141
30
0
10
-4.0329902842875711
20
28.36238812788913
30
0
10
-4.6242650376619316
20
27.337342298664957
30
0
10
-5.4240791235894825
20
25.603916745098509
30
0
10
-6.3673998862949146
20
22.973603162781181
30
0
10
-7.6188424561099115
20
19.55485337364372
30
0
10
-9.2693391012995932
20
16.489855757666287
30
0
10
-11.592177234965988
20
14.209135171105435
30
0
10
-14.70962630428083
20
12.958830200025318
30
0
10
-18.471451286710202
20
12.639973986454734
30
0
10
-22.533863379447119
20
12.906342666476815
30
0
10
-26.454845523011912
20
13.283418869786829
30
0
10
-29.783312586695374
20
13.278436516049423
30
0
10
-32.139580240809991
20
12.479385816603974
30
0
10
-33.327811298322828
20
10.691547649089044
30
0
10
-33.344123033319264
20
7.9470992837318128
30
0
10
-32.488522264157233
20
5.0939629812034131
30
0
10
-31.407992675982044
20
2.6541910618704896
30
0
10
-30.500515064289608
20
0.90514770921915066
30
0
10
-30
20
0
30
0
0
LINE
5
111
100
AcDbEntity
8
0
100
AcDbLine
10
-30
20
0
30
0
11
0
21
0
31
0
0
LINE
5
112
100
AcDbEntity
8
0
100
AcDbLine
10
-34.213942811318866
20
110
30
0
11
2.2597578014143566e-31
21
110
31
0
0
ARC
5
113
100
AcDbEntity
8
0
100
AcDbCircle
10
-46.01250743805533
20
101.6037442585004
30
0
40
46.772298972936539
210
0
220
0
230
1
100
AcDbArc
50
271.23782976499336
51
349.65858032513597
0
LINE
5
114
100
AcDbEntity
8
0
100
AcDbLine
10
9.2444637330587321e-32
20
45
30
0
11
-3.7228367467767058
21
28.842268248466141
31
0
0
LINE
5
115
100
AcDbEntity
8
0
100
AcDbLine
10
2.2597578014143566e-31
20
110
30
0
11
8.8817841970012523e-15
21
93.207488517000883
31
0
0
ARC
5
116
100
AcDbEntity
8
0
100
AcDbCircle
10
-50.001242731077546
20
54.921180075774544
30
0
40
4.9997563507112943
210
0
220
0
230
1
100
AcDbArc
50
179.09670876656054
51
359.09670876656054
0
ARC
5
117
100
AcDbEntity
8
0
100
AcDbCircle
10
-30.329306077059421
20
150.37488757616168
30
0
40
30.331622901037029
210
0
220
0
230
1
100
AcDbArc
50
270.6216808755043
51
359.29182744746169
0
LINE
5
118
100
AcDbEntity
8
0
100
AcDbLine
10
60
20
0
30
0
11
30
21
0
31
0
0
ARC
5
119
100
AcDbEntity
8
0
100
AcDbCircle
10
60.329306077059421
20
150.37488757616168
30
0
40
30.331622901037029
210
0
220
0
230
1
100
AcDbArc
50
180.70817255253831
51
269.37831912449576
0
LINE
5
120
100
AcDbEntity
8
0
100
AcDbLine
10
85.000377754861461
20
55
30
0
11
90
21
55
31
0
0
LINE
5
121
100
AcDbEntity
8
0
100
AcDbLine
10
30
20
110.01386407566115
30
0
11
29.999999999999993
21
93.207488517000883
31
0
0
SPLINE
5
122
100
AcDbEntity
8
0
100
AcDbSpline
70
4
71
5
72
26
73
20
74
0
42
0.000000001
43
0.0000000001
44
0.0000000001
40
0
40
0
40
0
40
0
40
0
40
0
40
0.066666666666666666
40
0.13333333333333333
40
0.20000000000000001
40
0.26666666666666666
40
0.33333333333333331
40
0.39999999999999997
40
0.46666666666666662
40
0.53333333333333333
40
0.59999999999999998
40
0.66666666666666663
40
0.73333333333333328
40
0.79999999999999993
40
0.86666666666666659
40
0.93333333333333324
40
1
40
1
40
1
40
1
40
1
40
1
41
1
41
1
41
1
41
1
41
1
41
1
41
1
41
1
41
1
41
1
41
1
41
1
41
1
41
1
41
1
41
1
41
1
41
1
41
1
41
1
10
33.722836746776707
20
28.842268248466141
30
0
10
34.032990284287571
20
28.36238812788913
30
0
10
34.624265037661822
20
27.337342298664957
30
0
10
35.424079123588953
20
25.603916745098509
30
0
10
36.367399886293988
20
22.973603162781181
30
0
10
37.618842456108823
20
19.55485337364372
30
0
10
39.26933910129884
20
16.489855757666287
30
0
10
41.592177234965902
20
14.209135171105435
30
0
10
44.709626304281414
20
12.958830200025318
30
0
10
48.471451286711257
20
12.639973986454734
30
0
10
52.533863379448263
20
12.906342666476815
30
0
10
56.454845523012757
20
13.283418869786829
30
0
10
59.783312586695622
20
13.278436516049423
30
0
10
62.139580240809721
20
12.479385816603974
30
0
10
63.327811298322281
20
10.691547649089044
30
0
10
63.344123033318795
20
7.9470992837318128
30
0
10
62.488522264156998
20
5.0939629812034131
30
0
10
61.407992675982001
20
2.6541910618704896
30
0
10
60.500515064289608
20
0.90514770921915055
30
0
10
60
20
0
30
0
0
LINE
5
123
100
AcDbEntity
8
0
100
AcDbLine
10
30
20
45
30
0
11
80
21
45
31
0
0
LINE
5
124
100
AcDbEntity
8
0
100
AcDbLine
10
64.404832779088181
20
110.01772691321499
30
0
11
30
21
110.01386407566115
31
0
0
LINE
5
125
100
AcDbEntity
8
0
100
AcDbLine
10
70
20
120
30
0
11
75
21
120
31
0
0
ARC
5
126
100
AcDbEntity
8
0
100
AcDbCircle
10
65
20
120
30
0
40
5.0000000000000178
210
0
220
0
230
1
100
AcDbArc
50
-180.51624355471384
51
0
0
ARC
5
127
100
AcDbEntity
8
0
100
AcDbCircle
10
65
20
120
30
0
40
10.000000000000016
210
0
220
0
230
1
100
AcDbArc
50
-93.412073408956658
51
0
0
ARC
5
128
100
AcDbEntity
8
0
100
AcDbCircle
10
80.001242731077554
20
54.921180075774544
30
0
40
4.9997563507112943
210
0
220
0
230
1
100
AcDbArc
50
-179.09670876656054
51
0.90329123343947004
0
ARC
5
129
100
AcDbEntity
8
0
100
AcDbCircle
10
76.012507438055337
20
101.6037442585004
30
0
40
46.772298972936554
210
0
220
0
230
1
100
AcDbArc
50
190.34141967486403
51
268.76217023500669
0
ARC
5
130
100
AcDbEntity
8
0
100
AcDbCircle
10
80
20
55
30
0
40
9.9999999999999982
210
0
220
0
230
1
100
AcDbArc
50
-98.797410709991041
51
0
0
LINE
5
131
100
AcDbEntity
8
0
100
AcDbLine
10
30
20
45
30
0
11
33.722836746776707
21
28.842268248466141
31
0
0
LINE
5
132
100
AcDbEntity
8
0
100
AcDbLine
10
-2.4651903288156619e-31
20
150
30
0
11
-15
21
150
31
0
0
ARC
5
133
100
AcDbEntity
8
0
100
AcDbCircle
10
-34.819015638195523
20
194.81901563819554
30
0
40
49.005484832249707
210
0
220
0
230
1
100
AcDbArc
50
293.85506446380032
51
335.24230673889531
0
LINE
5
134
100
AcDbEntity
8
0
100
AcDbLine
10
15
20
185
30
0
11
15
21
201.20571872015731
31
0
0
LINE
5
135
100
AcDbEntity
8
0
100
AcDbLine
10
15
20
185
30
0
11
19.628041997775092
21
191.36995333291893
31
0
0
LINE
5
136
100
AcDbEntity
8
0
100
AcDbLine
10
15
20
185
30
0
11
31.010695581284793
21
190.2021903447486
31
0
0
LINE
5
137
100
AcDbEntity
8
0
100
AcDbLine
10
15
20
185
30
0
11
22.488329253762057
21
182.56689433357565
31
0
0
LINE
5
138
100
AcDbEntity
8
0
100
AcDbLine
10
15
20
185
30
0
11
24.293700861504618
21
172.20831815995768
31
0
0
LINE
5
139
100
AcDbEntity
8
0
100
AcDbLine
10
15
20
201.20571872015731
30
0
11
19.628041997775092
21
191.36995333291893
31
0
0
LINE
5
140
100
AcDbEntity
8
0
100
AcDbLine
10
19.628041997775092
20
191.36995333291893
30
0
11
31.010695581284793
21
190.2021903447486
31
0
0
LINE
5
141
100
AcDbEntity
8
0
100
AcDbLine
10
31.010695581284793
20
190.2021903447486
30
0
11
22.488329253762057
21
182.56689433357565
31
0
0
LINE
5
142
100
AcDbEntity
8
0
100
AcDbLine
10
22.488329253762057
20
182.56689433357565
30
0
11
24.293700861504618
21
172.20831815995768
31
0
0
LINE
5
143
100
AcDbEntity
8
0
100
AcDbLine
10
24.293700861504618
20
172.20831815995768
30
0
11
14.928801522926571
21
177.12662658236016
31
0
0
ARC
5
144
100
AcDbEntity
8
0
100
AcDbCircle
10
15
20
185
30
0
40
15.811388300841884
210
0
220
-0
230
1
100
AcDbArc
50
89.325757521055877
51
90
0
ARC
5
145
100
AcDbEntity
8
0
100
AcDbCircle
10
15
20
185
30
0
40
15.811388300841916
210
0
220
-0
230
1
100
AcDbArc
50
16.349397567471204
51
19.650602432528629
0
LINE
5
146
100
AcDbEntity
8
0
100
AcDbLine
10
15
20
201.20571872015731
30
0
11
10.371958002224906
21
191.36995333291893
31
0
0
LINE
5
147
100
AcDbEntity
8
0
100
AcDbLine
10
10.371958002224906
20
191.36995333291893
30
0
11
-1.0106955812847929
21
190.2021903447486
31
0
0
LINE
5
148
100
AcDbEntity
8
0
100
AcDbLine
10
-1.0106955812847929
20
190.2021903447486
30
0
11
7.511670746237944
21
182.56689433357565
31
0
0
LINE
5
149
100
AcDbEntity
8
0
100
AcDbLine
10
7.511670746237944
20
182.56689433357565
30
0
11
5.706299138495381
21
172.20831815995768
31
0
0
LINE
5
150
100
AcDbEntity
8
0
100
AcDbLine
10
5.706299138495381
20
172.20831815995768
30
0
11
15.071198477073429
21
177.12662658236016
31
0
0
LINE
5
151
100
AcDbEntity
8
0
100
AcDbLine
10
15
20
185
30
0
11
5.706299138495381
21
172.20831815995768
31
0
0
LINE
5
152
100
AcDbEntity
8
0
100
AcDbLine
10
15
20
185
30
0
11
-1.0106955812847929
21
190.2021903447486
31
0
0
LINE
5
153
100
AcDbEntity
8
0
100
AcDbLine
10
15
20
185
30
0
11
10.371958002224906
21
191.36995333291893
31
0
0
ARC
5
154
100
AcDbEntity
8
0
100
AcDbCircle
10
15
20
185
30
0
40
7.8736953329891506
210
0
220
0
230
1
100
AcDbArc
50
269.48189158109665
51
270.51810841890341
0
LINE
5
155
100
AcDbEntity
8
0
100
AcDbLine
10
15
20
185
30
0
11
7.511670746237944
21
182.56689433357565
31
0
0
ARC
5
156
100
AcDbEntity
8
0
100
AcDbCircle
10
64.819015638195509
20
194.81901563819554
30
0
40
49.005484832249721
210
0
220
0
230
1
100
AcDbArc
50
204.75769326110466
51
246.14493553619968
0
LINE
5
157
100
AcDbEntity
8
0
100
AcDbLine
10
30
20
150
30
0
11
45
21
150
31
0
0
LINE
5
158
100
AcDbEntity
8
0
100
AcDbLine
10
18.000000178813934
20
0
30
0
11
18.000000178813934
21
82.894483897323283
31
0
0
LINE
5
159
100
AcDbEntity
8
0
100
AcDbLine
10
18.000000178813934
20
82.894483897323283
30
0
11
12.000000178813934
21
82.894483897323283
31
0
0
LINE
5
160
100
AcDbEntity
8
0
100
AcDbLine
10
12.000000178813934
20
82.894483897323283
30
0
11
12.000000178813934
21
0
31
0
0
ARC
5
161
100
AcDbEntity
8
0
100
AcDbCircle
10
123.98749256194466
20
101.6037442585004
30
0
40
46.772298972936539
210
0
220
0
230
1
100
AcDbArc
50
271.23782976499325
51
349.65858032513597
0
ARC
5
162
100
AcDbEntity
8
0
100
AcDbCircle
10
246.01250743805534
20
101.6037442585004
30
0
40
46.772298972936539
210
0
220
0
230
1
100
AcDbArc
50
190.34141967486403
51
268.76217023500669
0
ARC
5
163
100
AcDbEntity
8
0
100
AcDbCircle
10
139.67069392294059
20
150.37488757616168
30
0
40
30.331622901037029
210
0
220
0
230
1
100
AcDbArc
50
270.62168087550424
51
359.29182744746169
0
LINE
5
164
100
AcDbEntity
8
0
100
AcDbLine
10
170
20
150
30
0
11
155
21
150
31
0
0
LINE
5
165
100
AcDbEntity
8
0
100
AcDbLine
10
200
20
110.01735374201076
30
0
11
200
21
93.207488517000883
31
0
0
ARC
5
166
100
AcDbEntity
8
0
100
AcDbCircle
10
135
20
120
30
0
40
10.030846719189626
210
0
220
0
230
1
100
AcDbArc
50
180
51
274.4945341094334
0
LINE
5
167
100
AcDbEntity
8
0
100
AcDbLine
10
240
20
120
30
0
11
245
21
120
31
0
0
LINE
5
168
100
AcDbEntity
8
0
100
AcDbLine
10
170
20
45
30
0
11
120
21
45
31
0
0
LINE
5
169
100
AcDbEntity
8
0
100
AcDbLine
10
170
20
0
30
0
11
200
21
0
31
0
0
ARC
5
170
100
AcDbEntity
8
0
100
AcDbCircle
10
135.18098436180449
20
194.81901563819554
30
0
40
49.005484832249707
210
0
220
0
230
1
100
AcDbArc
50
293.85506446380026
51
335.24230673889531
0
LINE
5
171
100
AcDbEntity
8
0
100
AcDbLine
10
140
20
0
30
0
11
170
21
0
31
0
0
ARC
5
172
100
AcDbEntity
8
0
100
AcDbCircle
10
235
20
120
30
0
40
5.0000000000000178
210
0
220
0
230
1
100
AcDbArc
50
-180.51624355471384
51
0
0
LINE
5
173
100
AcDbEntity
8
0
100
AcDbLine
10
200
20
45
30
0
11
203.72283674677672
21
28.842268248466141
31
0
0
LINE
5
174
100
AcDbEntity
8
0
100
AcDbLine
10
188.00000017881393
20
49.769230755475853
30
0
11
188.00000017881393
21
50.230769244524147
31
0
0
LINE
5
175
100
AcDbEntity
8
0
100
AcDbLine
10
200
20
45
30
0
11
250
21
45
31
0
0
SPLINE
5
176
100
AcDbEntity
8
0
100
AcDbSpline
70
4
71
5
72
26
73
20
74
0
42
0.000000001
43
0.0000000001
44
0.0000000001
40
0
40
0
40
0
40
0
40
0
40
0
40
0.066666666666666666
40
0.13333333333333333
40
0.20000000000000001
40
0.26666666666666666
40
0.33333333333333331
40
0.39999999999999997
40
0.46666666666666662
40
0.53333333333333333
40
0.59999999999999998
40
0.66666666666666663
40
0.73333333333333328
40
0.79999999999999993
40
0.86666666666666659
40
0.93333333333333324
40
1
40
1
40
1
40
1
40
1
40
1
41
1
41
1
41
1
41
1
41
1
41
1
41
1
41
1
41
1
41
1
41
1
41
1
41
1
41
1
41
1
41
1
41
1
41
1
41
1
41
1
10
166.27716325322328
20
28.842268248466141
30
0
10
165.96700971571241
20
28.36238812788913
30
0
10
165.37573496233787
20
27.337342298664964
30
0
10
164.57592087641035
20
25.603916745098569
30
0
10
163.63260011370554
20
22.973603162781369
30
0
10
162.38115754389102
20
19.554853373644004
30
0
10
160.73066089870105
20
16.489855757666504
30
0
10
158.40782276503396
20
14.209135171105462
30
0
10
155.29037369571884
20
12.958830200025123
30
0
10
151.52854871328969
20
12.6399739864544
30
0
10
147.46613662055356
20
12.906342666476478
30
0
10
143.54515447698932
20
13.28341886978661
30
0
10
140.21668741330532
20
13.278436516049366
30
0
10
137.8604197591894
20
12.479385816604044
30
0
10
136.67218870167542
20
10.691547649089157
30
0
10
136.65587696667851
20
7.9470992837318875
30
0
10
137.51147773584159
20
5.0939629812034406
30
0
10
138.59200732401771
20
2.6541910618704945
30
0
10
139.4994849357104
20
0.90514770921915044
30
0
10
140
20
0
30
0
0
LINE
5
177
100
AcDbEntity
8
0
100
AcDbLine
10
170
20
45
30
0
11
166.27716325322328
21
28.842268248466141
31
0
0
ARC
5
178
100
AcDbEntity
8
0
100
AcDbCircle
10
234.81901563819551
20
194.81901563819554
30
0
40
49.005484832249707
210
0
220
0
230
1
100
AcDbArc
50
204.75769326110466
51
246.14493553619968
0
LINE
5
179
100
AcDbEntity
8
0
100
AcDbLine
10
250
20
55
30
0
11
120
21
45
31
0
0
LINE
5
180
100
AcDbEntity
8
0
100
AcDbLine
10
124.98564906968696
20
54.616488533101005
30
0
11
250
21
45
31
0
0
LINE
5
181
100
AcDbEntity
8
0
100
AcDbLine
10
182.00000017881393
20
50.230769217014313
30
0
11
182.00000017881393
21
49.769230782985687
31
0
0
ARC
5
182
100
AcDbEntity
8
0
100
AcDbCircle
10
250.00124273107755
20
54.921180075774544
30
0
40
4.9997563507112854
210
0
220
0
230
1
100
AcDbArc
50
-179.09670876656054
51
0.90329123343947004
0
ARC
5
183
100
AcDbEntity
8
0
100
AcDbCircle
10
135
20
120
30
0
40
5
210
0
220
0
230
1
100
AcDbArc
50
-180
51
0.51624355471385786
0
LINE
5
184
100
AcDbEntity
8
0
100
AcDbLine
10
234.40483277908817
20
110.01772691321499
30
0
11
200
21
110.01735374201076
31
0
0
LINE
5
185
100
AcDbEntity
8
0
100
AcDbLine
10
187.10279128628673
20
105.23449397338503
30
0
11
135.78605718868113
21
110
31
0
0
LINE
5
186
100
AcDbEntity
8
0
100
AcDbLine
10
135.78605718868113
20
110
30
0
11
170
21
110
31
0
0
LINE
5
187
100
AcDbEntity
8
0
100
AcDbLine
10
230
20
0
30
0
11
200
21
0
31
0
0
SPLINE
5
188
100
AcDbEntity
8
0
100
AcDbSpline
70
4
71
5
72
26
73
20
74
0
42
0.000000001
43
0.0000000001
44
0.0000000001
40
0
40
0
40
0
40
0
40
0
40
0
40
0.066666666666666666
40
0.13333333333333333
40
0.20000000000000001
40
0.26666666666666666
40
0.33333333333333331
40
0.39999999999999997
40
0.46666666666666662
40
0.53333333333333333
40
0.59999999999999998
40
0.66666666666666663
40
0.73333333333333328
40
0.79999999999999993
40
0.86666666666666659
40
0.93333333333333324
40
1
40
1
40
1
40
1
40
1
40
1
41
1
41
1
41
1
41
1
41
1
41
1
41
1
41
1
41
1
41
1
41
1
41
1
41
1
41
1
41
1
41
1
41
1
41
1
41
1
41
1
10
203.72283674677672
20
28.842268248466141
30
0
10
204.03299028428759
20
28.36238812788913
30
0
10
204.6242650376617
20
27.337342298664971
30
0
10
205.42407912358851
20
25.603916745098552
30
0
10
206.36739988629355
20
22.973603162781306
30
0
10
207.61884245610869
20
19.554853373643887
30
0
10
209.26933910129887
20
16.489855757666408
30
0
10
211.5921772349659
20
14.209135171105451
30
0
10
214.70962630428144
20
12.958830200025204
30
0
10
218.47145128671158
20
12.639973986454551
30
0
10
222.53386337944909
20
12.90634266647664
30
0
10
226.45484552301372
20
13.283418869786722
30
0
10
229.78331258669587
20
13.278436516049394
30
0
10
232.13958024080938
20
12.479385816604008
30
0
10
233.32781129832154
20
10.691547649089095
30
0
10
233.34412303331766
20
7.9470992837318422
30
0
10
232.48852226415639
20
5.0939629812034095
30
0
10
231.40799267598197
20
2.654191061870486
30
0
10
230.5005150642896
20
0.90514770921915022
30
0
10
230
20
0
30
0
0
ARC
5
189
100
AcDbEntity
8
0
100
AcDbCircle
10
250
20
55
30
0
40
10
210
0
220
0
230
1
100
AcDbArc
50
-90
51
0
0
ARC
5
190
100
AcDbEntity
8
0
100
AcDbCircle
10
230.32930607705941
20
150.37488757616168
30
0
40
30.331622901037036
210
0
220
0
230
1
100
AcDbArc
50
180.70817255253831
51
269.37831912449576
0
LINE
5
191
100
AcDbEntity
8
0
100
AcDbLine
10
200
20
150
30
0
11
215
21
150
31
0
0
LINE
5
192
100
AcDbEntity
8
0
100
AcDbLine
10
182.00000017881393
20
0
30
0
11
188.00000017881393
21
0
31
0
0
LINE
5
193
100
AcDbEntity
8
0
100
AcDbLine
10
170
20
110
30
0
11
170
21
93.207488517000883
31
0
0
LINE
5
194
100
AcDbEntity
8
0
100
AcDbLine
10
130
20
120
30
0
11
124.96915328081037
21
120
31
0
0
LINE
5
195
100
AcDbEntity
8
0
100
AcDbLine
10
134.06399954830619
20
115.0883909811113
30
0
11
187.10279128628673
21
110
31
0
0
LINE
5
196
100
AcDbEntity
8
0
100
AcDbLine
10
188.00000017881393
20
82.894483897323283
30
0
11
182.00000017881393
21
82.894483897323283
31
0
0
LINE
5
197
100
AcDbEntity
8
0
100
AcDbLine
10
255.00037775486146
20
55
30
0
11
260
21
55
31
0
0
ARC
5
198
100
AcDbEntity
8
0
100
AcDbCircle
10
235
20
120
30
0
40
10.000000000000016
210
0
220
0
230
1
100
AcDbArc
50
-93.412073408956715
51
0
0
ARC
5
199
100
AcDbEntity
8
0
100
AcDbCircle
10
120
20
55
30
0
40
10
210
0
220
0
230
1
100
AcDbArc
50
180
51
278.79741070999103
0
ARC
5
200
100
AcDbEntity
8
0
100
AcDbCircle
10
119.99875726892245
20
54.921180075774544
30
0
40
4.9997563507112854
210
0
220
0
230
1
100
AcDbArc
50
179.09670876656054
51
359.09670876656054
0
LINE
5
201
100
AcDbEntity
8
0
100
AcDbLine
10
114.99962224513854
20
55
30
0
11
110
21
55
31
0
0
LINE
5
202
100
AcDbEntity
8
0
100
AcDbLine
10
182.00000017881393
20
82.894483897323283
30
0
11
188.00000017881393
21
82.894483897323283
31
0
0
LINE
5
203
100
AcDbEntity
8
0
100
AcDbLine
10
188.00000017881393
20
82.894483897323283
30
0
11
188.00000017881393
21
175.51367788211121
31
0
0
LINE
5
204
100
AcDbEntity
8
0
100
AcDbLine
10
182.00000017881393
20
175.51367806993213
30
0
11
182.00000017881393
21
82.894483897323283
31
0
0
LINE
5
205
100
AcDbEntity
8
0
100
AcDbLine
10
179.682225667854
20
174.29641673199927
30
0
11
182.00000017881393
21
175.51367806993213
31
0
0
LINE
5
206
100
AcDbEntity
8
0
100
AcDbLine
10
190.317774332146
20
174.29641673199927
30
0
11
188.00000017881393
21
175.51367788211121
31
0
0
LINE
5
207
100
AcDbEntity
8
0
100
AcDbLine
10
0
20
0
30
0
11
12.000000178813934
21
0
31
0
0
LINE
5
208
100
AcDbEntity
8
0
100
AcDbLine
10
18.000000178813934
20
0
30
0
11
30
21
0
31
0
0
ENDSEC
0
SECTION
2
OBJECTS
0
DICTIONARY
5
C
100
AcDbDictionary
3
ACAD_GROUP
350
D
3
ACAD_MLINESTYLE
350
17
0
DICTIONARY
5
D
100
AcDbDictionary
0
DICTIONARY
5
1A
330
C
100
AcDbDictionary
0
DICTIONARY
5
17
100
AcDbDictionary
0
ENDSEC
0
EOF
